<svg xmlns="http://www.w3.org/2000/svg" viewBox="0 0 284.97 150.16"><defs><style>.cls-1{fill:#501921;}.cls-2{fill:#fffdeb;}.cls-3{fill:#e5e4e1;}.cls-4{fill:#07722b;}.cls-5{fill:#02511c;}.cls-6{fill:#00822e;}</style></defs><g id="Layer_2" data-name="Layer 2"><g id="Tamal"><ellipse class="cls-1" cx="142.48" cy="108.77" rx="142.48" ry="41.39"/><ellipse class="cls-2" cx="142.48" cy="107.02" rx="142.48" ry="39.65"/><ellipse class="cls-3" cx="142.48" cy="107.02" rx="101.11" ry="28.14"/><path class="cls-4" d="M190.52,5.48l6.9,2.92-3.67,2.73s5.35,6.78,8.2,6.93c0,0-9.36,14.79-8.51,16.74l7.48,3s19.44-6.52,23.05-2.46,3.76,8.93.6,10.64,14,7.81,13.47,15.68,7,39.25-.31,45.33-31.4,23-53.35,16.6-54.83-12.85-59-26.46-17.65-29.76-9.77-34.51,22.28-6.26,24.6-14.08,6.37-12.38,13.89-10.08c0,0,5,5.51,1.75-6.12S149.33,11,155.24,7.52,169.48,0,169.48,0l11.78.61-3.92,4.24,8.92-4Z"/><path class="cls-5" d="M197.71,36.53l3.21,1.3s19.44-6.52,23.05-2.46,3.76,8.93.6,10.64c-.6.33-.45.82.17,1.45l-22.4,1.86-8-7.44Z"/><path class="cls-5" d="M140.22,48.57c2.32-7.82,6.37-12.38,13.89-10.08,0,0,3.79,4.2,2.6-2.48L162,40.2s-18.36,15.88-22.19,16c-1.31,0-2.41-1.18-3.3-2.8A9.37,9.37,0,0,0,140.22,48.57Z"/><path class="cls-5" d="M194.31,42.49s-3.36,24.9-1.66,32.09,7.88,26.76,9.83,30.12.9,17-6.94,15c0,0-5.32-5.11-9.13-.35,0,0,.22-5.27,8.37-3.06s1.61-6.45.47-9-7.65-34.1-6.16-39.44S194.31,42.49,194.31,42.49Z"/><path class="cls-5" d="M198.48,43.92l-1,5.8s4.41-1.3,7.88.41,2.77,5.62,2.77,5.62S218.91,59.24,222.37,66s13.2,21.59,13.2,21.59l-12.93-26.7-11.41-6.8-4.7-5.73-8.26-.43Z"/><path class="cls-5" d="M167.22,43.39s-3.11,4.81-3.59,14,5,31.49-.41,35.49l-1.59-31.42s-5.6,3.77-6.9,6.12S163.34,44.55,167.22,43.39Z"/><path class="cls-5" d="M155.83,44.26s-18.24,18.19-21.74,30.42a142.54,142.54,0,0,1-8.7,22.48l6.53-19.89A78.31,78.31,0,0,1,155.83,44.26Z"/><polygon class="cls-5" points="190.29 42.28 185.43 42.02 189.62 8.24 190.29 42.28"/><polygon class="cls-5" points="170.24 43.55 164.42 43.25 163.54 10.66 170.24 43.55"/><path class="cls-2" d="M154.08,42.8c1.6,2.77,4.61,4,7.66,4.39,3.78.48,7.75-.13,11.53-.38L185.61,46c2-.13,4-.26,6.07-.41A16.13,16.13,0,0,0,197,44.5c2.43-1.06,4.46-3.46,4-6.16a23.85,23.85,0,0,0,1.74,2.16c2.77,2.88,6.54,4.38,10.17,5.84,8.19,3.3,16.84,6,25.78,5.15.57-.05,1.27-.48,1.08-1.14s-1.11-.86-1.7-.81A41.51,41.51,0,0,1,222,47.48a47.85,47.85,0,0,0,15.93.09c1.85-.3.92-2.2-.63-2A43.92,43.92,0,0,1,213.41,43c-3.67-1.52-7.42-3.42-10-6.55a13,13,0,0,0-3.81-3.62,13.13,13.13,0,0,0-3.6-1.19l-.25-.05-.36-.06a11.43,11.43,0,0,0-7.6-.24c-2.08.54-4.09,1.25-6.22,1.61a47.89,47.89,0,0,1-6.32.58c-3.92.12-7.85-.09-11.77,0a19.47,19.47,0,0,0-6.39.82,1.45,1.45,0,0,0-1.56.78,5.31,5.31,0,0,0-.68.49C152.67,37.4,152.71,40.44,154.08,42.8Zm4.85-2.9a1.73,1.73,0,0,1-1.1-.62v0c2.05.41,4.45,0,6.52-.07,2.89-.13,5.77-.31,8.65-.51l1.49,0a64.91,64.91,0,0,0,11.22-.82c.66-.11,1.33-.25,2-.39l4.43-.39.77-.08a7.53,7.53,0,0,1-.27,1.43c-.05.14-.1.26-.16.39a27.44,27.44,0,0,1-3.51,0q-6,0-12,.15t-12.13.62C162.93,39.74,160.77,40.24,158.93,39.9Zm6,1.69q3.39-.24,6.76-.41,6.81-.33,13.62-.37c1.75,0,3.5,0,5.25,0a5.17,5.17,0,0,1-1.59.46c-4.24.57-8.66.55-12.94.72-4.44.17-8.9.32-13.35.29A7.64,7.64,0,0,1,160.1,42C161.71,42,163.36,41.71,164.93,41.59ZM191,32.71c-1.57,1.73-4.86,2.19-6.93,2.52a47.6,47.6,0,0,1-8.69.45c-2.38-.06-4.76-.19-7.15-.28h.42c3.14,0,6.28.09,9.42-.12a42,42,0,0,0,9.36-1.75A20.48,20.48,0,0,1,191,32.71ZM198.55,37a3.8,3.8,0,0,0,0-1.61c.46.47.9,1,1.33,1.51A2.17,2.17,0,0,0,198.55,37ZM157.2,42.83a6.3,6.3,0,0,0,.85.57c1.72.91,3.73.87,5.62.85,2.17,0,4.33,0,6.5-.1q6.51-.16,13-.5c2-.11,4-.17,6-.38a7.89,7.89,0,0,0,4.64-1.78,4.91,4.91,0,0,0,.88-1.07,6.43,6.43,0,0,0,2.45-1.26,4.08,4.08,0,0,0,.89-1A3.89,3.89,0,0,1,196.65,42a8.26,8.26,0,0,1-4.58,1.5c-3.69.37-7.42.51-11.12.76l-10.44.7c-3,.21-6.24.71-9.24.12A7,7,0,0,1,157.2,42.83Z"/><path class="cls-6" d="M103.25,12.09l-7.38,2.68,3.69,3.06s-6,6.81-9,6.81c0,0,9,16,8,18l-8,2.77s-20-7.9-24-3.83-4.43,9.15-1.21,11.1-15.13,7.43-15,15.69-9.47,40.74-2.15,47.5,31.64,25.81,55,20.29,58.13-10.48,63.23-24.5S186.59,81.45,178.59,76s-23-7.76-25-16.08-6-13.32-14-11.32c0,0-5.5,5.5-1.5-6.5s8-22,2-26-14.5-8.65-14.5-8.65H113.21l3.88,4.65L108,7.49Z"/><path class="cls-5" d="M94,44.22l-3.44,1.19s-20-7.9-24-3.83-4.43,9.15-1.21,11.1c.61.38.43.89-.26,1.52l23.36,3.16L97.26,50Z"/><path class="cls-5" d="M153.59,60c-2-8.32-6-13.32-14-11.32,0,0-4.19,4.19-2.59-2.74L131.23,50s18.36,17.64,22.36,18c1.37.1,2.6-1.11,3.61-2.75A9.85,9.85,0,0,1,153.59,60Z"/><path class="cls-5" d="M97.26,50.64s2.17,26.27,0,33.7-9.71,27.61-11.94,31-1.87,17.76,6.45,16.09c0,0,5.85-5.06,9.59.13,0,0,.06-5.53-8.61-3.67s-1.33-6.83,0-9.48,9.87-35.31,8.61-41S97.26,50.64,97.26,50.64Z"/><path class="cls-5" d="M92.82,51.92,93.59,58s-4.54-1.59-8.27,0-3.21,5.75-3.21,5.75-11.52,3.06-15.52,10-15,21.89-15,21.89l15-27.27,12.32-6.5,5.24-5.74h8.67Z"/><path class="cls-5" d="M125.59,53.07s3,5.2,3,14.89-7,32.7-1.5,37.19l3.37-32.83s5.66,4.26,6.9,6.79S129.59,54.49,125.59,53.07Z"/><path class="cls-5" d="M137.47,54.6s18.12,20,21.12,33a149.44,149.44,0,0,0,7.89,24l-5.76-21.19A82.12,82.12,0,0,0,137.47,54.6Z"/><polygon class="cls-5" points="101.48 50.64 106.59 50.64 104.04 15.02 101.48 50.64"/><polygon class="cls-5" points="122.42 53.07 128.54 53.07 131.23 18.98 122.42 53.07"/><path class="cls-2" d="M139,45.49a5.94,5.94,0,0,0-.69-.55,1.53,1.53,0,0,0-1.59-.91,20.94,20.94,0,0,0-6.65-1.2c-4.1-.29-8.23-.28-12.33-.62a50.14,50.14,0,0,1-6.58-1c-2.22-.49-4.28-1.34-6.43-2-2.56-.81-5.52-1.16-8-.15l-.38,0-.26,0a13.43,13.43,0,0,0-3.84,1.05A13.57,13.57,0,0,0,88,43.79c-2.84,3.14-6.88,4.93-10.81,6.32a46.2,46.2,0,0,1-25.15,1.48c-1.62-.35-2.69,1.59-.77,2A50.08,50.08,0,0,0,68,54.37a43.56,43.56,0,0,1-17,1.28c-.62-.09-1.6.06-1.83.76s.48,1.16,1.07,1.25c9.32,1.35,18.52-1,27.29-4,3.88-1.33,7.91-2.7,11-5.56a25.32,25.32,0,0,0,1.95-2.18c-.6,2.81,1.41,5.44,3.89,6.67A16.93,16.93,0,0,0,99.85,54l6.34.76,12.88,1.54c3.94.47,8.07,1.31,12.05,1,3.22-.24,6.44-1.37,8.27-4.18C141,50.76,141.16,47.58,139,45.49Zm-10.6,3.75q-6.32-.78-12.67-1.31t-12.61-.81a31,31,0,0,1-3.68-.2c-.05-.14-.1-.28-.14-.43a8.34,8.34,0,0,1-.21-1.5l.8.11,4.62.66c.69.18,1.37.36,2.07.52a68.81,68.81,0,0,0,11.71,1.47l1.55,0q4.52.56,9,1c2.16.21,4.65.75,6.82.42v0a1.8,1.8,0,0,1-1.19.58C132.52,50.11,130.29,49.47,128.36,49.24Zm4.77,2.7a8.34,8.34,0,0,1-2.72.22c-4.66-.22-9.33-.62-14-1-4.48-.4-9.1-.63-13.52-1.46a5.57,5.57,0,0,1-1.64-.56c1.83.11,3.67.17,5.5.27q7.14.41,14.25,1.14c2.35.24,4.7.5,7.05.8C129.73,51.51,131.44,51.87,133.13,51.94ZM104.94,41.65A44.37,44.37,0,0,0,114.65,44c3.27.39,6.57.51,9.86.64h.43c-2.5,0-5,0-7.5-.1a49.51,49.51,0,0,1-9.08-.94c-2.15-.46-5.56-1.13-7.11-3A20.83,20.83,0,0,1,104.94,41.65ZM91.75,44.46A19.12,19.12,0,0,1,93.22,43a4,4,0,0,0-.09,1.68A2.28,2.28,0,0,0,91.75,44.46Zm40,10.74c-3.17.45-6.52-.25-9.67-.63l-10.9-1.3c-3.86-.46-7.76-.82-11.6-1.41A8.62,8.62,0,0,1,94.84,50a4.07,4.07,0,0,1-1.29-4.18A4.6,4.6,0,0,0,94.43,47a6.82,6.82,0,0,0,2.49,1.45,5.73,5.73,0,0,0,.87,1.17,8.24,8.24,0,0,0,4.76,2.12c2.09.33,4.2.5,6.3.72q6.8.72,13.61,1.23c2.27.17,4.53.33,6.8.47,2,.12,4.09.27,5.94-.59a7.58,7.58,0,0,0,.91-.55A7.32,7.32,0,0,1,131.73,55.2Z"/></g></g></svg>