<svg xmlns="http://www.w3.org/2000/svg" xmlns:xlink="http://www.w3.org/1999/xlink" viewBox="0 0 419.72 146"><defs><style>.cls-1{fill:none;}.cls-2{fill:#d97b45;}.cls-3{fill:#ff985d;}.cls-4{fill:#fde492;}.cls-5{fill:#fece6c;}.cls-6{fill:#ffb41d;}.cls-7{fill:#e2b461;}.cls-8{fill:#501921;}.cls-9{fill:#fffdeb;}.cls-10{fill:#e5e4e1;}.cls-11{fill:#fbf9d0;}.cls-12{fill:#fff;}.cls-13{fill:#ecd6a7;}.cls-14{fill:#f73;}.cls-15{fill:url(#New_Pattern_Swatch_4);}.cls-16{fill:url(#New_Pattern_Swatch_4-3);}</style><pattern id="New_Pattern_Swatch_4" data-name="New Pattern Swatch 4" width="288" height="288" patternTransform="translate(-3.39 33.76) scale(0.55)" patternUnits="userSpaceOnUse" viewBox="0 0 288 288"><rect class="cls-1" width="288" height="288"/><rect class="cls-2" width="288" height="288"/><path class="cls-3" d="M127.69,245.55h0a1,1,0,0,1-1-1l.37-13.09a1,1,0,0,1,1-1,1,1,0,0,1,1,1l-.37,13.08A1,1,0,0,1,127.69,245.55Z"/><path class="cls-3" d="M96,138.4a1,1,0,0,1-1-.79l-1-4.42a1,1,0,0,1,2-.43l1,4.43a1,1,0,0,1-.76,1.19Z"/><path class="cls-3" d="M60.93,258.13a1,1,0,0,1-.94-.67l-1.52-4.26a1,1,0,0,1,1.89-.67l1.51,4.26a1,1,0,0,1-.6,1.28A1,1,0,0,1,60.93,258.13Z"/><path class="cls-3" d="M179.14,193.81a1.12,1.12,0,0,1-.31-.05l-8-2.64a1,1,0,0,1,.62-1.9l8,2.64a1,1,0,0,1,.63,1.26A1,1,0,0,1,179.14,193.81Z"/><path class="cls-3" d="M250.63,163.38a1,1,0,0,1-.58-.18l-3.56-2.54a1,1,0,0,1,1.16-1.63l3.56,2.54a1,1,0,0,1-.58,1.81Z"/><path class="cls-3" d="M280.19,125.32a1,1,0,0,1-.92-.6l-1.56-3.59a1,1,0,0,1,1.83-.8l1.57,3.59a1,1,0,0,1-.52,1.32A1,1,0,0,1,280.19,125.32Z"/><path class="cls-3" d="M209.14,13.36a1,1,0,0,1-.52-.15l-5.09-3.15a1,1,0,1,1,1.05-1.7l5.09,3.15a1,1,0,0,1,.33,1.38A1,1,0,0,1,209.14,13.36Z"/><path class="cls-3" d="M151.64,147.5a1,1,0,0,1-.45-1.9l3.79-1.89a1,1,0,0,1,1.34.45,1,1,0,0,1-.45,1.34l-3.79,1.89A1,1,0,0,1,151.64,147.5Z"/><path class="cls-3" d="M43.1,157.37a1,1,0,0,1-.52-.15,1,1,0,0,1-.34-1.38l5.35-8.74a1,1,0,0,1,1.37-.33,1,1,0,0,1,.33,1.38L44,156.89A1,1,0,0,1,43.1,157.37Z"/><path class="cls-3" d="M44.46,13.39a1,1,0,0,1-.07-2l15-1.07a1,1,0,0,1,.14,2l-15,1.07Z"/><path class="cls-3" d="M257.74,115.78a1,1,0,0,1-.83-.44l-2.47-3.67a1,1,0,0,1,1.66-1.12l2.47,3.67a1,1,0,0,1-.27,1.39A1,1,0,0,1,257.74,115.78Z"/><path class="cls-3" d="M116.42,125.62a1,1,0,0,1-.73-.31,1,1,0,0,1,0-1.42l1.91-1.79a1,1,0,0,1,1.37,1.45l-1.91,1.8A1,1,0,0,1,116.42,125.62Z"/><path class="cls-3" d="M256,68.67l-.24,0a1,1,0,0,1-.73-1.21l.79-3.29a1,1,0,1,1,1.94.47L257,67.91A1,1,0,0,1,256,68.67Z"/><path class="cls-3" d="M72.84,191a1,1,0,0,1-.5-.14l-2.64-1.51a1,1,0,0,1-.38-1.36,1,1,0,0,1,1.37-.38l2.64,1.52a1,1,0,0,1-.49,1.87Z"/><path class="cls-3" d="M267.22,132.36h-.12l-2.65-.32a1,1,0,1,1,.25-2l2.65.33a1,1,0,0,1,.87,1.11A1,1,0,0,1,267.22,132.36Z"/><path class="cls-3" d="M228,148.37a1,1,0,0,1-.56-.17l-8-5.39a1,1,0,1,1,1.11-1.66l8.05,5.39a1,1,0,0,1,.27,1.39A1,1,0,0,1,228,148.37Z"/><path class="cls-3" d="M134.32,14.86a1,1,0,0,1-.46-1.89l6.7-3.47a1,1,0,1,1,.92,1.78l-6.7,3.47A1.11,1.11,0,0,1,134.32,14.86Z"/><path class="cls-3" d="M196.79,111.3a1,1,0,0,1-.38-.07l-5.66-2.36a1,1,0,1,1,.77-1.84l5.65,2.35a1,1,0,0,1-.38,1.92Z"/><path class="cls-3" d="M118.81,23.05a1,1,0,0,1-.89-.54l-5.8-11.1a1,1,0,1,1,1.77-.93l5.81,11.1a1,1,0,0,1-.43,1.35A.93.93,0,0,1,118.81,23.05Z"/><path class="cls-3" d="M134.36,138.15a1,1,0,0,1-1-1l-.16-3.67a1,1,0,0,1,1-1,1,1,0,0,1,1,.95l.16,3.67a1,1,0,0,1-1,1Z"/><path class="cls-3" d="M225,15.06a1.07,1.07,0,0,1-.48-.12,1,1,0,0,1-.39-1.36L226,10.1a1,1,0,0,1,1.35-.39,1,1,0,0,1,.4,1.36l-1.92,3.47A1,1,0,0,1,225,15.06Z"/><path class="cls-3" d="M253,256.76a1,1,0,0,1-1-.86l-1-7.59a1,1,0,0,1,.86-1.13A1,1,0,0,1,253,248l1,7.59a1,1,0,0,1-.85,1.12Z"/><path class="cls-3" d="M211.82,224.93a1,1,0,0,1-1-.75l-1.08-4.24a1,1,0,0,1,1.94-.49l1.08,4.23a1,1,0,0,1-.72,1.22A1.07,1.07,0,0,1,211.82,224.93Z"/><path class="cls-3" d="M82.39,239.71a1,1,0,0,1-.59-.2,1,1,0,0,1-.22-1.39l9-12.26A1,1,0,1,1,92.14,227L83.2,239.3A1,1,0,0,1,82.39,239.71Z"/><path class="cls-3" d="M244.45,20.57l-.17,0a1,1,0,0,1-.82-1.15l1.35-7.82a1,1,0,1,1,2,.34l-1.35,7.82A1,1,0,0,1,244.45,20.57Z"/><path class="cls-3" d="M254.18,43.62a1,1,0,0,1-1-.82l-.83-4.59a1,1,0,1,1,2-.35l.83,4.59a1,1,0,0,1-.81,1.16Z"/><path class="cls-3" d="M81.71,267.16a1,1,0,0,1-1-.85L78.65,253a1,1,0,0,1,2-.31L82.7,266a1,1,0,0,1-.83,1.15Z"/><path class="cls-3" d="M11.21,213.84a1.07,1.07,0,0,1-.49-.12,1,1,0,0,1-.39-1.36l1.76-3.18a1,1,0,0,1,1.35-.39,1,1,0,0,1,.4,1.36l-1.76,3.17A1,1,0,0,1,11.21,213.84Z"/><path class="cls-3" d="M270.37,81.79a1,1,0,0,1-.19-2l8.16-1.59a1,1,0,1,1,.39,2l-8.16,1.59Z"/><path class="cls-3" d="M278,217.56a1,1,0,0,1-1-.84l-1.39-8.47a1,1,0,0,1,2-.32L279,216.4a1,1,0,0,1-.82,1.15Z"/><path class="cls-3" d="M170,108.31a1,1,0,0,1-.82-.43,1,1,0,0,1,.24-1.39l2.51-1.75a1,1,0,0,1,1.4.25,1,1,0,0,1-.25,1.39l-2.51,1.75A1,1,0,0,1,170,108.31Z"/><path class="cls-3" d="M149.33,34.37a1,1,0,0,1-.88-.51l-1.54-2.75a1,1,0,0,1,1.75-1l1.54,2.75a1,1,0,0,1-.87,1.49Z"/><path class="cls-3" d="M99.4,114.06a1,1,0,0,1-.53-.15,1,1,0,0,1-.32-1.38l4.32-7a1,1,0,0,1,1.38-.32,1,1,0,0,1,.33,1.37l-4.33,7A1,1,0,0,1,99.4,114.06Z"/><path class="cls-3" d="M229.65,258.69a1,1,0,0,1-.21-2l4-.89a1,1,0,0,1,.43,1.95l-4,.89Z"/><path class="cls-3" d="M116.87,147.27a.94.94,0,0,1-.53-.16l-3.7-2.35a1,1,0,0,1,1.08-1.68l3.69,2.35a1,1,0,0,1-.54,1.84Z"/><path class="cls-3" d="M137.46,212.55a1,1,0,0,1-.27-2l9.59-2.63a1,1,0,0,1,.53,1.93l-9.59,2.63A.82.82,0,0,1,137.46,212.55Z"/><path class="cls-3" d="M13.77,120.55a1,1,0,0,1-.29,0l-2.89-.88a1,1,0,1,1,.58-1.91l2.89.88a1,1,0,0,1-.29,2Z"/><path class="cls-3" d="M136.8,168.91a1,1,0,0,1-.92-.62l-3.5-8.46a1,1,0,0,1,.55-1.3,1,1,0,0,1,1.3.54l3.5,8.46a1,1,0,0,1-.54,1.3A1.09,1.09,0,0,1,136.8,168.91Z"/><path class="cls-3" d="M278.09,188.93a.89.89,0,0,1-.36-.07l-13.46-5.21a1,1,0,1,1,.72-1.86L278.45,187a1,1,0,0,1,.57,1.29A1,1,0,0,1,278.09,188.93Z"/><path class="cls-3" d="M234.64,114.23a1,1,0,0,1-.87-.49,1,1,0,0,1,.37-1.37l2.29-1.34a1,1,0,0,1,1.37.37,1,1,0,0,1-.36,1.36l-2.3,1.34A1,1,0,0,1,234.64,114.23Z"/><path class="cls-3" d="M209.72,34.46a1,1,0,0,1-.86-.48l-3.29-5.44a1,1,0,1,1,1.71-1L210.57,33a1,1,0,0,1-.33,1.37A1,1,0,0,1,209.72,34.46Z"/><path class="cls-3" d="M9.87,161.61H9.76a1,1,0,0,1-.88-1.1l.3-2.87a1,1,0,0,1,2,.21l-.31,2.87A1,1,0,0,1,9.87,161.61Z"/><path class="cls-3" d="M269.64,237.11a1,1,0,0,1-1-.87,1,1,0,0,1,.86-1.12l7.93-1.05a1,1,0,0,1,1.12.86,1,1,0,0,1-.86,1.12l-7.93,1Z"/><path class="cls-3" d="M77.43,146.18a1,1,0,0,1-.54-.17l-8.36-5.43a1,1,0,0,1,1.1-1.68L78,144.34a1,1,0,0,1,.29,1.38A1,1,0,0,1,77.43,146.18Z"/><path class="cls-3" d="M36.83,83.76a1.21,1.21,0,0,1-.37-.07l-9.68-3.86A1,1,0,0,1,27.52,78l9.68,3.86a1,1,0,0,1-.37,1.93Z"/><path class="cls-3" d="M12.08,100.71h-.14a1,1,0,0,1-.85-1.14l.55-3.74a1,1,0,1,1,2,.29l-.55,3.74A1,1,0,0,1,12.08,100.71Z"/><path class="cls-3" d="M64.55,278.08a.82.82,0,0,1-.26,0l-5.59-1.53a1,1,0,0,1-.7-1.23,1,1,0,0,1,1.23-.7l5.59,1.53a1,1,0,0,1-.27,2Z"/><path class="cls-3" d="M278.23,278.73a1,1,0,0,1-.88-.52l-1.49-2.77a1,1,0,1,1,1.76-.95l1.49,2.77a1,1,0,0,1-.88,1.47Z"/><path class="cls-3" d="M184,157.08a1,1,0,0,1-.67-.26l-7.51-6.9a1,1,0,0,1,1.35-1.47l7.51,6.9a1,1,0,0,1,.06,1.41A1,1,0,0,1,184,157.08Z"/><path class="cls-3" d="M78,214h-.15a1,1,0,0,1-.84-1.14l.76-5a1,1,0,1,1,2,.3l-.76,5A1,1,0,0,1,78,214Z"/><path class="cls-3" d="M222.56,195.41a1,1,0,0,1-.16-2l2.73-.43a1,1,0,0,1,.31,2l-2.73.43Z"/><path class="cls-3" d="M26.43,168.91a1,1,0,0,1-.64-.22,1,1,0,0,1-.13-1.41l2.15-2.62a1,1,0,0,1,1.55,1.27l-2.16,2.62A1,1,0,0,1,26.43,168.91Z"/><path class="cls-3" d="M277.59,62.09h-.1l-3.24-.34a1,1,0,1,1,.21-2l3.24.34a1,1,0,0,1,.89,1.1A1,1,0,0,1,277.59,62.09Z"/><path class="cls-3" d="M187.31,15.36a1,1,0,0,1-.9-.56l-1.95-3.93a1,1,0,0,1,.45-1.34,1,1,0,0,1,1.34.45l1.95,3.93a1,1,0,0,1-.89,1.45Z"/><path class="cls-3" d="M44.55,62a1,1,0,0,1-.29-.05L33.18,58.6a1,1,0,0,1,.58-1.92l11.09,3.39a1,1,0,0,1-.3,2Z"/><path class="cls-3" d="M275.67,106.58a.93.93,0,0,1-.32,0,1,1,0,0,1-.63-1.26L277,98.46a1,1,0,1,1,1.89.64l-2.28,6.8A1,1,0,0,1,275.67,106.58Z"/><path class="cls-3" d="M256.36,279.69a1,1,0,0,1-.53-.16,1,1,0,0,1-.31-1.38l3.31-5.19a1,1,0,0,1,1.68,1.08l-3.3,5.18A1,1,0,0,1,256.36,279.69Z"/><path class="cls-3" d="M151.59,231.61a1,1,0,0,1-.76-.35l-4-4.65a1,1,0,0,1,1.52-1.31l4,4.66a1,1,0,0,1-.11,1.41A1,1,0,0,1,151.59,231.61Z"/><path class="cls-3" d="M15,139.67a1,1,0,0,1-.12-2l12.51-1.52a1,1,0,0,1,1.11.87,1,1,0,0,1-.87,1.11l-12.5,1.52Z"/><path class="cls-3" d="M200.92,91.44a1,1,0,0,1-1-.82l-1.48-7.94a1,1,0,0,1,2-.36l1.48,7.93a1,1,0,0,1-.8,1.17Z"/><path class="cls-3" d="M97.06,191a1,1,0,0,1-.65-.25l-7.13-6.24A1,1,0,1,1,90.6,183l7.12,6.24a1,1,0,0,1,.1,1.41A1,1,0,0,1,97.06,191Z"/><path class="cls-3" d="M210.07,250.36a1,1,0,0,1-.4-.09,1,1,0,0,1-.51-1.32l3.44-7.66a1,1,0,0,1,1.83.81L211,249.76A1,1,0,0,1,210.07,250.36Z"/><path class="cls-3" d="M166.32,62.89a1,1,0,0,1-1-.73L161.55,49a1,1,0,0,1,.68-1.24,1,1,0,0,1,1.24.69l3.81,13.2a1,1,0,0,1-.68,1.24A1.26,1.26,0,0,1,166.32,62.89Z"/><path class="cls-3" d="M71.72,171.05a1,1,0,0,1-.81-.4l-6-8a1,1,0,1,1,1.6-1.19l6,8a1,1,0,0,1-.21,1.4A1,1,0,0,1,71.72,171.05Z"/><path class="cls-3" d="M10.84,79.06a1,1,0,0,1-1-1l-.4-9.76a1,1,0,0,1,1-1,1,1,0,0,1,1,1L11.84,78a1,1,0,0,1-.95,1Z"/><path class="cls-3" d="M187.67,177.22a1,1,0,0,1-.74-1.67l2.27-2.49a1,1,0,1,1,1.47,1.35l-2.26,2.49A1,1,0,0,1,187.67,177.22Z"/><path class="cls-3" d="M173.38,133.44a1,1,0,0,1-.33-.06,1,1,0,0,1-.61-1.28l3.14-9a1,1,0,0,1,1.28-.61,1,1,0,0,1,.61,1.27l-3.15,9A1,1,0,0,1,173.38,133.44Z"/><path class="cls-3" d="M234.86,175a1,1,0,0,1-.37-.08l-11.76-4.77a1,1,0,0,1,.75-1.85l11.76,4.77a1,1,0,0,1-.38,1.93Z"/><path class="cls-3" d="M215.85,123a1,1,0,0,1-1-.87L214,115.5a1,1,0,0,1,2-.27l.9,6.66A1,1,0,0,1,216,123Z"/><path class="cls-3" d="M62.28,90.86a1,1,0,0,1-.41-.09L51.63,86.18a1,1,0,1,1,.81-1.82L62.69,89a1,1,0,0,1,.51,1.32A1,1,0,0,1,62.28,90.86Z"/><path class="cls-3" d="M122.54,203.7l-.2,0a1,1,0,0,1-.78-1.18L124,190.56a1,1,0,0,1,2,.4l-2.41,11.93A1,1,0,0,1,122.54,203.7Z"/><path class="cls-3" d="M126.86,41.11a1,1,0,0,1-.35-1.94L131,37.53a1,1,0,0,1,.69,1.88l-4.48,1.64A1,1,0,0,1,126.86,41.11Z"/><path class="cls-3" d="M126.52,106.05a1,1,0,0,1,0-2l11.13-.09a1,1,0,0,1,1,1,1,1,0,0,1-1,1l-11.13.09Z"/><path class="cls-3" d="M244.61,198.51a1.26,1.26,0,0,1-.27,0,1,1,0,0,1-.69-1.24l3.89-13.41a1,1,0,1,1,1.92.56l-3.89,13.4A1,1,0,0,1,244.61,198.51Z"/><path class="cls-3" d="M231,237.68a1,1,0,0,1-.37-1.93l6.53-2.57a1,1,0,0,1,1.3.57,1,1,0,0,1-.57,1.29l-6.53,2.57A.92.92,0,0,1,231,237.68Z"/><path class="cls-3" d="M189.64,69a1,1,0,0,1-.83-.44l-2-2.9a1,1,0,0,1,.27-1.38,1,1,0,0,1,1.39.26l2,2.9a1,1,0,0,1-.27,1.39A1,1,0,0,1,189.64,69Z"/><path class="cls-3" d="M113.38,90.43a1,1,0,0,1-.87-.5l-5.64-10a1,1,0,0,1,.38-1.37,1,1,0,0,1,1.36.38l5.64,10a1,1,0,0,1-.87,1.49Z"/><path class="cls-3" d="M165.94,172.24a1,1,0,0,1-.69-.28l-6.34-6.14a1,1,0,0,1,1.39-1.43l6.34,6.13a1,1,0,0,1,0,1.41A1,1,0,0,1,165.94,172.24Z"/><path class="cls-3" d="M192.24,210.05a1,1,0,0,1-.77-.36,1,1,0,0,1,.13-1.41l9-7.49a1,1,0,0,1,1.4.12,1,1,0,0,1-.12,1.41l-9,7.49A1,1,0,0,1,192.24,210.05Z"/><path class="cls-3" d="M64.71,235.44l-.19,0-4.3-.81a1,1,0,0,1,.36-2l4.31.81a1,1,0,0,1-.18,2Z"/><path class="cls-3" d="M112.79,259a1,1,0,0,1-.47-.12L100,252.18a1,1,0,1,1,1-1.75l12.29,6.66a1,1,0,0,1-.48,1.88Z"/><path class="cls-3" d="M179.37,88.87a1,1,0,0,1-.64-.23l-6-5A1,1,0,1,1,174,82.09l6,5a1,1,0,0,1,.13,1.41A1,1,0,0,1,179.37,88.87Z"/><path class="cls-3" d="M280,147.47a1,1,0,0,1-.94-.67l-1-2.69a1,1,0,0,1,1.89-.67l1,2.69a1,1,0,0,1-.95,1.34Z"/><path class="cls-3" d="M60.76,48a1,1,0,0,1-1-.91l-1.39-15a1,1,0,0,1,.9-1.09,1,1,0,0,1,1.09.9l1.39,15A1,1,0,0,1,60.85,48Z"/><path class="cls-3" d="M148.5,250.61a1,1,0,0,1-.3-.05l-2.41-.77a1,1,0,0,1,.6-1.9l2.42.76a1,1,0,0,1,.65,1.26A1,1,0,0,1,148.5,250.61Z"/><path class="cls-3" d="M134.24,84.76a1,1,0,0,1-.67-.26l-2.06-1.85a1,1,0,1,1,1.34-1.48L134.91,83a1,1,0,0,1-.67,1.74Z"/><path class="cls-3" d="M207,160.77a1,1,0,0,1-.83-.44l-3.66-5.43a1,1,0,0,1,.27-1.38,1,1,0,0,1,1.39.27l3.66,5.42a1,1,0,0,1-.27,1.39A1,1,0,0,1,207,160.77Z"/><path class="cls-3" d="M274.86,45.15h-.06a1,1,0,0,1-.94-1.06l.8-13.61a1,1,0,0,1,1-.94,1,1,0,0,1,.94,1.05l-.79,13.62A1,1,0,0,1,274.86,45.15Z"/><path class="cls-3" d="M167.43,29.39a1,1,0,0,1-.16-2l8.57-1.4a1,1,0,1,1,.32,2l-8.57,1.4Z"/><path class="cls-3" d="M193.41,233.93a1,1,0,0,1-.44-.11L183.11,229a1,1,0,1,1,.88-1.79l9.86,4.83a1,1,0,0,1,.46,1.34A1,1,0,0,1,193.41,233.93Z"/><path class="cls-3" d="M153.78,125.38A1,1,0,0,1,153,125l-5.45-6.27a1,1,0,0,1,1.51-1.32l5.45,6.28a1,1,0,0,1-.1,1.41A1,1,0,0,1,153.78,125.38Z"/><path class="cls-3" d="M207.24,184a.73.73,0,0,1-.25,0,1,1,0,0,1-.72-1.21l.8-3.16a1,1,0,1,1,1.94.5l-.8,3.15A1,1,0,0,1,207.24,184Z"/><path class="cls-3" d="M58.89,216.52a1,1,0,0,1-1-.78l-3-13.76a1,1,0,0,1,2-.43l3,13.76a1,1,0,0,1-.76,1.19A.82.82,0,0,1,58.89,216.52Z"/><path class="cls-3" d="M120.35,277.88a1,1,0,0,1-.72-.31,1,1,0,0,1,0-1.42l5.85-5.52a1,1,0,1,1,1.37,1.45L121,277.61A1,1,0,0,1,120.35,277.88Z"/><path class="cls-3" d="M54,130a1,1,0,0,1-.73-.31l-7.64-8.16a1,1,0,1,1,1.46-1.36l7.64,8.15a1,1,0,0,1,0,1.41A1,1,0,0,1,54,130Z"/><path class="cls-3" d="M233.37,214.09h-.08l-7.4-.62a1,1,0,0,1-.91-1.08,1,1,0,0,1,1.08-.92l7.4.62a1,1,0,0,1-.09,2Z"/><path class="cls-3" d="M239.43,134.55a1,1,0,0,1-.27-2l7.27-2a1,1,0,0,1,.52,1.93l-7.26,2A.82.82,0,0,1,239.43,134.55Z"/><path class="cls-3" d="M233.34,278.75a1,1,0,0,1-.47-1.89l3.5-1.86a1,1,0,0,1,.94,1.77l-3.5,1.86A1,1,0,0,1,233.34,278.75Z"/><path class="cls-3" d="M256.1,94.06a1.08,1.08,0,0,1-.43-.1l-14.07-6.7a1,1,0,1,1,.85-1.81l14.08,6.7a1,1,0,0,1-.43,1.91Z"/><path class="cls-3" d="M188.69,258.32a1,1,0,0,1-.6-.21,1,1,0,0,1-.19-1.4l3.7-4.86a1,1,0,1,1,1.59,1.22l-3.7,4.86A1,1,0,0,1,188.69,258.32Z"/><path class="cls-3" d="M235.92,66.46h-.1a1,1,0,0,1-.9-1.09l.62-6.76a1,1,0,1,1,2,.18l-.62,6.76A1,1,0,0,1,235.92,66.46Z"/><path class="cls-3" d="M215.07,64.39a1,1,0,0,1-.76-.35l-7.94-9.45a1,1,0,0,1,1.53-1.29l7.94,9.45a1,1,0,0,1-.12,1.41A1,1,0,0,1,215.07,64.39Z"/><path class="cls-3" d="M29.77,109.1a1,1,0,0,1-.48-1.88l8.19-4.55a1,1,0,0,1,1.36.39,1,1,0,0,1-.39,1.36L30.26,109A1,1,0,0,1,29.77,109.1Z"/><path class="cls-3" d="M94.18,15.85a1,1,0,0,1-1-.83l-.89-5.4a1,1,0,1,1,2-.32l.9,5.39a1,1,0,0,1-.83,1.15Z"/><path class="cls-3" d="M50.61,181.87a1,1,0,0,1-.82-.42l-3.31-4.62a1,1,0,0,1,1.63-1.16l3.31,4.62a1,1,0,0,1-.23,1.39A1,1,0,0,1,50.61,181.87Z"/><path class="cls-3" d="M275.64,258.9a1,1,0,0,1-1-.85l-.69-4.53a1,1,0,1,1,2-.3l.69,4.53a1,1,0,0,1-.84,1.14Z"/><path class="cls-3" d="M128.71,64.78a1,1,0,0,1-.93-.63,1,1,0,0,1,.56-1.3l13.29-5.28a1,1,0,1,1,.73,1.85l-13.28,5.29A1,1,0,0,1,128.71,64.78Z"/><path class="cls-3" d="M172.68,245.68a1,1,0,0,1-.41-.08l-7.18-3.17a1,1,0,0,1,.81-1.83l7.18,3.17a1,1,0,0,1-.4,1.91Z"/><path class="cls-3" d="M253,224.71a1,1,0,0,1-.45-.11,1,1,0,0,1-.44-1.35l6.79-13.36a1,1,0,0,1,1.78.9l-6.79,13.37A1,1,0,0,1,253,224.71Z"/><path class="cls-3" d="M89.24,279.48a1,1,0,0,1-.06-2l12-.72a1,1,0,0,1,.12,2l-12,.72Z"/><path class="cls-3" d="M79.28,54.63a1,1,0,0,1-1-.71A1,1,0,0,1,79,52.67L90.4,49.22a1,1,0,0,1,1.25.67A1,1,0,0,1,91,51.13L79.57,54.59A.92.92,0,0,1,79.28,54.63Z"/><path class="cls-3" d="M12.63,29.09a1,1,0,0,1-1-.83L8.93,13a1,1,0,0,1,2-.35l2.71,15.29a1,1,0,0,1-.81,1.16Z"/><path class="cls-3" d="M112.35,177.72a1,1,0,0,1-1-.84l-2.18-13.61a1,1,0,0,1,2-.32l2.18,13.61a1,1,0,0,1-.83,1.15Z"/><path class="cls-3" d="M199.14,135.38a1.12,1.12,0,0,1-.31,0l-3.78-1.24a1,1,0,1,1,.62-1.9l3.78,1.24a1,1,0,0,1,.64,1.26A1,1,0,0,1,199.14,135.38Z"/><path class="cls-3" d="M87.13,75.56a1,1,0,0,1-.9-.56,1,1,0,0,1,.46-1.34l4.58-2.22a1,1,0,0,1,1.34.47,1,1,0,0,1-.47,1.33l-4.58,2.22A.94.94,0,0,1,87.13,75.56Z"/><path class="cls-3" d="M144.23,280.18h0a1,1,0,0,1-1-1l.38-14.7a1,1,0,0,1,1-1,1,1,0,0,1,1,1l-.37,14.7A1,1,0,0,1,144.23,280.18Z"/><path class="cls-3" d="M104.72,36.8a1,1,0,0,1-.65-.25l-2-1.72a1,1,0,0,1,1.32-1.51l2,1.73a1,1,0,0,1-.66,1.75Z"/><path class="cls-3" d="M37.1,280.49a1,1,0,0,1-.71-.29l-2.57-2.57a1,1,0,0,1,1.41-1.41l2.57,2.56a1,1,0,0,1,0,1.41A1,1,0,0,1,37.1,280.49Z"/><path class="cls-3" d="M103.66,209.34h-.18l-5.16-1a1,1,0,0,1,.36-2l5.16,1a1,1,0,0,1,.8,1.16A1,1,0,0,1,103.66,209.34Z"/><path class="cls-3" d="M211.74,277.79a1,1,0,0,1-1-.94l-.57-9.53a1,1,0,0,1,2-.12l.56,9.53a1,1,0,0,1-.93,1Z"/><path class="cls-3" d="M15.83,247.62a1,1,0,0,1-.94-.68l-4.15-12.4a1,1,0,1,1,1.89-.63l4.15,12.39a1,1,0,0,1-.63,1.27A.86.86,0,0,1,15.83,247.62Z"/><path class="cls-3" d="M37.92,202a1,1,0,0,1-.69-.27L26.12,191.2a1,1,0,0,1,1.37-1.45l11.12,10.56a1,1,0,0,1,0,1.41A1,1,0,0,1,37.92,202Z"/><path class="cls-3" d="M160.53,12.26A1,1,0,0,1,160,10.4l3.52-2.09a1,1,0,1,1,1,1.72L161,12.12A1,1,0,0,1,160.53,12.26Z"/><path class="cls-3" d="M32.58,38a1,1,0,0,1-.17-2l7.8-1.39a1,1,0,1,1,.35,2L32.76,38Z"/><path class="cls-3" d="M168.58,278.14a1,1,0,0,1-1-.86l-1.73-12.7a1,1,0,0,1,.86-1.13,1,1,0,0,1,1.12.86l1.73,12.7a1,1,0,0,1-.86,1.12Z"/><path class="cls-3" d="M29,15.14a1,1,0,0,1-.86-.5l-2.3-3.91a1,1,0,1,1,1.73-1l2.29,3.91A1,1,0,0,1,29.52,15,1.06,1.06,0,0,1,29,15.14Z"/><path class="cls-3" d="M39.78,260.71a1,1,0,0,1-1-.8l-2.35-11.65a1,1,0,0,1,.78-1.17,1,1,0,0,1,1.18.78l2.35,11.64a1,1,0,0,1-.78,1.18Z"/><path class="cls-3" d="M108.69,232.39a1.06,1.06,0,0,1-.45-.11,1,1,0,0,1-.44-1.34l2.17-4.35a1,1,0,0,1,1.34-.45,1,1,0,0,1,.45,1.34l-2.18,4.35A1,1,0,0,1,108.69,232.39Z"/><path class="cls-3" d="M157.4,99.61a1,1,0,0,1-.75-.34l-4.13-4.7a1,1,0,1,1,1.5-1.32l4.13,4.7a1,1,0,0,1-.09,1.41A1,1,0,0,1,157.4,99.61Z"/><path class="cls-3" d="M153.75,78.09a1,1,0,0,1-.85-.47l-1.72-2.82a1,1,0,1,1,1.7-1l1.73,2.81a1,1,0,0,1-.33,1.38A1,1,0,0,1,153.75,78.09Z"/><path class="cls-3" d="M234,39.35h-.13l-8.24-1.09a1,1,0,1,1,.26-2l8.24,1.09a1,1,0,0,1-.13,2Z"/><path class="cls-3" d="M82.14,31.65a1,1,0,0,1-.91-.59L75.06,17.2a1,1,0,0,1,1.83-.81l6.17,13.86a1,1,0,0,1-.51,1.32A1.15,1.15,0,0,1,82.14,31.65Z"/><path class="cls-3" d="M11.24,189.55a1,1,0,0,1-1-.92L9.62,181a1,1,0,0,1,.92-1.08,1,1,0,0,1,1.08.92l.61,7.62a1,1,0,0,1-.91,1.08Z"/><path class="cls-3" d="M85,100.77a1,1,0,0,1-.88-.53L80,92.32a1,1,0,1,1,1.77-.92l4.14,7.91a1,1,0,0,1-.43,1.35A.92.92,0,0,1,85,100.77Z"/><path class="cls-3" d="M182.27,47.42a1,1,0,0,1-.82-.43,1,1,0,0,1,.24-1.39l10.76-7.54a1,1,0,1,1,1.14,1.64l-10.75,7.54A1,1,0,0,1,182.27,47.42Z"/><path class="cls-3" d="M41,228.86a1,1,0,0,1-.55-.16l-10.24-6.65a1,1,0,0,1,1.09-1.68L41.49,227a1,1,0,0,1-.54,1.84Z"/><path class="cls-3" d="M12.54,277.57h-.16a1,1,0,0,1-.83-1.14l1.81-11.5a1,1,0,1,1,2,.31l-1.8,11.5A1,1,0,0,1,12.54,277.57Z"/><path class="cls-3" d="M92,163.41a1,1,0,0,1-1-.73l-.78-2.8a1,1,0,0,1,.7-1.23,1,1,0,0,1,1.23.7l.78,2.8a1,1,0,0,1-.7,1.23A1.24,1.24,0,0,1,92,163.41Z"/><path class="cls-3" d="M60.52,108.86a1,1,0,0,1-.65-.25,1,1,0,0,1-.1-1.41l1.72-2a1,1,0,0,1,1.5,1.32l-1.71,2A1,1,0,0,1,60.52,108.86Z"/><path class="cls-3" d="M107.74,60.22a1,1,0,0,1-.5-.13,1,1,0,0,1-.36-1.36l3.75-6.54a1,1,0,1,1,1.73,1l-3.75,6.54A1,1,0,0,1,107.74,60.22Z"/><path class="cls-3" d="M150.44,191a1,1,0,0,1-.85-.47l-3.12-4.94a1,1,0,0,1,1.7-1.07l3.11,4.94a1,1,0,0,1-.31,1.38A1,1,0,0,1,150.44,191Z"/><path class="cls-3" d="M264.11,14.38a1,1,0,0,1-1-.81,1,1,0,0,1,.79-1.17L276.7,9.9a1,1,0,0,1,1.18.79,1,1,0,0,1-.79,1.18L264.3,14.36A.58.58,0,0,1,264.11,14.38Z"/><path class="cls-3" d="M79.07,121.77a.68.68,0,0,1-.2,0l-3.4-.67a1,1,0,0,1,.39-2l3.4.67a1,1,0,0,1-.19,2Z"/><path class="cls-3" d="M68.24,73.2a1,1,0,0,1-.86-.49l-3.74-6.24a1,1,0,0,1,1.72-1l3.74,6.25a1,1,0,0,1-.35,1.37A1.06,1.06,0,0,1,68.24,73.2Z"/><path class="cls-3" d="M14.57,50.13a1.15,1.15,0,0,1-.26,0L10.12,49a1,1,0,0,1,.5-1.94l4.2,1.09a1,1,0,0,1-.25,2Z"/><path class="cls-3" d="M277,165.93h-.12l-3.08-.36a1,1,0,1,1,.23-2l3.08.35a1,1,0,0,1-.11,2Z"/><path class="cls-3" d="M262.51,149.4a1,1,0,0,1-.25,0l-4.74-1.2a1,1,0,0,1-.72-1.22,1,1,0,0,1,1.21-.72l4.74,1.2a1,1,0,0,1,.72,1.21A1,1,0,0,1,262.51,149.4Z"/><path class="cls-3" d="M167.93,218.73a1,1,0,0,1-1-.89l-1-9.26a1,1,0,1,1,2-.21l1,9.26a1,1,0,0,1-.89,1.1Z"/><path class="cls-3" d="M223.48,97.53a1,1,0,0,1-1-.76l-3.5-14a1,1,0,0,1,.72-1.21,1,1,0,0,1,1.22.73l3.5,14a1,1,0,0,1-.73,1.21A1,1,0,0,1,223.48,97.53Z"/><path class="cls-3" d="M192.14,277.56h0l-4.29-.09a1,1,0,0,1-1-1,1,1,0,0,1,1-1l4.29.09a1,1,0,0,1,0,2Z"/></pattern><pattern id="New_Pattern_Swatch_4-3" data-name="New Pattern Swatch 4" width="288" height="288" patternTransform="translate(-2.4 65.25) scale(0.55)" patternUnits="userSpaceOnUse" viewBox="0 0 288 288"><rect class="cls-1" width="288" height="288"/><rect class="cls-2" width="288" height="288"/><path class="cls-3" d="M127.69,245.55h0a1,1,0,0,1-1-1l.37-13.09a1,1,0,0,1,1-1,1,1,0,0,1,1,1l-.37,13.08A1,1,0,0,1,127.69,245.55Z"/><path class="cls-3" d="M96,138.4a1,1,0,0,1-1-.79l-1-4.42a1,1,0,0,1,2-.43l1,4.43a1,1,0,0,1-.76,1.19Z"/><path class="cls-3" d="M60.93,258.13a1,1,0,0,1-.94-.67l-1.52-4.26a1,1,0,0,1,1.89-.67l1.51,4.26a1,1,0,0,1-.6,1.28A1,1,0,0,1,60.93,258.13Z"/><path class="cls-3" d="M179.14,193.81a1.12,1.12,0,0,1-.31-.05l-8-2.64a1,1,0,0,1,.62-1.9l8,2.64a1,1,0,0,1,.63,1.26A1,1,0,0,1,179.14,193.81Z"/><path class="cls-3" d="M250.63,163.38a1,1,0,0,1-.58-.18l-3.56-2.54a1,1,0,0,1,1.16-1.63l3.56,2.54a1,1,0,0,1-.58,1.81Z"/><path class="cls-3" d="M280.19,125.32a1,1,0,0,1-.92-.6l-1.56-3.59a1,1,0,0,1,1.83-.8l1.57,3.59a1,1,0,0,1-.52,1.32A1,1,0,0,1,280.19,125.32Z"/><path class="cls-3" d="M209.14,13.36a1,1,0,0,1-.52-.15l-5.09-3.15a1,1,0,1,1,1.05-1.7l5.09,3.15a1,1,0,0,1,.33,1.38A1,1,0,0,1,209.14,13.36Z"/><path class="cls-3" d="M151.64,147.5a1,1,0,0,1-.45-1.9l3.79-1.89a1,1,0,0,1,1.34.45,1,1,0,0,1-.45,1.34l-3.79,1.89A1,1,0,0,1,151.64,147.5Z"/><path class="cls-3" d="M43.1,157.37a1,1,0,0,1-.52-.15,1,1,0,0,1-.34-1.38l5.35-8.74a1,1,0,0,1,1.37-.33,1,1,0,0,1,.33,1.38L44,156.89A1,1,0,0,1,43.1,157.37Z"/><path class="cls-3" d="M44.46,13.39a1,1,0,0,1-.07-2l15-1.07a1,1,0,0,1,.14,2l-15,1.07Z"/><path class="cls-3" d="M257.74,115.78a1,1,0,0,1-.83-.44l-2.47-3.67a1,1,0,0,1,1.66-1.12l2.47,3.67a1,1,0,0,1-.27,1.39A1,1,0,0,1,257.74,115.78Z"/><path class="cls-3" d="M116.42,125.62a1,1,0,0,1-.73-.31,1,1,0,0,1,0-1.42l1.91-1.79a1,1,0,0,1,1.37,1.45l-1.91,1.8A1,1,0,0,1,116.42,125.62Z"/><path class="cls-3" d="M256,68.67l-.24,0a1,1,0,0,1-.73-1.21l.79-3.29a1,1,0,1,1,1.94.47L257,67.91A1,1,0,0,1,256,68.67Z"/><path class="cls-3" d="M72.84,191a1,1,0,0,1-.5-.14l-2.64-1.51a1,1,0,0,1-.38-1.36,1,1,0,0,1,1.37-.38l2.64,1.52a1,1,0,0,1-.49,1.87Z"/><path class="cls-3" d="M267.22,132.36h-.12l-2.65-.32a1,1,0,1,1,.25-2l2.65.33a1,1,0,0,1,.87,1.11A1,1,0,0,1,267.22,132.36Z"/><path class="cls-3" d="M228,148.37a1,1,0,0,1-.56-.17l-8-5.39a1,1,0,1,1,1.11-1.66l8.05,5.39a1,1,0,0,1,.27,1.39A1,1,0,0,1,228,148.37Z"/><path class="cls-3" d="M134.32,14.86a1,1,0,0,1-.46-1.89l6.7-3.47a1,1,0,1,1,.92,1.78l-6.7,3.47A1.11,1.11,0,0,1,134.32,14.86Z"/><path class="cls-3" d="M196.79,111.3a1,1,0,0,1-.38-.07l-5.66-2.36a1,1,0,1,1,.77-1.84l5.65,2.35a1,1,0,0,1-.38,1.92Z"/><path class="cls-3" d="M118.81,23.05a1,1,0,0,1-.89-.54l-5.8-11.1a1,1,0,1,1,1.77-.93l5.81,11.1a1,1,0,0,1-.43,1.35A.93.93,0,0,1,118.81,23.05Z"/><path class="cls-3" d="M134.36,138.15a1,1,0,0,1-1-1l-.16-3.67a1,1,0,0,1,1-1,1,1,0,0,1,1,.95l.16,3.67a1,1,0,0,1-1,1Z"/><path class="cls-3" d="M225,15.06a1.07,1.07,0,0,1-.48-.12,1,1,0,0,1-.39-1.36L226,10.1a1,1,0,0,1,1.35-.39,1,1,0,0,1,.4,1.36l-1.92,3.47A1,1,0,0,1,225,15.06Z"/><path class="cls-3" d="M253,256.76a1,1,0,0,1-1-.86l-1-7.59a1,1,0,0,1,.86-1.13A1,1,0,0,1,253,248l1,7.59a1,1,0,0,1-.85,1.12Z"/><path class="cls-3" d="M211.82,224.93a1,1,0,0,1-1-.75l-1.08-4.24a1,1,0,0,1,1.94-.49l1.08,4.23a1,1,0,0,1-.72,1.22A1.07,1.07,0,0,1,211.82,224.93Z"/><path class="cls-3" d="M82.39,239.71a1,1,0,0,1-.59-.2,1,1,0,0,1-.22-1.39l9-12.26A1,1,0,1,1,92.14,227L83.2,239.3A1,1,0,0,1,82.39,239.71Z"/><path class="cls-3" d="M244.45,20.57l-.17,0a1,1,0,0,1-.82-1.15l1.35-7.82a1,1,0,1,1,2,.34l-1.35,7.82A1,1,0,0,1,244.45,20.57Z"/><path class="cls-3" d="M254.18,43.62a1,1,0,0,1-1-.82l-.83-4.59a1,1,0,1,1,2-.35l.83,4.59a1,1,0,0,1-.81,1.16Z"/><path class="cls-3" d="M81.71,267.16a1,1,0,0,1-1-.85L78.65,253a1,1,0,0,1,2-.31L82.7,266a1,1,0,0,1-.83,1.15Z"/><path class="cls-3" d="M11.21,213.84a1.07,1.07,0,0,1-.49-.12,1,1,0,0,1-.39-1.36l1.76-3.18a1,1,0,0,1,1.35-.39,1,1,0,0,1,.4,1.36l-1.76,3.17A1,1,0,0,1,11.21,213.84Z"/><path class="cls-3" d="M270.37,81.79a1,1,0,0,1-.19-2l8.16-1.59a1,1,0,1,1,.39,2l-8.16,1.59Z"/><path class="cls-3" d="M278,217.56a1,1,0,0,1-1-.84l-1.39-8.47a1,1,0,0,1,2-.32L279,216.4a1,1,0,0,1-.82,1.15Z"/><path class="cls-3" d="M170,108.31a1,1,0,0,1-.82-.43,1,1,0,0,1,.24-1.39l2.51-1.75a1,1,0,0,1,1.4.25,1,1,0,0,1-.25,1.39l-2.51,1.75A1,1,0,0,1,170,108.31Z"/><path class="cls-3" d="M149.33,34.37a1,1,0,0,1-.88-.51l-1.54-2.75a1,1,0,0,1,1.75-1l1.54,2.75a1,1,0,0,1-.87,1.49Z"/><path class="cls-3" d="M99.4,114.06a1,1,0,0,1-.53-.15,1,1,0,0,1-.32-1.38l4.32-7a1,1,0,0,1,1.38-.32,1,1,0,0,1,.33,1.37l-4.33,7A1,1,0,0,1,99.4,114.06Z"/><path class="cls-3" d="M229.65,258.69a1,1,0,0,1-.21-2l4-.89a1,1,0,0,1,.43,1.95l-4,.89Z"/><path class="cls-3" d="M116.87,147.27a.94.94,0,0,1-.53-.16l-3.7-2.35a1,1,0,0,1,1.08-1.68l3.69,2.35a1,1,0,0,1-.54,1.84Z"/><path class="cls-3" d="M137.46,212.55a1,1,0,0,1-.27-2l9.59-2.63a1,1,0,0,1,.53,1.93l-9.59,2.63A.82.82,0,0,1,137.46,212.55Z"/><path class="cls-3" d="M13.77,120.55a1,1,0,0,1-.29,0l-2.89-.88a1,1,0,1,1,.58-1.91l2.89.88a1,1,0,0,1-.29,2Z"/><path class="cls-3" d="M136.8,168.91a1,1,0,0,1-.92-.62l-3.5-8.46a1,1,0,0,1,.55-1.3,1,1,0,0,1,1.3.54l3.5,8.46a1,1,0,0,1-.54,1.3A1.09,1.09,0,0,1,136.8,168.91Z"/><path class="cls-3" d="M278.09,188.93a.89.89,0,0,1-.36-.07l-13.46-5.21a1,1,0,1,1,.72-1.86L278.45,187a1,1,0,0,1,.57,1.29A1,1,0,0,1,278.09,188.93Z"/><path class="cls-3" d="M234.64,114.23a1,1,0,0,1-.87-.49,1,1,0,0,1,.37-1.37l2.29-1.34a1,1,0,0,1,1.37.37,1,1,0,0,1-.36,1.36l-2.3,1.34A1,1,0,0,1,234.64,114.23Z"/><path class="cls-3" d="M209.72,34.46a1,1,0,0,1-.86-.48l-3.29-5.44a1,1,0,1,1,1.71-1L210.57,33a1,1,0,0,1-.33,1.37A1,1,0,0,1,209.72,34.46Z"/><path class="cls-3" d="M9.87,161.61H9.76a1,1,0,0,1-.88-1.1l.3-2.87a1,1,0,0,1,2,.21l-.31,2.87A1,1,0,0,1,9.87,161.61Z"/><path class="cls-3" d="M269.64,237.11a1,1,0,0,1-1-.87,1,1,0,0,1,.86-1.12l7.93-1.05a1,1,0,0,1,1.12.86,1,1,0,0,1-.86,1.12l-7.93,1Z"/><path class="cls-3" d="M77.43,146.18a1,1,0,0,1-.54-.17l-8.36-5.43a1,1,0,0,1,1.1-1.68L78,144.34a1,1,0,0,1,.29,1.38A1,1,0,0,1,77.43,146.18Z"/><path class="cls-3" d="M36.83,83.76a1.21,1.21,0,0,1-.37-.07l-9.68-3.86A1,1,0,0,1,27.52,78l9.68,3.86a1,1,0,0,1-.37,1.93Z"/><path class="cls-3" d="M12.08,100.71h-.14a1,1,0,0,1-.85-1.14l.55-3.74a1,1,0,1,1,2,.29l-.55,3.74A1,1,0,0,1,12.08,100.71Z"/><path class="cls-3" d="M64.55,278.08a.82.82,0,0,1-.26,0l-5.59-1.53a1,1,0,0,1-.7-1.23,1,1,0,0,1,1.23-.7l5.59,1.53a1,1,0,0,1-.27,2Z"/><path class="cls-3" d="M278.23,278.73a1,1,0,0,1-.88-.52l-1.49-2.77a1,1,0,1,1,1.76-.95l1.49,2.77a1,1,0,0,1-.88,1.47Z"/><path class="cls-3" d="M184,157.08a1,1,0,0,1-.67-.26l-7.51-6.9a1,1,0,0,1,1.35-1.47l7.51,6.9a1,1,0,0,1,.06,1.41A1,1,0,0,1,184,157.08Z"/><path class="cls-3" d="M78,214h-.15a1,1,0,0,1-.84-1.14l.76-5a1,1,0,1,1,2,.3l-.76,5A1,1,0,0,1,78,214Z"/><path class="cls-3" d="M222.56,195.41a1,1,0,0,1-.16-2l2.73-.43a1,1,0,0,1,.31,2l-2.73.43Z"/><path class="cls-3" d="M26.43,168.91a1,1,0,0,1-.64-.22,1,1,0,0,1-.13-1.41l2.15-2.62a1,1,0,0,1,1.55,1.27l-2.16,2.62A1,1,0,0,1,26.43,168.91Z"/><path class="cls-3" d="M277.59,62.09h-.1l-3.24-.34a1,1,0,1,1,.21-2l3.24.34a1,1,0,0,1,.89,1.1A1,1,0,0,1,277.59,62.09Z"/><path class="cls-3" d="M187.31,15.36a1,1,0,0,1-.9-.56l-1.95-3.93a1,1,0,0,1,.45-1.34,1,1,0,0,1,1.34.45l1.95,3.93a1,1,0,0,1-.89,1.45Z"/><path class="cls-3" d="M44.55,62a1,1,0,0,1-.29-.05L33.18,58.6a1,1,0,0,1,.58-1.92l11.09,3.39a1,1,0,0,1-.3,2Z"/><path class="cls-3" d="M275.67,106.58a.93.93,0,0,1-.32,0,1,1,0,0,1-.63-1.26L277,98.46a1,1,0,1,1,1.89.64l-2.28,6.8A1,1,0,0,1,275.67,106.58Z"/><path class="cls-3" d="M256.36,279.69a1,1,0,0,1-.53-.16,1,1,0,0,1-.31-1.38l3.31-5.19a1,1,0,0,1,1.68,1.08l-3.3,5.18A1,1,0,0,1,256.36,279.69Z"/><path class="cls-3" d="M151.59,231.61a1,1,0,0,1-.76-.35l-4-4.65a1,1,0,0,1,1.52-1.31l4,4.66a1,1,0,0,1-.11,1.41A1,1,0,0,1,151.59,231.61Z"/><path class="cls-3" d="M15,139.67a1,1,0,0,1-.12-2l12.51-1.52a1,1,0,0,1,1.11.87,1,1,0,0,1-.87,1.11l-12.5,1.52Z"/><path class="cls-3" d="M200.92,91.44a1,1,0,0,1-1-.82l-1.48-7.94a1,1,0,0,1,2-.36l1.48,7.93a1,1,0,0,1-.8,1.17Z"/><path class="cls-3" d="M97.06,191a1,1,0,0,1-.65-.25l-7.13-6.24A1,1,0,1,1,90.6,183l7.12,6.24a1,1,0,0,1,.1,1.41A1,1,0,0,1,97.06,191Z"/><path class="cls-3" d="M210.07,250.36a1,1,0,0,1-.4-.09,1,1,0,0,1-.51-1.32l3.44-7.66a1,1,0,0,1,1.83.81L211,249.76A1,1,0,0,1,210.07,250.36Z"/><path class="cls-3" d="M166.32,62.89a1,1,0,0,1-1-.73L161.55,49a1,1,0,0,1,.68-1.24,1,1,0,0,1,1.24.69l3.81,13.2a1,1,0,0,1-.68,1.24A1.26,1.26,0,0,1,166.32,62.89Z"/><path class="cls-3" d="M71.72,171.05a1,1,0,0,1-.81-.4l-6-8a1,1,0,1,1,1.6-1.19l6,8a1,1,0,0,1-.21,1.4A1,1,0,0,1,71.72,171.05Z"/><path class="cls-3" d="M10.84,79.06a1,1,0,0,1-1-1l-.4-9.76a1,1,0,0,1,1-1,1,1,0,0,1,1,1L11.84,78a1,1,0,0,1-.95,1Z"/><path class="cls-3" d="M187.67,177.22a1,1,0,0,1-.74-1.67l2.27-2.49a1,1,0,1,1,1.47,1.35l-2.26,2.49A1,1,0,0,1,187.67,177.22Z"/><path class="cls-3" d="M173.38,133.44a1,1,0,0,1-.33-.06,1,1,0,0,1-.61-1.28l3.14-9a1,1,0,0,1,1.28-.61,1,1,0,0,1,.61,1.27l-3.15,9A1,1,0,0,1,173.38,133.44Z"/><path class="cls-3" d="M234.86,175a1,1,0,0,1-.37-.08l-11.76-4.77a1,1,0,0,1,.75-1.85l11.76,4.77a1,1,0,0,1-.38,1.93Z"/><path class="cls-3" d="M215.85,123a1,1,0,0,1-1-.87L214,115.5a1,1,0,0,1,2-.27l.9,6.66A1,1,0,0,1,216,123Z"/><path class="cls-3" d="M62.28,90.86a1,1,0,0,1-.41-.09L51.63,86.18a1,1,0,1,1,.81-1.82L62.69,89a1,1,0,0,1,.51,1.32A1,1,0,0,1,62.28,90.86Z"/><path class="cls-3" d="M122.54,203.7l-.2,0a1,1,0,0,1-.78-1.18L124,190.56a1,1,0,0,1,2,.4l-2.41,11.93A1,1,0,0,1,122.54,203.7Z"/><path class="cls-3" d="M126.86,41.11a1,1,0,0,1-.35-1.94L131,37.53a1,1,0,0,1,.69,1.88l-4.48,1.64A1,1,0,0,1,126.86,41.11Z"/><path class="cls-3" d="M126.52,106.05a1,1,0,0,1,0-2l11.13-.09a1,1,0,0,1,1,1,1,1,0,0,1-1,1l-11.13.09Z"/><path class="cls-3" d="M244.61,198.51a1.26,1.26,0,0,1-.27,0,1,1,0,0,1-.69-1.24l3.89-13.41a1,1,0,1,1,1.92.56l-3.89,13.4A1,1,0,0,1,244.61,198.51Z"/><path class="cls-3" d="M231,237.68a1,1,0,0,1-.37-1.93l6.53-2.57a1,1,0,0,1,1.3.57,1,1,0,0,1-.57,1.29l-6.53,2.57A.92.92,0,0,1,231,237.68Z"/><path class="cls-3" d="M189.64,69a1,1,0,0,1-.83-.44l-2-2.9a1,1,0,0,1,.27-1.38,1,1,0,0,1,1.39.26l2,2.9a1,1,0,0,1-.27,1.39A1,1,0,0,1,189.64,69Z"/><path class="cls-3" d="M113.38,90.43a1,1,0,0,1-.87-.5l-5.64-10a1,1,0,0,1,.38-1.37,1,1,0,0,1,1.36.38l5.64,10a1,1,0,0,1-.87,1.49Z"/><path class="cls-3" d="M165.94,172.24a1,1,0,0,1-.69-.28l-6.34-6.14a1,1,0,0,1,1.39-1.43l6.34,6.13a1,1,0,0,1,0,1.41A1,1,0,0,1,165.94,172.24Z"/><path class="cls-3" d="M192.24,210.05a1,1,0,0,1-.77-.36,1,1,0,0,1,.13-1.41l9-7.49a1,1,0,0,1,1.4.12,1,1,0,0,1-.12,1.41l-9,7.49A1,1,0,0,1,192.24,210.05Z"/><path class="cls-3" d="M64.71,235.44l-.19,0-4.3-.81a1,1,0,0,1,.36-2l4.31.81a1,1,0,0,1-.18,2Z"/><path class="cls-3" d="M112.79,259a1,1,0,0,1-.47-.12L100,252.18a1,1,0,1,1,1-1.75l12.29,6.66a1,1,0,0,1-.48,1.88Z"/><path class="cls-3" d="M179.37,88.87a1,1,0,0,1-.64-.23l-6-5A1,1,0,1,1,174,82.09l6,5a1,1,0,0,1,.13,1.41A1,1,0,0,1,179.37,88.87Z"/><path class="cls-3" d="M280,147.47a1,1,0,0,1-.94-.67l-1-2.69a1,1,0,0,1,1.89-.67l1,2.69a1,1,0,0,1-.95,1.34Z"/><path class="cls-3" d="M60.76,48a1,1,0,0,1-1-.91l-1.39-15a1,1,0,0,1,.9-1.09,1,1,0,0,1,1.09.9l1.39,15A1,1,0,0,1,60.85,48Z"/><path class="cls-3" d="M148.5,250.61a1,1,0,0,1-.3-.05l-2.41-.77a1,1,0,0,1,.6-1.9l2.42.76a1,1,0,0,1,.65,1.26A1,1,0,0,1,148.5,250.61Z"/><path class="cls-3" d="M134.24,84.76a1,1,0,0,1-.67-.26l-2.06-1.85a1,1,0,1,1,1.34-1.48L134.91,83a1,1,0,0,1-.67,1.74Z"/><path class="cls-3" d="M207,160.77a1,1,0,0,1-.83-.44l-3.66-5.43a1,1,0,0,1,.27-1.38,1,1,0,0,1,1.39.27l3.66,5.42a1,1,0,0,1-.27,1.39A1,1,0,0,1,207,160.77Z"/><path class="cls-3" d="M274.86,45.15h-.06a1,1,0,0,1-.94-1.06l.8-13.61a1,1,0,0,1,1-.94,1,1,0,0,1,.94,1.05l-.79,13.62A1,1,0,0,1,274.86,45.15Z"/><path class="cls-3" d="M167.43,29.39a1,1,0,0,1-.16-2l8.57-1.4a1,1,0,1,1,.32,2l-8.57,1.4Z"/><path class="cls-3" d="M193.41,233.93a1,1,0,0,1-.44-.11L183.11,229a1,1,0,1,1,.88-1.79l9.86,4.83a1,1,0,0,1,.46,1.34A1,1,0,0,1,193.41,233.93Z"/><path class="cls-3" d="M153.78,125.38A1,1,0,0,1,153,125l-5.45-6.27a1,1,0,0,1,1.51-1.32l5.45,6.28a1,1,0,0,1-.1,1.41A1,1,0,0,1,153.78,125.38Z"/><path class="cls-3" d="M207.24,184a.73.73,0,0,1-.25,0,1,1,0,0,1-.72-1.21l.8-3.16a1,1,0,1,1,1.94.5l-.8,3.15A1,1,0,0,1,207.24,184Z"/><path class="cls-3" d="M58.89,216.52a1,1,0,0,1-1-.78l-3-13.76a1,1,0,0,1,2-.43l3,13.76a1,1,0,0,1-.76,1.19A.82.82,0,0,1,58.89,216.52Z"/><path class="cls-3" d="M120.35,277.88a1,1,0,0,1-.72-.31,1,1,0,0,1,0-1.42l5.85-5.52a1,1,0,1,1,1.37,1.45L121,277.61A1,1,0,0,1,120.35,277.88Z"/><path class="cls-3" d="M54,130a1,1,0,0,1-.73-.31l-7.64-8.16a1,1,0,1,1,1.46-1.36l7.64,8.15a1,1,0,0,1,0,1.41A1,1,0,0,1,54,130Z"/><path class="cls-3" d="M233.37,214.09h-.08l-7.4-.62a1,1,0,0,1-.91-1.08,1,1,0,0,1,1.08-.92l7.4.62a1,1,0,0,1-.09,2Z"/><path class="cls-3" d="M239.43,134.55a1,1,0,0,1-.27-2l7.27-2a1,1,0,0,1,.52,1.93l-7.26,2A.82.82,0,0,1,239.43,134.55Z"/><path class="cls-3" d="M233.34,278.75a1,1,0,0,1-.47-1.89l3.5-1.86a1,1,0,0,1,.94,1.77l-3.5,1.86A1,1,0,0,1,233.34,278.75Z"/><path class="cls-3" d="M256.1,94.06a1.08,1.08,0,0,1-.43-.1l-14.07-6.7a1,1,0,1,1,.85-1.81l14.08,6.7a1,1,0,0,1-.43,1.91Z"/><path class="cls-3" d="M188.69,258.32a1,1,0,0,1-.6-.21,1,1,0,0,1-.19-1.4l3.7-4.86a1,1,0,1,1,1.59,1.22l-3.7,4.86A1,1,0,0,1,188.69,258.32Z"/><path class="cls-3" d="M235.92,66.46h-.1a1,1,0,0,1-.9-1.09l.62-6.76a1,1,0,1,1,2,.18l-.62,6.76A1,1,0,0,1,235.92,66.46Z"/><path class="cls-3" d="M215.07,64.39a1,1,0,0,1-.76-.35l-7.94-9.45a1,1,0,0,1,1.53-1.29l7.94,9.45a1,1,0,0,1-.12,1.41A1,1,0,0,1,215.07,64.39Z"/><path class="cls-3" d="M29.77,109.1a1,1,0,0,1-.48-1.88l8.19-4.55a1,1,0,0,1,1.36.39,1,1,0,0,1-.39,1.36L30.26,109A1,1,0,0,1,29.77,109.1Z"/><path class="cls-3" d="M94.18,15.85a1,1,0,0,1-1-.83l-.89-5.4a1,1,0,1,1,2-.32l.9,5.39a1,1,0,0,1-.83,1.15Z"/><path class="cls-3" d="M50.61,181.87a1,1,0,0,1-.82-.42l-3.31-4.62a1,1,0,0,1,1.63-1.16l3.31,4.62a1,1,0,0,1-.23,1.39A1,1,0,0,1,50.61,181.87Z"/><path class="cls-3" d="M275.64,258.9a1,1,0,0,1-1-.85l-.69-4.53a1,1,0,1,1,2-.3l.69,4.53a1,1,0,0,1-.84,1.14Z"/><path class="cls-3" d="M128.71,64.78a1,1,0,0,1-.93-.63,1,1,0,0,1,.56-1.3l13.29-5.28a1,1,0,1,1,.73,1.85l-13.28,5.29A1,1,0,0,1,128.71,64.78Z"/><path class="cls-3" d="M172.68,245.68a1,1,0,0,1-.41-.08l-7.18-3.17a1,1,0,0,1,.81-1.83l7.18,3.17a1,1,0,0,1-.4,1.91Z"/><path class="cls-3" d="M253,224.71a1,1,0,0,1-.45-.11,1,1,0,0,1-.44-1.35l6.79-13.36a1,1,0,0,1,1.78.9l-6.79,13.37A1,1,0,0,1,253,224.71Z"/><path class="cls-3" d="M89.24,279.48a1,1,0,0,1-.06-2l12-.72a1,1,0,0,1,.12,2l-12,.72Z"/><path class="cls-3" d="M79.28,54.63a1,1,0,0,1-1-.71A1,1,0,0,1,79,52.67L90.4,49.22a1,1,0,0,1,1.25.67A1,1,0,0,1,91,51.13L79.57,54.59A.92.92,0,0,1,79.28,54.63Z"/><path class="cls-3" d="M12.63,29.09a1,1,0,0,1-1-.83L8.93,13a1,1,0,0,1,2-.35l2.71,15.29a1,1,0,0,1-.81,1.16Z"/><path class="cls-3" d="M112.35,177.72a1,1,0,0,1-1-.84l-2.18-13.61a1,1,0,0,1,2-.32l2.18,13.61a1,1,0,0,1-.83,1.15Z"/><path class="cls-3" d="M199.14,135.38a1.12,1.12,0,0,1-.31,0l-3.78-1.24a1,1,0,1,1,.62-1.9l3.78,1.24a1,1,0,0,1,.64,1.26A1,1,0,0,1,199.14,135.38Z"/><path class="cls-3" d="M87.13,75.56a1,1,0,0,1-.9-.56,1,1,0,0,1,.46-1.34l4.58-2.22a1,1,0,0,1,1.34.47,1,1,0,0,1-.47,1.33l-4.58,2.22A.94.94,0,0,1,87.13,75.56Z"/><path class="cls-3" d="M144.23,280.18h0a1,1,0,0,1-1-1l.38-14.7a1,1,0,0,1,1-1,1,1,0,0,1,1,1l-.37,14.7A1,1,0,0,1,144.23,280.18Z"/><path class="cls-3" d="M104.72,36.8a1,1,0,0,1-.65-.25l-2-1.72a1,1,0,0,1,1.32-1.51l2,1.73a1,1,0,0,1-.66,1.75Z"/><path class="cls-3" d="M37.1,280.49a1,1,0,0,1-.71-.29l-2.57-2.57a1,1,0,0,1,1.41-1.41l2.57,2.56a1,1,0,0,1,0,1.41A1,1,0,0,1,37.1,280.49Z"/><path class="cls-3" d="M103.66,209.34h-.18l-5.16-1a1,1,0,0,1,.36-2l5.16,1a1,1,0,0,1,.8,1.16A1,1,0,0,1,103.66,209.34Z"/><path class="cls-3" d="M211.74,277.79a1,1,0,0,1-1-.94l-.57-9.53a1,1,0,0,1,2-.12l.56,9.53a1,1,0,0,1-.93,1Z"/><path class="cls-3" d="M15.83,247.62a1,1,0,0,1-.94-.68l-4.15-12.4a1,1,0,1,1,1.89-.63l4.15,12.39a1,1,0,0,1-.63,1.27A.86.86,0,0,1,15.83,247.62Z"/><path class="cls-3" d="M37.92,202a1,1,0,0,1-.69-.27L26.12,191.2a1,1,0,0,1,1.37-1.45l11.12,10.56a1,1,0,0,1,0,1.41A1,1,0,0,1,37.92,202Z"/><path class="cls-3" d="M160.53,12.26A1,1,0,0,1,160,10.4l3.52-2.09a1,1,0,1,1,1,1.72L161,12.12A1,1,0,0,1,160.53,12.26Z"/><path class="cls-3" d="M32.58,38a1,1,0,0,1-.17-2l7.8-1.39a1,1,0,1,1,.35,2L32.76,38Z"/><path class="cls-3" d="M168.58,278.14a1,1,0,0,1-1-.86l-1.73-12.7a1,1,0,0,1,.86-1.13,1,1,0,0,1,1.12.86l1.73,12.7a1,1,0,0,1-.86,1.12Z"/><path class="cls-3" d="M29,15.14a1,1,0,0,1-.86-.5l-2.3-3.91a1,1,0,1,1,1.73-1l2.29,3.91A1,1,0,0,1,29.52,15,1.06,1.06,0,0,1,29,15.14Z"/><path class="cls-3" d="M39.78,260.71a1,1,0,0,1-1-.8l-2.35-11.65a1,1,0,0,1,.78-1.17,1,1,0,0,1,1.18.78l2.35,11.64a1,1,0,0,1-.78,1.18Z"/><path class="cls-3" d="M108.69,232.39a1.06,1.06,0,0,1-.45-.11,1,1,0,0,1-.44-1.34l2.17-4.35a1,1,0,0,1,1.34-.45,1,1,0,0,1,.45,1.34l-2.18,4.35A1,1,0,0,1,108.69,232.39Z"/><path class="cls-3" d="M157.4,99.61a1,1,0,0,1-.75-.34l-4.13-4.7a1,1,0,1,1,1.5-1.32l4.13,4.7a1,1,0,0,1-.09,1.41A1,1,0,0,1,157.4,99.61Z"/><path class="cls-3" d="M153.75,78.09a1,1,0,0,1-.85-.47l-1.72-2.82a1,1,0,1,1,1.7-1l1.73,2.81a1,1,0,0,1-.33,1.38A1,1,0,0,1,153.75,78.09Z"/><path class="cls-3" d="M234,39.35h-.13l-8.24-1.09a1,1,0,1,1,.26-2l8.24,1.09a1,1,0,0,1-.13,2Z"/><path class="cls-3" d="M82.14,31.65a1,1,0,0,1-.91-.59L75.06,17.2a1,1,0,0,1,1.83-.81l6.17,13.86a1,1,0,0,1-.51,1.32A1.15,1.15,0,0,1,82.14,31.65Z"/><path class="cls-3" d="M11.24,189.55a1,1,0,0,1-1-.92L9.62,181a1,1,0,0,1,.92-1.08,1,1,0,0,1,1.08.92l.61,7.62a1,1,0,0,1-.91,1.08Z"/><path class="cls-3" d="M85,100.77a1,1,0,0,1-.88-.53L80,92.32a1,1,0,1,1,1.77-.92l4.14,7.91a1,1,0,0,1-.43,1.35A.92.92,0,0,1,85,100.77Z"/><path class="cls-3" d="M182.27,47.42a1,1,0,0,1-.82-.43,1,1,0,0,1,.24-1.39l10.76-7.54a1,1,0,1,1,1.14,1.64l-10.75,7.54A1,1,0,0,1,182.27,47.42Z"/><path class="cls-3" d="M41,228.86a1,1,0,0,1-.55-.16l-10.24-6.65a1,1,0,0,1,1.09-1.68L41.49,227a1,1,0,0,1-.54,1.84Z"/><path class="cls-3" d="M12.54,277.57h-.16a1,1,0,0,1-.83-1.14l1.81-11.5a1,1,0,1,1,2,.31l-1.8,11.5A1,1,0,0,1,12.54,277.57Z"/><path class="cls-3" d="M92,163.41a1,1,0,0,1-1-.73l-.78-2.8a1,1,0,0,1,.7-1.23,1,1,0,0,1,1.23.7l.78,2.8a1,1,0,0,1-.7,1.23A1.24,1.24,0,0,1,92,163.41Z"/><path class="cls-3" d="M60.52,108.86a1,1,0,0,1-.65-.25,1,1,0,0,1-.1-1.41l1.72-2a1,1,0,0,1,1.5,1.32l-1.71,2A1,1,0,0,1,60.52,108.86Z"/><path class="cls-3" d="M107.74,60.22a1,1,0,0,1-.5-.13,1,1,0,0,1-.36-1.36l3.75-6.54a1,1,0,1,1,1.73,1l-3.75,6.54A1,1,0,0,1,107.74,60.22Z"/><path class="cls-3" d="M150.44,191a1,1,0,0,1-.85-.47l-3.12-4.94a1,1,0,0,1,1.7-1.07l3.11,4.94a1,1,0,0,1-.31,1.38A1,1,0,0,1,150.44,191Z"/><path class="cls-3" d="M264.11,14.38a1,1,0,0,1-1-.81,1,1,0,0,1,.79-1.17L276.7,9.9a1,1,0,0,1,1.18.79,1,1,0,0,1-.79,1.18L264.3,14.36A.58.58,0,0,1,264.11,14.38Z"/><path class="cls-3" d="M79.07,121.77a.68.68,0,0,1-.2,0l-3.4-.67a1,1,0,0,1,.39-2l3.4.67a1,1,0,0,1-.19,2Z"/><path class="cls-3" d="M68.24,73.2a1,1,0,0,1-.86-.49l-3.74-6.24a1,1,0,0,1,1.72-1l3.74,6.25a1,1,0,0,1-.35,1.37A1.06,1.06,0,0,1,68.24,73.2Z"/><path class="cls-3" d="M14.57,50.13a1.15,1.15,0,0,1-.26,0L10.12,49a1,1,0,0,1,.5-1.94l4.2,1.09a1,1,0,0,1-.25,2Z"/><path class="cls-3" d="M277,165.93h-.12l-3.08-.36a1,1,0,1,1,.23-2l3.08.35a1,1,0,0,1-.11,2Z"/><path class="cls-3" d="M262.51,149.4a1,1,0,0,1-.25,0l-4.74-1.2a1,1,0,0,1-.72-1.22,1,1,0,0,1,1.21-.72l4.74,1.2a1,1,0,0,1,.72,1.21A1,1,0,0,1,262.51,149.4Z"/><path class="cls-3" d="M167.93,218.73a1,1,0,0,1-1-.89l-1-9.26a1,1,0,1,1,2-.21l1,9.26a1,1,0,0,1-.89,1.1Z"/><path class="cls-3" d="M223.48,97.53a1,1,0,0,1-1-.76l-3.5-14a1,1,0,0,1,.72-1.21,1,1,0,0,1,1.22.73l3.5,14a1,1,0,0,1-.73,1.21A1,1,0,0,1,223.48,97.53Z"/><path class="cls-3" d="M192.14,277.56h0l-4.29-.09a1,1,0,0,1-1-1,1,1,0,0,1,1-1l4.29.09a1,1,0,0,1,0,2Z"/></pattern></defs><g id="Layer_2" data-name="Layer 2"><g id="Buñuelos_y_natilla" data-name="Buñuelos y natilla"><polygon class="cls-4" points="346.5 29 408 18 377.25 40 285 56.52 346.5 29"/><path class="cls-5" d="M285,56.52,369.28,34.1,408,18,374.64,93.78h-6.13S366,74.73,351,90.37Z"/><path class="cls-6" d="M417.5,79.5,374.64,93.78,369.28,34.1,408,18l5.7,23s-13.2,10.49,3.8,19.5C417.5,60.5,422.5,77.5,417.5,79.5Z"/><circle class="cls-7" cx="385.5" cy="53.5" r="6.5"/><circle class="cls-7" cx="353.5" cy="73.5" r="6.5"/><circle class="cls-7" cx="408.5" cy="73.5" r="6.5"/><circle class="cls-7" cx="346.5" cy="55.5" r="6.5"/><circle class="cls-7" cx="318.5" cy="63.5" r="6.5"/><ellipse class="cls-8" cx="80.53" cy="81.61" rx="80.53" ry="23.39"/><ellipse class="cls-9" cx="80.53" cy="80.62" rx="80.53" ry="22.41"/><ellipse class="cls-10" cx="80.53" cy="80.62" rx="57.14" ry="15.9"/><path class="cls-11" d="M84.61,7.32S46.77,6,40.38,21,28,77.93,28,77.93s16.89,30.93,115,3.5L120.13,21S117.21,7.64,84.61,7.32Z"/><path class="cls-12" d="M40.38,21s22.46,23.5,71.29,5C111.67,26,64.27,34.5,40.38,21Z"/><path class="cls-13" d="M40.67,87.26q2.11.9,4.68,1.73L50,30Z"/><path class="cls-13" d="M55.25,91.36q2.66.45,5.65.77L62.68,39Z"/><path class="cls-13" d="M76,92.76c1.31,0,2.65-.06,4-.12L76,34.89Z"/><path class="cls-13" d="M93.32,91.6q3.11-.34,6.41-.81L93.32,33.1Z"/><path class="cls-13" d="M113.9,88.4l3.76-.76L102.89,30Z"/><path class="cls-13" d="M111.67,26,129.2,85c2.48-.6,5-1.25,7.63-1.94Z"/><ellipse class="cls-8" cx="223.48" cy="104.61" rx="142.48" ry="41.39"/><ellipse class="cls-9" cx="223.48" cy="102.86" rx="142.48" ry="39.65"/><ellipse class="cls-10" cx="223.48" cy="102.86" rx="101.11" ry="28.14"/><circle class="cls-14" cx="133" cy="85" r="25"/><circle class="cls-14" cx="204" cy="103" r="25"/><circle class="cls-14" cx="165" cy="53" r="25"/><circle class="cls-14" cx="240" cy="65" r="25"/><circle class="cls-15" cx="273" cy="60" r="25"/><circle class="cls-16" cx="237" cy="100" r="25"/><circle class="cls-15" cx="237" cy="25" r="25"/><circle class="cls-15" cx="205" cy="28" r="25"/><circle class="cls-15" cx="204" cy="65" r="25"/><circle class="cls-14" cx="308" cy="82" r="25"/><circle class="cls-15" cx="273" cy="97" r="25"/><circle class="cls-15" cx="168" cy="97" r="25"/></g></g></svg>