<svg xmlns="http://www.w3.org/2000/svg" viewBox="0 0 327 155.75"><defs><style>.cls-1{fill:#501921;}.cls-2{fill:#fffdeb;}.cls-3{fill:#f23030;}.cls-4{fill:#208c46;}.cls-5{fill:#27af58;}.cls-6{fill:#e5e4e1;}.cls-7{fill:#f73;}.cls-8{fill:#875a3c;}</style></defs><g id="Layer_2" data-name="Layer 2"><g id="Pavo"><ellipse class="cls-1" cx="163.5" cy="108.25" rx="163.5" ry="47.5"/><ellipse class="cls-2" cx="163.5" cy="106.25" rx="163.5" ry="45.5"/><circle class="cls-3" cx="261.5" cy="81.25" r="6.5"/><path class="cls-4" d="M255,72.75s20.23-4.82,14.1,2.09S255,72.75,255,72.75Z"/><path class="cls-5" d="M255,88.75s20.23-4.82,14.1,2.09S255,88.75,255,88.75Z"/><path class="cls-5" d="M65.35,80.07S48.05,91.62,51.4,83,65.35,80.07,65.35,80.07Z"/><ellipse class="cls-6" cx="163.5" cy="108.25" rx="98.82" ry="27.5"/><path class="cls-7" d="M69.5,37.25s-2,4-14,3-15.52-3-15.52-3-5.48-16-14.48-7c0,0-1.83,11.32-4.41,10.16,0,0-5.59,5.84,11.41,6.84s19,8,20.5,13.5.76,38.5,42.13,47.5c0,0,5.37,2,5.37,6s76,39,137,6-13-100-30-108S124.5-20.75,69.5,37.25Z"/><path class="cls-8" d="M65.5,43.25s54-5,70,22c0,0,5,12-8,23,0,0,13.41-3.21,13.21-21.11S106.5,33.25,65.5,43.25Z"/><path class="cls-8" d="M195.5,94.25s-72-14-90,17c0,0,9-27.13,45-26.56S195.5,94.25,195.5,94.25Z"/><path class="cls-8" d="M179.89,40.17S191.5,79.11,215,84.68s39.24,18.57,35.87,23.57c0,0-.37-8-35.87-20S179.89,40.17,179.89,40.17Z"/><path class="cls-8" d="M64.76,39.85a30.1,30.1,0,0,1-9.26.4c-12-1-15.52-3-15.52-3s-5-14.6-13.31-8c3.42,1.24,7.64,4.19,11.27,11C37.94,40.17,54.4,47.59,64.76,39.85Z"/><circle class="cls-3" cx="199.5" cy="129.25" r="6.5"/><circle class="cls-3" cx="109.5" cy="124.25" r="6.5"/><circle class="cls-3" cx="215.5" cy="128.25" r="6.5"/><circle class="cls-3" cx="244.5" cy="114.25" r="6.5"/><circle class="cls-3" cx="264.5" cy="101.25" r="6.5"/><circle class="cls-3" cx="58.5" cy="88.25" r="6.5"/><circle class="cls-3" cx="95.5" cy="111.25" r="6.5"/><path class="cls-4" d="M65.5,92.45S54,92,52,99.88,63,97.15,65.5,92.45Z"/><path class="cls-4" d="M69.21,94.75s-14.21,4-10.71,11.5S69.21,94.75,69.21,94.75Z"/><path class="cls-4" d="M73.14,99.14s-10.54,1.61-5.84,9.11S73.14,99.14,73.14,99.14Z"/><path class="cls-5" d="M88,106.25s-16,14.2-6.5,17.35C81.5,123.6,91,119.75,88,106.25Z"/><path class="cls-4" d="M103.1,114.25s-20.25,4.5-11.67,10S103.1,114.25,103.1,114.25Z"/><path class="cls-4" d="M116,120.75s-8,10,0,14S116,120.75,116,120.75Z"/><path class="cls-4" d="M193,125.43s-18,13.32-7,13.32S193,125.43,193,125.43Z"/><path class="cls-5" d="M206,129.25s-1.87,15.5,6.06,9.5S206,129.25,206,129.25Z"/><path class="cls-5" d="M222,124.25s23.85,4.18,13.43,7.84S222,124.25,222,124.25Z"/><path class="cls-4" d="M236.57,117.75s-2.7,17.56,5.37,10.78S236.57,117.75,236.57,117.75Z"/><path class="cls-4" d="M239,117.75s20.23-4.82,14.1,2.09S239,117.75,239,117.75Z"/><path class="cls-5" d="M247,110.75s20.23-4.82,14.1,2.09S247,110.75,247,110.75Z"/><path class="cls-4" d="M260,92.75s20.23-4.82,14.1,2.09S260,92.75,260,92.75Z"/><path class="cls-4" d="M254.19,97.32s16.22,13,7,12.42S254.19,97.32,254.19,97.32Z"/><path class="cls-5" d="M230.19,116.32s16.22,13,7,12.42S230.19,116.32,230.19,116.32Z"/><path class="cls-4" d="M201.19,129.32s16.22,13,7,12.42S201.19,129.32,201.19,129.32Z"/><path class="cls-4" d="M220.19,124.32s16.22,13,7,12.42S220.19,124.32,220.19,124.32Z"/><path class="cls-5" d="M107.15,115.77s-7.16,19.53-9.53,10.6S107.15,115.77,107.15,115.77Z"/><path class="cls-4" d="M90.15,105.77S83,125.3,80.62,116.37,90.15,105.77,90.15,105.77Z"/><path class="cls-4" d="M80.15,99.77S73,119.3,70.62,110.37,80.15,99.77,80.15,99.77Z"/><circle class="cls-3" cx="81.5" cy="108.25" r="6.5"/></g></g></svg>