<svg xmlns="http://www.w3.org/2000/svg" viewBox="0 0 413.86 194.78"><defs><style>.cls-1{fill:#4bbf89;}.cls-2{fill:#f2b035;}.cls-3{fill:#ffda9f;}</style></defs><g id="Layer_2" data-name="Layer 2"><g id="Decorar_escritorio" data-name="Decorar escritorio"><path class="cls-1" d="M179.14,155.3c-.7-16-13.46-26.88-13.59-27l-.7.83c.13.1,12.53,10.75,13.21,26.22.44,10.07-4.11,20-13.51,29.43-5.84,5.87-10.65,7.94-14.31,6.13-6.16-3-8.27-16.45-8.16-29.43,12.41-2,17.46-6,19.36-9.61,2.68-5.15-.21-10.33-2.18-13-3.35-4.49-8.47-7.69-11.4-7.12-3.52.69-5.32,11.53-5.94,16.15a114.08,114.08,0,0,0-.91,12.63,138.31,138.31,0,0,1-24.18,1c-15.21-.5-24.25-5.16-26.89-13.84-1.5-5-.71-10.76,1.37-16.55,4.76,3.7,9.15,5,13.06,3.79,5.85-1.77,10.55-8.74,14.37-21.31,2.12-7,2.09-11.25,0-12.8-1.74-1.24-4.6-.51-8.27,2.12-6.25,4.47-15.21,15.14-19.65,26.37-6.74-5.75-13.7-15.84-19.87-26.24,8.5-7.48,9.88-17.25,3.61-26.48-4.92-7.23-13.28-11.84-17.21-9.49-2,1.17-4.29,5,2.23,17.56q5.3,10.2,10,18.17l-.89.71c-11.63,9-25.6,7.13-37.36-4.88A52.72,52.72,0,0,1,19,78c5.43.59,12.15-1,20.1-4.62,20.61-9.52,23.23-18.19,23-22.51-.3-4.82-4.3-8.91-10.69-10.94-8.81-2.79-21.95-1.24-30,8.76-6,7.43-6.65,17.85-3.87,28a13.82,13.82,0,0,1-6.27-3C4.88,68.38,3.43,57.57,3.75,47.28c-.39.42-.78.83-1.18,1.23-.16,10.14,1.51,20.61,7.94,26a15.29,15.29,0,0,0,7.29,3.3A53.65,53.65,0,0,0,30.49,99.43c12.19,12.45,26.69,14.31,38.8,5l.78-.63c7.72,13,14.32,21.63,20.29,26.61-2.23,6-3.09,12.22-1.45,17.62a16.63,16.63,0,0,0,5.54,8.24c4.81,3.91,12.28,6,22.35,6.37a139.11,139.11,0,0,0,24.2-1c-.1,13,2,26.91,8.76,30.24,4.12,2,9.36-.1,15.56-6.34C175,175.87,179.59,165.69,179.14,155.3ZM22.19,49.32c7.72-9.61,20.34-11.1,28.81-8.41a18.5,18.5,0,0,1,6.09,3.15,9.63,9.63,0,0,1,3.85,6.83c.25,4-2.31,12.2-22.34,21.46-8,3.7-14.68,5.19-20,4.47C15.78,66.86,16.34,56.59,22.19,49.32Zm48.15,52.83c-3.65-6.21-7-12.48-9.85-18C54.15,72,56.53,68.83,57.85,68c2.11-1.25,6.4.09,10.5,3.42a27,27,0,0,1,5.26,5.76C76.5,81.46,81.7,92.11,70.34,102.15Zm40.71,1.69c3.17-2.27,5.72-3,7-2.12l.08.06c1,.78,2.07,3.32-.43,11.55-3.66,12-8.25,19-13.65,20.58-3.63,1.1-7.78-.18-12.35-3.81C96,119.13,104.66,108.41,111.05,103.84ZM143,148.1c1.34-10,3.57-14.94,5.08-15.23s4.1.8,6.69,2.9a22,22,0,0,1,3.64,3.8c1.81,2.43,4.49,7.19,2.08,11.81-1.78,3.4-6.57,7.14-18.39,9A110.27,110.27,0,0,1,143,148.1Z"/><ellipse class="cls-2" cx="4.86" cy="73.88" rx="3.69" ry="2.34" transform="translate(-49.28 23.37) rotate(-43.22)"/><path class="cls-3" d="M2.9,76.43c-1-1.1-.77-3.05.57-4.44l-.21.19c-1.49,1.39-2,3.29-1.09,4.23a1.86,1.86,0,0,0,1.42.52A2.44,2.44,0,0,1,2.9,76.43Z"/><ellipse class="cls-2" cx="2.52" cy="47.06" rx="2.34" ry="3.69" transform="translate(-15.53 3.53) rotate(-19.46)"/><path class="cls-3" d="M1,44.25c1.43-.51,3.1.52,3.83,2.31,0-.09,0-.19-.08-.28-.68-1.92-2.22-3.12-3.43-2.69a1.8,1.8,0,0,0-1,1.09A2.24,2.24,0,0,1,1,44.25Z"/><ellipse class="cls-2" cx="42" cy="76.21" rx="2.34" ry="3.69" transform="translate(-28.94 25.81) rotate(-25.75)"/><path class="cls-3" d="M43.84,78.84c-1.37.66-3.14-.18-4.07-1.87l.12.26c.89,1.83,2.55,2.86,3.71,2.3a1.85,1.85,0,0,0,.92-1.19A2.44,2.44,0,0,1,43.84,78.84Z"/><ellipse class="cls-2" cx="65.36" cy="49.21" rx="3.69" ry="2.34" transform="translate(-7.36 11.73) rotate(-9.71)"/><path class="cls-3" d="M68.39,48.16c.26,1.5-1,3-2.92,3.39l.28,0c2-.34,3.46-1.65,3.24-2.93a1.82,1.82,0,0,0-.9-1.21A2.23,2.23,0,0,1,68.39,48.16Z"/><ellipse class="cls-2" cx="30.32" cy="37.44" rx="2.34" ry="3.69" transform="translate(-9.31 10.04) rotate(-16.34)"/><path class="cls-3" d="M28.93,34.54c1.45-.42,3.07.69,3.7,2.52a2.29,2.29,0,0,0-.07-.28c-.57-2-2-3.24-3.28-2.88a1.79,1.79,0,0,0-1.1,1A2.43,2.43,0,0,1,28.93,34.54Z"/><ellipse class="cls-2" cx="12.83" cy="69.22" rx="3.69" ry="2.34" transform="translate(-11.49 3.16) rotate(-9.71)"/><path class="cls-3" d="M9.8,70.26c-.26-1.49,1-3,2.92-3.38l-.28,0c-2,.35-3.46,1.66-3.24,2.93a1.83,1.83,0,0,0,.89,1.22A2.48,2.48,0,0,1,9.8,70.26Z"/><ellipse class="cls-2" cx="28.6" cy="102.96" rx="3.69" ry="2.34" transform="translate(-62.75 47.52) rotate(-43.22)"/><path class="cls-3" d="M26.65,105.51c-1-1.11-.77-3.06.57-4.44l-.22.19c-1.48,1.39-2,3.28-1.08,4.22a1.78,1.78,0,0,0,1.42.52A2.23,2.23,0,0,1,26.65,105.51Z"/><ellipse class="cls-2" cx="61.96" cy="113.36" rx="2.34" ry="3.69" transform="translate(-43.1 38.18) rotate(-25.75)"/><path class="cls-3" d="M63.81,116c-1.37.66-3.15-.18-4.07-1.87l.12.26c.88,1.83,2.54,2.87,3.71,2.3a1.8,1.8,0,0,0,.92-1.19A2.39,2.39,0,0,1,63.81,116Z"/><ellipse class="cls-2" cx="82.44" cy="88.19" rx="2.34" ry="3.69" transform="translate(-6.93 169.36) rotate(-89.18)"/><path class="cls-3" d="M85.61,87.72c0,1.52-1.56,2.73-3.49,2.8h.28c2,0,3.7-1,3.72-2.28a1.81,1.81,0,0,0-.66-1.36A2.11,2.11,0,0,1,85.61,87.72Z"/><ellipse class="cls-2" cx="53.91" cy="64.99" rx="2.34" ry="3.69" transform="translate(-28.57 46.89) rotate(-37.94)"/><path class="cls-3" d="M51.55,62.81c1.2-.93,3.11-.49,4.37,1l-.17-.23c-1.25-1.6-3.09-2.26-4.11-1.47A1.86,1.86,0,0,0,51,63.45,2.4,2.4,0,0,1,51.55,62.81Z"/><ellipse class="cls-2" cx="60.92" cy="95.79" rx="3.69" ry="2.34" transform="matrix(0.94, -0.33, 0.33, 0.94, -28.43, 25.76)"/><path class="cls-3" d="M58.11,97.33c-.5-1.43.52-3.1,2.31-3.83l-.27.08c-1.92.68-3.13,2.22-2.7,3.44a1.84,1.84,0,0,0,1.09,1A2.14,2.14,0,0,1,58.11,97.33Z"/><ellipse class="cls-2" cx="80.11" cy="125.33" rx="3.69" ry="2.34" transform="translate(-64.1 88.86) rotate(-43.22)"/><path class="cls-3" d="M78.16,127.88c-1-1.1-.78-3,.56-4.44l-.21.19c-1.49,1.39-2,3.29-1.09,4.23a1.84,1.84,0,0,0,1.42.52A2.22,2.22,0,0,1,78.16,127.88Z"/><ellipse class="cls-2" cx="111.11" cy="135.21" rx="2.34" ry="3.69" transform="translate(-63.9 136.09) rotate(-50.88)"/><path class="cls-3" d="M113.89,136.81c-1,1.18-2.92,1.17-4.47,0l.21.19c1.58,1.28,3.52,1.51,4.34.51a1.84,1.84,0,0,0,.32-1.47A2.33,2.33,0,0,1,113.89,136.81Z"/><ellipse class="cls-2" cx="124.19" cy="105.42" rx="3.69" ry="2.34" transform="translate(-16.01 22.46) rotate(-9.71)"/><path class="cls-3" d="M127.22,104.38c.26,1.49-1,3-2.92,3.39l.28,0c2-.35,3.46-1.66,3.24-2.93a1.82,1.82,0,0,0-.9-1.21A2.16,2.16,0,0,1,127.22,104.38Z"/><ellipse class="cls-2" cx="97.8" cy="110.44" rx="2.34" ry="3.69" transform="translate(-49.57 103.75) rotate(-45.88)"/><path class="cls-3" d="M95.16,108.61c1.06-1.09,3-.91,4.46.36l-.2-.2c-1.46-1.42-3.37-1.82-4.27-.89a1.82,1.82,0,0,0-.45,1.44A2.34,2.34,0,0,1,95.16,108.61Z"/><ellipse class="cls-2" cx="86.65" cy="151.57" rx="3.69" ry="2.34" transform="translate(-57.24 52.7) rotate(-25.75)"/><path class="cls-3" d="M84,153.41c-.66-1.36.17-3.14,1.87-4.06l-.26.11c-1.84.89-2.87,2.55-2.31,3.71a1.85,1.85,0,0,0,1.2.92A2.1,2.1,0,0,1,84,153.41Z"/><ellipse class="cls-2" cx="120.48" cy="166.54" rx="2.34" ry="3.69" transform="translate(-26.37 22.71) rotate(-9.71)"/><path class="cls-3" d="M121.53,169.57c-1.5.26-3-1-3.39-2.92a2.7,2.7,0,0,0,0,.28c.34,2,1.65,3.46,2.92,3.24a1.81,1.81,0,0,0,1.22-.9A2.23,2.23,0,0,1,121.53,169.57Z"/><ellipse class="cls-2" cx="154.63" cy="162.25" rx="2.34" ry="3.69" transform="translate(-25.16 28.41) rotate(-9.71)"/><path class="cls-3" d="M155.68,165.29c-1.49.25-3-1-3.39-2.93a2.89,2.89,0,0,0,0,.29c.34,2,1.65,3.45,2.93,3.24a1.86,1.86,0,0,0,1.21-.9A2.16,2.16,0,0,1,155.68,165.29Z"/><ellipse class="cls-2" cx="153.55" cy="129.31" rx="3.69" ry="2.34" transform="translate(-38.49 187.79) rotate(-57.04)"/><path class="cls-3" d="M154.84,126.37c1.27.82,1.48,2.78.51,4.44l.16-.23c1.11-1.71,1.13-3.66.05-4.37a1.84,1.84,0,0,0-1.5-.16A2.3,2.3,0,0,1,154.84,126.37Z"/><ellipse class="cls-2" cx="137.12" cy="156.37" rx="2.34" ry="3.69" transform="translate(-36.63 270.67) rotate(-82.09)"/><path class="cls-3" d="M133.91,156.45c.21-1.51,1.89-2.52,3.81-2.35l-.28,0c-2-.28-3.8.53-4,1.81a1.86,1.86,0,0,0,.49,1.43A2.37,2.37,0,0,1,133.91,156.45Z"/><ellipse class="cls-2" cx="144.6" cy="191.73" rx="3.69" ry="2.34" transform="translate(-92.07 151.03) rotate(-43.22)"/><path class="cls-3" d="M142.65,194.28c-1-1.11-.78-3.05.56-4.44L143,190c-1.49,1.39-2,3.28-1.09,4.23a1.84,1.84,0,0,0,1.42.51A2.19,2.19,0,0,1,142.65,194.28Z"/><ellipse class="cls-2" cx="173.56" cy="181.83" rx="2.34" ry="3.69" transform="translate(-70.6 241.6) rotate(-60.09)"/><path class="cls-3" d="M176.57,183c-.76,1.31-2.7,1.63-4.42.75l.25.15c1.76,1,3.71.93,4.36-.19a1.83,1.83,0,0,0,.08-1.51A2.3,2.3,0,0,1,176.57,183Z"/><ellipse class="cls-2" cx="181.61" cy="147.95" rx="3.69" ry="2.34" transform="matrix(0.86, -0.5, 0.5, 0.86, -49.77, 111.44)"/><path class="cls-3" d="M184.08,145.9c.77,1.31.07,3.15-1.55,4.2l.25-.13c1.76-1,2.66-2.76,2-3.88a1.8,1.8,0,0,0-1.26-.82A2.09,2.09,0,0,1,184.08,145.9Z"/><ellipse class="cls-2" cx="166.19" cy="132.62" rx="2.34" ry="3.69" transform="translate(-33.77 60.35) rotate(-18.72)"/><path class="cls-3" d="M167.7,135.45c-1.44.49-3.1-.56-3.81-2.35l.09.27c.65,1.93,2.17,3.16,3.39,2.74a1.81,1.81,0,0,0,1.06-1.07A2.19,2.19,0,0,1,167.7,135.45Z"/><ellipse class="cls-2" cx="173.89" cy="162.58" rx="2.34" ry="3.69" transform="translate(-20.38 300.16) rotate(-78.38)"/><path class="cls-3" d="M170.68,162.45c.31-1.49,2-2.39,4-2.1l-.28-.06c-2-.41-3.82.28-4.08,1.55a1.78,1.78,0,0,0,.39,1.45A2.16,2.16,0,0,1,170.68,162.45Z"/><ellipse class="cls-2" cx="157.14" cy="186.6" rx="2.34" ry="3.69" transform="translate(-58.11 71.81) rotate(-21.83)"/><path class="cls-3" d="M155.48,183.85c1.41-.56,3.12.39,3.93,2.15,0-.09-.06-.18-.1-.27-.76-1.89-2.34-3-3.54-2.56a1.82,1.82,0,0,0-1,1.13A2.26,2.26,0,0,1,155.48,183.85Z"/><ellipse class="cls-2" cx="145.76" cy="173.16" rx="3.69" ry="2.34" transform="translate(-37.95 40.95) rotate(-14.17)"/><path class="cls-3" d="M148.71,171.88c.37,1.47-.81,3.05-2.65,3.61l.28-.06c2-.5,3.31-1.92,3-3.17a1.82,1.82,0,0,0-1-1.14A2.31,2.31,0,0,1,148.71,171.88Z"/><ellipse class="cls-2" cx="147.35" cy="143.78" rx="3.69" ry="2.34" transform="translate(-30.71 40.44) rotate(-14.17)"/><path class="cls-3" d="M150.3,142.5c.37,1.48-.81,3.05-2.65,3.61l.27-.06c2-.5,3.32-1.92,3-3.17a1.84,1.84,0,0,0-1-1.14A2.31,2.31,0,0,1,150.3,142.5Z"/><ellipse class="cls-2" cx="157.79" cy="148.09" rx="3.69" ry="2.34" transform="translate(-26.28 34.3) rotate(-11.46)"/><path class="cls-3" d="M154.79,149.23c-.3-1.49,1-3,2.82-3.48l-.28.05c-2,.4-3.41,1.76-3.15,3a1.82,1.82,0,0,0,.93,1.19A2.43,2.43,0,0,1,154.79,149.23Z"/><ellipse class="cls-2" cx="107.21" cy="157.14" rx="3.69" ry="2.34" transform="translate(-82.96 161.6) rotate(-57.04)"/><path class="cls-3" d="M108.5,154.2c1.27.82,1.48,2.78.51,4.45l.16-.24c1.11-1.71,1.13-3.66,0-4.36a1.8,1.8,0,0,0-1.5-.17A2.3,2.3,0,0,1,108.5,154.2Z"/><ellipse class="cls-2" cx="98.51" cy="147.27" rx="3.69" ry="2.34" transform="translate(-78.65 149.8) rotate(-57.04)"/><path class="cls-3" d="M99.8,144.33c1.27.83,1.48,2.78.51,4.45,0-.08.11-.15.16-.24,1.11-1.7,1.13-3.66,0-4.36A1.84,1.84,0,0,0,99,144,2.52,2.52,0,0,1,99.8,144.33Z"/><ellipse class="cls-2" cx="93.38" cy="134.73" rx="3.69" ry="2.34" transform="translate(-30.14 26.96) rotate(-14.17)"/><path class="cls-3" d="M96.32,133.45c.37,1.47-.81,3.05-2.65,3.61L94,137c2-.5,3.32-1.92,3-3.17a1.79,1.79,0,0,0-1-1.14A2.13,2.13,0,0,1,96.32,133.45Z"/><ellipse class="cls-2" cx="112.17" cy="108.2" rx="2.34" ry="3.69" transform="translate(-29.63 43.54) rotate(-19.46)"/><path class="cls-3" d="M113.72,111c-1.43.51-3.11-.52-3.84-2.31,0,.09.05.18.09.28.67,1.92,2.21,3.12,3.43,2.69a1.79,1.79,0,0,0,1-1.09A2.19,2.19,0,0,1,113.72,111Z"/><ellipse class="cls-2" cx="80.06" cy="109.96" rx="3.69" ry="2.34" transform="translate(-54.61 90.88) rotate(-45.88)"/><path class="cls-3" d="M81.9,107.33c1.09,1,.91,3-.36,4.46.07-.07.14-.13.2-.2,1.42-1.46,1.82-3.37.89-4.27a1.79,1.79,0,0,0-1.44-.45A2.17,2.17,0,0,1,81.9,107.33Z"/><ellipse class="cls-2" cx="63.24" cy="80.94" rx="3.69" ry="2.34" transform="translate(-30.56 39.09) rotate(-27.95)"/><path class="cls-3" d="M65.79,79c.72,1.34-.05,3.15-1.71,4.13l.26-.12c1.79-1,2.76-2.65,2.16-3.79a1.84,1.84,0,0,0-1.23-.88A2.37,2.37,0,0,1,65.79,79Z"/><ellipse class="cls-2" cx="44.81" cy="103.6" rx="3.69" ry="2.34" transform="translate(-67.88 109.97) rotate(-69.85)"/><path class="cls-3" d="M45.42,100.44c1.42.53,2.06,2.39,1.48,4.23,0-.09.08-.18.11-.27.7-1.91.29-3.82-.93-4.26a1.77,1.77,0,0,0-1.49.17A2.36,2.36,0,0,1,45.42,100.44Z"/><ellipse class="cls-2" cx="25.2" cy="84.86" rx="3.69" ry="2.34" transform="translate(-34.36 19.38) rotate(-25.75)"/><path class="cls-3" d="M27.83,83c.66,1.37-.18,3.15-1.87,4.07l.26-.12c1.83-.88,2.87-2.54,2.31-3.7a1.82,1.82,0,0,0-1.2-.92A2.22,2.22,0,0,1,27.83,83Z"/><ellipse class="cls-2" cx="24.12" cy="51.91" rx="2.34" ry="3.69" transform="translate(-31.37 37.87) rotate(-50.88)"/><path class="cls-3" d="M26.91,53.51c-1,1.17-2.93,1.17-4.48,0l.22.19c1.57,1.28,3.52,1.51,4.33.51a1.86,1.86,0,0,0,.33-1.48A2.47,2.47,0,0,1,26.91,53.51Z"/><ellipse class="cls-2" cx="46.32" cy="43.48" rx="3.69" ry="2.34" transform="matrix(0.15, -0.99, 0.99, 0.15, -3.43, 82.99)"/><path class="cls-3" d="M46.37,46.69c-1.5-.22-2.5-1.91-2.32-3.83,0,.09,0,.18,0,.28-.29,2,.5,3.8,1.78,4a1.82,1.82,0,0,0,1.43-.48A2.37,2.37,0,0,1,46.37,46.69Z"/><ellipse class="cls-2" cx="53.97" cy="58.07" rx="2.34" ry="3.69" transform="translate(-25.13 63.29) rotate(-50.88)"/><path class="cls-3" d="M51.18,56.47c1-1.18,2.92-1.17,4.48,0l-.22-.19c-1.58-1.28-3.52-1.51-4.33-.51a1.81,1.81,0,0,0-.33,1.47A2.42,2.42,0,0,1,51.18,56.47Z"/><ellipse class="cls-2" cx="21.75" cy="73.68" rx="2.34" ry="3.69" transform="matrix(1, -0.09, 0.09, 1, -6.84, 2.38)"/><path class="cls-3" d="M20.93,70.58c1.51-.14,2.89,1.26,3.16,3.17,0-.1,0-.19,0-.29-.2-2-1.39-3.57-2.68-3.45a1.83,1.83,0,0,0-1.28.8A2.51,2.51,0,0,1,20.93,70.58Z"/><path class="cls-1" d="M401.22,0c-4.64-.64-9.71,15-10.28,16.82l1.08.33c2-6.4,6.26-16.42,9.05-16,1.47.21,4,3.64,4.68,24.34.29,9.45-2.35,16.13-7.86,19.87-7,4.73-16.95,4-25.28,2a141.65,141.65,0,0,0,13.26-12.67c2.26-2.47,5.12-6.18,3.9-10-1.16-3.61-5.2-5-9-6l-.57-.14c-9.36-2.29-37.83-9.25-43.51,2.31a8,8,0,0,0-.34,6.53c3,8,17.45,14.32,22.22,16.39a85.15,85.15,0,0,0,11.64,4.07c-16,13-35.72,24-57.89,32a24.83,24.83,0,0,0,.79-7.43c-.48-10.4-8.35-20-23.4-28.64a5.62,5.62,0,0,0-5.36-.14c-7.43,3.35-14.4,20-15.47,25.14-1.21,5.86.11,13.48,5.79,17.32s13,2.42,18.84.84,11.52-3.34,17.08-5.28c-5.5,15.62-25.6,27-36.17,32.93-8.11,4.58-20.23,11.42-31.24,13.14a48.09,48.09,0,0,0,6.57-18.15c.83-6.81-2.62-16.73-9.1-20.65-2.85-1.72-7.45-2.94-13.16,1-6.71,4.65-8.46,14.67-7.23,22.54,1.28,8.14,5.56,14.06,11.44,15.85a24.29,24.29,0,0,0,9.3.78,63.34,63.34,0,0,1-13.3,15l-.09.09c-8.71,11-15.4,16.53-20.48,18.9,1.58-6.1.81-12.91-2.3-20.33-3.62-8.64-7.12-12.8-10.42-12.37-2.74.36-4.86,4.07-5.66,9.93C187.42,150,190,161.89,197.22,165a11.24,11.24,0,0,0,8.14,0,24,24,0,0,1-2.26,4.58c-5.63,9-17,14.74-28.63,18.46.28.34.56.67.82,1,11.63-3.79,23-9.7,28.76-18.88a25.07,25.07,0,0,0,2.68-5.7c5.38-2.25,12.49-7.84,21.71-19.51a65.09,65.09,0,0,0,14-16c11.48-1.5,24.16-8.66,32.61-13.43,10.83-6.11,31.69-17.88,36.89-34.35,22.9-8.18,43.26-19.46,59.63-33,8.71,2.16,19.46,3.14,27-2,.38-.26.74-.53,1.1-.81,5.09-4.08,7.53-10.81,7.24-20C406.18,3.26,403.32.31,401.22,0ZM205.8,163.67c-3.51,1.34-6.17,1.12-8.14.28-6.51-2.77-9.08-14.1-7.81-23.45.57-4.12,1.79-7.12,3.35-8.36a2.71,2.71,0,0,1,1.34-.61c1.54-.21,4.79,1,9.25,11.68C206.94,150.74,207.61,157.59,205.8,163.67ZM232,127.28c-5.46-1.65-9.44-7.24-10.65-15-1.34-8.53,1.17-17,6.13-21,.2-.17.42-.33.63-.48,4.13-2.86,8.26-3.2,11.94-1,6.11,3.69,9.36,13.08,8.56,19.54a47.48,47.48,0,0,1-6.87,18.48A24,24,0,0,1,232,127.28Zm79-46.95q-8.67,3.08-17.8,5.54c-5.63,1.52-12.75,2.82-17.92-.68S268.84,74.52,270,69c.91-4.37,6.56-18.08,12.78-23.05a9.86,9.86,0,0,1,2.06-1.29,4.49,4.49,0,0,1,4.33.08c14.7,8.41,22.38,17.73,22.84,27.72A23.82,23.82,0,0,1,311,80.33Zm48-37.55c-4.66-2-18.84-8.18-21.62-15.75a6.88,6.88,0,0,1,.3-5.65,7.87,7.87,0,0,1,2.2-2.7c8.42-6.73,31.8-1,40,1l.58.14c3.5.85,7.21,2.14,8.2,5.22,1,3.25-1.59,6.62-3.65,8.88A141.14,141.14,0,0,1,371.26,47,84.54,84.54,0,0,1,359,42.78Z"/><ellipse class="cls-2" cx="183.92" cy="180.98" rx="2.43" ry="3.83" transform="translate(-71.58 144.93) rotate(-36.51)"/><path class="cls-3" d="M181.53,178.66c1.26-.94,3.24-.43,4.51,1.12l-.17-.25c-1.26-1.7-3.15-2.43-4.23-1.63a1.92,1.92,0,0,0-.71,1.4A2.29,2.29,0,0,1,181.53,178.66Z"/><ellipse class="cls-2" cx="202.7" cy="162.08" rx="2.43" ry="3.83" transform="translate(-8.64 312.71) rotate(-74.12)"/><path class="cls-3" d="M199.39,161.69c.43-1.51,2.31-2.31,4.26-1.86l-.28-.09c-2-.58-4,0-4.35,1.29a1.93,1.93,0,0,0,.29,1.54A2.63,2.63,0,0,1,199.39,161.69Z"/><ellipse class="cls-2" cx="223.95" cy="143.65" rx="2.43" ry="3.83" transform="translate(-26.04 234.71) rotate(-52.69)"/><path class="cls-3" d="M221,142.08c1-1.25,3-1.32,4.65-.18l-.23-.19c-1.68-1.28-3.71-1.45-4.52-.39a1.91,1.91,0,0,0-.29,1.55A2.34,2.34,0,0,1,221,142.08Z"/><ellipse class="cls-2" cx="245.54" cy="107.66" rx="3.83" ry="2.43" transform="translate(-11.13 30.2) rotate(-6.88)"/><path class="cls-3" d="M242.34,108.59c-.19-1.56,1.23-3,3.21-3.37l-.3,0c-2.1.25-3.67,1.54-3.51,2.87a1.88,1.88,0,0,0,.87,1.31A2.44,2.44,0,0,1,242.34,108.59Z"/><ellipse class="cls-2" cx="228.52" cy="95.37" rx="2.43" ry="3.83" transform="translate(14.16 219.33) rotate(-52.69)"/><path class="cls-3" d="M231.46,96.94c-1,1.25-3,1.31-4.65.18l.23.18c1.69,1.29,3.71,1.46,4.52.39a1.88,1.88,0,0,0,.29-1.54A2.43,2.43,0,0,1,231.46,96.94Z"/><ellipse class="cls-2" cx="231.85" cy="122.93" rx="3.83" ry="2.43" transform="translate(42.53 304.66) rotate(-71.76)"/><path class="cls-3" d="M232.37,119.64c1.49.49,2.22,2.4,1.68,4.33a2.33,2.33,0,0,0,.11-.28c.66-2,.16-4-1.11-4.4a1.93,1.93,0,0,0-1.55.23A2.38,2.38,0,0,1,232.37,119.64Z"/><ellipse class="cls-2" cx="276.61" cy="108.72" rx="2.43" ry="3.83" transform="translate(-19.83 87.33) rotate(-17.33)"/><path class="cls-3" d="M275.12,105.74c1.5-.47,3.2.66,3.89,2.54,0-.09-.05-.19-.08-.29-.63-2-2.18-3.33-3.46-2.93a1.88,1.88,0,0,0-1.12,1.09A2.28,2.28,0,0,1,275.12,105.74Z"/><ellipse class="cls-2" cx="307.69" cy="80.99" rx="2.43" ry="3.83" transform="translate(86.32 309.52) rotate(-60.66)"/><path class="cls-3" d="M304.55,79.84c.78-1.37,2.79-1.72,4.58-.82l-.25-.15c-1.85-1-3.87-.93-4.53.24a1.83,1.83,0,0,0-.07,1.56A2.45,2.45,0,0,1,304.55,79.84Z"/><ellipse class="cls-2" cx="193.93" cy="140.31" rx="2.43" ry="3.83" transform="translate(-35.21 209.52) rotate(-52.69)"/><path class="cls-3" d="M196.88,141.87c-1,1.26-3,1.32-4.65.18a2.11,2.11,0,0,0,.23.19c1.68,1.28,3.7,1.46,4.52.39a1.93,1.93,0,0,0,.29-1.54A2.38,2.38,0,0,1,196.88,141.87Z"/><ellipse class="cls-2" cx="203.41" cy="177.35" rx="2.43" ry="3.83" transform="translate(-66.38 183.84) rotate(-42.46)"/><path class="cls-3" d="M206,179.41c-1.17,1.07-3.19.76-4.61-.65l.19.23c1.43,1.56,3.39,2.09,4.38,1.19a1.89,1.89,0,0,0,.56-1.47A2.37,2.37,0,0,1,206,179.41Z"/><ellipse class="cls-2" cx="173.41" cy="190.35" rx="3.83" ry="2.43" transform="translate(-83.31 170.38) rotate(-43.22)"/><path class="cls-3" d="M171.38,193c-1.08-1.15-.81-3.18.58-4.62l-.22.2c-1.54,1.45-2.05,3.41-1.13,4.39a1.89,1.89,0,0,0,1.48.54A2.26,2.26,0,0,1,171.38,193Z"/><ellipse class="cls-2" cx="208.85" cy="142.77" rx="3.83" ry="2.43" transform="translate(-40.01 97.28) rotate(-24)"/><path class="cls-3" d="M211.64,140.93c.64,1.44-.29,3.27-2.08,4.17l.28-.11c1.93-.86,3.06-2.56,2.51-3.78a1.92,1.92,0,0,0-1.21-1A2.39,2.39,0,0,1,211.64,140.93Z"/><ellipse class="cls-2" cx="185.33" cy="152.95" rx="3.83" ry="2.43" transform="matrix(0.98, -0.18, 0.18, 0.98, -24.51, 35.86)"/><path class="cls-3" d="M182.19,154.07c-.29-1.55,1-3.1,3-3.56l-.29.05c-2.08.38-3.57,1.76-3.33,3.08a1.9,1.9,0,0,0,.94,1.25A2.4,2.4,0,0,1,182.19,154.07Z"/><ellipse class="cls-2" cx="218.85" cy="160.67" rx="2.43" ry="3.83" transform="translate(-49.2 117.52) rotate(-27.14)"/><path class="cls-3" d="M220.84,163.36c-1.41.72-3.27-.11-4.27-1.85l.12.27c1,1.88,2.72,2.92,3.91,2.3a1.89,1.89,0,0,0,.93-1.26A2.58,2.58,0,0,1,220.84,163.36Z"/><ellipse class="cls-2" cx="245.37" cy="130.83" rx="2.43" ry="3.83" transform="translate(25.39 300.93) rotate(-65.78)"/><path class="cls-3" d="M248.59,131.69c-.65,1.44-2.62,2-4.49,1.23l.27.13c1.93.87,3.94.58,4.49-.64a1.92,1.92,0,0,0-.07-1.57A2.3,2.3,0,0,1,248.59,131.69Z"/><ellipse class="cls-2" cx="265.2" cy="125.04" rx="2.43" ry="3.83" transform="translate(-25.21 84.67) rotate(-17.33)"/><path class="cls-3" d="M266.7,128c-1.51.47-3.21-.66-3.9-2.54l.08.29c.63,2,2.18,3.33,3.46,2.93a1.89,1.89,0,0,0,1.13-1.09A2.48,2.48,0,0,1,266.7,128Z"/><ellipse class="cls-2" cx="299.44" cy="104.86" rx="2.43" ry="3.83" transform="translate(7.75 229.66) rotate(-42.46)"/><path class="cls-3" d="M302.06,106.92c-1.17,1.07-3.19.76-4.61-.65l.19.23c1.43,1.56,3.39,2.09,4.38,1.19a1.89,1.89,0,0,0,.56-1.47A2.37,2.37,0,0,1,302.06,106.92Z"/><ellipse class="cls-2" cx="311.9" cy="57.46" rx="3.83" ry="2.43" transform="translate(32.44 207.41) rotate(-38.65)"/><path class="cls-3" d="M314.14,55c1,1.24.55,3.23-1,4.56l.24-.18c1.65-1.32,2.31-3.24,1.48-4.29a1.9,1.9,0,0,0-1.43-.65A2.38,2.38,0,0,1,314.14,55Z"/><ellipse class="cls-2" cx="290.31" cy="50.26" rx="3.83" ry="2.43" transform="matrix(0.53, -0.85, 0.85, 0.53, 94.31, 270.24)"/><path class="cls-3" d="M289,53.34c-1.34-.83-1.59-2.86-.62-4.61-.05.08-.11.16-.16.25-1.12,1.8-1.1,3.83,0,4.54a1.94,1.94,0,0,0,1.56.14A2.5,2.5,0,0,1,289,53.34Z"/><ellipse class="cls-2" cx="284.87" cy="92.04" rx="2.43" ry="3.83"/><path class="cls-3" d="M285.41,95.33c-1.58,0-2.87-1.58-3-3.58a2.71,2.71,0,0,0,0,.29c0,2.12,1.09,3.83,2.43,3.83a1.91,1.91,0,0,0,1.4-.7A2.27,2.27,0,0,1,285.41,95.33Z"/><ellipse class="cls-2" cx="341.39" cy="72.74" rx="2.43" ry="3.83" transform="translate(29.36 229.18) rotate(-38.65)"/><path class="cls-3" d="M343.87,75c-1.23,1-3.22.55-4.55-1,.06.08.11.16.18.24,1.32,1.65,3.24,2.31,4.29,1.47a1.88,1.88,0,0,0,.65-1.43A2.15,2.15,0,0,1,343.87,75Z"/><ellipse class="cls-2" cx="378.61" cy="47.29" rx="2.43" ry="3.83" transform="translate(53.41 246.85) rotate(-38.65)"/><path class="cls-3" d="M381.09,49.52c-1.23,1-3.23.55-4.55-1l.17.24c1.33,1.65,3.25,2.31,4.3,1.47a1.91,1.91,0,0,0,.65-1.43A2.45,2.45,0,0,1,381.09,49.52Z"/><ellipse class="cls-2" cx="374.4" cy="13.23" rx="3.83" ry="2.43" transform="translate(251.8 367.24) rotate(-72.92)"/><path class="cls-3" d="M374.85,9.93c1.51.46,2.27,2.35,1.78,4.3,0-.1.07-.19.1-.28.62-2,.08-4-1.2-4.38a1.9,1.9,0,0,0-1.55.26A2.34,2.34,0,0,1,374.85,9.93Z"/><ellipse class="cls-2" cx="354.21" cy="36.58" rx="3.83" ry="2.43" transform="translate(215.22 364.43) rotate(-72.92)"/><path class="cls-3" d="M354.66,33.27c1.51.46,2.27,2.36,1.78,4.3,0-.09.07-.18.1-.28.62-2,.08-4-1.2-4.38a1.91,1.91,0,0,0-1.55.27A2.14,2.14,0,0,1,354.66,33.27Z"/><ellipse class="cls-2" cx="333.5" cy="21.48" rx="2.43" ry="3.83" transform="translate(227.39 338.38) rotate(-75.17)"/><path class="cls-3" d="M330.18,21.16c.4-1.53,2.27-2.36,4.23-1.95l-.29-.08c-2-.54-4,.07-4.32,1.37a1.85,1.85,0,0,0,.32,1.53A2.33,2.33,0,0,1,330.18,21.16Z"/><ellipse class="cls-2" cx="362.46" cy="48.69" rx="3.83" ry="2.43" transform="translate(23.44 185.85) rotate(-29.68)"/><path class="cls-3" d="M359.87,50.79c-.78-1.37,0-3.27,1.65-4.35l-.26.14c-1.84,1.05-2.79,2.84-2.13,4a1.94,1.94,0,0,0,1.31.87A2.45,2.45,0,0,1,359.87,50.79Z"/><ellipse class="cls-2" cx="394.94" cy="51.5" rx="2.43" ry="3.83" transform="translate(-1.25 92.28) rotate(-13.31)"/><path class="cls-3" d="M396.22,54.58c-1.53.36-3.15-.88-3.71-2.81l.06.29c.49,2.06,1.94,3.48,3.25,3.17a1.89,1.89,0,0,0,1.2-1A2.32,2.32,0,0,1,396.22,54.58Z"/><ellipse class="cls-2" cx="410.04" cy="16.4" rx="3.83" ry="2.43" transform="translate(-0.09 30.4) rotate(-4.24)"/><path class="cls-3" d="M413.28,15.61c.12,1.58-1.37,3-3.36,3.22h.3c2.11-.16,3.74-1.37,3.64-2.71a1.89,1.89,0,0,0-.81-1.34A2.19,2.19,0,0,1,413.28,15.61Z"/><ellipse class="cls-2" cx="267.49" cy="61.32" rx="2.43" ry="3.83" transform="translate(139.76 304.21) rotate(-75.17)"/><path class="cls-3" d="M264.17,61c.4-1.52,2.27-2.36,4.23-1.94l-.29-.09c-2-.54-4,.07-4.32,1.37a1.85,1.85,0,0,0,.32,1.53A2.33,2.33,0,0,1,264.17,61Z"/><ellipse class="cls-2" cx="275.21" cy="78.17" rx="3.83" ry="2.43" transform="translate(-2.6 146.52) rotate(-29.68)"/><path class="cls-3" d="M277.81,76.07c.78,1.37,0,3.28-1.66,4.35l.27-.14c1.83-1,2.79-2.84,2.12-4a1.86,1.86,0,0,0-1.3-.87A2.43,2.43,0,0,1,277.81,76.07Z"/><ellipse class="cls-2" cx="323.14" cy="71.51" rx="2.43" ry="3.83" transform="translate(-3.92 122.12) rotate(-21.27)"/><path class="cls-3" d="M321.44,68.64c1.47-.58,3.24.44,4.06,2.27a2.31,2.31,0,0,0-.1-.28c-.77-2-2.4-3.18-3.65-2.69a1.9,1.9,0,0,0-1.05,1.16A2.1,2.1,0,0,1,321.44,68.64Z"/><ellipse class="cls-2" cx="355.44" cy="54.31" rx="2.43" ry="3.83" transform="translate(56.56 254.21) rotate(-42.46)"/><path class="cls-3" d="M352.82,52.24c1.16-1.06,3.18-.76,4.61.65l-.2-.22c-1.43-1.56-3.39-2.1-4.38-1.19A1.89,1.89,0,0,0,352.3,53,2.24,2.24,0,0,1,352.82,52.24Z"/><ellipse class="cls-2" cx="385.64" cy="27.28" rx="2.43" ry="3.83" transform="translate(314.27 407.23) rotate(-83.41)"/><path class="cls-3" d="M382.3,27.43c.19-1.56,1.91-2.66,3.91-2.52l-.29-.05c-2.11-.24-3.94.64-4.09,2a1.9,1.9,0,0,0,.54,1.47A2.36,2.36,0,0,1,382.3,27.43Z"/><ellipse class="cls-2" cx="389.32" cy="15.69" rx="2.43" ry="3.83" transform="translate(43.3 194.82) rotate(-29.68)"/><path class="cls-3" d="M387.22,13.1c1.37-.78,3.28,0,4.35,1.65l-.13-.26c-1.05-1.84-2.85-2.79-4-2.13a1.88,1.88,0,0,0-.87,1.31A2.27,2.27,0,0,1,387.22,13.1Z"/><ellipse class="cls-2" cx="400.91" cy="4.98" rx="3.83" ry="2.43" transform="translate(312.38 396.03) rotate(-77.96)"/><path class="cls-3" d="M400.75,8.32c-1.54-.33-2.47-2.15-2.14-4.13,0,.09-.05.19-.08.29-.44,2.07.27,4,1.58,4.25a1.9,1.9,0,0,0,1.52-.4A2.37,2.37,0,0,1,400.75,8.32Z"/><ellipse class="cls-2" cx="400.56" cy="36.93" rx="2.43" ry="3.83" transform="translate(317.88 430.6) rotate(-83.41)"/><path class="cls-3" d="M397.22,37.09c.19-1.56,1.91-2.66,3.91-2.53l-.29,0c-2.11-.24-3.94.64-4.09,2a1.93,1.93,0,0,0,.54,1.48A2.6,2.6,0,0,1,397.22,37.09Z"/><ellipse class="cls-2" cx="353.69" cy="19.72" rx="2.43" ry="3.83" transform="matrix(0.99, -0.13, 0.13, 0.99, 0.38, 45.38)"/><path class="cls-3" d="M354.64,22.92c-1.56.2-3-1.21-3.39-3.18l0,.3c.27,2.09,1.57,3.66,2.9,3.48a1.87,1.87,0,0,0,1.3-.87A2.44,2.44,0,0,1,354.64,22.92Z"/><ellipse class="cls-2" cx="246.77" cy="89.41" rx="3.83" ry="2.43" transform="translate(-1.78 173.72) rotate(-38.65)"/><path class="cls-3" d="M249,86.93c1,1.23.55,3.22-1,4.55.08-.06.16-.11.24-.18,1.65-1.32,2.31-3.24,1.48-4.29a1.9,1.9,0,0,0-1.43-.65A2.26,2.26,0,0,1,249,86.93Z"/><ellipse class="cls-2" cx="217.1" cy="111.7" rx="3.83" ry="2.43" transform="translate(-16.56 40.91) rotate(-10.37)"/><path class="cls-3" d="M214,112.82c-.28-1.55,1-3.1,3-3.56l-.29,0c-2.08.38-3.58,1.76-3.33,3.08a1.87,1.87,0,0,0,.94,1.25A2.64,2.64,0,0,1,214,112.82Z"/></g></g></svg>