<?xml version="1.0" encoding="utf-8"?>
<!-- Generator: Adobe Illustrator 25.0.1, SVG Export Plug-In . SVG Version: 6.00 Build 0)  -->
<svg version="1.1" id="Layer_1" xmlns="http://www.w3.org/2000/svg" xmlns:xlink="http://www.w3.org/1999/xlink" x="0px" y="0px"
	 viewBox="0 0 504.3 474.4" style="enable-background:new 0 0 504.3 474.4;" xml:space="preserve">
<style type="text/css">
	.st0{clip-path:url(#SVGID_2_);}
	.st1{fill:#FD292F;}
	.st2{fill:#FFEED7;}
	.st3{fill:#FCFBE6;}
	.st4{fill:#5C4A7F;}
	.st5{fill:#FCFBED;}
</style>
<g id="Layer_2_1_">
	<g id="piso">
		<g>
			<defs>
				<path id="SVGID_1_" d="M208.6,1.6l-0.4-0.1c-6.3-1.2-12.7,0.4-17.7,4.3l-10.9,8.5c-2.3,1.9-2.6,5.3-0.6,7.6
					c1.8,2.1,5,2.5,7.3,0.9l10.9-8.5c2.7-2.1,6.1-2.9,9.4-2.2l0.4,0.1c4.5,0.9,7.5,5,7,9.5c-0.3,3.1-1.9,5.9-4.3,7.8l-67,52.3
					c-2.3,1.9-2.6,5.3-0.6,7.6c1.8,2.1,5,2.5,7.3,0.9l67.1-52.3c4.7-3.6,7.7-9,8.3-14.9C225.6,12.9,218.7,3.5,208.6,1.6"/>
			</defs>
			<clipPath id="SVGID_2_">
				<use xlink:href="#SVGID_1_"  style="overflow:visible;"/>
			</clipPath>
			<g class="st0">
				<path class="st1" d="M141.6,89.2c-1.8-2.3-1.5-5.6,0.8-7.5c0,0,0,0,0,0l67.1-52.3c2.4-1.9,4-4.7,4.3-7.8c0.5-4.5-2.5-8.7-7-9.5
					l-0.4-0.1c-3.3-0.6-6.7,0.2-9.4,2.2l-10.9,8.5c-2.4,1.7-5.8,1.2-7.5-1.2c-1.6-2.3-1.2-5.4,0.9-7.3l10.9-8.5
					c5-3.9,11.5-5.4,17.7-4.3l0.4,0.1c10.1,1.9,17,11.2,15.9,21.4c-0.6,5.9-3.6,11.2-8.3,14.9l-67.1,52.3
					C146.8,92,143.4,91.6,141.6,89.2C141.6,89.2,141.6,89.2,141.6,89.2"/>
				<path class="st2" d="M151.6,89.7c0,0-9.8,2.6-13.4-5.4l3-2.3c0,0,3.2,6.6,13.7,4.4L151.6,89.7z"/>
				<path class="st2" d="M161.5,82.1c0,0-9.8,2.6-13.4-5.4l3-2.3c0,0,3.2,6.6,13.8,4.4L161.5,82.1z"/>
				<path class="st2" d="M171.3,74.4c0,0-9.8,2.6-13.4-5.4l3-2.3c0,0,3.2,6.6,13.8,4.4L171.3,74.4z"/>
				<path class="st2" d="M181.1,66.8c0,0-9.8,2.6-13.4-5.4l3-2.3c0,0,3.2,6.6,13.8,4.4L181.1,66.8z"/>
				<path class="st2" d="M190.9,59.2c0,0-9.8,2.5-13.4-5.4l3-2.3c0,0,3.2,6.6,13.7,4.4L190.9,59.2z"/>
				<path class="st2" d="M200.7,51.5c0,0-9.8,2.5-13.4-5.4l3-2.3c0,0,3.2,6.6,13.7,4.4L200.7,51.5z"/>
				<path class="st2" d="M210.5,43.8c0,0-9.8,2.5-13.4-5.4l3-2.3c0,0,3.2,6.6,13.7,4.4L210.5,43.8z"/>
				<path class="st2" d="M220.8,34.6l-0.3,0.2c-0.3,0.2-0.5,0.3-0.8,0.4c-0.9,0.4-1.8,0.7-2.8,0.9c-2.5,0.6-5.1,0-7.1-1.7
					c-0.1-0.1-0.2-0.1-0.3-0.2s-0.2-0.2-0.4-0.3c-0.4-0.3-0.7-0.6-1-1l-0.4-0.6c-0.1-0.2-0.3-0.4-0.4-0.7c-0.1-0.1-0.1-0.3-0.2-0.5
					c0-0.1,0-0.1,0-0.2v-0.1v-0.1v0c-0.1,0,0.5-0.4,1.1-0.9s1.1-1,1.1-1c0.2,0.3,0.5,0.6,0.8,0.9c0.7,0.7,1.5,1.3,2.4,1.8
					c1.4,0.7,2.9,1,4.4,0.9c1.1-0.1,2.1-0.4,3.1-0.8c1.3-0.6,2.4-1.4,3.4-2.4c-0.3,1-0.7,1.9-1.2,2.8
					C221.6,33.4,220.8,34.6,220.8,34.6"/>
				<path class="st2" d="M225.7,18.2v0.2c0,0.1,0,0.3-0.1,0.5c-0.1,0.5-0.2,1.1-0.4,1.6c-0.5,1.5-1.4,2.8-2.6,3.8
					c-1.3,1.1-2.9,1.6-4.5,1.5c-1.9-0.2-3.6-0.9-5.1-2c0,0,0.2-0.5,0.4-1.1c0.1-0.2,0.1-0.5,0.1-0.7c0-0.2,0.1-0.3,0.1-0.3
					c0.4,0.1,0.8,0.2,1.2,0.2c1,0.2,2,0.2,3,0c0.7-0.1,1.3-0.3,1.9-0.6c0.7-0.4,1.4-1,1.9-1.6c0.3-0.4,0.6-0.9,0.8-1.3
					c0.3-0.6,0.4-1.1,0.6-1.8c0.2-0.7,0.2-1.4,0.2-2.1c0-0.4,0-0.8-0.1-1.2c0-0.4-0.1-0.9-0.2-1.3L223,12c0.1,0.1,0.2,0.4,0.4,0.6
					s0.4,0.6,0.6,0.9s0.4,0.8,0.6,1.1l0.3,0.6c0.1,0.2,0.1,0.4,0.2,0.6c0.1,0.4,0.3,0.8,0.4,1.1L225.7,18.2z"/>
				<path class="st2" d="M216.4,3.8c0,0,0.1,0.2,0.3,0.5c0.3,0.4,0.5,0.9,0.7,1.3c0.3,0.6,0.5,1.3,0.7,1.9c0.2,0.7,0.3,1.5,0.3,2.3
					c0.1,1.6-0.4,3.2-1.4,4.5c-1.2,1.4-2.7,2.5-4.5,3.1v-0.1c0-0.1-0.1-0.2-0.1-0.2c-0.1-0.2-0.3-0.5-0.5-0.7l-0.6-0.8l-0.3-0.3
					c0.3-0.2,0.6-0.5,0.9-0.8c0.7-0.7,1.3-1.5,1.7-2.4c0.3-0.6,0.6-1.2,0.7-1.9c0.1-0.4,0.1-0.8,0.2-1.2c0-0.4,0-0.9-0.1-1.3
					c-0.1-0.5-0.2-1-0.3-1.5c-0.2-0.6-0.4-1.1-0.7-1.6c-0.7-1.4-1.8-2.5-3-3.5l1,0.3c0.7,0.2,1.5,0.5,2.2,0.8
					c0.4,0.2,0.7,0.3,1.1,0.5c0.3,0.2,0.7,0.3,0.9,0.5L216.4,3.8"/>
				<path class="st2" d="M199.4,0c0.7,0.1,1.4,0.2,2.1,0.4c1.5,0.4,2.9,1.2,4,2.2c1.2,1.1,2,2.6,2.2,4.3c0,1.9-0.4,3.7-1.3,5.3
					l-0.3-0.1c-0.2,0-0.4-0.1-0.7-0.1c-0.4-0.1-0.7-0.1-1.1-0.1c0-0.4,0.1-0.8,0.1-1.2c0-1-0.1-2-0.4-3c-0.5-1.5-1.5-2.7-2.8-3.5
					c-0.9-0.6-1.9-1-3-1.3c-1.5-0.3-3-0.4-4.4-0.1c0,0,0.3-0.2,0.9-0.6c0.6-0.4,1.3-0.7,1.9-1c0.7-0.3,1.3-0.6,2-0.9
					C199.1,0.2,199.5,0.1,199.4,0"/>
				<path class="st2" d="M186.5,7.5c1.8-0.4,3.6-0.5,5.4-0.3c0.8,0.1,1.5,0.3,2.2,0.5c0.8,0.2,1.5,0.6,2.2,1c0.7,0.6,1.3,1.2,1.7,2
					c0.5,0.8,0.9,1.7,1.5,2.6l-2.6,2c0,0-3.2-6.6-13.8-4.4L186.5,7.5z"/>
				<path class="st2" d="M176.7,15.2c0,0,9.8-2.6,13.4,5.4l-3,2.4c0,0-3.2-6.6-13.7-4.4L176.7,15.2z"/>
			</g>
		</g>
	</g>
	<g id="Carrusel_de_fotos">
		
			<rect x="40.5" y="113.2" transform="matrix(0.8834 -0.4687 0.4687 0.8834 -88.8425 147.6169)" class="st3" width="423.4" height="278.1"/>
		
			<rect x="66" y="136.1" transform="matrix(0.8834 -0.4687 0.4687 0.8834 -88.8393 147.6205)" class="st4" width="372.3" height="232.3"/>
		<rect x="41.4" y="113.2" class="st5" width="421.5" height="278.1"/>
	</g>
</g>
</svg>
