<svg xmlns="http://www.w3.org/2000/svg" viewBox="0 0 1280 1226.85"><defs><style>.cls-1{fill:#dedefc;}</style></defs><g id="Layer_2" data-name="Layer 2"><g id="piso"><path class="cls-1" d="M1280,353.26c-15.15-23.71-31-46.77-50.23-67.51-16.64-17.92-35.53-33.64-54.21-49.34a293.18,293.18,0,0,0-36.15-25.88c-30.45-18.54-62.88-33.61-94.88-49.33a352.65,352.65,0,0,1-34.43-21c-9.53-6.69-18.62-14-27.55-21.42-20.65-18.17-41.33-36.67-63.8-52.46C899.83,53,879.11,43.13,858.42,32.8a184.14,184.14,0,0,0-33-12.72C800.86,13.25,777.46,5.81,752.2,3.74c-26-2.12-52.11-5.23-78.2-2.93-25.65,2.27-52.55,4.48-77.94,10.36q-8.56,2-17,4.5c-18.56,5.54-37.28,10.93-55.5,17.57-34.17,12.45-66.3,31.13-97.52,49.4-21.76,12.73-42.63,26.9-63.28,41.34-42.23,29.53-84.47,58.92-127.88,86.72q-66,42.3-134.37,80.88Q50.78,318.77,0,344v698.39c15.36,15.71,32.34,30,49.49,43.42A252.39,252.39,0,0,0,79.41,1106a592.18,592.18,0,0,0,65.29,32.85,346.81,346.81,0,0,0,35.54,12.68c24.43,7.3,49.16,14.24,74.15,19.47,25.41,5.32,51.2,8.55,77.05,10.72,42.72,3.59,85.39,6.06,128.18,8.26q9.57.48,19.14,1c22.14,2.16,44.16,5.17,66.06,9.28,27.61,5.17,55,11.41,82.7,16.15,13.43,2.29,26.92,4.24,40.48,5.51,27.56,2.59,55.53,5.33,83.3,4.86,13.65-.24,27.26-1.26,40.83-2.69,27.75-2.92,55.41-5.84,83-10.14,23.28-3.64,46.49-7.82,69.82-11.18,21.2-1.38,42.39-1.36,63.72-1.07a684.23,684.23,0,0,0,122.38-9,307.71,307.71,0,0,0,37.21-8.6c24.76-7.37,50-14.44,73.74-24.79,5.36-2.33,10.68-4.78,15.87-7.47,7.18-3.71,14.74-7.34,22.16-11.28Z"/></g></g></svg>