<svg xmlns="http://www.w3.org/2000/svg" viewBox="0 0 71.65 118.84"><defs><style>.cls-1{fill:#995c63;}.cls-2{fill:#220e22;}.cls-3{fill:#0f0d33;}.cls-4{fill:#d5d4d9;}.cls-5{fill:#8d4954;}.cls-6{fill:#e0909b;}.cls-7{fill:#bf1140;}.cls-8{fill:#731921;}.cls-9{fill:#990d38;}</style></defs><g id="Layer_2" data-name="Layer 2"><g id="Ventana_Casa_1_Derecha" data-name="Ventana Casa 1 Derecha"><circle class="cls-1" cx="28.54" cy="38.84" r="19"/><path class="cls-2" d="M64.61,34.82a9.55,9.55,0,0,0-.3-2.19,8.52,8.52,0,0,0-2.38-7.88,9,9,0,0,0-2.2-5.08,6.79,6.79,0,0,0-1.93-6.23c-1.13-6.12-4-11.37-11-13a17.51,17.51,0,0,0-12.87,2.2,13,13,0,0,0-10.32-.39A17.22,17.22,0,0,0,16.5,7.18,13.82,13.82,0,0,0,14.09,11c-.15.36-.35.77-.53,1.16l-.19.06a23,23,0,0,0-4,1.57,14.58,14.58,0,0,0-6.74,6.87,11.63,11.63,0,0,0-1,5.85A22.55,22.55,0,0,0,1,33l0,.62c-.13.38-.27.75-.38,1.15a16.43,16.43,0,0,0-.48,6.73C.44,43.35,1.75,45,2,46.72s-.75,3.69-.53,5.62a11.29,11.29,0,0,0,1.91,5.15,12,12,0,0,0,10.43,5c5-.11,14-9.12,6.11-11.82-2.87-1-3.64-9.41-4.11-11.87-.44-2.3-.8-4.63-1-7,1.67-1.65,3.51-4.2,3.06-6.4.43-.08.86-.17,1.28-.29a16.65,16.65,0,0,0,3.3-1.26,9.55,9.55,0,0,0,1.08.3,6.94,6.94,0,0,0,1.6,1.91c3.47,2.81,8.4.79,11.5-1.89a9.57,9.57,0,0,0,.32,2.18,8.58,8.58,0,0,0,0,5.14c.95,3,2.82,4.55,5,5a6,6,0,0,0,4,3c.09.17.19.34.29.5a6.7,6.7,0,0,0-.07,1.73c-.2.27-.38.55-.56.83a9.67,9.67,0,0,0-3.72,5.71,10.75,10.75,0,0,0-3.24,3.11c-2.37,3.64-3.23,8.9.66,11.93a9.11,9.11,0,0,0,8,1.3c5.31,2,11.17-.5,15.41-4.21,1.38-1.21,2.93-4,2.24-5.93a22.28,22.28,0,0,1-.81-4.06,7.11,7.11,0,0,0,0-2.72A7,7,0,0,0,63,44.94a13.07,13.07,0,0,0,2.28-6A8.36,8.36,0,0,0,64.61,34.82Z"/><circle cx="22.49" cy="32.62" r="1.05"/><circle cx="35.49" cy="35.62" r="1.05"/><path class="cls-3" d="M33.65,45.66a26,26,0,0,0-4.3-.74c-1.94-.33-3.89-.67-5.82-1-.46-.09-.88-.25-1.34-.3a.66.66,0,0,0-.31,0c-.37.19,0,1.76.1,2.1a8.39,8.39,0,0,0,.8,2.18,6,6,0,0,0,3.37,2.91,5.3,5.3,0,0,0,4-.67,7.12,7.12,0,0,0,1.94-1.6A7.38,7.38,0,0,0,33.65,45.66Z"/><path class="cls-4" d="M26.6,48.8a4.9,4.9,0,0,0,4.84-1.1,1.3,1.3,0,0,0,.29-1.07c-.18-.54-1-.29-1.44-.26a12.91,12.91,0,0,1-3.4-.13,8.89,8.89,0,0,1-1.68-.46c-.51-.2-.95-.54-1.46-.72s-.84.17-.72.75C23.37,47.43,25.12,48.43,26.6,48.8Z"/><path class="cls-5" d="M30.46,34.24s-3.08,4.88-1,5.74-.36,2.63-2,1.16c0,0-2.83.08,0-1.69C27.45,39.45,29.48,31.45,30.46,34.24Z"/><ellipse class="cls-6" cx="36.91" cy="41.84" rx="2.24" ry="3.01" transform="translate(-10.72 70.89) rotate(-79.96)"/><ellipse class="cls-6" cx="20.91" cy="37.84" rx="2.24" ry="3.01" transform="translate(-20.5 50.24) rotate(-77.74)"/><path class="cls-7" d="M21,59.34l17-1,10,5s25.5,43.5,23.5,55.5l-53-7,2.55-17.3S3.77,91.28,15,68.34C16.3,65.62,16.94,65.4,21,59.34Z"/><path class="cls-8" d="M22.5,60.38S10.86,66.45,11,84.89C11,84.89,13,68.43,22.5,60.38Z"/><path class="cls-7" d="M22.5,62.18l6.38,1.45a41.72,41.72,0,0,1,4.34-.72c1.32-.07,4.82-.73,4.82-.73s1.23-2,1.37-2.2.86.86,0-1.64-.89-4.16-3.38-3.83-2.76-.45-6.13.94-3.4-.39-6.38,0-5,.39-5,1.39S18.46,61.53,22.5,62.18Z"/><path class="cls-8" d="M21.1,61.3S34.27,64.13,39.41,60C39.41,60,32.65,67.77,21.1,61.3Z"/><path class="cls-8" d="M18.64,58.34s8.75,1.5,14.33,0C33,58.34,24.74,61.84,18.64,58.34Z"/><polygon class="cls-9" points="56.64 78.94 50.32 116.03 45.11 115.34 52.37 78.94 56.64 78.94"/><path class="cls-9" d="M19.68,112a6.22,6.22,0,0,1,3.86-3.15c3-1,15.23-3.89,15.23-3.89L45,72.19l3.57,5.65-7.15,28.82-9.85,4.18-9,1.15Z"/><path class="cls-2" d="M65.13,45c-.95-6.57-12.27-1.4-13.36,4.51-.53-1.16-1.79-2-4-2.17-6.56-.5-14.34,6-13.47,12.88a7.75,7.75,0,0,0,4.18,6,9.34,9.34,0,0,0,4.41.92,4.59,4.59,0,0,0,.61,1,7,7,0,0,0,5.21,2.32c4.38.14,8.68-2.51,11.57-5.62C65.27,59.44,66.15,52.05,65.13,45ZM51.88,52.39A19.12,19.12,0,0,1,52,55.22,8,8,0,0,0,50.64,55,8.56,8.56,0,0,0,51.88,52.39Z"/><path class="cls-7" d="M38,58.34s15.32.19,18.16,9.09-9.08,46-9.08,46S43,108.27,38,107.3c0,0,7.85-24.26,6.93-35.11C45,72.19,45,66.34,38,58.34Z"/></g></g></svg>