<svg xmlns="http://www.w3.org/2000/svg" viewBox="0 0 64.51 66.32"><defs><style>.cls-1{fill:#8532d9;}.cls-2{fill:#5f0de3;}.cls-3{fill:#44118c;}</style></defs><g id="Layer_2" data-name="Layer 2"><g id="Ventana_Casa1_Izquierda" data-name="Ventana Casa1 Izquierda"><path class="cls-1" d="M35.28,7.41S6.16,19.1.46,66.32L47.23,51s12.34-19.6,13.14-33.24L54.65,11.6Z"/><path class="cls-2" d="M26.37,16.35l-.5-.77a.37.37,0,0,0-.35-.24.52.52,0,0,0-.48.07,2,2,0,0,0-.57.42,3,3,0,0,0-.58.65l-.36.57a5.43,5.43,0,0,0-.48,1.17l-.1.52a1.34,1.34,0,0,0,.09.79l.51.77a.35.35,0,0,0,.34.24.57.57,0,0,0,.49-.07,2.33,2.33,0,0,0,.57-.42,3.21,3.21,0,0,0,.57-.65l.36-.57a5,5,0,0,0,.48-1.17l.11-.52A1.41,1.41,0,0,0,26.37,16.35Z"/><path class="cls-2" d="M21.07,23.54l-1.78-.76a.5.5,0,0,0-.46,0,1.09,1.09,0,0,0-.55.29,3.24,3.24,0,0,0-.58.59,4.32,4.32,0,0,0-.54.8l-.29.6a4.17,4.17,0,0,0-.3,1.1v.44a.68.68,0,0,0,.29.56l1.79.77a.5.5,0,0,0,.46,0,1,1,0,0,0,.54-.28,3,3,0,0,0,.58-.6,3.93,3.93,0,0,0,.55-.8l.29-.6a4.17,4.17,0,0,0,.3-1.1V24.1A.69.69,0,0,0,21.07,23.54Z"/><path class="cls-2" d="M14.89,31a.47.47,0,0,0-.34-.25,1.94,1.94,0,0,1-.92-.5,2.08,2.08,0,0,1-.32-.56.85.85,0,0,1,0-.23,1.21,1.21,0,0,0-.06-.38.5.5,0,0,0-.25-.39.53.53,0,0,0-.46,0,1.17,1.17,0,0,0-.55.29,4.59,4.59,0,0,0-1.12,1.4l-.29.6a4.17,4.17,0,0,0-.3,1.1,3.48,3.48,0,0,0,0,.79,4.34,4.34,0,0,0,.17.69,2,2,0,0,0,.38.67,2.9,2.9,0,0,0,.75.69l.09,0a1.8,1.8,0,0,0-.45.33,3.6,3.6,0,0,0-.58.65l-.35.56a5.77,5.77,0,0,0-.49,1.18l-.1.52a1.53,1.53,0,0,0,.09.79l.26.51a.35.35,0,0,0,.34.24.57.57,0,0,0,.49-.07,2.33,2.33,0,0,0,.57-.42,3.21,3.21,0,0,0,.57-.65l.36-.57a5.47,5.47,0,0,0,.49-1.17l.1-.52a1.41,1.41,0,0,0-.1-.79l-.18-.36a.91.91,0,0,0,.41-.19,2,2,0,0,0,.58-.48,4.07,4.07,0,0,0,.56-.75,5,5,0,0,0,.47-.88l.19-.58a2.58,2.58,0,0,0,.11-1Z"/><path class="cls-2" d="M10.3,40.1a.47.47,0,0,0-.47-.27,2.46,2.46,0,0,1-1.15-.63.3.3,0,0,0-.25-.13.58.58,0,0,0-.49.07,2.11,2.11,0,0,0-.56.42,2.81,2.81,0,0,0-.58.66l-.36.56A5,5,0,0,0,6,42l-.1.52a1.33,1.33,0,0,0,.09.79,3.2,3.2,0,0,0,.89.75,2.9,2.9,0,0,0,.41.16,3.43,3.43,0,0,0,.71.14,1,1,0,0,0,.53-.21,2.26,2.26,0,0,0,.58-.49,4.58,4.58,0,0,0,.56-.75,4.09,4.09,0,0,0,.46-.88c.07-.19.14-.38.2-.57a2.66,2.66,0,0,0,.11-1Z"/><path class="cls-2" d="M6.7,44.69l-.26-.5a.37.37,0,0,0-.34-.25.57.57,0,0,0-.49.07,2.33,2.33,0,0,0-.57.42,3,3,0,0,0-.57.66l-.36.56a5,5,0,0,0-.48,1.17l-.11.52a1.6,1.6,0,0,0,.07.69,1.86,1.86,0,0,0-.32.23,2.81,2.81,0,0,0-.58.66l-.36.56a5,5,0,0,0-.48,1.17l-.1.53a1.3,1.3,0,0,0,.09.78l1.23,1.57a.35.35,0,0,0,.34.24.51.51,0,0,0,.49-.07,1.91,1.91,0,0,0,.57-.42A3,3,0,0,0,5,52.63l.36-.56a5.55,5.55,0,0,0,.49-1.18l.1-.52a1.39,1.39,0,0,0-.1-.78l-.81-1.05c.06,0,.14-.09.2-.15a3.21,3.21,0,0,0,.57-.65l.36-.56A5.22,5.22,0,0,0,6.69,46l.11-.52A1.44,1.44,0,0,0,6.7,44.69Z"/><path class="cls-2" d="M20.56,39.42a.53.53,0,0,0-.2-.45A.37.37,0,0,0,20,38.8a1.18,1.18,0,0,0-.53.22,2.06,2.06,0,0,0-.57.49l-.38.47a5.74,5.74,0,0,0-.65,1.16c-.06.19-.13.38-.2.57a2.89,2.89,0,0,0-.1,1c.08.42.17.85.25,1.28a.56.56,0,0,0,.2.44.37.37,0,0,0,.39.17,1,1,0,0,0,.53-.22,2,2,0,0,0,.58-.48l.38-.47a5.78,5.78,0,0,0,.64-1.17l.2-.57a2.66,2.66,0,0,0,.1-1C20.73,40.27,20.64,39.84,20.56,39.42Z"/><path class="cls-2" d="M26.86,35.7a1.91,1.91,0,0,1-.35-.58,2.34,2.34,0,0,1,0-.26h0V34.8a2.53,2.53,0,0,0,0-.28,1.09,1.09,0,0,0,0-.4c1.32-.9,2.56-4.26,1.23-4.26S25,32.85,25.32,34l-.13.08a4,4,0,0,0-.77.83l-.36.56a5.73,5.73,0,0,0-.48,1.18,5.22,5.22,0,0,0-.14.79,4.21,4.21,0,0,0,0,.71,3.54,3.54,0,0,0,.21.91,2.15,2.15,0,0,0,.27.52,3.31,3.31,0,0,0,.61.63.51.51,0,0,0,.34,0A7.78,7.78,0,0,0,24,41.46a9.1,9.1,0,0,0-.39.84,7.52,7.52,0,0,0-.28.84,5.07,5.07,0,0,0-.12,2.08.56.56,0,0,0,.2.45.37.37,0,0,0,.39.16,1,1,0,0,0,.53-.22,1.87,1.87,0,0,0,.57-.48,5.36,5.36,0,0,0,1-1.63l.2-.58a2.58,2.58,0,0,0,.1-1,.76.76,0,0,1,0-.15c.06-.12.14-.24.19-.36a3.53,3.53,0,0,0,.25-.84,1.88,1.88,0,0,0,0-.71l-.09-.34a.5.5,0,0,0-.49-.27l-.05,0s0,0,0,0a4.05,4.05,0,0,0,.55-.8l.29-.59a3.89,3.89,0,0,0,.29-1.1v-.45a.67.67,0,0,0-.3-.55Z"/><path class="cls-2" d="M33.55,32.68l-.52-1a.37.37,0,0,0-.34-.25.55.55,0,0,0-.48.07,2,2,0,0,0-.57.42,2.81,2.81,0,0,0-.58.66l-.36.56a5,5,0,0,0-.48,1.17l-.1.52a1.33,1.33,0,0,0,.09.79l.51,1a.36.36,0,0,0,.35.24.5.5,0,0,0,.48-.07,1.69,1.69,0,0,0,.57-.42,3,3,0,0,0,.58-.65l.35-.56A5.55,5.55,0,0,0,33.54,34l.1-.52A1.48,1.48,0,0,0,33.55,32.68Z"/><path class="cls-2" d="M35.41,25.61c-.06-.31-.2-.65-.59-.61a1.87,1.87,0,0,0-1.1.7l-.14.13a5.91,5.91,0,0,1-.63.49,6.07,6.07,0,0,1-1.3.58c-.21.06-.43.11-.65.15a2,2,0,0,0-1.1.7,5.24,5.24,0,0,0-1,1.63,3,3,0,0,0-.3,1.54c.06.29.2.67.58.61a8.43,8.43,0,0,0,4.93-2.75,5.56,5.56,0,0,0,1-1.63,3.1,3.1,0,0,0,.24-.84A2.06,2.06,0,0,0,35.41,25.61Z"/><path class="cls-2" d="M21.84,30a.5.5,0,0,0-.25-.38l-.29-.06a1.43,1.43,0,0,0-.71.34l-.39.36a5,5,0,0,0-.74,1l-1.28,2a4.71,4.71,0,0,0-.39.89,3.2,3.2,0,0,0-.2.81,1.15,1.15,0,0,0,.05.61.51.51,0,0,0,.25.39l.29.05a1.34,1.34,0,0,0,.71-.33l.39-.37a5.38,5.38,0,0,0,.74-1l1.28-2a4.34,4.34,0,0,0,.38-.89,2.83,2.83,0,0,0,.2-.81A1.09,1.09,0,0,0,21.84,30Z"/><path class="cls-2" d="M21.3,16.33c-1.48,0-3.38,4.48-1.85,4.48S22.84,16.33,21.3,16.33Z"/><path class="cls-2" d="M29,11c-1.48,0-3.38,4.49-1.85,4.49S30.5,11,29,11Z"/><path class="cls-2" d="M33.8,19.4l-1-2.54a.35.35,0,0,0-.34-.24.49.49,0,0,0-.48.07,1.69,1.69,0,0,0-.57.42,2.76,2.76,0,0,0-.58.65,5.3,5.3,0,0,0-.84,1.74,2,2,0,0,0,0,1.3c.15.37.3.75.46,1.12a4,4,0,0,0-.62.68c-.12.19-.24.38-.35.57a5.47,5.47,0,0,0-.49,1.17c-.08.43-.17.85-.26,1.28a2.07,2.07,0,0,0-.1.74,1,1,0,0,0,.1.57.36.36,0,0,0,.34.24.57.57,0,0,0,.49-.07l.37-.24a4,4,0,0,0,.77-.83l.36-.57a5,5,0,0,0,.48-1.17l.14-.7a.62.62,0,0,0,.19-.07,2.33,2.33,0,0,0,.57-.42,3.21,3.21,0,0,0,.57-.65,5.31,5.31,0,0,0,.85-1.74A2.1,2.1,0,0,0,33.8,19.4Z"/><path class="cls-2" d="M27.62,21.94a.39.39,0,0,0-.35-.24.56.56,0,0,0-.48.07l-.38.24a4.12,4.12,0,0,0-.77.84l-.35.56a5.47,5.47,0,0,0-.49,1.17l-.25.77a2.07,2.07,0,0,0-.1.74,1.11,1.11,0,0,0,.09.57.37.37,0,0,0,.35.24.52.52,0,0,0,.48-.07l.38-.24a4,4,0,0,0,.77-.83l.36-.57A5.43,5.43,0,0,0,27.36,24l.25-.77a1.87,1.87,0,0,0,.1-.74A1,1,0,0,0,27.62,21.94Z"/><path class="cls-2" d="M39.23,18.22a.53.53,0,0,0-.19-.45.37.37,0,0,0-.39-.16,1,1,0,0,0-.53.21,2.26,2.26,0,0,0-.58.49l-.38.47a5.7,5.7,0,0,0-.64,1.16l-.2.57a2.9,2.9,0,0,0-.11,1c.09.34.18.68.26,1a.53.53,0,0,0,.2.45.37.37,0,0,0,.39.17,1.1,1.1,0,0,0,.52-.22,2,2,0,0,0,.58-.49l.38-.47a5.74,5.74,0,0,0,.65-1.16c.06-.19.13-.38.2-.57a2.89,2.89,0,0,0,.1-1C39.41,18.9,39.32,18.56,39.23,18.22Z"/><path class="cls-2" d="M45.69,21.09a.37.37,0,0,0-.39-.17,1,1,0,0,0-.53.22,2,2,0,0,0-.57.48l-.39.47a6.31,6.31,0,0,0-.64,1.17l-.2.57a2.66,2.66,0,0,0-.1,1v1a.53.53,0,0,0,.19.45.38.38,0,0,0,.39.16.93.93,0,0,0,.53-.22,2,2,0,0,0,.58-.48l.38-.47a6.27,6.27,0,0,0,.65-1.16l.19-.58a2.61,2.61,0,0,0,.11-1v-1A.56.56,0,0,0,45.69,21.09Z"/><path class="cls-2" d="M51.39,26.31l-.77-1a.39.39,0,0,0-.35-.24.56.56,0,0,0-.48.07,2,2,0,0,0-.57.42,3.35,3.35,0,0,0-.58.66l-.35.56a5.47,5.47,0,0,0-.49,1.17l-.1.52a1.51,1.51,0,0,0,.09.79l.77,1a.37.37,0,0,0,.35.24.52.52,0,0,0,.48-.07A2,2,0,0,0,50,30a3,3,0,0,0,.58-.65l.36-.57a5.43,5.43,0,0,0,.48-1.17l.1-.52A1.34,1.34,0,0,0,51.39,26.31Z"/><path class="cls-2" d="M43.39,31.5a.48.48,0,0,0-.12-.26,2.83,2.83,0,0,0,.06-.77V29.19a.52.52,0,0,0-.19-.44.37.37,0,0,0-.39-.17,1,1,0,0,0-.53.22,2,2,0,0,0-.58.48l-.38.47a5.78,5.78,0,0,0-.64,1.17l-.2.57a2.66,2.66,0,0,0-.11,1v1.27a.59.59,0,0,0,.12.35A8.33,8.33,0,0,0,40,35.37a8.74,8.74,0,0,0-.2,2.45.52.52,0,0,0,.19.44.37.37,0,0,0,.39.17,1,1,0,0,0,.53-.22,2,2,0,0,0,.58-.48,5.58,5.58,0,0,0,1-1.64,3.69,3.69,0,0,0,.31-1.54.28.28,0,0,1,0-.09c0-.22,0-.45.07-.67,0-.06,0-.12,0-.18l.12-.31,0,.09a3.82,3.82,0,0,0,.39-1.27A1.18,1.18,0,0,0,43.39,31.5Z"/><path class="cls-2" d="M31.56,41.38l-.51-.26a.5.5,0,0,0-.46,0,1.14,1.14,0,0,0-.54.29,2.74,2.74,0,0,0-.58.6,3.67,3.67,0,0,0-.55.8l-.29.6a4.21,4.21,0,0,0-.3,1.09v.45a.67.67,0,0,0,.3.55l.51.26a.48.48,0,0,0,.45,0,1.09,1.09,0,0,0,.55-.29,3,3,0,0,0,.58-.6,4.85,4.85,0,0,0,.55-.79l.28-.6a3.91,3.91,0,0,0,.3-1.1v-.44A.69.69,0,0,0,31.56,41.38Z"/><path class="cls-2" d="M46.88,40.32l-.19,0,0-.05a3.91,3.91,0,0,0,.34-.88l.1-.52a1.39,1.39,0,0,0-.09-.78l-.2-.22a.7.7,0,0,0-.63,0,4.83,4.83,0,0,0-.8.45,5.9,5.9,0,0,0-.75.66c-.12.13-.23.27-.34.41s-.23.27-.33.42a8.5,8.5,0,0,0-.85,1.57,3.53,3.53,0,0,0-.25.84,1.88,1.88,0,0,0-.05.71.53.53,0,0,0,.2.44l.07.07h0v.45a.67.67,0,0,0,.3.55l1,.26a.5.5,0,0,0,.46,0,1.08,1.08,0,0,0,.54-.28,3.29,3.29,0,0,0,.58-.6,4.37,4.37,0,0,0,.55-.8c.09-.2.19-.4.29-.6a4.17,4.17,0,0,0,.3-1.1v-.44A.69.69,0,0,0,46.88,40.32Z"/><path class="cls-2" d="M37.44,38.62l-.29,0a1.37,1.37,0,0,0-.71.33l-1.51,1.3a3.29,3.29,0,0,0-.58.6,3.93,3.93,0,0,0-.55.8,4.71,4.71,0,0,0-.39.89,3.2,3.2,0,0,0-.2.81v.44a.69.69,0,0,0,.3.56l.28.05a1.37,1.37,0,0,0,.72-.33L36,42.72a3.29,3.29,0,0,0,.58-.6,3.93,3.93,0,0,0,.55-.8,4.71,4.71,0,0,0,.39-.89,3.2,3.2,0,0,0,.2-.81v-.44A.69.69,0,0,0,37.44,38.62Z"/><path class="cls-2" d="M57.09,34.27l-.29-.06a1.43,1.43,0,0,0-.71.34l-1.29,1a1.84,1.84,0,0,0-.19.2l0,0,.51-.77a4.38,4.38,0,0,0,.5-.86,3.57,3.57,0,0,0,.34-.87,2,2,0,0,0,.11-.75,1,1,0,0,0-.1-.56l-.2-.22a.7.7,0,0,0-.63,0L54.8,32a4.09,4.09,0,0,0-.77.84l-.51.76a4.18,4.18,0,0,0-.5.87,3.68,3.68,0,0,0-.35.87,2.07,2.07,0,0,0-.1.74,1,1,0,0,0,.1.57l.2.21a.67.67,0,0,0,.63,0l.37-.24a2.39,2.39,0,0,0,.23-.22,5.19,5.19,0,0,0-.42.62,3.71,3.71,0,0,0-.39.89,3.2,3.2,0,0,0-.2.81v.44a.69.69,0,0,0,.3.56l.28.06a1.5,1.5,0,0,0,.72-.34l1.28-1a2.75,2.75,0,0,0,.58-.6,4.72,4.72,0,0,0,.93-1.68,2.83,2.83,0,0,0,.2-.81v-.44A.68.68,0,0,0,57.09,34.27Z"/><path class="cls-2" d="M58.2,23.38a.37.37,0,0,0-.39-.16,1,1,0,0,0-.53.22,1.87,1.87,0,0,0-.57.48l-.39.47a6.23,6.23,0,0,0-.64,1.16l-.2.58a2.6,2.6,0,0,0-.1,1v.24c-1.46.26-3.2,4.46-1.71,4.46,1,0,2.16-2,2.37-3.34a1,1,0,0,0,.45-.19,2.1,2.1,0,0,0,.58-.49l.38-.47a6.27,6.27,0,0,0,.65-1.16l.19-.57a2.66,2.66,0,0,0,.11-1v-.77A.53.53,0,0,0,58.2,23.38Z"/><path class="cls-2" d="M47.36,47.73l-.54-1.52a.37.37,0,0,0-.35-.24A.52.52,0,0,0,46,46a2,2,0,0,0-.57.42,3,3,0,0,0-.58.65l-.36.57A5.43,5.43,0,0,0,44,48.85c0,.17-.07.35-.1.52a1.34,1.34,0,0,0,.09.79l.54,1.52a.36.36,0,0,0,.35.24.52.52,0,0,0,.48-.07,1.69,1.69,0,0,0,.57-.42,3.6,3.6,0,0,0,.58-.65l.35-.56A5.77,5.77,0,0,0,47.35,49l.1-.52A1.53,1.53,0,0,0,47.36,47.73Z"/><path class="cls-2" d="M51.14,44.16l-.2-.21a.67.67,0,0,0-.63,0l-.38.24a4.34,4.34,0,0,0-.77.83l-.5.77a4.38,4.38,0,0,0-.5.86,3.94,3.94,0,0,0-.35.88,2.07,2.07,0,0,0-.1.74,1,1,0,0,0,.1.57l.2.21a.67.67,0,0,0,.63,0l.37-.24a4,4,0,0,0,.77-.83l.51-.77a4.68,4.68,0,0,0,.5-.87,3.66,3.66,0,0,0,.34-.87,1.87,1.87,0,0,0,.1-.74A1,1,0,0,0,51.14,44.16Z"/><path class="cls-2" d="M50.54,36.4a.37.37,0,0,0-.39-.16,1,1,0,0,0-.53.22,1.87,1.87,0,0,0-.57.48l-.38.47A5.82,5.82,0,0,0,48,38.58l-.2.57a2.66,2.66,0,0,0-.1,1v.25a.53.53,0,0,0,.2.45.34.34,0,0,0,.38.16,1,1,0,0,0,.53-.21,2.1,2.1,0,0,0,.58-.49l.38-.47a5.74,5.74,0,0,0,.65-1.16l.19-.57a2.66,2.66,0,0,0,.11-1v-.26A.56.56,0,0,0,50.54,36.4Z"/><path class="cls-2" d="M49.39,31.65c-1.48,0-3.39,4.48-1.85,4.48S50.92,31.65,49.39,31.65Z"/><path class="cls-2" d="M5.2,58.05,2.72,55.93a.5.5,0,0,0-.46,0,1.1,1.1,0,0,0-.54.29,2.75,2.75,0,0,0-.58.6,3.86,3.86,0,0,0-.55.79A4.54,4.54,0,0,0,0,59.3v.44a.68.68,0,0,0,.3.56l2.48,2.13a.53.53,0,0,0,.46,0,1.09,1.09,0,0,0,.55-.29,3.24,3.24,0,0,0,.58-.59,4.32,4.32,0,0,0,.54-.8,4.37,4.37,0,0,0,.59-1.7v-.44A.69.69,0,0,0,5.2,58.05Z"/><path class="cls-2" d="M15.5,51.41l-.09-.35a.5.5,0,0,0-.49-.27l-.34.1a3,3,0,0,0-.77.6c-.05.06-.11.11-.16.18l-.43.53-.23.37c-.08.12-.16.24-.23.36s-.22.46-.33.68a6,6,0,0,0-.28.77l-.06.22a5.55,5.55,0,0,0-.13.71,3.79,3.79,0,0,0,0,.89.51.51,0,0,0,.2.45.34.34,0,0,0,.38.16.93.93,0,0,0,.53-.22,1.91,1.91,0,0,0,.58-.48l.38-.47a6.27,6.27,0,0,0,.65-1.16c.06-.19.13-.38.19-.57a2.28,2.28,0,0,0,.1-.57A2.93,2.93,0,0,0,15.2,53a3.12,3.12,0,0,0,.25-.84A1.83,1.83,0,0,0,15.5,51.41Z"/><path class="cls-2" d="M12.11,59.22a1,1,0,0,0-.55.19c.46-1.12.55-2.23-.22-2.23-1.48,0-3.38,4.48-1.84,4.48a1,1,0,0,0,.55-.18c-.46,1.12-.55,2.23.21,2.23C11.74,63.71,13.65,59.22,12.11,59.22Z"/><path class="cls-2" d="M21.3,55.13c-1.48,0-3.38,4.49-1.85,4.49S22.84,55.13,21.3,55.13Z"/><path class="cls-2" d="M24.62,55.39c-1.48,0-3.38,4.49-1.85,4.49S26.16,55.39,24.62,55.39Z"/><path class="cls-2" d="M31.77,48.24c-1.37,0-3.11,3.87-2.12,4.42-1.41.57-2.94,4.41-1.52,4.41s3.11-3.87,2.13-4.42C31.66,52.08,33.19,48.24,31.77,48.24Z"/><path class="cls-2" d="M36.11,50.54c-1.48,0-3.38,4.49-1.85,4.49S37.65,50.54,36.11,50.54Z"/><path class="cls-2" d="M39.68,48.5C38.21,48.5,36.3,53,37.84,53S41.22,48.5,39.68,48.5Z"/><path class="cls-2" d="M24.11,46.71c-1.48,0-3.38,4.49-1.85,4.49S25.65,46.71,24.11,46.71Z"/><path class="cls-2" d="M12.37,41.86c-1.48,0-3.39,4.49-1.85,4.49S13.9,41.86,12.37,41.86Z"/><path class="cls-2" d="M10.07,47.22c-1.48,0-3.39,4.49-1.85,4.49S11.6,47.22,10.07,47.22Z"/><path class="cls-2" d="M15.94,40.07c-1.48,0-3.38,4.49-1.85,4.49S17.48,40.07,15.94,40.07Z"/><path class="cls-2" d="M18,45l-.51-.26a.48.48,0,0,0-.45,0,1.07,1.07,0,0,0-.55.28,3.65,3.65,0,0,0-.58.6,4.37,4.37,0,0,0-.55.8l-.29.6a3.8,3.8,0,0,0-.29,1.1v.44a.69.69,0,0,0,.3.56l.51.25a.5.5,0,0,0,.46,0,1.09,1.09,0,0,0,.55-.29,3,3,0,0,0,.58-.6,4,4,0,0,0,.54-.8l.29-.59a4.28,4.28,0,0,0,.3-1.1v-.45A.67.67,0,0,0,18,45Z"/><path class="cls-2" d="M19.09,29.46l-.1-.34a.48.48,0,0,0-.49-.28l-.34.1a2.65,2.65,0,0,0-.76.61,7.92,7.92,0,0,0-1.68,3,6.06,6.06,0,0,0-.15.74,1.87,1.87,0,0,0,0,.25,5.17,5.17,0,0,0,0,.68l0,.27a.53.53,0,0,0,.2.45.38.38,0,0,0,.39.16,1,1,0,0,0,.53-.22,1.87,1.87,0,0,0,.57-.48,5.36,5.36,0,0,0,1-1.63c.07-.19.13-.39.2-.58a2.93,2.93,0,0,0,.1-.78c.07-.14.16-.28.22-.42a3.1,3.1,0,0,0,.24-.84A2.06,2.06,0,0,0,19.09,29.46Z"/><path class="cls-2" d="M38.09,33.18a.39.39,0,0,0-.34-.24.57.57,0,0,0-.49.07l-.37.24a3.9,3.9,0,0,0-.78.84l-.35.56a5.47,5.47,0,0,0-.49,1.17c-.08.43-.17.85-.25,1.28a2.08,2.08,0,0,0-.11.74,1,1,0,0,0,.1.57.35.35,0,0,0,.34.24.57.57,0,0,0,.49-.07l.37-.24a3.78,3.78,0,0,0,.77-.83l.36-.57a5.47,5.47,0,0,0,.49-1.17c.08-.43.17-.85.25-1.28a2.08,2.08,0,0,0,.11-.74A1,1,0,0,0,38.09,33.18Z"/><path class="cls-2" d="M41.42,43.42a2.71,2.71,0,0,1-.13-.3,1.23,1.23,0,0,1,0-.19,2,2,0,0,0,0-.49,1,1,0,0,0-.1-.56.35.35,0,0,0-.34-.24.51.51,0,0,0-.49.07L40,42a4,4,0,0,0-.77.83,5.61,5.61,0,0,0-.84,1.74c-.07.22-.1.46-.15.69a1.49,1.49,0,0,0,0,.21c0,.21,0,.42,0,.62a1.5,1.5,0,0,0,0,.22,3.45,3.45,0,0,0,.18.72,1.38,1.38,0,0,0,.18.39.35.35,0,0,0,.34.24.54.54,0,0,0,.49-.07,2.33,2.33,0,0,0,.57-.42,3.21,3.21,0,0,0,.57-.65l.36-.57a5,5,0,0,0,.48-1.17l.11-.52A1.43,1.43,0,0,0,41.42,43.42Z"/><path class="cls-2" d="M28.27,45.79a.53.53,0,0,0-.2-.45.35.35,0,0,0-.39-.16.93.93,0,0,0-.52.22,1.91,1.91,0,0,0-.58.48l-.38.47a5.74,5.74,0,0,0-.65,1.16l-.19.58a2.58,2.58,0,0,0-.11,1c.09.43.17.85.26,1.28a.53.53,0,0,0,.19.45.38.38,0,0,0,.39.16.93.93,0,0,0,.53-.22,2,2,0,0,0,.58-.48l.38-.47a5.7,5.7,0,0,0,.64-1.16l.2-.58a2.61,2.61,0,0,0,.11-1C28.44,46.64,28.36,46.22,28.27,45.79Z"/><path class="cls-2" d="M19.65,51.47a.39.39,0,0,0-.39-.17,1.09,1.09,0,0,0-.53.22,2.26,2.26,0,0,0-.58.49l-.38.47a5.7,5.7,0,0,0-.64,1.16l-.2.57a2.9,2.9,0,0,0-.11,1v1.28a.58.58,0,0,0,.2.45.38.38,0,0,0,.39.16,1,1,0,0,0,.53-.22,2,2,0,0,0,.58-.48l.38-.47a5.78,5.78,0,0,0,.64-1.17l.2-.57a2.66,2.66,0,0,0,.1-1V51.92A.53.53,0,0,0,19.65,51.47Z"/><path class="cls-2" d="M16.23,57,16,56.72a.5.5,0,0,0-.46,0A1.08,1.08,0,0,0,15,57a3.29,3.29,0,0,0-.58.6,3.93,3.93,0,0,0-.55.8l-.29.6a4.17,4.17,0,0,0-.3,1.1v.44a.69.69,0,0,0,.3.56l.25.25a.5.5,0,0,0,.46,0,1.09,1.09,0,0,0,.55-.29,3,3,0,0,0,.58-.6,4,4,0,0,0,.54-.8l.29-.59a4.28,4.28,0,0,0,.3-1.1v-.45A.67.67,0,0,0,16.23,57Z"/><path class="cls-2" d="M40.07,25.94a.36.36,0,0,0-.39-.17,1.1,1.1,0,0,0-.52.22,2.25,2.25,0,0,0-.58.48l-.38.47a6.11,6.11,0,0,0-.65,1.17l-.19.57a2.66,2.66,0,0,0-.11,1v.51a.53.53,0,0,0,.2.45.37.37,0,0,0,.39.16.93.93,0,0,0,.52-.22,1.8,1.8,0,0,0,.58-.48l.38-.47A5.74,5.74,0,0,0,40,28.44c.06-.19.13-.39.2-.58a2.83,2.83,0,0,0,.1-1v-.51A.53.53,0,0,0,40.07,25.94Z"/><path class="cls-2" d="M47.48,26.45a.37.37,0,0,0-.39-.17,1.09,1.09,0,0,0-.53.22A2.43,2.43,0,0,0,46,27l-.38.48A5.7,5.7,0,0,0,45,28.62l-.2.57a2.9,2.9,0,0,0-.11,1v.25a.56.56,0,0,0,.2.45.37.37,0,0,0,.39.17,1.09,1.09,0,0,0,.53-.22,2.43,2.43,0,0,0,.58-.48l.38-.48a5.7,5.7,0,0,0,.64-1.16l.2-.57a2.66,2.66,0,0,0,.1-1V26.9A.53.53,0,0,0,47.48,26.45Z"/><path class="cls-2" d="M52.94,39.32a.5.5,0,0,0-.49-.27H52.2a1,1,0,0,0-.53.22,1.91,1.91,0,0,0-.58.48,4.07,4.07,0,0,0-.56.75,5,5,0,0,0-.47.88l-.19.58a2.61,2.61,0,0,0-.11,1l.1.35a.49.49,0,0,0,.49.27h.25a1.09,1.09,0,0,0,.53-.22,2.43,2.43,0,0,0,.58-.48,4.26,4.26,0,0,0,.56-.76,4.09,4.09,0,0,0,.46-.88l.2-.57a2.66,2.66,0,0,0,.11-1Z"/><path class="cls-2" d="M37.35,44.16l-.2-.21a.7.7,0,0,0-.63,0l-.37.24a3.85,3.85,0,0,0-.77.84l-.51.76a4.38,4.38,0,0,0-.5.86,3.91,3.91,0,0,0-.34.88,2.08,2.08,0,0,0-.11.74,1,1,0,0,0,.1.57l.2.21a.7.7,0,0,0,.63,0l.37-.24A3.78,3.78,0,0,0,36,48l.51-.77a4.38,4.38,0,0,0,.5-.86,3.94,3.94,0,0,0,.35-.88,2.07,2.07,0,0,0,.1-.74A1,1,0,0,0,37.35,44.16Z"/><path class="cls-2" d="M17.09,22.11a.35.35,0,0,0-.38-.17,1.09,1.09,0,0,0-.53.22,2.25,2.25,0,0,0-.58.48l-.38.47a6.11,6.11,0,0,0-.65,1.17l-.19.57a2.66,2.66,0,0,0-.11,1v.51a.53.53,0,0,0,.2.45.37.37,0,0,0,.39.16,1,1,0,0,0,.53-.22,1.87,1.87,0,0,0,.57-.48l.38-.47A5.74,5.74,0,0,0,17,24.61l.2-.58a2.6,2.6,0,0,0,.1-1v-.51A.53.53,0,0,0,17.09,22.11Z"/><path class="cls-2" d="M9.55,55.65,9,54.89a.37.37,0,0,0-.35-.24.49.49,0,0,0-.48.07,1.69,1.69,0,0,0-.57.42,2.76,2.76,0,0,0-.58.65l-.36.56a5.43,5.43,0,0,0-.48,1.17l-.1.53a1.3,1.3,0,0,0,.09.78l.51.77a.36.36,0,0,0,.34.24.54.54,0,0,0,.49-.07,1.69,1.69,0,0,0,.57-.42,3.6,3.6,0,0,0,.58-.65c.11-.19.23-.38.35-.56A5.77,5.77,0,0,0,9.54,57l.1-.52A1.53,1.53,0,0,0,9.55,55.65Z"/><path class="cls-3" d="M17.7,39.34l0,0a.62.62,0,0,0,.29-.48L18,38.58a1.21,1.21,0,0,0-.49-.46L17,37.87a1.92,1.92,0,0,0-.63-.24,2.46,2.46,0,0,0-.76-.12,2.92,2.92,0,0,0-.78,0,2.15,2.15,0,0,0-.65.17l-.32.18a.62.62,0,0,0-.14.14V34.76a.93.93,0,0,0-.54-.72,3.13,3.13,0,0,0-1.4-.36,3,3,0,0,0-1.43.21c-.26.13-.62.32-.62.66v4.09a.93.93,0,0,0,.55.72,3.1,3.1,0,0,0,1.4.36,3.12,3.12,0,0,0,1.42-.21c.26-.13.62-.33.62-.67v-.06a1.22,1.22,0,0,0,.39.32l.19.1a.62.62,0,0,0-.26.45c-.09.34-.18.68-.26,1a.45.45,0,0,0,.15.38.88.88,0,0,0,.4.34,2.28,2.28,0,0,0,.63.24,2.8,2.8,0,0,0,.76.12h.54a3.1,3.1,0,0,0,.89-.2l.32-.18a.69.69,0,0,0,.3-.48c.09-.34.17-.68.26-1a.46.46,0,0,0-.15-.39S17.75,39.39,17.7,39.34Z"/><path class="cls-3" d="M23.61,36a.69.69,0,0,0,.3-.48V35a.5.5,0,0,0-.16-.39.87.87,0,0,0-.39-.34,2.08,2.08,0,0,0-.63-.23,2.89,2.89,0,0,0-.77-.13h-.53a3.09,3.09,0,0,0-.9.2l-.32.19a.65.65,0,0,0-.3.48v.51a.51.51,0,0,0,.08.28l-.21.07a1.2,1.2,0,0,0-.54.4l-.08.26a.69.69,0,0,0,.13.37,3.21,3.21,0,0,1,.56,1.18,4,4,0,0,1,.06.5.91.91,0,0,0,.54.72,2.06,2.06,0,0,0,.64.24,2.46,2.46,0,0,0,.76.12,3,3,0,0,0,1.43-.21c.26-.12.63-.32.62-.66a4.15,4.15,0,0,0-.26-1.35,3.54,3.54,0,0,0-.57-1l.22-.07Z"/><path class="cls-3" d="M27.44,26.63a2.08,2.08,0,0,0-.63-.23,2.82,2.82,0,0,0-.76-.13h-.54a3,3,0,0,0-.89.2c-.26.13-.62.33-.62.67v.48a2.85,2.85,0,0,0-.51-.08H23a3,3,0,0,0-.89.2l-.33.18a.69.69,0,0,0-.3.48v.26a.49.49,0,0,0,.16.38.81.81,0,0,0,.39.34,2.41,2.41,0,0,0,.63.24,3.34,3.34,0,0,0,.77.12h.53a2.36,2.36,0,0,0,.6-.11l0,0a2,2,0,0,0,.63.23,2.82,2.82,0,0,0,.76.13h.54a2.75,2.75,0,0,0,.89-.21c.26-.12.62-.32.62-.66V27.36A.93.93,0,0,0,27.44,26.63Z"/><path class="cls-3" d="M31.71,33.75,31.45,33a.82.82,0,0,0-.34-.35,1.51,1.51,0,0,0-.55-.28,2.32,2.32,0,0,0-.73-.15,2.69,2.69,0,0,0-.8,0l-.48.07a2,2,0,0,0-.74.32l-.21.22a.49.49,0,0,0,0,.52l.26.77a.82.82,0,0,0,.34.35,1.55,1.55,0,0,0,.54.28,2.72,2.72,0,0,0,.74.16,3.05,3.05,0,0,0,.8,0l.48-.07a2,2,0,0,0,.74-.32l.21-.22A.54.54,0,0,0,31.71,33.75Z"/><path class="cls-3" d="M18.71,47.05a2.08,2.08,0,0,0-.63-.23,2.89,2.89,0,0,0-.77-.13,3.3,3.3,0,0,0-1.43.21c-.28.14-.58.32-.62.67L15,50.12c0,.32.32.59.55.72a2.1,2.1,0,0,0,.63.24,2.53,2.53,0,0,0,.77.12A3,3,0,0,0,18.39,51c.27-.13.58-.31.62-.66l.25-2.55C19.29,47.46,18.94,47.19,18.71,47.05Z"/><path class="cls-3" d="M13.93,51.74a.52.52,0,0,0-.22-.37,1.45,1.45,0,0,0-.5-.31,2.49,2.49,0,0,0-.67-.21L12,50.79a3.8,3.8,0,0,0-1,.08l-.42.13a1.19,1.19,0,0,0-.53.41,2,2,0,0,0-.38.6,2.91,2.91,0,0,0-.24.92.5.5,0,0,0,.16.39.87.87,0,0,0,.39.34,2.08,2.08,0,0,0,.63.23,2.89,2.89,0,0,0,.77.13h.53a2.81,2.81,0,0,0,.9-.21l.32-.18a.65.65,0,0,0,.3-.48,2,2,0,0,1,.07-.42,2.26,2.26,0,0,1,.37-.59A.4.4,0,0,0,13.93,51.74Z"/><path class="cls-3" d="M9.23,55.1a1.33,1.33,0,0,1-.15-.32,1.1,1.1,0,0,1,0-.36A.45.45,0,0,0,9,54a1,1,0,0,0-.4-.34,2.41,2.41,0,0,0-.63-.24,3.26,3.26,0,0,0-.77-.12H6.63a3,3,0,0,0-.89.2l-.33.18a.65.65,0,0,0-.29.48,1.59,1.59,0,0,0,0,.81,1.17,1.17,0,0,0,.1.26.41.41,0,0,0,.07.11,2.33,2.33,0,0,0,.27.35,1.45,1.45,0,0,0,.5.31,2.49,2.49,0,0,0,.67.21,3.55,3.55,0,0,0,.8.06,2.63,2.63,0,0,0,.74-.08l.42-.13a1.19,1.19,0,0,0,.53-.41l.09-.25A.67.67,0,0,0,9.23,55.1Z"/><path class="cls-3" d="M10.77,61.07l-.26-.77a.82.82,0,0,0-.34-.35,1.55,1.55,0,0,0-.54-.28,2.72,2.72,0,0,0-.74-.16,3.05,3.05,0,0,0-.8,0l-.48.07a1.92,1.92,0,0,0-.73.32l-.22.22a.54.54,0,0,0,0,.52c.09.26.18.51.26.77a.82.82,0,0,0,.34.35,1.59,1.59,0,0,0,.55.28,2.32,2.32,0,0,0,.73.15,2.69,2.69,0,0,0,.8,0l.48-.07a2,2,0,0,0,.74-.32l.21-.22A.49.49,0,0,0,10.77,61.07Z"/><path class="cls-3" d="M5.79,63.61l0,0a1.76,1.76,0,0,1-.19-.39,1.77,1.77,0,0,1,0-.32.53.53,0,0,0-.15-.39,1,1,0,0,0-.4-.34,2.08,2.08,0,0,0-.63-.23,2.89,2.89,0,0,0-.77-.13H3.05a3,3,0,0,0-.89.2l-.33.19a.65.65,0,0,0-.3.48,2.17,2.17,0,0,0,0,.36,3.64,3.64,0,0,0,.15.59,2,2,0,0,0,.17.32,2.92,2.92,0,0,0,.42.51,1.22,1.22,0,0,0,.5.3,1.94,1.94,0,0,0,.67.21,2.61,2.61,0,0,0,.79.06A2.4,2.4,0,0,0,5,64.91l.41-.13a1.13,1.13,0,0,0,.54-.4L6,64.12A.65.65,0,0,0,5.79,63.61Z"/><path class="cls-3" d="M15.9,58.54a1.21,1.21,0,0,0-.49-.46l-.76-.52a2.08,2.08,0,0,0-.63-.23,2.82,2.82,0,0,0-.76-.13,2.55,2.55,0,0,0-.78,0,2.14,2.14,0,0,0-.65.16l-.32.19a.6.6,0,0,0-.3.48l0,.26a1.23,1.23,0,0,0,.5.46l.75.52a2.35,2.35,0,0,0,.64.24,3.17,3.17,0,0,0,.76.12,2.83,2.83,0,0,0,.77,0,2.47,2.47,0,0,0,.66-.17l.32-.18a.69.69,0,0,0,.3-.48Z"/><path class="cls-3" d="M24.43,57.74l-.26-.25a1.45,1.45,0,0,0-.5-.31A2.54,2.54,0,0,0,23.2,57a.48.48,0,0,0,.18-.35.46.46,0,0,0-.15-.39,1,1,0,0,0-.4-.34l-.39-.17a3.25,3.25,0,0,0-.42-.11s0-.06-.08-.08a1.55,1.55,0,0,0-.54-.28,2.72,2.72,0,0,0-.74-.16,3.05,3.05,0,0,0-.8,0l-.48.07a2,2,0,0,0-.74.32l-.21.22a.54.54,0,0,0,0,.52.65.65,0,0,0,.08.17,1.93,1.93,0,0,0,.28.36l.06.06a3,3,0,0,0,.36.26,2.61,2.61,0,0,0,.54.25,3.48,3.48,0,0,0,.63.18h.15l-.08.22a.66.66,0,0,0,.25.51l.25.26a1.71,1.71,0,0,0,.5.3,2.37,2.37,0,0,0,.67.21,3.6,3.6,0,0,0,.8.06,2.74,2.74,0,0,0,.75-.08l.41-.13a1.2,1.2,0,0,0,.54-.4l.08-.26A.66.66,0,0,0,24.43,57.74Z"/><path class="cls-3" d="M30.2,51.61c-.09-.34-.18-.68-.26-1a.88.88,0,0,0-.34-.35,1.59,1.59,0,0,0-.55-.28,2.64,2.64,0,0,0-.74-.16,3,3,0,0,0-.79,0l-.49.07a2,2,0,0,0-.73.32l-.21.22a.49.49,0,0,0,0,.52c.09.34.17.68.26,1a.82.82,0,0,0,.34.35,1.51,1.51,0,0,0,.55.28,2.65,2.65,0,0,0,.73.16,3.06,3.06,0,0,0,.8,0l.48-.07a2,2,0,0,0,.74-.32l.21-.22A.49.49,0,0,0,30.2,51.61Z"/><path class="cls-3" d="M25.54,54.21a2.54,2.54,0,0,1-.37-.78,2.6,2.6,0,0,1,0-1.11c0-.07.06-.14.1-.22a.61.61,0,0,0-.16-.76A2.37,2.37,0,0,0,24,50.83a3.53,3.53,0,0,0-1.55,0,1.43,1.43,0,0,0-.94.53,2.9,2.9,0,0,0-.35,1.73,3.49,3.49,0,0,0,.24,1,3.31,3.31,0,0,0,.59.88,1.29,1.29,0,0,0,.5.3,2.2,2.2,0,0,0,.67.22,3.8,3.8,0,0,0,1.54,0l.42-.13a1.19,1.19,0,0,0,.53-.41l.09-.26A.68.68,0,0,0,25.54,54.21Z"/><path class="cls-3" d="M34.53,43.7l-.25-.77a.82.82,0,0,0-.34-.35,1.51,1.51,0,0,0-.55-.28,2.32,2.32,0,0,0-.73-.15,2.69,2.69,0,0,0-.8,0l-.48.07a2,2,0,0,0-.74.32l-.21.22a.51.51,0,0,0,0,.52c.08.26.17.51.25.77a.82.82,0,0,0,.34.35,1.37,1.37,0,0,0,.55.28,2.65,2.65,0,0,0,.73.16,3.06,3.06,0,0,0,.8,0l.48-.07a2,2,0,0,0,.74-.32l.21-.22A.49.49,0,0,0,34.53,43.7Z"/><path class="cls-3" d="M38.52,47.07a3.31,3.31,0,0,1,.08-1.5l0-.08a.4.4,0,0,0,.06-.39.5.5,0,0,0-.22-.38,1.59,1.59,0,0,0-.5-.3,1.94,1.94,0,0,0-.67-.21,3.48,3.48,0,0,0-1.54,0l-.41.13a1.2,1.2,0,0,0-.54.4,4.1,4.1,0,0,0-.34,1.54,4,4,0,0,0,.31,1.53.84.84,0,0,0,.34.36,1.59,1.59,0,0,0,.55.28,3,3,0,0,0,.74.15,3,3,0,0,0,.79,0l.48-.08a1.94,1.94,0,0,0,.74-.31.61.61,0,0,0,.24-.74A3.88,3.88,0,0,1,38.52,47.07Z"/><path class="cls-3" d="M34.73,51a.92.92,0,0,0-.39-.34,2,2,0,0,0-.64-.23,2.75,2.75,0,0,0-.76-.13h-.53a3.09,3.09,0,0,0-.9.2l-.32.19a.65.65,0,0,0-.3.48v.25a.53.53,0,0,0,.15.39.86.86,0,0,0,.4.33,1.87,1.87,0,0,0,.63.24,2.53,2.53,0,0,0,.77.12h.53a2.69,2.69,0,0,0,.89-.21l.33-.18a.69.69,0,0,0,.3-.48v-.25A.5.5,0,0,0,34.73,51Z"/><path class="cls-3" d="M36.61,35a1.09,1.09,0,0,0-.49-.46l-.51-.26a2.08,2.08,0,0,0-.63-.23,2.82,2.82,0,0,0-.76-.13,2.9,2.9,0,0,0-.78,0,2.14,2.14,0,0,0-.65.16l-.32.19a.65.65,0,0,0-.29.43h0l-.41.13a1.22,1.22,0,0,0-.54.41,3.52,3.52,0,0,0-.34,1.1,2.94,2.94,0,0,0-1-.37,3.85,3.85,0,0,0-1.55,0l-.41.13a1.22,1.22,0,0,0-.54.41A3.12,3.12,0,0,0,27,38a3.78,3.78,0,0,0,.12.83,2.47,2.47,0,0,0,.22.59,1.58,1.58,0,0,0,.89.63,2.64,2.64,0,0,0,.73.15,2.69,2.69,0,0,0,.8,0l.48-.08.09,0a3.11,3.11,0,0,0,.68.11h.53a3.09,3.09,0,0,0,.9-.2l.32-.18a.69.69,0,0,0,.3-.48V39.1a.56.56,0,0,0-.15-.39.91.91,0,0,0-.37-.3h0a3,3,0,0,0,.79,0l.49-.07A2,2,0,0,0,34.6,38l.21-.22a.46.46,0,0,0,.07-.32A2.82,2.82,0,0,1,35,36.21l0-.09a2,2,0,0,0,.42,0,2.15,2.15,0,0,0,.65-.17l.32-.18a.63.63,0,0,0,.3-.48Z"/><path class="cls-3" d="M44.18,27.22a.93.93,0,0,0-.4-.33,2.41,2.41,0,0,0-.63-.24h0l.21-.11.21-.23a.51.51,0,0,0,0-.52,1.17,1.17,0,0,1-.05-.11,1.09,1.09,0,0,1,0-.18.54.54,0,0,1,.09-.15,1.09,1.09,0,0,0,.26-.21.54.54,0,0,0,.19-.37.49.49,0,0,0-.15-.39,1,1,0,0,0-.4-.34l-.4-.17a3.69,3.69,0,0,0-1-.19,3.61,3.61,0,0,0-1.42.22,2.42,2.42,0,0,0-.5.27,2.19,2.19,0,0,0-.34.34.9.9,0,0,0-.2.34,1.42,1.42,0,0,0-.14.64,2.2,2.2,0,0,0,.09.43.64.64,0,0,0,.08.19.77.77,0,0,0,.34.35,1.53,1.53,0,0,0,.55.29c.09,0,.19,0,.29.06l-.22.12a.63.63,0,0,0-.3.48v1a.46.46,0,0,0,.15.39s0,0,0,0c-.64,0-1.44.23-1.47.85,0,.79,1.42,1.08,1.95,1.08s2,0,2.05-.87a.65.65,0,0,0-.16-.42,2.83,2.83,0,0,0,.81-.2l.32-.18a.6.6,0,0,0,.3-.48v-1A.48.48,0,0,0,44.18,27.22Z"/><path class="cls-3" d="M39.71,23.9a.54.54,0,0,0-.22-.37,1.29,1.29,0,0,0-.5-.3,2,2,0,0,0-.67-.21L37.79,23a3.8,3.8,0,0,0-1,.08l-.42.14a1.06,1.06,0,0,0-.53.4l-.51,1a.36.36,0,0,0-.08.19,3.21,3.21,0,0,0-.53-.07h-.53a3.09,3.09,0,0,0-.9.2l-.5.26a.89.89,0,0,0-.43.3.47.47,0,0,0-.19.37.45.45,0,0,0,.15.38.92.92,0,0,0,.39.34l.4.17a3.77,3.77,0,0,0,1,.19h.53a3.09,3.09,0,0,0,.9-.2l.51-.26a1,1,0,0,0,.43-.3.46.46,0,0,0,.17-.29h0l.53.06a3.8,3.8,0,0,0,1-.08l.41-.13a1.15,1.15,0,0,0,.54-.41l.51-1A.39.39,0,0,0,39.71,23.9Z"/><path class="cls-3" d="M31.3,22a.5.5,0,0,0-.16-.39.87.87,0,0,0-.39-.34l-.4-.17a3.77,3.77,0,0,0-1-.19h-.53a2.81,2.81,0,0,0-.9.21,2.25,2.25,0,0,0-.47.28,2.73,2.73,0,0,0-.34.34A1.16,1.16,0,0,0,27,22l.2-1c.06-.3-.35-.6-.55-.72a3.13,3.13,0,0,0-1.4-.36,3,3,0,0,0-1.43.21,1,1,0,0,0-.62.66c-.19,1-.38,2-.58,3a2,2,0,0,0-.25-.18,2.35,2.35,0,0,0-.64-.24,2.74,2.74,0,0,0-.76-.12,3,3,0,0,0-1.43.21c-.26.13-.62.32-.62.66v2a.93.93,0,0,0,.55.73,2.08,2.08,0,0,0,.63.23,2.89,2.89,0,0,0,.77.13A3.26,3.26,0,0,0,22.26,27c.26-.13.63-.33.63-.67V25.25l.09.06a3.64,3.64,0,0,0,2.82.15,1,1,0,0,0,.63-.66l.36-1.9a2.73,2.73,0,0,0,.1.41.82.82,0,0,0,.34.35,1.61,1.61,0,0,0,.55.29,3,3,0,0,0,.74.15,3.49,3.49,0,0,0,.79,0l.49-.08a2,2,0,0,0,.73-.31l.21-.22a.53.53,0,0,0,0-.5.94.94,0,0,1,0-.29,1.59,1.59,0,0,1,.13-.22l0,0,0,0h0a.57.57,0,0,0,.14-.13A.47.47,0,0,0,31.3,22Z"/><path class="cls-3" d="M22.32,21.22l-.77-1.79a.82.82,0,0,0-.34-.35,1.51,1.51,0,0,0-.55-.28,2.65,2.65,0,0,0-.73-.16,3.06,3.06,0,0,0-.8,0l-.48.07a2,2,0,0,0-.74.32l-.21.22a.51.51,0,0,0,0,.52l.77,1.79a.82.82,0,0,0,.34.35,1.51,1.51,0,0,0,.55.28,2.58,2.58,0,0,0,.73.16,3.06,3.06,0,0,0,.8,0l.48-.07a2,2,0,0,0,.74-.32l.21-.22A.54.54,0,0,0,22.32,21.22Z"/><path class="cls-3" d="M26.22,17.4l-.1-.11a2.53,2.53,0,0,1-.39-.83,2,2,0,0,1,0-.34.52.52,0,0,0-.15-.38.88.88,0,0,0-.4-.34,2.41,2.41,0,0,0-.63-.24,2.88,2.88,0,0,0-.77-.12h-.53a3,3,0,0,0-.89.2l-.33.18a.69.69,0,0,0-.3.48,4.41,4.41,0,0,0,.09.62,3.31,3.31,0,0,0,.19.61,2.63,2.63,0,0,0,.24.44,5.12,5.12,0,0,0,.5.63,1.71,1.71,0,0,0,.5.3,2.74,2.74,0,0,0,.67.21,3.6,3.6,0,0,0,.8.06,2.74,2.74,0,0,0,.75-.08l.41-.13a1.15,1.15,0,0,0,.54-.41l.08-.25A.66.66,0,0,0,26.22,17.4Z"/><path class="cls-3" d="M27.32,13.25c-.57,0-2,0-2.05.87s1.42,1.09,1.95,1.09,2,0,2.05-.88S27.85,13.25,27.32,13.25Z"/><path class="cls-3" d="M32.18,11.14a1,1,0,0,0-.4-.34,2.08,2.08,0,0,0-.63-.23,2.82,2.82,0,0,0-.76-.13h-.54a3,3,0,0,0-.89.2l-.32.19a.6.6,0,0,0-.3.48v1.27a.46.46,0,0,0,.15.39,1,1,0,0,0,.4.34,2.08,2.08,0,0,0,.63.23,2.82,2.82,0,0,0,.76.13h.54a2.75,2.75,0,0,0,.89-.21l.32-.18a.6.6,0,0,0,.3-.48V11.53A.46.46,0,0,0,32.18,11.14Z"/><path class="cls-3" d="M13.61,30.93a4.75,4.75,0,0,1-.17-.49,3,3,0,0,1,0-1A.56.56,0,0,0,13.3,29a.86.86,0,0,0-.4-.33,2.41,2.41,0,0,0-.63-.24,2.53,2.53,0,0,0-.77-.12H11a3,3,0,0,0-.89.21l-.33.18a.69.69,0,0,0-.3.48,2.91,2.91,0,0,0,0,.93,3.94,3.94,0,0,0,.31,1.13.88.88,0,0,0,.34.35,1.51,1.51,0,0,0,.55.28,2.72,2.72,0,0,0,.74.16,3.05,3.05,0,0,0,.8,0l.48-.07a2.15,2.15,0,0,0,.73-.31l.22-.23A.51.51,0,0,0,13.61,30.93Z"/><path class="cls-3" d="M9.71,41.27a.92.92,0,0,0-.39-.34,2.35,2.35,0,0,0-.64-.24,3.26,3.26,0,0,0-.76-.12H7.39a3.09,3.09,0,0,0-.9.2L6.17,41a.69.69,0,0,0-.3.48v1.28a.47.47,0,0,0,.15.39.86.86,0,0,0,.4.33,2.1,2.1,0,0,0,.63.24,2.48,2.48,0,0,0,.77.12h.53a2.69,2.69,0,0,0,.89-.21l.33-.18a.65.65,0,0,0,.29-.48V41.65A.45.45,0,0,0,9.71,41.27Z"/><path class="cls-3" d="M6.29,51.1c0-.79-1.41-1.08-1.95-1.08s-2,0-2,.87a.66.66,0,0,0,.15.41c-.66,0-1.64.17-1.68.87s1.42,1.08,2,1.08,2,0,2.05-.87A.64.64,0,0,0,4.61,52C5.27,51.94,6.25,51.79,6.29,51.1Z"/><path class="cls-3" d="M11.08,46.75a1.15,1.15,0,0,0-.49-.46l-.39-.17a3.84,3.84,0,0,0-1-.19h-1a2.83,2.83,0,0,0-.77,0,2.07,2.07,0,0,0-.65.16.89.89,0,0,0-.43.3.51.51,0,0,0-.2.37l.06.26a1.21,1.21,0,0,0,.49.46l.4.17a3.77,3.77,0,0,0,1,.19h1a2.92,2.92,0,0,0,.78,0,2.5,2.5,0,0,0,.65-.17.94.94,0,0,0,.43-.3.46.46,0,0,0,.19-.36Z"/><path class="cls-3" d="M14.2,41.91a.46.46,0,0,0-.15-.39.84.84,0,0,0-.39-.33A1.84,1.84,0,0,0,13,41a2.42,2.42,0,0,0-.76-.12h-.53a2.81,2.81,0,0,0-.9.21l-.32.18a.69.69,0,0,0-.3.48c.08.42.17.85.26,1.28a.45.45,0,0,0,.15.38.92.92,0,0,0,.39.34,2,2,0,0,0,.64.23,2.75,2.75,0,0,0,.76.13h.53a3.09,3.09,0,0,0,.9-.2l.32-.19a.65.65,0,0,0,.3-.47C14.37,42.76,14.29,42.33,14.2,41.91Z"/><path class="cls-3" d="M48.79,49.72a1,1,0,0,0-.4-.34,3,3,0,0,0-.89-.29.89.89,0,0,0,.26-.25.61.61,0,0,0-.16-.77,3.23,3.23,0,0,0-2.72-.49l-1.45.4a.49.49,0,0,0,.08-.21l.25-1a.52.52,0,0,0-.15-.38s-.1-.07-.14-.11l0,0,.22-.22a.51.51,0,0,0,0-.52l-.59-1,.15,0a2,2,0,0,0,.73-.31l.22-.23a.51.51,0,0,0,0-.52s0,0,0-.08a.41.41,0,0,1,0-.11l0,0a.4.4,0,0,0,.06-.39s0,0,0,0h0a2.83,2.83,0,0,0,.77-.05,2.14,2.14,0,0,0,.66-.17c.25-.12.63-.32.62-.66l-.06-.26a1,1,0,0,0-.33-.35,1.59,1.59,0,0,1-.13-.13,1.87,1.87,0,0,1-.15-.32,1.8,1.8,0,0,1,0-.52.91.91,0,0,1,.09-.17.37.37,0,0,0,0-.39.51.51,0,0,0-.21-.38,1.71,1.71,0,0,0-.5-.3,2.74,2.74,0,0,0-.67-.21,4.9,4.9,0,0,0-.77-.07.49.49,0,0,0,0-.47l-.26-1a.88.88,0,0,0-.34-.35,1.59,1.59,0,0,0-.55-.28,2.38,2.38,0,0,0-.59-.12,2.2,2.2,0,0,0,.44-.12l.33-.18a.69.69,0,0,0,.3-.48L43,35.52a1.14,1.14,0,0,0-.49-.46L42,34.8a2,2,0,0,0-.64-.23,2.75,2.75,0,0,0-.76-.13,2.93,2.93,0,0,0-.78.05,2.14,2.14,0,0,0-.65.16l-.32.19a.65.65,0,0,0-.3.48l.06.26a1.21,1.21,0,0,0,.49.46l.51.25a1.87,1.87,0,0,0,.63.24c.1,0,.21,0,.31,0a2.1,2.1,0,0,0-.72.31l-.21.22a.49.49,0,0,0,0,.52l.25,1a2.59,2.59,0,0,0-.45.14.92.92,0,0,0-.62.66,1.82,1.82,0,0,0,0,.52,2.79,2.79,0,0,0,.21.75,3.28,3.28,0,0,0,.45.67,3.09,3.09,0,0,0,.69.55,1.9,1.9,0,0,0,.63.23l.08,0a1.12,1.12,0,0,0-.41.34.42.42,0,0,0-.1.17c0,.1-.07.2-.1.3a.13.13,0,0,0,0,.06.31.31,0,0,0,0,.1v.1c0,.08,0,.16.05.24l-.21,0a2,2,0,0,0-.73.31l-.21.22a.49.49,0,0,0,0,.52l.77,1.28a1,1,0,0,0,.23.23l0,0a.65.65,0,0,0-.3.47l-.25,1a.49.49,0,0,0,.16.38.86.86,0,0,0,.39.34,2.35,2.35,0,0,0,.64.24,2.85,2.85,0,0,0,.51.08l-3.12.87a1.61,1.61,0,0,0-1,.54.61.61,0,0,0,.16.76,3.24,3.24,0,0,0,2.72.5l2.1-.59.16,0h.26a2.83,2.83,0,0,0,.77-.05l.1,0,.29.2a2.64,2.64,0,0,0,.87.3,5.47,5.47,0,0,0,1,.12,5.33,5.33,0,0,0,1,0,6.07,6.07,0,0,0,1.78-.46.94.94,0,0,0,.43-.3.47.47,0,0,0,.19-.37A.48.48,0,0,0,48.79,49.72Z"/><path class="cls-3" d="M52.35,30.8a1,1,0,0,0-.4-.34,2.08,2.08,0,0,0-.63-.23,2.82,2.82,0,0,0-.76-.13H50a3,3,0,0,0-.89.2l-.32.19a.6.6,0,0,0-.3.48v.78a2.66,2.66,0,0,0-.74-.12,3,3,0,0,0-1.43.21L46,32a.66.66,0,0,0-.28.4,2.58,2.58,0,0,0-.29,0h-.26a2.85,2.85,0,0,0-.77,0,2.4,2.4,0,0,0-.65.17.89.89,0,0,0-.43.3.46.46,0,0,0-.19.36l.05.27a1.27,1.27,0,0,0,.49.46l.4.17a3.84,3.84,0,0,0,1,.19h.26a3.08,3.08,0,0,0,.61,0,4,4,0,0,0,.48.75,1.29,1.29,0,0,0,.5.3,2.2,2.2,0,0,0,.67.22,3.05,3.05,0,0,0,.8,0,2.62,2.62,0,0,0,.74-.07l.42-.13A1.19,1.19,0,0,0,50.1,35l.09-.26a.66.66,0,0,0-.12-.34,2.57,2.57,0,0,1-.38-.78,3.28,3.28,0,0,1,0-.7h0a3.26,3.26,0,0,0,.76.12H51a3,3,0,0,0,.89-.2l.32-.18a.63.63,0,0,0,.3-.48v-1A.46.46,0,0,0,52.35,30.8Z"/><path class="cls-3" d="M52.69,24.29l-.51-.77a.82.82,0,0,0-.34-.35,1.51,1.51,0,0,0-.55-.28,2.32,2.32,0,0,0-.73-.15,2.69,2.69,0,0,0-.8,0l-.48.07a2,2,0,0,0-.74.32l-.14.15a5,5,0,0,0-.5-1.76,5.35,5.35,0,0,0-.75-1.08,5.27,5.27,0,0,0-1.08-.91,2.94,2.94,0,0,0-1.4-.36,3,3,0,0,0-1.42.21c-.25.12-.64.33-.62.66a.59.59,0,0,0,.12.35h0a.84.84,0,0,0-.25.13l-.78-1.31a1.57,1.57,0,0,0-.89-.64,3.06,3.06,0,0,0-.73-.15,3.57,3.57,0,0,0-.8,0l-.48.08a2,2,0,0,0-.74.31c-.2.18-.41.46-.24.75l.19.32a2.58,2.58,0,0,0-.26-.08,2.68,2.68,0,0,0-.8-.06,2.63,2.63,0,0,0-.74.08l-.42.13a1.12,1.12,0,0,0-.53.4l-.09.26a.7.7,0,0,0,.25.51l.52.5a1.71,1.71,0,0,0,.5.3,2.61,2.61,0,0,0,.67.21,3.55,3.55,0,0,0,.8.06,2.74,2.74,0,0,0,.75-.08l.41-.13.14-.08.12.22a1.63,1.63,0,0,0,.89.63,2.72,2.72,0,0,0,.74.16,3,3,0,0,0,.79,0l.49-.07a2.15,2.15,0,0,0,.73-.31l0,0a1.52,1.52,0,0,0,.28.09l.53.06a4,4,0,0,0,.49,0s0,.08,0,.12a4,4,0,0,1,.07.84c0,.33.3.58.55.72a3.1,3.1,0,0,0,1.4.36,3,3,0,0,0,1.42-.21,1.09,1.09,0,0,0,.58-.5l.44.67a.82.82,0,0,0,.34.35,1.4,1.4,0,0,0,.54.28,2.72,2.72,0,0,0,.74.16,3.05,3.05,0,0,0,.8,0l.48-.07a2.2,2.2,0,0,0,.74-.31l.21-.23A.54.54,0,0,0,52.69,24.29Z"/><path class="cls-3" d="M37.7,15.61l-.25-.25a1.36,1.36,0,0,0-.5-.3,2,2,0,0,0-.67-.21,4.64,4.64,0,0,0-1.55,0l-.41.14a1.13,1.13,0,0,0-.54.4l-.08.26a.79.79,0,0,0,0,.22,1.73,1.73,0,0,0-.55-.2,2.75,2.75,0,0,0-.76-.13h-.53a3.09,3.09,0,0,0-.9.2l-.32.19a.65.65,0,0,0-.3.47,3,3,0,0,0,0,.94,3.66,3.66,0,0,0,.31,1.12.84.84,0,0,0,.34.36,1.51,1.51,0,0,0,.55.28,2.64,2.64,0,0,0,.73.15,3.07,3.07,0,0,0,.8,0l.48-.08a1.94,1.94,0,0,0,.74-.31l.21-.22a.49.49,0,0,0,0-.52,2.27,2.27,0,0,1-.17-.5,3,3,0,0,1,0-1s0-.07,0-.11a1.12,1.12,0,0,0,.33.2,2,2,0,0,0,.67.21,2.68,2.68,0,0,0,.8.06,2.74,2.74,0,0,0,.75-.08l.41-.13a1.06,1.06,0,0,0,.53-.4l.09-.26A.7.7,0,0,0,37.7,15.61Z"/><path class="cls-3" d="M55.32,21.74l-.26-.25a1.36,1.36,0,0,0-.5-.31,2.49,2.49,0,0,0-.67-.21,3.46,3.46,0,0,0-.79-.06,3.19,3.19,0,0,0-.75.08l-.41.13a1.22,1.22,0,0,0-.54.41l-.08.25a.63.63,0,0,0,.24.51l.26.26a1.59,1.59,0,0,0,.5.3,2.18,2.18,0,0,0,.67.21,3.51,3.51,0,0,0,.79.06,2.66,2.66,0,0,0,.75-.08l.41-.13a1.2,1.2,0,0,0,.54-.4l.09-.26A.66.66,0,0,0,55.32,21.74Z"/><path class="cls-3" d="M59.92,25.32l-.26-.26a1.29,1.29,0,0,0-.5-.3,1.94,1.94,0,0,0-.67-.21,2.68,2.68,0,0,0-.8-.06,2.63,2.63,0,0,0-.74.08l-.42.13-.15.08a2,2,0,0,0-.46-.17,2.89,2.89,0,0,0-.77-.13h-.53a2.81,2.81,0,0,0-.9.21l-.32.18a.69.69,0,0,0-.3.48v1a.51.51,0,0,0,.16.39.79.79,0,0,0,.39.33,2.1,2.1,0,0,0,.63.24,2.53,2.53,0,0,0,.77.12h.53a3.11,3.11,0,0,0,.9-.21l.32-.18a.69.69,0,0,0,.3-.48v-.11a2.06,2.06,0,0,0,.48.15,4.64,4.64,0,0,0,1.55,0l.41-.14a1.13,1.13,0,0,0,.54-.4l.08-.26A.65.65,0,0,0,59.92,25.32Z"/><path class="cls-3" d="M57.31,29.26a.51.51,0,0,0-.21-.38,1.71,1.71,0,0,0-.5-.3,2.74,2.74,0,0,0-.67-.21,3.85,3.85,0,0,0-1.55,0l-.41.13a1.15,1.15,0,0,0-.54.41l-.76,1.53a.4.4,0,0,0-.06.39.52.52,0,0,0,.22.37,1.45,1.45,0,0,0,.5.31,2.61,2.61,0,0,0,.67.21,3.85,3.85,0,0,0,1.55,0l.41-.13a1.14,1.14,0,0,0,.53-.41l.77-1.53A.37.37,0,0,0,57.31,29.26Z"/><path class="cls-3" d="M56.05,36.67a.56.56,0,0,0-.22-.38,1.59,1.59,0,0,0-.5-.3,2.49,2.49,0,0,0-.67-.21l-.53-.06a3.8,3.8,0,0,0-1,.08l-.42.13a1.13,1.13,0,0,0-.53.41l-.26.51a.37.37,0,0,0,0,.39.49.49,0,0,0,.21.37,1.36,1.36,0,0,0,.5.3,2,2,0,0,0,.67.21l.53.07a3.87,3.87,0,0,0,1-.08L55.2,38a1.13,1.13,0,0,0,.54-.4l.25-.51A.4.4,0,0,0,56.05,36.67Z"/><path class="cls-3" d="M52.55,41.52a.81.81,0,0,0-.39-.34,2.41,2.41,0,0,0-.63-.24,3.34,3.34,0,0,0-.77-.12,3,3,0,0,0-1.43.21c-.28.14-.57.32-.62.66l-.08.68a2.3,2.3,0,0,0-.78.2l-.32.18a.69.69,0,0,0-.3.48,4.06,4.06,0,0,1-.17,1.47,4.11,4.11,0,0,1-.25.57A.61.61,0,0,0,47,46a1.59,1.59,0,0,0,.5.3,1.94,1.94,0,0,0,.67.21,3.48,3.48,0,0,0,1.54,0,1.49,1.49,0,0,0,1-.53,4.75,4.75,0,0,0,.47-1.2,2.18,2.18,0,0,0,.73-.19c.29-.14.58-.32.63-.66.08-.69.16-1.37.25-2.05A.49.49,0,0,0,52.55,41.52Z"/><path class="cls-3" d="M30.13,44.91c-.48,0-1.54,0-1.91.52a.34.34,0,0,0,0-.2,6.75,6.75,0,0,1,.23-2.93c.05-.13.1-.27.16-.4a.4.4,0,0,0,.06-.39.56.56,0,0,0-.22-.38,2.56,2.56,0,0,0-1.17-.51,3.85,3.85,0,0,0-1.55,0l-.41.13-.08,0,0-.05a.86.86,0,0,0-.4-.33,1.87,1.87,0,0,0-.63-.24,2.89,2.89,0,0,0-.77-.13,3.12,3.12,0,0,0-1.42.22l-.33.18a.67.67,0,0,0-.3.48c.06.4.11.8.17,1.2a3.6,3.6,0,0,0-1.39,0,1.53,1.53,0,0,0-.95.54,4.57,4.57,0,0,0-.53,1.34,3.52,3.52,0,0,0-.06,1.21.49.49,0,0,0,.15.39,1,1,0,0,0,.4.34,2.08,2.08,0,0,0,.63.23,2.82,2.82,0,0,0,.77.13,3.43,3.43,0,0,0,1.31-.17l-.12.12a.54.54,0,0,0,0,.52l.19.24a1.94,1.94,0,0,0,.7.39l.76.26a2.72,2.72,0,0,0,.74.16,3.05,3.05,0,0,0,.8,0,2.35,2.35,0,0,0,.69-.14,1.32,1.32,0,0,0,.52-.25l.22-.22a.54.54,0,0,0,0-.52l-.19-.24a1.94,1.94,0,0,0-.7-.39l-.77-.26a2.65,2.65,0,0,0-.73-.16,3.06,3.06,0,0,0-.8,0,2.29,2.29,0,0,0-.69.14s-.07,0-.12,0a.61.61,0,0,0,.23-.41,3.74,3.74,0,0,1,.13-1.41l.07-.15,0,0a2.82,2.82,0,0,0,.77.12,5.47,5.47,0,0,0,.57,0,6.42,6.42,0,0,0,.07,1,.45.45,0,0,0,.15.38,1,1,0,0,0,.4.34,3.06,3.06,0,0,0,1.39.36,3.16,3.16,0,0,0,1.43-.21,1.73,1.73,0,0,0,.52-.37.57.57,0,0,0-.08.26c0,.8,1.42,1.09,2,1.09s2,0,2-.88S30.66,44.91,30.13,44.91Z"/><path class="cls-3" d="M25,30.36c-.57,0-2,0-2,.87s1.41,1.08,1.94,1.08,2,0,2-.87S25.56,30.36,25,30.36Z"/><path class="cls-3" d="M36.36,30.92a1.21,1.21,0,0,0-.49-.46l-.4-.17a3.77,3.77,0,0,0-1-.19h-.25a2.9,2.9,0,0,0-.78,0,2.14,2.14,0,0,0-.65.16.89.89,0,0,0-.43.3.47.47,0,0,0-.19.37l.06.26a1.15,1.15,0,0,0,.49.46l.39.17a3.84,3.84,0,0,0,1,.19h.26a2.83,2.83,0,0,0,.77,0,2.47,2.47,0,0,0,.66-.17,1,1,0,0,0,.43-.3.5.5,0,0,0,.19-.36Z"/><path class="cls-3" d="M60.6,22.76l-.51-1a.84.84,0,0,0-.34-.36,1.51,1.51,0,0,0-.55-.28,3,3,0,0,0-.73-.15,3.57,3.57,0,0,0-.8,0l-.48.08a2,2,0,0,0-.74.31l-.21.22a.54.54,0,0,0,0,.52l.51,1a.88.88,0,0,0,.34.35,1.59,1.59,0,0,0,.55.28,4.77,4.77,0,0,0,1.53.18l.49-.08a1.82,1.82,0,0,0,.73-.31l.21-.22A.49.49,0,0,0,60.6,22.76Z"/><path class="cls-3" d="M60.51,19.12c-.57,0-2,0-2,.88s1.41,1.08,1.94,1.08,2,0,2.05-.87S61.05,19.12,60.51,19.12Z"/><path class="cls-1" d="M41,1.1s-10.79,5-8.79,8S45.29,18,47.23,17s15.34,2.89,16.14-1,2.2-5.74-3-4.83S45.57,6.1,43.87,4.1,42.74.1,41,1.1Z"/><path class="cls-3" d="M60.09,14.73v-.07c0-.05,0-.1,0-.15a6.66,6.66,0,0,0,0-1c0-.2,0-.4-.07-.6a3.8,3.8,0,0,0-.26-.89l-.18-.26a.25.25,0,0,0-.38,0,2.89,2.89,0,0,0-.57,1.08,4.08,4.08,0,0,0-.17.77,8.78,8.78,0,0,0-.09,1,6.94,6.94,0,0,0,0,.79,6.62,6.62,0,0,0,.11,1.17,5.09,5.09,0,0,0,.33,1.11,1.87,1.87,0,0,0,.48.7c.09.1.19.12.28,0a.38.38,0,0,0,.27-.29A2.47,2.47,0,0,0,60,17.5a4.85,4.85,0,0,0,.13-.85A7.24,7.24,0,0,0,60.09,14.73Z"/><path class="cls-3" d="M52.19,13a3.64,3.64,0,0,0-.15-.8,1.29,1.29,0,0,0-.23-.52.39.39,0,0,0-.28-.22l-.2.09a1.72,1.72,0,0,0-.32.65c0,.17-.07.33-.11.5A7.64,7.64,0,0,0,50.8,14v.26a7.73,7.73,0,0,0,.06,1A5.5,5.5,0,0,0,51,16a1.2,1.2,0,0,0,.24.51.32.32,0,0,0,.28.22l.19-.09A1.55,1.55,0,0,0,52,16c0-.17.07-.34.11-.51a7.64,7.64,0,0,0,.1-1.26V14A5.16,5.16,0,0,0,52.19,13Z"/><path class="cls-3" d="M39.72,7.43a5.89,5.89,0,0,0-.19-1.1l-.15-.39A.49.49,0,0,0,39,5.59a1.57,1.57,0,0,0-.71.12,1.94,1.94,0,0,0-.76.5,1,1,0,0,0-.24.44,2.49,2.49,0,0,0-.19.71,5.62,5.62,0,0,0-.09.92,6.65,6.65,0,0,0,0,1c0,.2,0,.4.07.6a3.2,3.2,0,0,0,.26.9l.17.25a.26.26,0,0,0,.38,0,.88.88,0,0,0-.12.21,2.86,2.86,0,0,0-.19.71,5.64,5.64,0,0,0-.08.93,6.54,6.54,0,0,0,0,1l.07.6a4,4,0,0,0,.26.9l.18.25a.25.25,0,0,0,.38,0l.51-.51a1.11,1.11,0,0,0,.25-.45,2.79,2.79,0,0,0,.19-.7,5.84,5.84,0,0,0,.08-.93,6.69,6.69,0,0,0,0-1l-.07-.59a3.38,3.38,0,0,0-.26-.89.4.4,0,0,0,.17-.17,1.29,1.29,0,0,0,.23-.52,3.64,3.64,0,0,0,.15-.8,5.21,5.21,0,0,0,.06-1Z"/><path class="cls-3" d="M36.88,3.32c0-.2-.05-.4-.08-.59a3.1,3.1,0,0,0-.26-.9l-.17-.25a.25.25,0,0,0-.38,0c-.18.16-.35.33-.52.5a1.11,1.11,0,0,0-.25.45,2.68,2.68,0,0,0-.19.7,5.84,5.84,0,0,0-.08.93,6.54,6.54,0,0,0,0,1c0,.2,0,.4.07.6a4,4,0,0,0,.26.9l.18.25a.25.25,0,0,0,.38,0l.52-.5A1.11,1.11,0,0,0,36.62,6a2.77,2.77,0,0,0,.18-.7,4.88,4.88,0,0,0,.09-.93A6.68,6.68,0,0,0,36.88,3.32Z"/><path class="cls-3" d="M43,2.29a5.5,5.5,0,0,0-.15-.81A1.2,1.2,0,0,0,42.61,1a.34.34,0,0,0-.28-.22l-.19.09a1.55,1.55,0,0,0-.32.64L41.71,2a7.64,7.64,0,0,0-.1,1.26v.51a5.11,5.11,0,0,0,.06,1,5.27,5.27,0,0,0,.15.81,1.24,1.24,0,0,0,.24.52.33.33,0,0,0,.27.21l.2-.09a1.55,1.55,0,0,0,.32-.64L43,5a7.56,7.56,0,0,0,.1-1.26V3.25A6.19,6.19,0,0,0,43,2.29Z"/><path class="cls-3" d="M47.39,7.69a5.14,5.14,0,0,0-.18-1.11c-.17-.51-.34-1-.5-1.53a1.19,1.19,0,0,0-.24-.52.29.29,0,0,0-.55,0,1.19,1.19,0,0,0-.24.52,6.22,6.22,0,0,0-.21,1.77l0,.66a5.16,5.16,0,0,0,.18,1.1c.17.51.34,1,.5,1.54a1.3,1.3,0,0,0,.24.52.29.29,0,0,0,.55,0,1.3,1.3,0,0,0,.24-.52,6.22,6.22,0,0,0,.21-1.77Z"/><path class="cls-3" d="M53.21,7.65a3.84,3.84,0,0,0-.15-.81,1.18,1.18,0,0,0-.23-.51.37.37,0,0,0-.28-.22l-.2.09a1.68,1.68,0,0,0-.32.64l-.11.51a7.64,7.64,0,0,0-.1,1.26v.51a6.24,6.24,0,0,0,.07,1,4.32,4.32,0,0,0,.14.8,1.24,1.24,0,0,0,.24.52.33.33,0,0,0,.28.21l.19-.09a1.39,1.39,0,0,0,.32-.64l.11-.51a7.48,7.48,0,0,0,.1-1.26V8.61A5.16,5.16,0,0,0,53.21,7.65Z"/><path class="cls-3" d="M44.53,11.48a3.84,3.84,0,0,0-.15-.81,1.31,1.31,0,0,0-.23-.51.37.37,0,0,0-.28-.22l-.2.09a1.68,1.68,0,0,0-.32.64l-.11.51a7.64,7.64,0,0,0-.1,1.26V13a7.77,7.77,0,0,0,.06,1,5.37,5.37,0,0,0,.15.8,1.24,1.24,0,0,0,.24.52.33.33,0,0,0,.28.21l.19-.09a1.49,1.49,0,0,0,.32-.64l.11-.51a7.48,7.48,0,0,0,.1-1.26v-.51A5.16,5.16,0,0,0,44.53,11.48Z"/><path class="cls-3" d="M35.34,8.16a5.37,5.37,0,0,0-.15-.8A1.19,1.19,0,0,0,35,6.84a.36.36,0,0,0-.27-.22l-.2.09a1.53,1.53,0,0,0-.32.65l-.11.5A7.64,7.64,0,0,0,34,9.12v.77a6.19,6.19,0,0,0,.06,1,5.5,5.5,0,0,0,.15.81,1.2,1.2,0,0,0,.24.51.34.34,0,0,0,.28.22l.19-.09a1.55,1.55,0,0,0,.32-.64l.11-.51a7.64,7.64,0,0,0,.1-1.26V9.12A5.16,5.16,0,0,0,35.34,8.16Z"/><path class="cls-3" d="M42.08,14c-1,0-1.06,5,0,5S43.14,14,42.08,14Z"/><path class="cls-3" d="M47.54,18.52a5.15,5.15,0,0,0-.15-.68,1.21,1.21,0,0,0,0-.18A3.73,3.73,0,0,0,47,17a3.13,3.13,0,0,0-.42-.54.19.19,0,0,0-.29,0,.38.38,0,0,0-.26.3,2.4,2.4,0,0,0-.21.64,4.85,4.85,0,0,0-.13.85l0,.66a6.73,6.73,0,0,0,.1,1.27l.11.5a1.39,1.39,0,0,0,.32.64l.06.08a.11.11,0,0,1,0,.05,2.34,2.34,0,0,0,.19.7,1,1,0,0,0,.24.45l.2.09a.48.48,0,0,0,.36-.34l.15-.39a5.16,5.16,0,0,0,.18-1.1A10.57,10.57,0,0,0,47.54,18.52Z"/><path class="cls-3" d="M53.68,20.37a3,3,0,0,0-.26-.89c-.08-.18-.17-.35-.25-.52a.38.38,0,0,0-.27-.29c-.1-.08-.19-.06-.29,0a1.11,1.11,0,0,0-.25.45,2.77,2.77,0,0,0-.18.7l-.08.6a9.84,9.84,0,0,0,0,1.33l.08.59a3,3,0,0,0,.26.9l.25.51a.41.41,0,0,0,.27.3c.1.07.19.06.29-.05a1.07,1.07,0,0,0,.25-.44,2.88,2.88,0,0,0,.18-.7l.08-.6a9.84,9.84,0,0,0,0-1.33Z"/><path class="cls-3" d="M56.38,15.05c-1,0-1.06,5,0,5S57.44,15.05,56.38,15.05Z"/><path class="cls-3" d="M64.48,11.52l-.07-.59a3.34,3.34,0,0,0-.26-.9L64,9.78a.25.25,0,0,0-.38,0l-.26.25a1,1,0,0,0-.24.45,2.42,2.42,0,0,0-.19.7,7.32,7.32,0,0,0-.09.93,5.78,5.78,0,0,0,0,.93s0,0-.07,0h-.25a.33.33,0,0,0-.28.21,1.19,1.19,0,0,0-.24.52,5.37,5.37,0,0,0-.15.8,6.24,6.24,0,0,0-.06,1l0,.66a5.16,5.16,0,0,0,.18,1.1l.15.39a.49.49,0,0,0,.37.35h.25a.37.37,0,0,0,.28-.22,1.07,1.07,0,0,0,.23-.52,3.64,3.64,0,0,0,.15-.8,6.2,6.2,0,0,0,.07-1l0-.6a.24.24,0,0,0,.26-.06L64,14.6a1,1,0,0,0,.25-.45,2.42,2.42,0,0,0,.19-.7,5.84,5.84,0,0,0,.08-.93A5.57,5.57,0,0,0,64.48,11.52Z"/><path class="cls-3" d="M57.4,8.67c-1,0-1.06,5,0,5S58.46,8.67,57.4,8.67Z"/><path class="cls-3" d="M50.66,7.9a5.37,5.37,0,0,0-.15-.8,1.24,1.24,0,0,0-.24-.52A.33.33,0,0,0,50,6.37l-.19.09a1.49,1.49,0,0,0-.32.64l-.11.51a7.48,7.48,0,0,0-.1,1.26v.25a5.21,5.21,0,0,0,.06,1,5.37,5.37,0,0,0,.15.8,1.24,1.24,0,0,0,.24.52.33.33,0,0,0,.27.21l.2-.09a1.49,1.49,0,0,0,.32-.64l.11-.51a7.48,7.48,0,0,0,.1-1.26V8.87A6.24,6.24,0,0,0,50.66,7.9Z"/><path class="cls-3" d="M48.36,13.27a3.73,3.73,0,0,0-.15-.81,1.43,1.43,0,0,0-.23-.52.36.36,0,0,0-.28-.21l-.2.09a1.68,1.68,0,0,0-.32.64c0,.17-.07.34-.11.51a7.64,7.64,0,0,0-.1,1.26v.25a7.77,7.77,0,0,0,.06,1,5.37,5.37,0,0,0,.15.8,1.19,1.19,0,0,0,.24.52.33.33,0,0,0,.28.21l.19-.08a1.59,1.59,0,0,0,.32-.65c0-.17.07-.33.11-.5a7.68,7.68,0,0,0,.1-1.27v-.25A5.16,5.16,0,0,0,48.36,13.27Z"/><path class="cls-3" d="M36,11.73c-1,0-1.06,5,0,5S37,11.73,36,11.73Z"/><path class="cls-2" d="M44.78,5.35a1,1,0,0,0-1,.28c-.28.24-.53.51-.79.78l.24-.36a5.22,5.22,0,0,0,.48-1.18c.09-.25.17-.51.25-.77a2.08,2.08,0,0,0,.11-.74A1,1,0,0,0,44,2.8a.38.38,0,0,0-.34-.25.57.57,0,0,0-.49.07l-.38.24A4.12,4.12,0,0,0,42,3.7l-.35.56a5.47,5.47,0,0,0-.49,1.17l-.25.77a2.09,2.09,0,0,0-.1.75,1,1,0,0,0,.1.56.35.35,0,0,0,.34.24.54.54,0,0,0,.49-.07l.37-.24.16-.15a11.31,11.31,0,0,0-1.79,3.53,2.09,2.09,0,0,0-.1.75,1,1,0,0,0,.1.56.35.35,0,0,0,.34.24.25.25,0,0,0,.12,0,3.47,3.47,0,0,0-.25.29,5.49,5.49,0,0,0-.84,1.74l-.1.52a1.34,1.34,0,0,0,.09.79l.58,1.76a.37.37,0,0,0,.34.25.57.57,0,0,0,.49-.07,2.33,2.33,0,0,0,.57-.42,3,3,0,0,0,.57-.66,5.17,5.17,0,0,0,.85-1.73c0-.18.06-.35.1-.53a1.39,1.39,0,0,0-.1-.78l-.57-1.77a.37.37,0,0,0-.35-.24h-.09a3.15,3.15,0,0,0,.22-.29,5.82,5.82,0,0,0,.78-1.58l-.06.18c0-.09.07-.18.11-.27s.19-.21.3-.31l-.12.11a4.94,4.94,0,0,0,1-1.32,3.64,3.64,0,0,0,.39-.88,3.2,3.2,0,0,0,.2-.81V5.9A.69.69,0,0,0,44.78,5.35Z"/><path class="cls-2" d="M47.42,14.39a.53.53,0,0,0-.2-.45.36.36,0,0,0-.39-.17,1.13,1.13,0,0,0-.53.22,2.21,2.21,0,0,0-.57.48l-.38.47a6.11,6.11,0,0,0-.65,1.17l-.2.57a2.66,2.66,0,0,0-.1,1c.08.42.17.85.25,1.27a.56.56,0,0,0,.2.45.37.37,0,0,0,.39.17,1.09,1.09,0,0,0,.53-.22,2.43,2.43,0,0,0,.58-.48l.38-.47a6.06,6.06,0,0,0,.64-1.17l.2-.57a2.66,2.66,0,0,0,.1-1C47.59,15.24,47.5,14.81,47.42,14.39Z"/><path class="cls-2" d="M57.12,11.32,57,11a.47.47,0,0,0-.22-.22c.41-1.07.47-2.09-.26-2.09-1.32,0-3,3.55-2.23,4.33a2.85,2.85,0,0,0-.16.3,3.06,3.06,0,0,0-.25.83,2.14,2.14,0,0,0-.06.56l-.09-.1a.67.67,0,0,0-.63,0l-.38.24a4.34,4.34,0,0,0-.77.83L51,17a4.94,4.94,0,0,0-.5.86,4.45,4.45,0,0,0-.34.88,2.07,2.07,0,0,0-.1.74,1.07,1.07,0,0,0,.09.56l.2.22a.7.7,0,0,0,.63,0l.38-.24a4.12,4.12,0,0,0,.77-.84l1-1.28a4.6,4.6,0,0,0,.5-.86,4,4,0,0,0,.34-.87,2.12,2.12,0,0,0,.1-.75s0,0,0-.08a.46.46,0,0,0,.39.17l.34-.1a2.63,2.63,0,0,0,.77-.6l.25-.25a3.47,3.47,0,0,0,.56-.76,4.13,4.13,0,0,0,.47-.88,3.45,3.45,0,0,0,.25-.83A1.88,1.88,0,0,0,57.12,11.32Z"/><path class="cls-2" d="M63.4,11.48l-.2-.21a.7.7,0,0,0-.63,0l-.38.24a4.34,4.34,0,0,0-.77.83l-.07.11a4.9,4.9,0,0,0,.32-.65l.2-.57a2.66,2.66,0,0,0,.1-1V9.79a.51.51,0,0,0-.2-.45.34.34,0,0,0-.38-.16.93.93,0,0,0-.53.22,2,2,0,0,0-.58.48c-.13.15-.25.31-.38.47a6.27,6.27,0,0,0-.65,1.16l-.19.58a2.58,2.58,0,0,0-.11,1v.51a.56.56,0,0,0,.2.45.39.39,0,0,0,.39.17,1.13,1.13,0,0,0,.53-.22,2.06,2.06,0,0,0,.57-.49l.28-.34v0a4.38,4.38,0,0,0-.5.86,3.91,3.91,0,0,0-.34.88,2.08,2.08,0,0,0-.11.74,1,1,0,0,0,.1.57l.2.21a.7.7,0,0,0,.63,0l.38-.24a4.12,4.12,0,0,0,.77-.84l.51-.76a4.94,4.94,0,0,0,.5-.86,4.45,4.45,0,0,0,.34-.88,2.07,2.07,0,0,0,.1-.74A1.11,1.11,0,0,0,63.4,11.48Z"/><path class="cls-2" d="M62.38,16.56a.5.5,0,0,0-.49-.27,2,2,0,0,0-.5.17,2.28,2.28,0,0,0-.5.33,4.91,4.91,0,0,0-.87.95A6.53,6.53,0,0,0,59.3,19a4.52,4.52,0,0,0-.26.73l0,.16a.36.36,0,0,0-.18,0,1,1,0,0,0-.53.22,1.87,1.87,0,0,0-.57.48l-.38.47a6,6,0,0,0-.65,1.16l-.2.58a2.63,2.63,0,0,0-.1,1V24a.53.53,0,0,0,.2.45.34.34,0,0,0,.38.16,1,1,0,0,0,.53-.21,2.1,2.1,0,0,0,.58-.49l.38-.47a5.74,5.74,0,0,0,.65-1.16l.19-.56a.25.25,0,0,0,.12,0,.52.52,0,0,0,.48-.07,1.83,1.83,0,0,0,.57-.42,3.6,3.6,0,0,0,.58-.65l.35-.57a4.84,4.84,0,0,0,.44-1,4,4,0,0,0,.32-.61c.07-.2.13-.39.2-.58a2.63,2.63,0,0,0,.1-1Z"/><path class="cls-2" d="M56.75,19.15a.37.37,0,0,0-.34-.25.57.57,0,0,0-.49.07l-.37.24a3.85,3.85,0,0,0-.77.84l-.36.56a5,5,0,0,0-.48,1.17l-.26.77a2.08,2.08,0,0,0-.11.74,1,1,0,0,0,.1.57.38.38,0,0,0,.34.24A.57.57,0,0,0,54.5,24l.37-.24a3.62,3.62,0,0,0,.77-.84l.36-.56a5.47,5.47,0,0,0,.49-1.17l.26-.77a2.07,2.07,0,0,0,.1-.74A1,1,0,0,0,56.75,19.15Z"/><path class="cls-2" d="M41,.44a.52.52,0,0,0-.25-.38L40.48,0a1.42,1.42,0,0,0-.72.34L39.37.7a5.66,5.66,0,0,0-.73,1l-.26.51a3.71,3.71,0,0,0-.39.89,3.2,3.2,0,0,0-.2.81,1.14,1.14,0,0,0,0,.61.52.52,0,0,0,.25.39l.29.06a1.5,1.5,0,0,0,.72-.34l.39-.36a5.4,5.4,0,0,0,.73-1l.26-.51a3.64,3.64,0,0,0,.39-.88,3.2,3.2,0,0,0,.2-.81A1.18,1.18,0,0,0,41,.44Z"/><path class="cls-2" d="M35.38,2.86l-.29-.06a1.35,1.35,0,0,0-.71.34,5.79,5.79,0,0,0-1,1.09,7.68,7.68,0,0,0-.45.71c-.07.12-.13.25-.19.38l-.18.38,0,.08c-.08.22-.16.43-.22.65l0,.1c0,.19-.08.4-.11.6a1.23,1.23,0,0,0,0,.19,4.42,4.42,0,0,0,0,.63.54.54,0,0,0,.19.45.38.38,0,0,0,.39.16,1,1,0,0,0,.53-.22,2,2,0,0,0,.58-.48l.38-.47a5.78,5.78,0,0,0,.64-1.17,6.45,6.45,0,0,0,.21-.62l0,0a4.62,4.62,0,0,0,.39-.88,3.2,3.2,0,0,0,.2-.81V3.41A.67.67,0,0,0,35.38,2.86Z"/><path class="cls-2" d="M35.12,8.09a.52.52,0,0,0-.25-.39l-.29,0a1.4,1.4,0,0,0-.72.33l-.39.37a5.33,5.33,0,0,0-.73,1l-.26.51a4.71,4.71,0,0,0-.39.89c0,.11-.06.24-.09.36-1.34.82-2.67,4.31-1.31,4.31.91,0,2-1.71,2.31-3a1.22,1.22,0,0,0,.19-.12l.39-.37a5.38,5.38,0,0,0,.74-1l.25-.51A3.71,3.71,0,0,0,35,9.51a3.2,3.2,0,0,0,.2-.81A1.14,1.14,0,0,0,35.12,8.09Z"/><path class="cls-2" d="M50.54,7.3a.38.38,0,0,0-.39-.17,1.13,1.13,0,0,0-.53.22,2.06,2.06,0,0,0-.57.49l-.38.47A5.74,5.74,0,0,0,48,9.47l-.2.57a2.66,2.66,0,0,0-.1,1v.25a.53.53,0,0,0,.2.45.35.35,0,0,0,.38.17,1.09,1.09,0,0,0,.53-.22,2.07,2.07,0,0,0,.58-.48l.38-.47a5.82,5.82,0,0,0,.65-1.17L50.63,9a2.66,2.66,0,0,0,.11-1V7.75A.53.53,0,0,0,50.54,7.3Z"/><path class="cls-2" d="M52.12,11.22a.4.4,0,0,0-.35-.25.55.55,0,0,0-.48.07l-.38.24a4.39,4.39,0,0,0-.77.84l-.36.56a5.43,5.43,0,0,0-.48,1.17l-.26.77a2.07,2.07,0,0,0-.1.74,1.11,1.11,0,0,0,.09.57.37.37,0,0,0,.35.24.52.52,0,0,0,.48-.07l.38-.24A4.34,4.34,0,0,0,51,15l.36-.57a5.43,5.43,0,0,0,.48-1.17l.26-.77a2.07,2.07,0,0,0,.1-.74A1.07,1.07,0,0,0,52.12,11.22Z"/></g></g></svg>