<svg xmlns="http://www.w3.org/2000/svg" viewBox="0 0 136.44 277"><defs><style>.cls-1{fill:#80deea;}.cls-2{fill:#39f;}</style></defs><g id="Layer_2" data-name="Layer 2"><g id="Casas"><polygon class="cls-1" points="0 89 0 277 39.98 277 39.98 69 0 89"/><polygon class="cls-2" points="63.41 79.35 39.98 69 39.98 277 63.41 277 63.41 79.35"/><polygon class="cls-2" points="7.58 101.78 7.58 110.85 13.79 107.95 13.79 98.71 7.58 101.78"/><polygon class="cls-2" points="24.12 93.51 24.12 102.58 30.33 99.68 30.33 90.44 24.12 93.51"/><polygon class="cls-2" points="7.58 125.22 7.58 134.29 13.79 131.38 13.79 122.14 7.58 125.22"/><polygon class="cls-2" points="24.12 116.94 24.12 126.02 30.33 123.11 30.33 113.87 24.12 116.94"/><polygon class="cls-2" points="7.58 148.65 7.58 157.72 13.79 154.82 13.79 145.58 7.58 148.65"/><polygon class="cls-2" points="24.12 140.38 24.12 149.45 30.33 146.54 30.33 137.31 24.12 140.38"/><polygon class="cls-2" points="7.58 172.08 7.58 181.15 13.79 178.25 13.79 169.01 7.58 172.08"/><polygon class="cls-2" points="24.12 163.81 24.12 172.88 30.33 169.98 30.33 160.74 24.12 163.81"/><polygon class="cls-2" points="7.58 195.52 7.58 204.59 13.79 201.68 13.79 192.44 7.58 195.52"/><polygon class="cls-2" points="24.12 187.25 24.12 196.32 30.33 193.41 30.33 184.17 24.12 187.25"/><polygon class="cls-2" points="7.58 218.95 7.58 228.02 13.79 225.12 13.79 215.88 7.58 218.95"/><polygon class="cls-2" points="24.12 210.68 24.12 219.75 30.33 216.85 30.33 207.61 24.12 210.68"/><polygon class="cls-1" points="52 26.64 52 277 105.24 277 105.24 0 52 26.64"/><polygon class="cls-2" points="136.44 13.79 105.24 0 105.24 277 136.44 277 136.44 13.79"/><polygon class="cls-2" points="62.1 43.66 62.1 55.74 70.36 51.87 70.36 39.57 62.1 43.66"/><polygon class="cls-2" points="84.13 32.64 84.13 44.72 92.39 40.85 92.39 28.55 84.13 32.64"/><polygon class="cls-2" points="62.1 74.86 62.1 86.94 70.36 83.08 70.36 70.77 62.1 74.86"/><polygon class="cls-2" points="84.13 63.85 84.13 75.93 92.39 72.06 92.39 59.76 84.13 63.85"/><polygon class="cls-2" points="62.1 106.07 62.1 118.15 70.36 114.28 70.36 101.98 62.1 106.07"/><polygon class="cls-2" points="84.13 95.06 84.13 107.14 92.39 103.27 92.39 90.97 84.13 95.06"/><polygon class="cls-2" points="62.1 137.28 62.1 149.36 70.36 145.49 70.36 133.19 62.1 137.28"/><polygon class="cls-2" points="84.13 126.27 84.13 138.34 92.39 134.48 92.39 122.17 84.13 126.27"/><polygon class="cls-2" points="62.1 168.49 62.1 180.57 70.36 176.7 70.36 164.4 62.1 168.49"/><polygon class="cls-2" points="84.13 157.47 84.13 169.55 92.39 165.68 92.39 153.38 84.13 157.47"/><polygon class="cls-2" points="62.1 199.69 62.1 211.77 70.36 207.91 70.36 195.6 62.1 199.69"/><polygon class="cls-2" points="84.13 188.68 84.13 200.76 92.39 196.89 92.39 184.59 84.13 188.68"/></g></g></svg>