<svg xmlns="http://www.w3.org/2000/svg" viewBox="0 0 90.68 52.69"><defs><style>.cls-1{fill:#ebc0de;}.cls-2{fill:#44118c;}.cls-3{fill:#8532d9;}.cls-4{fill:#5f0de3;}</style></defs><g id="Layer_2" data-name="Layer 2"><g id="Ventana_Casa1_Izquierda" data-name="Ventana Casa1 Izquierda"><path class="cls-1" d="M64.91,40.63c1.45,1.57.58,1.55,2.47,2,4.21,1,8-.68,12-2.18A8.64,8.64,0,0,1,80.81,40c9.58-7.88,7.54-10.61,9.43-18.79,1.94-8.34-3.15-5.15-3.39-1.95s-2.95,5.23-4.1,3.38S88.4,4.48,84.17,4.44c-2.77,0-5.78,17.67-5.78,17.67-.52-1.35,3.42-15.3,4.29-18.46S82.92-.52,80.3.24C78,.89,74.84,14.05,74,18c.28-2.84.75-7.47,1.9-10.41,1.74-4.47,1.5-6.72-1.78-5.21s-5.41,14.89-5.41,14.89-.65,1.31.82-5.72c2.53-12-1.85-7.94-1.85-7.94-5,5.13-5.15,25.52-5,34.83C63.46,39.17,64.21,39.88,64.91,40.63Z"/><path class="cls-2" d="M14.69,35.48l-.77-1a.88.88,0,0,0-.34-.35,1.59,1.59,0,0,0-.55-.28,2.32,2.32,0,0,0-.74-.15,2.62,2.62,0,0,0-.79,0l-.49.07a2,2,0,0,0-.73.32l-.21.22a.49.49,0,0,0,0,.52l.77,1a.82.82,0,0,0,.34.35,1.51,1.51,0,0,0,.55.28,2.65,2.65,0,0,0,.73.16,3.06,3.06,0,0,0,.8,0l.48-.07a2,2,0,0,0,.74-.32l.21-.22A.49.49,0,0,0,14.69,35.48Z"/><path class="cls-3" d="M16.08,36.58c4.5,1.08,8.2-.76,13-1.73s9.66-2,14.47-3.07c4.35-1,8.71-2,13-3.25,1-.31,6-1.25,6.29-2.63,0,0-5.16,23.31,13.85,15.56-1.58.65-3.46,3.4-5.22,4.35C62.85,50.43,52.57,50.72,43,50.7c-10.32,0-22.52.08-32.47-3C6.4,46.48-3.82,40,1.75,35c4-3.58,8.27-.77,12.38.93A12.65,12.65,0,0,0,16.08,36.58Z"/><path class="cls-4" d="M17.78,39.82a.82.82,0,0,0-.34-.35,1.51,1.51,0,0,0-.55-.28l-.47-.13A4.17,4.17,0,0,0,15.36,39l-.48.07a2,2,0,0,0-.74.32l-1.28,1a.52.52,0,0,0-.25.36.39.39,0,0,0,0,.39.88.88,0,0,0,.34.35,1.59,1.59,0,0,0,.55.28l.47.12A3.78,3.78,0,0,0,15,42l.49-.07a2,2,0,0,0,.73-.32l1.28-1a.51.51,0,0,0,.26-.35A.39.39,0,0,0,17.78,39.82Z"/><path class="cls-4" d="M27.72,42.61a.82.82,0,0,0-.34-.35,1.37,1.37,0,0,0-.55-.28,3.61,3.61,0,0,0-1.53-.18l-.48.07a2.2,2.2,0,0,0-.74.31,4.11,4.11,0,0,0-.95,1.28A3.75,3.75,0,0,0,22.78,45c0,.33.29.57.54.72a2.35,2.35,0,0,0,.64.24,2.8,2.8,0,0,0,.76.12,3,3,0,0,0,1.43-.21c.26-.13.62-.32.62-.66a2.93,2.93,0,0,1,.13-.83,3.18,3.18,0,0,1,.62-1,.52.52,0,0,0,.22-.32A.39.39,0,0,0,27.72,42.61Z"/><path class="cls-4" d="M32.29,46.45c-.09-.34-.17-.68-.26-1a.84.84,0,0,0-.34-.36,1.59,1.59,0,0,0-.55-.28,2.63,2.63,0,0,0-.74-.15,3,3,0,0,0-.79,0l-.48.08a1.94,1.94,0,0,0-.74.31l-.21.22a.49.49,0,0,0,0,.52l.26,1a.77.77,0,0,0,.34.35,1.61,1.61,0,0,0,.55.29,3.06,3.06,0,0,0,.73.15,3.57,3.57,0,0,0,.8,0l.48-.08a1.94,1.94,0,0,0,.74-.31l.21-.23A.49.49,0,0,0,32.29,46.45Z"/><path class="cls-4" d="M38.35,44.61c-.57,0-2,0-2.05.87s1.42,1.08,2,1.08,2,0,2-.87S38.88,44.61,38.35,44.61Z"/><path class="cls-4" d="M46.62,43.38a1.21,1.21,0,0,0-.49-.46l-.51-.25a2.41,2.41,0,0,0-.63-.24,2.88,2.88,0,0,0-.77-.12,2.83,2.83,0,0,0-.77,0,2.14,2.14,0,0,0-.66.17l-.32.18a.69.69,0,0,0-.3.48l.06.27a1.12,1.12,0,0,0,.49.45l.51.26a2.35,2.35,0,0,0,.64.24,3.17,3.17,0,0,0,.76.12,2.83,2.83,0,0,0,.77,0,2.47,2.47,0,0,0,.66-.17l.32-.18a.69.69,0,0,0,.3-.48Z"/><path class="cls-4" d="M50.1,47.6a1,1,0,0,0-.4-.34,2,2,0,0,0-.63-.23,2.82,2.82,0,0,0-.76-.13h-.54a2.82,2.82,0,0,0-.89.21c-.26.12-.62.32-.62.66v1.53a.48.48,0,0,0,.15.39.93.93,0,0,0,.4.33,2.41,2.41,0,0,0,.63.24,2.8,2.8,0,0,0,.76.12h.54a3,3,0,0,0,.89-.21c.26-.13.62-.32.62-.66V48A.46.46,0,0,0,50.1,47.6Z"/><path class="cls-4" d="M58.39,50.24a1.27,1.27,0,0,0-.11-.13.51.51,0,0,0,.1-.21.39.39,0,0,0,0-.39.88.88,0,0,0-.34-.35,1.51,1.51,0,0,0-.55-.28L57,48.75a4.27,4.27,0,0,0-1.07,0l-.48.07a2.15,2.15,0,0,0-.73.31,1.38,1.38,0,0,0-.29.3l-.06.09a1.65,1.65,0,0,0-.11.36.41.41,0,0,0,0,.11,1.61,1.61,0,0,0,.07.37.42.42,0,0,0,0,.1l0,.05a2.69,2.69,0,0,0,.22.28l0,0A2.71,2.71,0,0,0,55,51a2.41,2.41,0,0,0,.63.24,2.8,2.8,0,0,0,.76.12,2.9,2.9,0,0,0,.78,0,2.15,2.15,0,0,0,.65-.17l.32-.18a.63.63,0,0,0,.3-.48Z"/><path class="cls-4" d="M68.07,48.49l-.77-1.28a.82.82,0,0,0-.34-.35,1.51,1.51,0,0,0-.55-.28,2.58,2.58,0,0,0-.73-.16,3.06,3.06,0,0,0-.8,0h-.07v-.47a.49.49,0,0,0-.16-.38.87.87,0,0,0-.39-.34,2.08,2.08,0,0,0-.63-.23,2.89,2.89,0,0,0-.77-.13h-.53a3.09,3.09,0,0,0-.9.2l-.32.19a.65.65,0,0,0-.3.47v1a.52.52,0,0,0,.15.38,1,1,0,0,0,.4.34,2.08,2.08,0,0,0,.63.23,2.89,2.89,0,0,0,.77.13h.53a1.45,1.45,0,0,0,.29,0l.61,1a.82.82,0,0,0,.34.35,1.51,1.51,0,0,0,.55.28,2.58,2.58,0,0,0,.73.16,3.06,3.06,0,0,0,.8,0l.48-.07a2,2,0,0,0,.74-.32L68,49A.54.54,0,0,0,68.07,48.49Z"/><path class="cls-4" d="M71.9,43.89a1.21,1.21,0,0,0-.49-.46l-.4-.17a3.77,3.77,0,0,0-1-.19h-.77a2.83,2.83,0,0,0-.77,0,2.08,2.08,0,0,0-.65.17.81.81,0,0,0-.43.29.51.51,0,0,0-.2.37l.06.26a1.14,1.14,0,0,0,.49.46l.4.17a3.77,3.77,0,0,0,1,.19h.77a2.83,2.83,0,0,0,.77,0,2.08,2.08,0,0,0,.65-.17.89.89,0,0,0,.43-.3.51.51,0,0,0,.2-.36Z"/><path class="cls-4" d="M67.3,40.06a.82.82,0,0,0-.34-.35,1.51,1.51,0,0,0-.55-.28l-.47-.12a3.76,3.76,0,0,0-1.06-.06l-.48.07a2,2,0,0,0-.74.32l-.51.51a.5.5,0,0,0-.25.35.36.36,0,0,0,0,.25,1.44,1.44,0,0,0-.31-.19,1.94,1.94,0,0,0-.67-.21,3.48,3.48,0,0,0-1.54,0,1.54,1.54,0,0,0-1,.53,2.44,2.44,0,0,0-.28.67A1.5,1.5,0,0,0,59,42a2.88,2.88,0,0,0,.09.71,2,2,0,0,0,.18.46,1.6,1.6,0,0,0,.89.63,2.58,2.58,0,0,0,.73.16,3.06,3.06,0,0,0,.8,0l.48-.07a2,2,0,0,0,.74-.32l.21-.22a.54.54,0,0,0,0-.52,1.58,1.58,0,0,1-.13-.34,1.84,1.84,0,0,1,0-.66,2.1,2.1,0,0,1,.13-.26.39.39,0,0,0,.06-.37,1.72,1.72,0,0,0,.52.27l.47.12a4.19,4.19,0,0,0,1.06.05l.49-.07a2,2,0,0,0,.73-.31l.51-.51a.53.53,0,0,0,.26-.35A.41.41,0,0,0,67.3,40.06Z"/><path class="cls-4" d="M60.82,36.18c-.57,0-2,0-2,.87s1.41,1.09,1.95,1.09,2,0,2-.88S61.35,36.18,60.82,36.18Z"/><path class="cls-4" d="M65.26,31.89a1.21,1.21,0,0,0-.49-.46l-.4-.17a3.77,3.77,0,0,0-1-.19h-.25a2.9,2.9,0,0,0-.78.05,2.15,2.15,0,0,0-.65.17.81.81,0,0,0-.43.29.47.47,0,0,0-.19.37l0,.26a1.17,1.17,0,0,0,.5.46l.39.17A3.84,3.84,0,0,0,63,33h.26A2.83,2.83,0,0,0,64,33a2.14,2.14,0,0,0,.66-.17,1,1,0,0,0,.43-.3.5.5,0,0,0,.19-.36Z"/><path class="cls-4" d="M65.07,27.56l-.26-.25a1.22,1.22,0,0,0-.5-.3,1.94,1.94,0,0,0-.67-.21,2.61,2.61,0,0,0-.79-.06,2.73,2.73,0,0,0-.75.07l-.41.14a1.13,1.13,0,0,0-.54.4l-.08.26a.65.65,0,0,0,.24.51l.26.25a1.29,1.29,0,0,0,.5.3,1.94,1.94,0,0,0,.67.21,4.58,4.58,0,0,0,1.54,0l.42-.14a1.11,1.11,0,0,0,.53-.4l.09-.26A.7.7,0,0,0,65.07,27.56Z"/><path class="cls-4" d="M77.54,42a.48.48,0,0,0-.21-.37,1.55,1.55,0,0,0-.5-.31,2.74,2.74,0,0,0-.67-.21L75.63,41a3.87,3.87,0,0,0-1,.08l-.41.13a1.22,1.22,0,0,0-.54.41l-.25.76a.4.4,0,0,0-.06.39.5.5,0,0,0,.22.38,1.59,1.59,0,0,0,.5.3,1.94,1.94,0,0,0,.67.21l.53.06a3.42,3.42,0,0,0,1-.08l.42-.13a1.17,1.17,0,0,0,.53-.4l.26-.77A.37.37,0,0,0,77.54,42Z"/><path class="cls-4" d="M59.91,28.44a.52.52,0,0,0-.22-.37,1.29,1.29,0,0,0-.5-.3,2.2,2.2,0,0,0-.67-.22L58,27.49a3.8,3.8,0,0,0-1,.08l-.42.13a1.19,1.19,0,0,0-.53.41c-.17.42-.34.85-.52,1.28a.38.38,0,0,0,0,.38.48.48,0,0,0,.22.38,1.34,1.34,0,0,0,.5.3,1.94,1.94,0,0,0,.67.21l.53.06a3.42,3.42,0,0,0,1-.08l.41-.13a1.2,1.2,0,0,0,.54-.4l.51-1.28A.39.39,0,0,0,59.91,28.44Z"/><path class="cls-4" d="M54.22,29.65a.52.52,0,0,0-.22-.37,1.45,1.45,0,0,0-.5-.31,2.61,2.61,0,0,0-.67-.21,3.85,3.85,0,0,0-1.55,0l-.41.13a1.14,1.14,0,0,0-.53.41l-2,2.38a.39.39,0,0,0,0,.39.47.47,0,0,0,.22.37,1.22,1.22,0,0,0,.5.3,2.2,2.2,0,0,0,.67.22,3.8,3.8,0,0,0,1.54,0l.41-.13a1.22,1.22,0,0,0,.54-.41L54.16,30A.4.4,0,0,0,54.22,29.65Z"/><path class="cls-4" d="M42.67,31.26a.87.87,0,0,0-.39-.34,2.41,2.41,0,0,0-.63-.24,3.34,3.34,0,0,0-.77-.12,3.16,3.16,0,0,0-1.43.21c-.28.14-.57.32-.62.66-.08.68-.17,1.37-.25,2a.45.45,0,0,0,.15.38.92.92,0,0,0,.39.34,2.35,2.35,0,0,0,.64.24A3.68,3.68,0,0,0,42,34.35c.28-.14.58-.32.62-.66l.26-2A.49.49,0,0,0,42.67,31.26Z"/><path class="cls-4" d="M36,34.71,35.2,34a1.36,1.36,0,0,0-.5-.3,2.29,2.29,0,0,0-.67-.22,3.08,3.08,0,0,0-.8,0,2.73,2.73,0,0,0-.75.07l-.41.13a1.14,1.14,0,0,0-.53.41l-.09.26a.66.66,0,0,0,.25.5l.76.77a1.52,1.52,0,0,0,.5.3,2,2,0,0,0,.67.21,2.7,2.7,0,0,0,.8.06,2.74,2.74,0,0,0,.75-.08l.41-.13a1.2,1.2,0,0,0,.54-.4l.08-.26A.66.66,0,0,0,36,34.71Z"/><path class="cls-4" d="M27,35.48l-.26-.26a1.48,1.48,0,0,0-.5-.3,2.49,2.49,0,0,0-.67-.21,3.51,3.51,0,0,0-.79-.06,2.66,2.66,0,0,0-.75.08l-.41.13a1.15,1.15,0,0,0-.54.41l-.09.25a.66.66,0,0,0,.25.51l.26.26a1.48,1.48,0,0,0,.5.3,2.49,2.49,0,0,0,.67.21,3.51,3.51,0,0,0,.79.06,2.74,2.74,0,0,0,.75-.08l.41-.13a1.15,1.15,0,0,0,.54-.41l.08-.25A.63.63,0,0,0,27,35.48Z"/><path class="cls-4" d="M10,33.81a.86.86,0,0,0-.4-.33A2.1,2.1,0,0,0,9,33.24a2.53,2.53,0,0,0-.77-.12H7.69a2.81,2.81,0,0,0-.9.21c-.26.12-.62.32-.62.66v1.53a.5.5,0,0,0,.16.39.79.79,0,0,0,.39.33,1.87,1.87,0,0,0,.63.24,2.89,2.89,0,0,0,.77.13h.53a2.81,2.81,0,0,0,.9-.21c.26-.12.62-.32.62-.66V34.2A.54.54,0,0,0,10,33.81Z"/><path class="cls-4" d="M8.27,38.72a.84.84,0,0,0-.34-.36,1.59,1.59,0,0,0-.55-.28,4,4,0,0,0-1.53-.18,2.38,2.38,0,0,0-1.22.39,2.87,2.87,0,0,0-.39.39,1.16,1.16,0,0,0-.16.21,2,2,0,0,0-.16.36l0-.07a1,1,0,0,0-.4-.34,2.08,2.08,0,0,0-.63-.23,2.82,2.82,0,0,0-.76-.13H1.54a3,3,0,0,0-.89.2l-.32.19a.6.6,0,0,0-.3.48c.08.42.17.85.25,1.27A.5.5,0,0,0,.44,41a.79.79,0,0,0,.39.33,1.87,1.87,0,0,0,.63.24,2.89,2.89,0,0,0,.77.13h.53a2.81,2.81,0,0,0,.9-.21L4,41.32a.54.54,0,0,0,.21-.24c0,.05.08.11.13.14a1.68,1.68,0,0,0,.55.28,2.38,2.38,0,0,0,.74.15,2.62,2.62,0,0,0,.79,0l.49-.08a1.82,1.82,0,0,0,.73-.31l.22-.22a.51.51,0,0,0,0-.52,1.59,1.59,0,0,1-.07-.2,1.76,1.76,0,0,1,0-.56,2.9,2.9,0,0,1,.2-.33H8a.5.5,0,0,0,.25-.35A.39.39,0,0,0,8.27,38.72Z"/><path class="cls-4" d="M11.63,45.19a1.12,1.12,0,0,0-.49-.45l-.51-.26a2.41,2.41,0,0,0-.63-.24,3.34,3.34,0,0,0-.77-.12,2.83,2.83,0,0,0-.77,0,2.14,2.14,0,0,0-.66.17l-.32.18a.69.69,0,0,0-.3.48l.06.27a1.21,1.21,0,0,0,.49.46l.51.25a2.41,2.41,0,0,0,.63.24,2.88,2.88,0,0,0,.77.12,2.83,2.83,0,0,0,.77,0,2.14,2.14,0,0,0,.66-.17l.32-.18a.69.69,0,0,0,.3-.48Z"/><path class="cls-4" d="M19.34,48.78l-.52-.49a1.55,1.55,0,0,0-.5-.31,2.61,2.61,0,0,0-.67-.21,3.6,3.6,0,0,0-.8-.06,3.19,3.19,0,0,0-.75.08l-.41.13a1.14,1.14,0,0,0-.53.41l-.09.25a.66.66,0,0,0,.25.51l.52.5a1.29,1.29,0,0,0,.5.3,1.94,1.94,0,0,0,.67.21,2.68,2.68,0,0,0,.8.06,2.62,2.62,0,0,0,.74-.07L19,50a1.11,1.11,0,0,0,.53-.4l.09-.26A.7.7,0,0,0,19.34,48.78Z"/><path class="cls-4" d="M25.17,40.57a1.07,1.07,0,0,0-.49-.45l-.39-.18a3.84,3.84,0,0,0-1-.19H23a2.83,2.83,0,0,0-.77,0,2.14,2.14,0,0,0-.66.17.89.89,0,0,0-.43.29.5.5,0,0,0-.19.37l.06.26a1.14,1.14,0,0,0,.49.46l.4.18a3.75,3.75,0,0,0,1,.18h.25a2.92,2.92,0,0,0,.78,0,2.15,2.15,0,0,0,.65-.17.94.94,0,0,0,.43-.29.48.48,0,0,0,.19-.37Z"/><path class="cls-4" d="M38.77,40.07l-.25-.25a1.36,1.36,0,0,0-.5-.3,2,2,0,0,0-.67-.21,4.64,4.64,0,0,0-1.55,0l-.41.14a1.13,1.13,0,0,0-.54.4l-.08.26a.66.66,0,0,0,.25.51l.25.25a1.36,1.36,0,0,0,.5.3,2,2,0,0,0,.67.21,2.68,2.68,0,0,0,.8.06,2.73,2.73,0,0,0,.75-.07l.41-.14a1.06,1.06,0,0,0,.53-.4l.09-.26A.7.7,0,0,0,38.77,40.07Z"/><path class="cls-4" d="M46.36,38.53a3.35,3.35,0,0,0-.49-.58c-.15-.12-.31-.23-.47-.34a.94.94,0,0,0-.22-.12,4.41,4.41,0,0,0-.59-.26c-.22-.07-.45-.13-.67-.18s-.5-.07-.75-.1a6.43,6.43,0,0,0-.76,0,2.07,2.07,0,0,0-.69.14,1.3,1.3,0,0,0-.52.24.5.5,0,0,0-.26.35.41.41,0,0,0,0,.4l.19.24a1.94,1.94,0,0,0,.7.39l.47.12.14,0s.12.1.17.16l-.12-.15a.78.78,0,0,0,.32.33,1.51,1.51,0,0,0,.55.28,2.72,2.72,0,0,0,.74.16,3,3,0,0,0,.79,0l.49-.07a2,2,0,0,0,.73-.31l.22-.23A.51.51,0,0,0,46.36,38.53Z"/><path class="cls-4" d="M48.82,37.71c-.57,0-2,0-2,.88s1.41,1.08,1.95,1.08,2,0,2-.87S49.35,37.71,48.82,37.71Z"/><path class="cls-4" d="M57.3,43.91l-.25-.77a.82.82,0,0,0-.34-.35,1.4,1.4,0,0,0-.54-.28,2.72,2.72,0,0,0-.74-.16,3.06,3.06,0,0,0-.8,0l-.48.07a2.2,2.2,0,0,0-.74.31l-.21.23a.54.54,0,0,0,0,.52c.09.25.17.51.25.77a1,1,0,0,0,.34.35,1.59,1.59,0,0,0,.55.28,2.63,2.63,0,0,0,.74.15,3,3,0,0,0,.79,0l.49-.08a2,2,0,0,0,.73-.31l.21-.22A.49.49,0,0,0,57.3,43.91Z"/><path class="cls-4" d="M32.56,50.54c-.16-.26-.33-.51-.5-.77a.88.88,0,0,0-.34-.35,1.59,1.59,0,0,0-.55-.28,2.64,2.64,0,0,0-.74-.16,3,3,0,0,0-.79,0l-.49.07a2,2,0,0,0-.73.32l-.21.22a.49.49,0,0,0,0,.52l.51.77a.82.82,0,0,0,.34.35,1.55,1.55,0,0,0,.54.28,2.72,2.72,0,0,0,.74.16,3.05,3.05,0,0,0,.8,0l.48-.07a1.92,1.92,0,0,0,.73-.32l.22-.22A.51.51,0,0,0,32.56,50.54Z"/><path class="cls-4" d="M22,49.2c-.57,0-2,0-2.05.88s1.41,1.08,1.95,1.08,2,0,2.05-.88S22.54,49.2,22,49.2Z"/><path class="cls-4" d="M38.46,50.76A1.15,1.15,0,0,0,38,50.3L37.46,50a2.08,2.08,0,0,0-.63-.23,2.82,2.82,0,0,0-.76-.13,2.93,2.93,0,0,0-.78,0,2.15,2.15,0,0,0-.65.17l-.32.18a.6.6,0,0,0-.3.48l.06.26a1.09,1.09,0,0,0,.49.46l.5.26a2.35,2.35,0,0,0,.64.24,3.26,3.26,0,0,0,.76.12,2.92,2.92,0,0,0,.78,0,2.5,2.5,0,0,0,.65-.17l.32-.18a.69.69,0,0,0,.3-.48Z"/><path class="cls-4" d="M46.94,51.07l-.3-.21a3.71,3.71,0,0,0-.55-.22l0,0a1.45,1.45,0,0,1-.18-.35.88.88,0,0,0-.34-.35,1.44,1.44,0,0,0-.55-.28,2.64,2.64,0,0,0-.74-.16,3,3,0,0,0-.79,0l-.49.07a2.15,2.15,0,0,0-.73.31l-.21.23a.49.49,0,0,0,0,.52,1.47,1.47,0,0,0,.19.4c.1.14.21.28.32.41l.16.15a5,5,0,0,0,.47.33,3.43,3.43,0,0,0,.58.28l.21.07a3.75,3.75,0,0,0,.68.16,4.58,4.58,0,0,0,1.54,0,1.54,1.54,0,0,0,.58-.23.8.8,0,0,0,.37-.31l.09-.26A.7.7,0,0,0,46.94,51.07Z"/><path class="cls-4" d="M6.06,34.84a.51.51,0,0,0-.21-.38,1.71,1.71,0,0,0-.5-.3A2.74,2.74,0,0,0,4.68,34l-.53-.06a3.87,3.87,0,0,0-1,.08l-.41.13a1.15,1.15,0,0,0-.54.41l-.5.76a.4.4,0,0,0-.06.39.5.5,0,0,0,.22.38,1.59,1.59,0,0,0,.5.3,1.94,1.94,0,0,0,.67.21l.53.06a3.42,3.42,0,0,0,1-.08L5,36.4A1.2,1.2,0,0,0,5.5,36L6,35.23A.37.37,0,0,0,6.06,34.84Z"/><path class="cls-4" d="M17.8,35.34a.5.5,0,0,0-.22-.37,1.29,1.29,0,0,0-.5-.3,1.94,1.94,0,0,0-.67-.21l-.53-.07a3.8,3.8,0,0,0-1,.08l-.42.14a1.11,1.11,0,0,0-.53.4l-.51,1.28a.39.39,0,0,0-.06.39.5.5,0,0,0,.22.37,1.29,1.29,0,0,0,.5.3,1.94,1.94,0,0,0,.67.21l.53.07a3.8,3.8,0,0,0,1-.08l.42-.14a1.11,1.11,0,0,0,.53-.4l.51-1.28A.39.39,0,0,0,17.8,35.34Z"/><path class="cls-4" d="M25.08,37.39a1,1,0,0,0-.4-.34,2.08,2.08,0,0,0-.63-.23,2.82,2.82,0,0,0-.76-.13h-.54a3,3,0,0,0-.89.2l-.32.18a.63.63,0,0,0-.3.48v.77a.47.47,0,0,0,.15.39.86.86,0,0,0,.4.33,2.1,2.1,0,0,0,.63.24,2.46,2.46,0,0,0,.76.12h.54a2.75,2.75,0,0,0,.89-.21l.32-.18a.63.63,0,0,0,.3-.48v-.77A.45.45,0,0,0,25.08,37.39Z"/><path class="cls-4" d="M33.76,38.41a1,1,0,0,0-.4-.34,2.08,2.08,0,0,0-.63-.23,2.82,2.82,0,0,0-.76-.13h-.54a3,3,0,0,0-.89.2l-.32.19a.6.6,0,0,0-.3.48v.51a.45.45,0,0,0,.15.38,1,1,0,0,0,.4.34,2.41,2.41,0,0,0,.63.24,3.26,3.26,0,0,0,.76.12h.54a3,3,0,0,0,.89-.2l.32-.18a.63.63,0,0,0,.3-.48V38.8A.46.46,0,0,0,33.76,38.41Z"/><path class="cls-4" d="M57,35.34a.84.84,0,0,0-.39-.33,1.84,1.84,0,0,0-.64-.24,2.46,2.46,0,0,0-.76-.12,3,3,0,0,0-1.43.21c-.28.14-.58.31-.62.66-.09.68-.17,1.36-.26,2A.47.47,0,0,0,53,38a.86.86,0,0,0,.4.33,2.1,2.1,0,0,0,.63.24,2.46,2.46,0,0,0,.76.12,3,3,0,0,0,1.43-.21c.29-.14.58-.31.62-.66.09-.68.18-1.36.26-2A.46.46,0,0,0,57,35.34Z"/><path class="cls-4" d="M21.32,43.65l-.26-.51a.82.82,0,0,0-.34-.35,1.51,1.51,0,0,0-.55-.28,2.65,2.65,0,0,0-.73-.16,3.06,3.06,0,0,0-.8,0l-.48.07a2,2,0,0,0-.74.32l-.21.22a.51.51,0,0,0,0,.52l.26.51a.82.82,0,0,0,.34.35,1.59,1.59,0,0,0,.55.28,2.65,2.65,0,0,0,.73.16,3.06,3.06,0,0,0,.8,0l.48-.07a2,2,0,0,0,.74-.32l.21-.22A.49.49,0,0,0,21.32,43.65Z"/><path class="cls-4" d="M25.59,46.83a.93.93,0,0,0-.4-.33,2.41,2.41,0,0,0-.63-.24,2.8,2.8,0,0,0-.76-.12h-.54a3,3,0,0,0-.89.21l-.32.18a.63.63,0,0,0-.3.48v.77a.45.45,0,0,0,.15.38,1,1,0,0,0,.4.34,2.41,2.41,0,0,0,.63.24,3.26,3.26,0,0,0,.76.12h.54a3,3,0,0,0,.89-.2l.32-.18a.63.63,0,0,0,.3-.48v-.77A.48.48,0,0,0,25.59,46.83Z"/><path class="cls-2" d="M12.79,38.91a.87.87,0,0,0-.39-.34,2.08,2.08,0,0,0-.63-.23,2.63,2.63,0,0,0-.55-.09L11.14,38a.88.88,0,0,0-.34-.35,1.51,1.51,0,0,0-.55-.28,2.72,2.72,0,0,0-.74-.16,3.05,3.05,0,0,0-.8,0l-.48.07a2.15,2.15,0,0,0-.73.31l-.22.23a.51.51,0,0,0,0,.52l.54,1.52a.82.82,0,0,0,.34.35,1.72,1.72,0,0,0,.38.2l-.07.21A.53.53,0,0,0,8.6,41a.86.86,0,0,0,.4.33,1.87,1.87,0,0,0,.63.24,2.89,2.89,0,0,0,.77.13h.53a2.69,2.69,0,0,0,.89-.21l.33-.18a.69.69,0,0,0,.3-.48c.16-.51.33-1,.5-1.53A.5.5,0,0,0,12.79,38.91Z"/><path class="cls-2" d="M21.11,46.18a4.37,4.37,0,0,1-.4-1.06,5,5,0,0,1-.08-1.22c0-.32-.31-.58-.55-.72a2.41,2.41,0,0,0-.63-.24,2.88,2.88,0,0,0-.77-.12,3,3,0,0,0-1.43.21c-.27.13-.6.32-.62.66a5.29,5.29,0,0,0,.23,1.85.91.91,0,0,0-.38-.32,2,2,0,0,0-.63-.23,2.82,2.82,0,0,0-.76-.13h-.54a3.1,3.1,0,0,0-.89.2l-.32.19a.65.65,0,0,0-.3.48,2.11,2.11,0,0,0,0,.25,3.89,3.89,0,0,0,.12.49,1.6,1.6,0,0,0,.23.45,2.66,2.66,0,0,0,.52.59,4.46,4.46,0,0,0,.5.35,4.18,4.18,0,0,0,.61.27,2.72,2.72,0,0,0,.74.16,3.05,3.05,0,0,0,.8,0,2.29,2.29,0,0,0,.68-.14,1.44,1.44,0,0,0,.53-.25l.22-.22a.51.51,0,0,0,0-.52l-.09-.13.17.07a2.72,2.72,0,0,0,.74.16,3.05,3.05,0,0,0,.8,0l.48-.07a2.07,2.07,0,0,0,.73-.31A.61.61,0,0,0,21.11,46.18Z"/><path class="cls-2" d="M7.87,43.27a.52.52,0,0,0-.22-.38,1.48,1.48,0,0,0-.5-.3,2.49,2.49,0,0,0-.67-.21,3.8,3.8,0,0,0-1.54,0l-.41.13a1.2,1.2,0,0,0-.54.4l-.76,2.3a.4.4,0,0,0-.06.39.5.5,0,0,0,.22.38,1.59,1.59,0,0,0,.5.3,1.94,1.94,0,0,0,.67.21,3.48,3.48,0,0,0,1.54,0l.42-.13a1.23,1.23,0,0,0,.53-.4c.26-.77.51-1.54.76-2.3A.4.4,0,0,0,7.87,43.27Z"/><path class="cls-2" d="M4,36.5a.45.45,0,0,0-.15-.38.92.92,0,0,0-.39-.34,2,2,0,0,0-.64-.23,2.75,2.75,0,0,0-.76-.13H1.52a3.09,3.09,0,0,0-.9.2l-.32.19a.65.65,0,0,0-.3.47l.26,1.79a.54.54,0,0,0,.15.39.86.86,0,0,0,.4.33,2.1,2.1,0,0,0,.63.24,2.53,2.53,0,0,0,.77.12h.53A2.69,2.69,0,0,0,3.63,39L4,38.77a.69.69,0,0,0,.3-.48Z"/><path class="cls-2" d="M13.69,34.2a.84.84,0,0,0-.34-.36,1.51,1.51,0,0,0-.55-.28l-.47-.12a4.2,4.2,0,0,0-1.06-.06l-.48.08a1.94,1.94,0,0,0-.74.31c-.12.1-.22.22-.33.33l-.12.15a1.65,1.65,0,0,0-.18.32,2.07,2.07,0,0,0-.19,1,.49.49,0,0,0,.15.39,1,1,0,0,0,.4.34,2.08,2.08,0,0,0,.63.23,2.82,2.82,0,0,0,.77.13h.53a2.69,2.69,0,0,0,.89-.21l.33-.18a.62.62,0,0,0,.29-.48,1.44,1.44,0,0,1,0-.46,1.39,1.39,0,0,1,.22-.37.47.47,0,0,0,.21-.31A.37.37,0,0,0,13.69,34.2Z"/><path class="cls-2" d="M21,39c-.57,0-2,0-2,.87S20.35,41,20.89,41s2,0,2-.88S21.52,39,21,39Z"/><path class="cls-2" d="M34.15,42.37A.45.45,0,0,0,34,42a.86.86,0,0,0-.39-.34,3.13,3.13,0,0,0-1.4-.36,3,3,0,0,0-1.43.21l-.32.18a.69.69,0,0,0-.3.48l0,.36a.76.76,0,0,0-.11-.14,6.35,6.35,0,0,0-2.06-1,8.33,8.33,0,0,0-3-.31,2.51,2.51,0,0,0-1.22.39.61.61,0,0,0-.24.74,1.52,1.52,0,0,0,.89.64A4,4,0,0,0,26,43h.13l.17.06a6.38,6.38,0,0,1,.57.32l-.26-.18a1.59,1.59,0,0,0,.5.3,2.49,2.49,0,0,0,.67.21,3.64,3.64,0,0,0,1.54,0l.41-.13a1.15,1.15,0,0,0,.54-.41v0L30.47,45a.53.53,0,0,0,.15.39,1,1,0,0,0,.4.34,3.42,3.42,0,0,0,1.4.36,3.12,3.12,0,0,0,1.42-.22l.33-.18a.65.65,0,0,0,.3-.48C34.36,44.24,34.26,43.31,34.15,42.37Z"/><path class="cls-2" d="M31.19,36.11a1,1,0,0,0-.4-.34,2.08,2.08,0,0,0-.63-.23,2.82,2.82,0,0,0-.77-.13h-.53a3,3,0,0,0-.89.2l-.33.18a.69.69,0,0,0-.3.48c-.08.51-.17,1-.25,1.54a.45.45,0,0,0,.15.38.92.92,0,0,0,.39.34,2,2,0,0,0,.64.23,2.75,2.75,0,0,0,.76.13h.53a3.09,3.09,0,0,0,.9-.2l.32-.19a.65.65,0,0,0,.3-.47l.26-1.54A.48.48,0,0,0,31.19,36.11Z"/><path class="cls-2" d="M35,32.79a.86.86,0,0,0-.4-.33,1.87,1.87,0,0,0-.63-.24,2.82,2.82,0,0,0-.77-.13h-.53a2.69,2.69,0,0,0-.89.21l-.33.18a.69.69,0,0,0-.3.48v1.28a.49.49,0,0,0,.16.38.92.92,0,0,0,.39.34,2,2,0,0,0,.64.23,2.75,2.75,0,0,0,.76.13h.53a3.09,3.09,0,0,0,.9-.2l.32-.19a.65.65,0,0,0,.3-.48V33.18A.53.53,0,0,0,35,32.79Z"/><path class="cls-2" d="M42.54,37.25,41.77,36a.82.82,0,0,0-.34-.35,1.37,1.37,0,0,0-.55-.28,2.65,2.65,0,0,0-.73-.16,3.06,3.06,0,0,0-.8,0l-.48.07a1.94,1.94,0,0,0-.74.31l-.21.23a.49.49,0,0,0,0,.52l.77,1.27a.77.77,0,0,0,.34.35,1.57,1.57,0,0,0,.54.29,3.14,3.14,0,0,0,.74.15,3.55,3.55,0,0,0,.8,0l.48-.08a1.9,1.9,0,0,0,.73-.31l.22-.22A.55.55,0,0,0,42.54,37.25Z"/><path class="cls-2" d="M49,31.14a.46.46,0,0,0-.15-.39,1,1,0,0,0-.4-.34,2.08,2.08,0,0,0-.63-.23,2.82,2.82,0,0,0-.76-.13,3.14,3.14,0,0,0-1.43.22l-.32.18a.6.6,0,0,0-.3.48,4.11,4.11,0,0,1-.14,1.74s0,0,0,0a.38.38,0,0,0-.06.38.54.54,0,0,0,.22.38,1.29,1.29,0,0,0,.5.3,2,2,0,0,0,.67.21,3.48,3.48,0,0,0,1.54,0l.42-.13a1.06,1.06,0,0,0,.53-.4A4.34,4.34,0,0,0,49,31.14Z"/><path class="cls-2" d="M46.11,40.59a.45.45,0,0,0-.15-.38.92.92,0,0,0-.39-.34,2.35,2.35,0,0,0-.64-.24,3.26,3.26,0,0,0-.76-.12h-.53a3.09,3.09,0,0,0-.9.2l-.32.18a.69.69,0,0,0-.3.48c.08.43.17.86.25,1.28a.51.51,0,0,0,.16.39.84.84,0,0,0,.39.33,2.06,2.06,0,0,0,.64.24,2.42,2.42,0,0,0,.76.12h.53a2.81,2.81,0,0,0,.9-.21l.32-.18a.69.69,0,0,0,.3-.48C46.28,41.44,46.2,41,46.11,40.59Z"/><path class="cls-2" d="M41.56,42.33,41,41.57a.82.82,0,0,0-.34-.35,1.51,1.51,0,0,0-.55-.28,2.65,2.65,0,0,0-.73-.16,3.06,3.06,0,0,0-.8,0l-.48.07a2,2,0,0,0-.74.32l-.21.22a.49.49,0,0,0,0,.52c.17.25.35.5.52.76A.88.88,0,0,0,38,43a1.59,1.59,0,0,0,.55.28,2.64,2.64,0,0,0,.74.16,3,3,0,0,0,.79,0l.49-.07a2,2,0,0,0,.73-.32l.21-.22A.49.49,0,0,0,41.56,42.33Z"/><path class="cls-2" d="M48.43,46.49a13.7,13.7,0,0,0-3.94-1.29,4,4,0,0,0-1.54,0c-.28.06-.8.23-1,.53a.62.62,0,0,0,.17.77V47a.5.5,0,0,0,.16.39.79.79,0,0,0,.39.33,1.87,1.87,0,0,0,.63.24,2.53,2.53,0,0,0,.77.12h.53a2.81,2.81,0,0,0,.9-.21l.16-.09a3.46,3.46,0,0,0,1.22.29,3,3,0,0,0,1.43-.21c.25-.12.63-.32.62-.66A.89.89,0,0,0,48.43,46.49Z"/><path class="cls-2" d="M42.12,50.45a3.58,3.58,0,0,0-.5-1,.88.88,0,0,0-.34-.35,1.68,1.68,0,0,0-.55-.28,2.63,2.63,0,0,0-.74-.15,3,3,0,0,0-.79,0l-.49.08A1.82,1.82,0,0,0,38,49l-.21.22a.49.49,0,0,0,0,.52,3.53,3.53,0,0,1,.52,1.13,2.9,2.9,0,0,1,0,.72c0,.33.31.59.55.73a2.08,2.08,0,0,0,.63.23,2.89,2.89,0,0,0,.77.13,3.26,3.26,0,0,0,1.42-.21c.28-.14.61-.32.63-.67A4.21,4.21,0,0,0,42.12,50.45Z"/><path class="cls-2" d="M56.23,48.37a1,1,0,0,0-.4-.34,2.41,2.41,0,0,0-.63-.24,3.26,3.26,0,0,0-.77-.12H53.9a3,3,0,0,0-.89.2l-.33.18a.65.65,0,0,0-.29.48v1.28a.48.48,0,0,0,.15.39.89.89,0,0,0,.39.33,2.35,2.35,0,0,0,.64.24,2.46,2.46,0,0,0,.76.12h.53a3.11,3.11,0,0,0,.9-.21l.32-.18a.69.69,0,0,0,.3-.48V48.75A.45.45,0,0,0,56.23,48.37Z"/><path class="cls-2" d="M53.05,42.76a.48.48,0,0,0-.22-.38,1.22,1.22,0,0,0-.5-.3,1.94,1.94,0,0,0-.67-.21l-.52-.07a3.84,3.84,0,0,0-1,.08l-.41.14a1.13,1.13,0,0,0-.54.4l-.26.77a.35.35,0,0,0,0,.38.49.49,0,0,0,.21.38,1.36,1.36,0,0,0,.5.3,2,2,0,0,0,.67.21l.53.07a3.53,3.53,0,0,0,1-.09l.41-.13a1.13,1.13,0,0,0,.54-.4c.08-.26.17-.51.26-.77A.38.38,0,0,0,53.05,42.76Z"/><path class="cls-2" d="M53,35.9l-.19-.25-.28-.19-.05-.11a.92.92,0,0,1,0-.16l.06-.1a.52.52,0,0,0,.17-.27.41.41,0,0,0,0-.4.88.88,0,0,0-.34-.35,1.55,1.55,0,0,0-.54-.28,3.84,3.84,0,0,0-1.54-.18,2.38,2.38,0,0,0-1.22.39,1.83,1.83,0,0,0-.33.35,3.65,3.65,0,0,0-1.09-.08,2.41,2.41,0,0,0-1.22.39,2.35,2.35,0,0,0-.89,2,2.56,2.56,0,0,0,.28,1,2.78,2.78,0,0,0,1,1,2.41,2.41,0,0,0,.63.24,2.8,2.8,0,0,0,.76.12,3.16,3.16,0,0,0,1.43-.21c.25-.12.64-.33.62-.66A.78.78,0,0,0,50,37.6a1.53,1.53,0,0,1-.18-.18,1.59,1.59,0,0,1-.19-.42,1.46,1.46,0,0,1,0-.36,2.81,2.81,0,0,0,.47.21,2.71,2.71,0,0,0,.74.15,3.05,3.05,0,0,0,.8,0,2.42,2.42,0,0,0,.69-.14,1.47,1.47,0,0,0,.52-.25l.22-.22A.54.54,0,0,0,53,35.9Z"/><path class="cls-2" d="M41.92,31.58c-.57,0-2,0-2,.88s1.41,1.08,1.94,1.08,2,0,2-.87S42.46,31.58,41.92,31.58Z"/><path class="cls-2" d="M55.62,32.93l-.25-.26a1.36,1.36,0,0,0-.5-.3,2,2,0,0,0-.67-.21,2.7,2.7,0,0,0-.8-.06,2.74,2.74,0,0,0-.75.08l-.41.13a1.06,1.06,0,0,0-.53.4l-.09.26a.7.7,0,0,0,.25.51l.25.25a1.36,1.36,0,0,0,.5.3,2,2,0,0,0,.67.21,4.64,4.64,0,0,0,1.55,0l.41-.14a1.13,1.13,0,0,0,.54-.4l.08-.26A.66.66,0,0,0,55.62,32.93Z"/><path class="cls-2" d="M64.75,35.47a1.14,1.14,0,0,0-.49-.46l-.4-.18a3.75,3.75,0,0,0-1-.18h-.77a2.35,2.35,0,0,0-.65,0,.79.79,0,0,0,0-.22,2,2,0,0,1-.13-.34,2.1,2.1,0,0,1,0-.66c0-.09.08-.18.13-.27a.39.39,0,0,0,.06-.39.49.49,0,0,0-.22-.37,1.22,1.22,0,0,0-.5-.3,2.2,2.2,0,0,0-.67-.22,3.8,3.8,0,0,0-1.54,0,1.58,1.58,0,0,0-1,.54,2.38,2.38,0,0,0-.28.66,2,2,0,0,0-.09.48,2.37,2.37,0,0,0,.1.7,1.56,1.56,0,0,0,.17.47.82.82,0,0,0,.34.35,1.51,1.51,0,0,0,.55.28,2.65,2.65,0,0,0,.73.16,3.06,3.06,0,0,0,.8,0l.13,0,0,.21a1.12,1.12,0,0,0,.49.45l.4.18a3.84,3.84,0,0,0,1,.19h.77a2.83,2.83,0,0,0,.77,0,2.14,2.14,0,0,0,.66-.17.82.82,0,0,0,.42-.29.48.48,0,0,0,.2-.37Z"/><path class="cls-2" d="M65.29,39.68a.54.54,0,0,0-.22-.37,1.29,1.29,0,0,0-.5-.3,1.94,1.94,0,0,0-.67-.21l-.53-.07a3.8,3.8,0,0,0-1,.08l-.42.14a1.11,1.11,0,0,0-.53.4l-.26.51a.37.37,0,0,0,0,.39.51.51,0,0,0,.21.38,1.71,1.71,0,0,0,.5.3,2.74,2.74,0,0,0,.67.21l.53.06a3.87,3.87,0,0,0,1-.08l.41-.13a1.15,1.15,0,0,0,.54-.41l.25-.51A.39.39,0,0,0,65.29,39.68Z"/><path class="cls-2" d="M56.39,41.1l-.26-.26a1.34,1.34,0,0,0-.5-.3,1.94,1.94,0,0,0-.67-.21,2.61,2.61,0,0,0-.79-.06,2.74,2.74,0,0,0-.75.08l-.41.13a1.2,1.2,0,0,0-.54.4l-.08.26a.65.65,0,0,0,.24.51l.26.25a1.29,1.29,0,0,0,.5.3,1.94,1.94,0,0,0,.67.21,4.58,4.58,0,0,0,1.54,0l.41-.13a1.22,1.22,0,0,0,.54-.41l.09-.26A.66.66,0,0,0,56.39,41.1Z"/><path class="cls-2" d="M61.64,46.2c-.08-.25-.16-.51-.25-.76a.77.77,0,0,0-.34-.35,1.57,1.57,0,0,0-.54-.29,3.14,3.14,0,0,0-.74-.15,3.55,3.55,0,0,0-.8,0l-.48.08a2,2,0,0,0-.74.31l-.21.22a.55.55,0,0,0,0,.53c.09.25.17.51.25.76a.82.82,0,0,0,.34.35,1.46,1.46,0,0,0,.55.29,3,3,0,0,0,.74.15,3.49,3.49,0,0,0,.79,0l.49-.08A2,2,0,0,0,61.4,47l.21-.22A.51.51,0,0,0,61.64,46.2Z"/><path class="cls-2" d="M69.85,42.11a.79.79,0,0,0-.34-.36,1.55,1.55,0,0,0-.54-.28l-.47-.12a4.28,4.28,0,0,0-1.07-.06l-.48.08a1.9,1.9,0,0,0-.73.31l-.77.77a.51.51,0,0,0-.26.35.39.39,0,0,0,0,.39.82.82,0,0,0,.34.35,1.37,1.37,0,0,0,.55.28l.47.13a4.17,4.17,0,0,0,1.06,0l.48-.07a2.2,2.2,0,0,0,.74-.31l.76-.77a.48.48,0,0,0,.26-.35A.37.37,0,0,0,69.85,42.11Z"/><path class="cls-2" d="M74.1,45.05a1,1,0,0,0-.4-.34l-.39-.17a3.84,3.84,0,0,0-1-.19h-.54a3.1,3.1,0,0,0-.89.2l-.51.26a.87.87,0,0,0-.43.29l-.08.09a3.41,3.41,0,0,0-1.38-.34c-.57,0-2,0-2,.87s1.41,1.09,1.94,1.09,1.66,0,2-.6l.34.16a3.83,3.83,0,0,0,1,.18h.54a3,3,0,0,0,.89-.21l.51-.26a.81.81,0,0,0,.43-.29.47.47,0,0,0,.19-.37A.45.45,0,0,0,74.1,45.05Z"/><path class="cls-2" d="M64.75,30.11a1.09,1.09,0,0,0-.49-.46l-.4-.18a3.39,3.39,0,0,0-1-.18h-.25a2.9,2.9,0,0,0-.78,0,2.15,2.15,0,0,0-.65.17.87.87,0,0,0-.43.29.48.48,0,0,0-.19.37l0,.26a1.11,1.11,0,0,0,.5.46l.39.18a3.45,3.45,0,0,0,1,.18h.26a2.83,2.83,0,0,0,.77,0,2.14,2.14,0,0,0,.66-.17.89.89,0,0,0,.42-.29.49.49,0,0,0,.2-.37Z"/><path class="cls-2" d="M55,45.28a.5.5,0,0,0-.22-.38,1.59,1.59,0,0,0-.5-.3,1.94,1.94,0,0,0-.67-.21l-.53-.06a3.42,3.42,0,0,0-1,.08l-.41.13a1.2,1.2,0,0,0-.54.4c-.17.26-.35.51-.52.76a.4.4,0,0,0-.06.39.56.56,0,0,0,.22.38,1.59,1.59,0,0,0,.5.3A2.49,2.49,0,0,0,52,47l.53.06a3.8,3.8,0,0,0,1-.08l.42-.13a1.13,1.13,0,0,0,.53-.41l.52-.75A.4.4,0,0,0,55,45.28Z"/><path class="cls-2" d="M38.45,46.45a.84.84,0,0,0-.34-.36,1.51,1.51,0,0,0-.55-.28l-.47-.12A4.17,4.17,0,0,0,36,45.63l-.48.08a2,2,0,0,0-.74.31l-.51.51a.52.52,0,0,0-.25.35.38.38,0,0,0,0,.4.88.88,0,0,0,.34.35,1.59,1.59,0,0,0,.55.28l.47.12a3.78,3.78,0,0,0,1.06.06L37,48a1.94,1.94,0,0,0,.74-.31l.51-.51a.51.51,0,0,0,.26-.35A.39.39,0,0,0,38.45,46.45Z"/><path class="cls-2" d="M28.4,48.37A1,1,0,0,0,28,48a2.41,2.41,0,0,0-.63-.24,3.26,3.26,0,0,0-.76-.12h-.54a3,3,0,0,0-.89.2l-.32.18a.63.63,0,0,0-.3.48v1a.46.46,0,0,0,.15.39,1,1,0,0,0,.4.34,1.9,1.9,0,0,0,.63.23,2.82,2.82,0,0,0,.76.13H27a3.1,3.1,0,0,0,.89-.2l.32-.19a.65.65,0,0,0,.3-.48v-1A.45.45,0,0,0,28.4,48.37Z"/><path class="cls-2" d="M27.69,44.68l-.52-.75a.84.84,0,0,0-.34-.36,1.59,1.59,0,0,0-.55-.28,3.06,3.06,0,0,0-.73-.15,3.57,3.57,0,0,0-.8,0l-.48.08a1.94,1.94,0,0,0-.74.31l-.21.22a.49.49,0,0,0,0,.52l.52.76a.88.88,0,0,0,.34.35,1.51,1.51,0,0,0,.55.28,2.72,2.72,0,0,0,.74.16,3.05,3.05,0,0,0,.8,0l.48-.07a2.15,2.15,0,0,0,.73-.31l.22-.23A.51.51,0,0,0,27.69,44.68Z"/><path class="cls-2" d="M60.38,39.56l-.27-1a.82.82,0,0,0-.34-.35,1.55,1.55,0,0,0-.54-.28,2.72,2.72,0,0,0-.74-.16,3.05,3.05,0,0,0-.8,0l-.48.07a1.92,1.92,0,0,0-.73.32l-.22.22a.54.54,0,0,0,0,.52l.27,1a.82.82,0,0,0,.34.35,1.55,1.55,0,0,0,.54.28,2.72,2.72,0,0,0,.74.16,3.05,3.05,0,0,0,.8,0l.48-.07a1.92,1.92,0,0,0,.73-.32l.22-.22A.54.54,0,0,0,60.38,39.56Z"/><path class="cls-2" d="M58.9,28.19a.49.49,0,0,0-.22-.37,1.29,1.29,0,0,0-.5-.3,2.2,2.2,0,0,0-.67-.22,3.8,3.8,0,0,0-1.54,0l-.41.13a1.22,1.22,0,0,0-.54.41c-.26.59-.51,1.19-.77,1.79a.35.35,0,0,0,0,.38.48.48,0,0,0,.22.38,1.22,1.22,0,0,0,.5.3,1.94,1.94,0,0,0,.67.21,3.63,3.63,0,0,0,1.54,0l.41-.14a1.13,1.13,0,0,0,.54-.4c.25-.6.51-1.19.76-1.79A.39.39,0,0,0,58.9,28.19Z"/></g></g></svg>