<svg xmlns="http://www.w3.org/2000/svg" viewBox="0 0 21.47 14.86"><defs><style>.cls-1{fill:#91535a;}</style></defs><g id="Layer_2" data-name="Layer 2"><g id="Ventana_Casa_1_Derecha" data-name="Ventana Casa 1 Derecha"><path class="cls-1" d="M.2,3.89C.64,2.15,12.47,1.17,14.47.17c1.79-.89,5,2,5,2l2,3L21,5.65a6,6,0,0,1-3.67,1.71L13,7.75V10.7s-1,2-1.5,0A18.93,18.93,0,0,1,11,6.77l2.22-1.45L9.76,6.58a43,43,0,0,0,.05,7.36c0,.51-1.28,2.15-1.91-.79A38.5,38.5,0,0,1,7.64,5L10,3.67,6.4,5.72s0,3.2.18,6.86c0,.87-2,2.49-2.39-1.09C4,9.87,3.64,5,3.64,5L5.49,4l-2.82,1L2.2,9.89S.31,11.72.25,9.31-.25,5.64.2,3.89Z"/></g></g></svg>