<svg xmlns="http://www.w3.org/2000/svg" viewBox="0 0 60.13 103.48"><defs><style>.cls-1{fill:#91535a;}.cls-2{fill:#bf1140;}.cls-3{fill:#731921;}</style></defs><g id="Layer_2" data-name="Layer 2"><g id="Ventana_Casa_1_Derecha" data-name="Ventana Casa 1 Derecha"><path class="cls-1" d="M6.45,41.46,1.27,19s-2.2-11-.81-11,3.67,10.67,5,11.46c0,0-1.93-15.44,0-16.72s3.78,16,3.78,16S7-.3,9.2,0s3.23,18,3.23,18-.9-15.72.81-16.19S15.52,18.2,17.77,18c0,0,2.06,2.29,2.26-5.28s2.37-8,3.4-5.8,2.09,12-1.3,18.41S22,38.06,22,38.06Z"/><path class="cls-2" d="M5.43,38.63l16-2s9.78,44.16,34.5,56.5c2.7,1.35,10.72,12.22-6.72,10.06C49.21,103.19,12.43,95.63,5.43,38.63Z"/><path class="cls-3" d="M5.93,42.32,7,41.14c3-1.51,15.42-1.51,15.42-1.51l-1-4c-4.48-2.82-17,2-17,2-.93,1.55.23,2.79,1.13,3.46l.38,1.29Z"/><path class="cls-3" d="M19.55,39.26s4.67,9.12,3,16.48C22.58,55.74,21.48,44.05,19.55,39.26Z"/><path class="cls-3" d="M9.81,38.09s-2.88,8.12,5.57,22C15.38,60.12,8.37,46.14,9.81,38.09Z"/></g></g></svg>