<svg xmlns="http://www.w3.org/2000/svg" xmlns:xlink="http://www.w3.org/1999/xlink" viewBox="0 0 56.05 53.17"><defs><style>.cls-1{fill:none;}.cls-2{fill:#ebc0de;}.cls-3{fill:#f794de;}.cls-4{fill:#9a3054;}.cls-5{fill:#fff;}.cls-6{fill:#208c46;}.cls-7{clip-path:url(#clip-path);}.cls-8{fill:#4bbf89;}.cls-9{fill:#1b8952;}</style><clipPath id="clip-path" transform="translate(0 0.61)"><path class="cls-1" d="M44.68,17.29S34.07,1.34,25.63.14,4.22,5.86,4.22,5.86l2,3.84S18.5,11,21.39,7.94c0,0-2.95.22-2,4.81s-3.69,20.25-.53,23Z"/></clipPath></defs><g id="Layer_2" data-name="Layer 2"><g id="Ventana_Casa1_Izquierda" data-name="Ventana Casa1 Izquierda"><circle class="cls-2" cx="36.55" cy="36.17" r="17"/><path class="cls-2" d="M45.2,36.47s.42,7.05,6.87,4.68,4.59,3.9-2.24,3.9C49.83,45.05,44,45.62,45.2,36.47Z" transform="translate(0 0.61)"/><circle cx="40.25" cy="36.27" r="1.61"/><circle cx="50.15" cy="34.17" r="1.5"/><ellipse class="cls-3" cx="38.05" cy="39.75" rx="2.17" ry="2.19" transform="translate(-10.61 14.67) rotate(-18.42)"/><path class="cls-3" d="M52.36,35.67a2.19,2.19,0,0,0,.6,4.26,17,17,0,0,0,.59-4.3A2.2,2.2,0,0,0,52.36,35.67Z" transform="translate(0 0.61)"/><path class="cls-4" d="M49.51,24.57a17,17,0,0,0-30,11,16.67,16.67,0,0,0,.7,4.77c.1.1,1.8,1.63,1.8-1.27a12.68,12.68,0,0,1,2-6s-1-4,1-2c0,0,3,1,3,3s0,5,1,2,0-5,4-7S49.92,26.07,49.51,24.57Z" transform="translate(0 0.61)"/><path class="cls-5" d="M41.12,45.06c-5.07-4-4.88,1.74-2.47,3.87,1.24,1.1,3.48,1.63,5.37,1.88a16.94,16.94,0,0,0,5.47-4.24C49.21,46.77,46,48.88,41.12,45.06Z" transform="translate(0 0.61)"/><path class="cls-6" d="M44.68,17.29S34.07,1.34,25.63.14,4.22,5.86,4.22,5.86l2,3.84S18.5,11,21.39,7.94c0,0-2.95.22-2,4.81s-3.69,20.25-.53,23Z" transform="translate(0 0.61)"/><g class="cls-7"><circle class="cls-8" cx="37.45" cy="13.57" r="0.99"/><circle class="cls-8" cx="31.55" cy="13.45" r="0.99"/><circle class="cls-8" cx="29.43" cy="7.14" r="0.99"/><circle class="cls-8" cx="27.22" cy="0.99" r="0.99"/><circle class="cls-8" cx="14.26" cy="10.41" r="0.99"/><circle class="cls-8" cx="22.76" cy="3.51" r="0.99"/><circle class="cls-8" cx="19.96" cy="9.4" r="0.99"/><circle class="cls-8" cx="13.88" cy="2.79" r="0.99"/><circle class="cls-8" cx="7.39" cy="7.9" r="0.99"/><circle class="cls-8" cx="23.34" cy="12.27" r="0.99"/><circle class="cls-8" cx="19.96" cy="16.19" r="0.99"/><circle class="cls-8" cx="25.74" cy="19.96" r="0.99"/><circle class="cls-8" cx="34.45" cy="18.32" r="0.99"/><circle class="cls-8" cx="19.22" cy="23.61" r="0.99"/><circle class="cls-8" cx="23.54" cy="24.73" r="0.99"/><circle class="cls-8" cx="34.88" cy="6.2" r="0.99"/></g><path class="cls-9" d="M42.47,14.68,18.55,30.26l-.61-2.33s1.85-1.86,1.17-2.48.43-1.93,1.46-2.67,2.67-.19,3.64-.93,2-1,2.93-1.61.83,1,2.46-1,1.83-2.05,2.76-2.6A46.93,46.93,0,0,1,38.14,14c.41,0,2.39-.34,2.39-.34l1-.57Z" transform="translate(0 0.61)"/><circle class="cls-5" cx="3.98" cy="9.44" r="3.98"/><path class="cls-5" d="M19.59,27.89c.44-.31.89-.61,1.34-.91a.89.89,0,0,1,.42-.61q5-3.35,10.22-6.47,2.51-1.51,5.06-3c1.61-.92,3.57-1.73,4.84-3.11a2.47,2.47,0,0,1,2.68-.27,7,7,0,0,1,3.31,2.19c1,1.23,2.12,2.76,2,4.43A3,3,0,0,1,46.36,23c-1.65.11-2.38-.27-3.87.43a43.45,43.45,0,0,0-4.12,2.41c-3.07,1.87-6.17,3.71-9.15,5.7-1.52,1-3,2.08-4.44,3.22a43.68,43.68,0,0,1-4,3.14c-1,.62-2.77-.1-3.65-.6a8.21,8.21,0,0,1-1.5-1.07c-.3-.28-1.07-1.14-1-1.67C15.15,31.58,17.2,29.58,19.59,27.89Z" transform="translate(0 0.61)"/></g></g></svg>