<svg xmlns="http://www.w3.org/2000/svg" viewBox="0 0 242.02 461.14"><defs><style>.cls-1{fill:#6805f2;}.cls-2{fill:#9688f2;}.cls-3{fill:#b2065c;}.cls-4{fill:#f20574;}.cls-5{fill:#fff;}.cls-6{fill:#fafafa;}</style></defs><g id="Layer_2" data-name="Layer 2"><g id="Casa1_Izquierda" data-name="Casa1 Izquierda"><polygon class="cls-1" points="8.55 113.8 59.55 44.8 89.55 57.8 89.55 79.3 112.55 434.8 60.55 461.14 16.55 373.8 8.55 113.8"/><path class="cls-2" d="M109.55,436.8s97-67,121-72L216.7,50.8H112.55l-23,7Z"/><path class="cls-3" d="M68.87,50.8S46.05,64.3,15.05,118.3c0,0-13,11-15,3s53-79,53-79S59.69,32.3,68.87,50.8Z"/><path class="cls-4" d="M105.64,92.8s-42.43-42.88-48-53.19L186.05,9.3l44.5,55Z"/><path class="cls-5" d="M219.14,21.56c-7.53-6.77-15.71-13.2-25.56-16.17a33,33,0,0,0-5.87-1.21,34.43,34.43,0,0,0-13-4c-7.13-.71-14.26.93-21.12,2.77C145.91,5,138.2,7.15,130.49,9.26l-20.24,5.53c-5.22,1.43-10.67,2.87-14.73,6-4.19,0-8.38,0-12.53.3-10.38.73-19.57,7.77-19.28,19C64.13,55.89,80.5,61.49,93.93,65a22.64,22.64,0,0,0,2.52,5.75,19.89,19.89,0,0,0,20.84,8.79,21.63,21.63,0,0,0,5.7-2l62.87-16.08,15.39-3.93c5.26-1.35,10.95-2.28,15.77-4.91,5.77-3.16,10-8.83,10.17-15.57C227.34,30.69,223.68,25.65,219.14,21.56Z"/><path class="cls-3" d="M166.21,354.29l-3.39-67.49s-3.38-34.16,19.43-33.83c0,0,11.85-1.29,17.3,27.79a544.24,544.24,0,0,1,7.69,60Z"/><circle class="cls-6" cx="170.55" cy="310.8" r="4"/><polygon class="cls-1" points="169.8 397.15 166.21 354.29 207.24 340.8 214.7 340.8 214.7 352.25 228.49 352.25 228.49 364.8 242.02 364.8 242.02 375.23 200.55 406.8 169.8 397.15"/><polygon class="cls-2" points="166.21 354.29 173.55 356.8 214.7 340.8 207.24 340.8 166.21 354.29"/><polygon class="cls-2" points="214.7 352.25 176.55 370.8 190.55 372.8 228.49 352.25 214.7 352.25"/><polygon class="cls-2" points="228.49 364.8 198.55 384.8 211.55 387.8 242.02 364.8 228.49 364.8"/></g></g></svg>