<?xml version="1.0" encoding="utf-8"?>
<!-- Generator: Adobe Illustrator 25.0.1, SVG Export Plug-In . SVG Version: 6.00 Build 0)  -->
<svg version="1.1" id="Layer_1" xmlns="http://www.w3.org/2000/svg" xmlns:xlink="http://www.w3.org/1999/xlink" x="0px" y="0px"
	 viewBox="0 0 268.9 392.2" style="enable-background:new 0 0 268.9 392.2;" xml:space="preserve">
<style type="text/css">
	.st0{fill:#F2AC29;}
	.st1{fill:#FCCF86;}
	.st2{fill:#B2065C;}
	.st3{fill:#F20574;}
	.st4{fill:#F9F9F9;}
	.st5{fill:#5F0DE3;}
</style>
<g id="Layer_2_1_">
	<g id="Casa_1_Derecha">
		<polygon class="st0" points="103,392.2 215.5,329.7 249,76.2 138,111.2 		"/>
		<polygon class="st1" points="0,340.2 15,100.2 93,55.2 138,111.2 103,392.2 		"/>
		<polygon class="st2" points="7,102.2 14.6,106.5 88.2,60.9 82,52.2 		"/>
		<polygon class="st3" points="82,52.2 135.9,127.7 260,79.2 208,13.2 		"/>
		<path class="st4" d="M266.8,46.1c-2.6-5.1-7-10.1-10.5-14.4c-20.3-25-56.7-34.5-87.6-31c-10.1,1.1-20,3.2-29.2,7.5
			c-4.3,2-8.4,4.3-12.7,6.3c-9,4-18.4,7.2-27.7,10.3c-3.4,1.2-6.5,3.2-9.2,5.7c-7.8,0.7-15.3,5.4-20.2,11.4
			c-0.6,0.7-1.1,1.5-1.5,2.3c-2.2,0.5-4.3,1.3-6.3,2.3c-14.2,8-27.8,17-40.7,27c-4,3.2-14,11.3-9.7,17.6c4.1,5.8,16-0.1,19.8-3.1
			c5.5-4.4,11.2-8.5,17-12.5c2.8-1.9,5.6-3.7,8.5-5.5l1-0.7l1.1-0.6c1.6-0.9,3.2-1.8,4.8-2.8c1.1-0.7,2.5-1.5,3.9-2.4
			c0.8,0,1.5-0.1,2.3-0.2l3.8-1c2.9-1,5.7-2.4,8.2-4.2l3.7-3c1.5-1.3,2.8-2.8,3.9-4.4c1.7,1.8,3.7,3.4,5.8,4.7
			c3.4,5.7,7.2,11.3,11.2,16.6c7.1,9.4,13,14.9,24.7,19.1c16.2,5.7,33.7,6.7,50.5,2.8c11-2.7,20.9-8.5,30.9-13.5l2-1
			c8.7,0.7,17.5,0.1,26-1.8c6.6-1.5,14-3.8,19.5-7.9C268,63.8,271.4,55.2,266.8,46.1z"/>
		<path class="st5" d="M77.1,294.7c-1.4-5.9-4.8-11-11.8-14.5c-11.8-5.8-27.5-2.5-30.6,11.7c-2.7,12.4-6,62.9-6,62.9L69,375
			c2.2-18,5.1-35.9,7.2-53.9C77.3,312.4,79,302.8,77.1,294.7z"/>
	</g>
</g>
</svg>
