<svg xmlns="http://www.w3.org/2000/svg" viewBox="0 0 266.09 380.82"><defs><style>.cls-1{fill:#219750;}.cls-2{fill:#87d8a3;}.cls-3{fill:#f20574;}.cls-4{fill:#fff;}.cls-5{fill:#6805f2;}.cls-6{fill:#d9d6fc;}.cls-7{fill:#16592a;}.cls-8{fill:#b2065c;}.cls-9{fill:#f23030;}</style></defs><g id="Layer_2" data-name="Layer 2"><g id="Casa_2_Izquierda" data-name="Casa 2 Izquierda"><polygon class="cls-1" points="0 348.42 46 380.82 30 187.82 0 172.25 0 348.42"/><polygon class="cls-2" points="257.17 276.53 46 380.82 31.33 203.82 227 96.82 257.17 276.53"/><polygon class="cls-3" points="0 91.06 179.04 9.76 266.08 91.06 29 211.82 0 172.25 0 91.06"/><path class="cls-4" d="M239.69,40.29c-3.32-12.79-13.26-23.62-24-30.82C195.51-4.1,168.39-1.46,146.92,7.21q-18.1,7.31-35.7,15.78a40.17,40.17,0,0,0-12.1,3.28A784.86,784.86,0,0,0,11,74.57,37.33,37.33,0,0,0,0,77.08V160.2a44.1,44.1,0,0,0,14,8.35c19.28,7.49,43.73,6.12,61.37-5,5.56-3.53,10-8.38,14.48-13.11l.86-.91c.13-.12.27-.25.42-.41.8-.76,1.57-1.54,2.38-2.29a69,69,0,0,1,7.53-6c1.31-.91,2.68-1.73,4-2.6a5.27,5.27,0,0,0,1-.78c1.73-.92,3.9-1.6,5.44-2.28,5.46-2.43,11.08-4.46,16.73-6.39,11.32-3.87,22.74-7.39,33.75-12.11,23.51-10.08,46.46-23.76,65.55-40.87C232.24,71.52,236.84,67,239.1,61,241.82,53.76,241.63,47.74,239.69,40.29Z"/><path class="cls-5" d="M159.53,324.75s-18-82.43,10-95.43,40.36-1,40.18,16.5l6,51.22Z"/><circle class="cls-6" cx="167" cy="279.82" r="3"/><polygon class="cls-6" points="51.79 269.87 55.37 325.35 99.21 302.98 94.74 246.61 51.79 269.87"/><path class="cls-7" d="M96.52,246.47A1.79,1.79,0,0,0,93.88,245l-17.79,9.64a1.29,1.29,0,0,0-.28,0,1.78,1.78,0,0,0-1.43.93L50.94,268.3A1.79,1.79,0,0,0,50,270l3.58,55.47a1.8,1.8,0,0,0,.9,1.44,1.76,1.76,0,0,0,1.7,0l24.91-12.71h0L100,304.57a1.77,1.77,0,0,0,1-1.73Zm-1.3,28.89-15.48,7.09-1.89-24.66,15.32-8.3ZM74.4,259.66,76.27,284l-21.15,9.68L53.65,270.9Zm-19,37.87,21.2-9.7,1.82,23.76L57,322.52Zm26.48,12.3L80,286.25l15.49-7.09,1.81,22.77Z"/><polygon class="cls-6" points="105.51 251.01 108.53 297.79 145.49 278.93 141.72 231.4 105.51 251.01"/><path class="cls-7" d="M143.22,231.28a1.51,1.51,0,0,0-.78-1.21,1.53,1.53,0,0,0-1.44,0l-15,8.13h-.24a1.53,1.53,0,0,0-1.21.79l-19.76,10.71a1.51,1.51,0,0,0-.79,1.42l3,46.77a1.49,1.49,0,0,0,1.51,1.41,1.48,1.48,0,0,0,.68-.16l21-10.71h0l16-8.14a1.53,1.53,0,0,0,.82-1.46Zm-1.09,24.36-13,6-1.6-20.78,12.92-7ZM124.57,242.4,126.15,263l-17.83,8.16-1.24-19.23Zm-16,31.94,17.87-8.18,1.54,20-18.06,9.21Zm22.32,10.36-1.53-19.88,13.06-6,1.53,19.2Z"/><polygon class="cls-6" points="207.19 198.59 209.58 235.56 238.8 220.65 235.81 183.08 207.19 198.59"/><path class="cls-7" d="M237,183a1.17,1.17,0,0,0-.62-1,1.14,1.14,0,0,0-1.13,0l-11.86,6.42h-.19a1.18,1.18,0,0,0-.95.63l-15.63,8.46a1.2,1.2,0,0,0-.62,1.12l2.39,37a1.15,1.15,0,0,0,.6,1,1.11,1.11,0,0,0,.59.16,1.16,1.16,0,0,0,.54-.13l16.6-8.47h0l12.62-6.44a1.2,1.2,0,0,0,.65-1.15Zm-.86,19.26L225.82,207l-1.26-16.43L234.77,185Zm-13.88-10.47L223.51,208l-14.1,6.45-1-15.2ZM209.58,217l14.12-6.46,1.22,15.83-14.27,7.28Zm17.64,8.2L226,209.5l10.32-4.72,1.2,15.17Z"/><path class="cls-8" d="M160.85,153.19A38.58,38.58,0,1,0,197,194.26,38.71,38.71,0,0,0,160.85,153.19ZM156.79,214a22.39,22.39,0,1,1,24-20.83A22.46,22.46,0,0,1,156.79,214Z"/><path class="cls-3" d="M158.55,168.6a.66.66,0,0,0-.13-.78c-.15-.17-.28-.35-.41-.53a7.23,7.23,0,0,1-1.25-4.1c0-.88-1.32-1.23-2-1.3-.23,0-.47,0-.71,0l-.07-.1a2.3,2.3,0,0,0-.72-.47l-2.41-1a4.32,4.32,0,0,0-1.63-.3,2.71,2.71,0,0,0-.75.1,1.54,1.54,0,0,0-.58.23c-.24.18-.46.45-.31.78l.18.27a2.3,2.3,0,0,0,.72.47l2.41,1a4.32,4.32,0,0,0,1.63.3h0a8.52,8.52,0,0,0,.3,2l-.32,0c-.35.07-.86.17-1.05.5-.6,1-1.2,2.06-1.81,3.08l-.13.13a.52.52,0,0,0-.07.55l.71,1.69a1,1,0,0,0,.34.4,1.84,1.84,0,0,0,.57.34,3.06,3.06,0,0,0,.77.22,3.53,3.53,0,0,0,.86.08l.52,0a2.08,2.08,0,0,0,.8-.29l.25-.22a.55.55,0,0,0,.06-.55l-.57-1.38.55-.94.38.44a1.82,1.82,0,0,0,.51.36,2.82,2.82,0,0,0,.7.27,3.06,3.06,0,0,0,.85.12,2.75,2.75,0,0,0,.81,0l.45-.11a1.23,1.23,0,0,0,.6-.4l.11-.27A.72.72,0,0,0,158.55,168.6Z"/><path class="cls-3" d="M142.36,171.33a4,4,0,0,0-3-.36c-.29.12-.69.3-.71.66l-.33,4.92a1,1,0,0,0,.54.81,3.47,3.47,0,0,0,1.46.49,3.52,3.52,0,0,0,1.55-.13c.28-.12.68-.3.71-.66l.32-4.92A1,1,0,0,0,142.36,171.33Z"/><path class="cls-3" d="M133.89,181.17c-.46-1.67-.91-3.34-1.37-5-.09-.34-.63-.62-.9-.74a4.14,4.14,0,0,0-1.63-.3c-.62,0-1.88.21-1.64,1.11.46,1.67.91,3.34,1.37,5,.09.34.63.63.9.74a4,4,0,0,0,1.63.31C132.87,182.25,134.14,182.07,133.89,181.17Z"/><path class="cls-3" d="M132.49,188a3.56,3.56,0,0,0-2.86-.72l-4.44.43a3.13,3.13,0,0,0-1.82-.76c-.62,0-2.15-.1-2.26.79s1.44,1.26,2,1.3l.58,0,0,0a3.56,3.56,0,0,0,2.86.72l5-.48a1.62,1.62,0,0,0,1.05-.51A.64.64,0,0,0,132.49,188Z"/><path class="cls-3" d="M124.51,200.25a1.26,1.26,0,0,0-.49-.53l-.42-.21a3.87,3.87,0,0,0-1-.27l-1.64-.11a3.64,3.64,0,0,0-1.54.12,1,1,0,0,0-.48.29.49.49,0,0,0-.23.38l0,.28a1.26,1.26,0,0,0,.49.53l.41.21a3.94,3.94,0,0,0,1.06.27l1.64.11a3.64,3.64,0,0,0,1.54-.12,1,1,0,0,0,.48-.29.49.49,0,0,0,.23-.38Z"/><path class="cls-3" d="M124.46,207.59c-.61,0-2.15-.1-2.25.79s1.43,1.26,2,1.3,2.15.1,2.25-.79S125,207.63,124.46,207.59Z"/><path class="cls-3" d="M137.36,217.7a.51.51,0,0,0-.21-.42,1.43,1.43,0,0,0-.51-.36,2.21,2.21,0,0,0-.7-.27,3.83,3.83,0,0,0-1.65-.09l-.34.08a4,4,0,0,0-1-.26l-.57,0a3,3,0,0,0-1,.16l-1.69.71a.9.9,0,0,0-.48.28.51.51,0,0,0-.23.38.5.5,0,0,0,.13.42.94.94,0,0,0,.4.39l.41.21a3.84,3.84,0,0,0,1.06.27l.57,0a3.84,3.84,0,0,0,.68-.09.55.55,0,0,0,.2.36,1.41,1.41,0,0,0,.51.35,2.5,2.5,0,0,0,.7.28,4.17,4.17,0,0,0,1.65.09l.45-.11a1.3,1.3,0,0,0,.6-.4l.93-1.58A.4.4,0,0,0,137.36,217.7Z"/><path class="cls-3" d="M142.63,222.89a11.46,11.46,0,0,1-.47-1.9,11.26,11.26,0,0,1,.3-4.44c.09-.32-.33-.68-.54-.82a3.32,3.32,0,0,0-1.46-.48c-.71-.07-2-.09-2.26.79a11.72,11.72,0,0,0,.26,6.91c.12.35.6.61.91.74a3.76,3.76,0,0,0,1.62.3C141.56,224,142.94,223.77,142.63,222.89Z"/><path class="cls-3" d="M188.29,216.7a.92.92,0,0,0-.4-.38,2,2,0,0,0-.66-.3,3.11,3.11,0,0,0-.8-.19l-.57,0a3.07,3.07,0,0,0-.85.13,3.47,3.47,0,0,0-1-.26c-.61,0-2.15-.11-2.25.79s1.43,1.26,2,1.29l.48,0,.05.09a1,1,0,0,0,.4.39,2.8,2.8,0,0,0,.66.3,3.19,3.19,0,0,0,.81.19l.57,0a3.18,3.18,0,0,0,1-.16l.36-.17a.7.7,0,0,0,.35-.49l.06-.82A.52.52,0,0,0,188.29,216.7Z"/><path class="cls-3" d="M193.6,211.47l-.72-1.69a1,1,0,0,0-.34-.4A1.68,1.68,0,0,0,192,209a3,3,0,0,0-.78-.21,3,3,0,0,0-.85-.09l-.52,0a2.11,2.11,0,0,0-.81.28l-.24.22a.54.54,0,0,0-.07.56l.72,1.69a1,1,0,0,0,.34.4,1.63,1.63,0,0,0,.57.34,2.83,2.83,0,0,0,.77.21,3,3,0,0,0,.85.09l.52-.05a2.11,2.11,0,0,0,.81-.28l.25-.22A.56.56,0,0,0,193.6,211.47Z"/><path class="cls-3" d="M190.57,203c-.61,0-2.14-.11-2.25.78s1.44,1.26,2,1.3,2.14.11,2.25-.79S191.14,203,190.57,203Z"/><path class="cls-3" d="M193.52,195.74c-.61,0-2.14-.11-2.25.79s1.43,1.26,2,1.29,2.15.11,2.26-.78S194.09,195.78,193.52,195.74Z"/><path class="cls-3" d="M195.16,183.51c-.61,0-2.15-.1-2.25.79s1.43,1.26,2,1.3,2.15.1,2.25-.79S195.73,183.55,195.16,183.51Z"/><path class="cls-3" d="M194.06,173.13a4,4,0,0,0-3-.36c-.28.12-.69.3-.71.66l-.33,4.92a1,1,0,0,0,.54.81,4,4,0,0,0,3,.36c.28-.12.69-.3.71-.66l.33-4.92A1,1,0,0,0,194.06,173.13Z"/><path class="cls-3" d="M173.27,154.08c-.62,0-2.15-.1-2.26.79s1.44,1.26,2,1.3,2.14.1,2.25-.79S173.83,154.12,173.27,154.08Z"/><path class="cls-3" d="M149.51,154.74a1.82,1.82,0,0,0-.51-.36,2.21,2.21,0,0,0-.7-.27,3.88,3.88,0,0,0-1.66-.09,1.65,1.65,0,0,0-1,.5l-1.8,2.35a.65.65,0,0,0,.12.83,1.49,1.49,0,0,0,.51.36,2.31,2.31,0,0,0,.7.27,3.89,3.89,0,0,0,1.66.09,1.65,1.65,0,0,0,1.05-.5l1.8-2.35A.65.65,0,0,0,149.51,154.74Z"/><path class="cls-3" d="M139.14,158a2.17,2.17,0,0,0-.66-.3,3.8,3.8,0,0,0-2.35-.06c-.26.1-.59.26-.68.55a2.61,2.61,0,0,0-1,.16c-.29.11-.69.3-.72.66l-.27,4.09a1,1,0,0,0,.54.81,3.33,3.33,0,0,0,1.46.49,3.25,3.25,0,0,0,1.55-.13c.28-.11.68-.3.71-.66l.1-1.53a2.74,2.74,0,0,0,1-.15c.28-.12.68-.3.71-.67l.16-2.45A1,1,0,0,0,139.14,158Z"/><path class="cls-3" d="M133.14,172.08c-.31-.09-.62-.16-.94-.22a1.53,1.53,0,0,1,0-.3,1.67,1.67,0,0,1,.16-.24.7.7,0,0,0,.2-.08.86.86,0,0,0,.42-.31.4.4,0,0,0,.09-.41.54.54,0,0,0-.21-.42l-.3-.25a3.44,3.44,0,0,0-.91-.38,4.18,4.18,0,0,0-1.65-.09l-.57.14-.12,0a3.37,3.37,0,0,0-.56.3,2,2,0,0,0-.58.61,2.68,2.68,0,0,0-.21.49.74.74,0,0,0,0,.25,1.13,1.13,0,0,0,0,.26c0,.14,0,.28.07.41a9.42,9.42,0,0,0-1.95.62c-.28.13-.67.3-.71.67s.28.65.53.81a3.5,3.5,0,0,0,1.47.48,3.08,3.08,0,0,0,1.54-.12,8.54,8.54,0,0,1,1.1-.41l.23,0,.27,0,.48,0h.11c.12,0,.37.06.46.08l.23,0a4,4,0,0,0,1.65.09c.31,0,.88-.19,1.06-.5C134.94,172.73,133.71,172.23,133.14,172.08Z"/><path class="cls-3" d="M129.31,194.32a3.33,3.33,0,0,0-1.47-.49l-3.27-.22a3.81,3.81,0,0,0-1.54.13c-.26.09-.71.33-.72.66a1,1,0,0,0,.54.81,3.21,3.21,0,0,0,1.47.49l3.27.22a3.88,3.88,0,0,0,1.55-.13c.25-.09.7-.32.71-.66A1,1,0,0,0,129.31,194.32Z"/><path class="cls-3" d="M144.44,210.6c-.44-1.67-.89-3.34-1.33-5-.09-.34-.63-.63-.9-.74a3.84,3.84,0,0,0-1.63-.3,2.69,2.69,0,0,0-1.38.36,2.65,2.65,0,0,0-.78-.33,4,4,0,0,0-1.66-.09l-3.32.62a1.66,1.66,0,0,0-1.06.51.66.66,0,0,0,.12.83,2.65,2.65,0,0,0,1.22.63,4.17,4.17,0,0,0,1.65.09l3.33-.62.45-.12c.37,1.41.75,2.82,1.12,4.24.09.34.63.62.91.74a3.92,3.92,0,0,0,1.62.3C143.43,211.68,144.68,211.5,144.44,210.6Z"/><path class="cls-3" d="M136.88,196.7c-.14-.15-.25-.31-.37-.46a5.25,5.25,0,0,1-.75-1.93,4.76,4.76,0,0,1,0-1.25c0-.35-.29-.65-.54-.82a3.45,3.45,0,0,0-1.46-.48,3.38,3.38,0,0,0-1.55.12c-.3.13-.66.3-.71.67a6,6,0,0,0,1.58,4.76,2.57,2.57,0,0,0,1.21.63A4,4,0,0,0,136,198c.34-.07.86-.17,1.05-.5A.66.66,0,0,0,136.88,196.7Z"/><path class="cls-3" d="M155.05,221.25l-.63-2.52a1,1,0,0,0-.34-.4,1.73,1.73,0,0,0-.57-.34,3.06,3.06,0,0,0-.77-.22,3.73,3.73,0,0,0-.47,0,3.58,3.58,0,0,0-.43-.08,3.48,3.48,0,0,0-1.54.13l-.23.11-.27-3.31c-.08-.89-1.27-1.23-2-1.3a3.35,3.35,0,0,0-1.54.12c-.25.11-.74.32-.71.67l.47,5.78c.07.88,1.26,1.23,2,1.3a4.71,4.71,0,0,0,.92,0l-.51,2.14c-.08.32.32.66.53.81a4,4,0,0,0,3,.36,1,1,0,0,0,.71-.67l.36-1.49a1.64,1.64,0,0,0,.38,0l.52,0a2.13,2.13,0,0,0,.81-.29l.24-.22A.53.53,0,0,0,155.05,221.25Z"/><path class="cls-3" d="M153.81,226.61l-.77-.87a1.82,1.82,0,0,0-.51-.36,2.48,2.48,0,0,0-.7-.27A3.06,3.06,0,0,0,151,225a2.67,2.67,0,0,0-.8,0l-.45.11a1.15,1.15,0,0,0-.61.4l-.11.26a.7.7,0,0,0,.23.56l.77.88a1.57,1.57,0,0,0,.51.36,2.82,2.82,0,0,0,.7.27,3.06,3.06,0,0,0,.85.12,2.69,2.69,0,0,0,.8,0l.45-.11a1.23,1.23,0,0,0,.6-.4l.11-.26A.72.72,0,0,0,153.81,226.61Z"/><path class="cls-3" d="M162,222a3.38,3.38,0,0,0-1.47-.49,3.21,3.21,0,0,0-1.54.13c-.29.11-.69.3-.72.66l-.1,1.54-.82,1.41a.4.4,0,0,0-.09.41.51.51,0,0,0,.21.42,1.32,1.32,0,0,0,.51.36,2.21,2.21,0,0,0,.7.27,4.36,4.36,0,0,0,1.25.14l.13,0a3.34,3.34,0,0,0,1.54-.12c.29-.12.69-.3.71-.67l.22-3.27A1,1,0,0,0,162,222Z"/><path class="cls-3" d="M162.67,217.31v0a3.94,3.94,0,0,1-.51-1.32,4.12,4.12,0,0,1,.21-1.81,3.63,3.63,0,0,1,.64-1c.23-.25.06-.63-.12-.83a2.44,2.44,0,0,0-1.21-.63,2.85,2.85,0,0,0-2.7.42,4.37,4.37,0,0,0-1.11,2.75,4.7,4.7,0,0,0,1,3.06,2.6,2.6,0,0,0,1.22.63,4,4,0,0,0,1.65.09c.35-.07.86-.17,1-.51A.66.66,0,0,0,162.67,217.31Z"/><path class="cls-3" d="M182,222.73a6.72,6.72,0,0,1-1-1.15,7,7,0,0,1-.91-2.38,6.52,6.52,0,0,1,.21-2.6c.09-.32-.34-.68-.54-.81a3.33,3.33,0,0,0-1.46-.49c-.73-.07-2-.08-2.26.79a6.74,6.74,0,0,0-.11,3.22,3,3,0,0,0-.41-.09l-.57,0a3.12,3.12,0,0,0-1,.15l-.36.17a.77.77,0,0,0-.36.5v.09c-.26-.58-.51-1.17-.76-1.76a1.65,1.65,0,0,0-.9-.74,3.84,3.84,0,0,0-1.63-.3,2.35,2.35,0,0,0-1.33.32.64.64,0,0,0-.31.78l.34.8-.06,0-.24.22a.53.53,0,0,0-.07.55l.72,1.69a1,1,0,0,0,.34.4,1.57,1.57,0,0,0,.57.34,3,3,0,0,0,.77.22,2.81,2.81,0,0,0,.65.06,3.53,3.53,0,0,0,1,.1,2.37,2.37,0,0,0,1.33-.32c.24-.19.44-.44.31-.76a2,2,0,0,0,.45.2,2.81,2.81,0,0,0,.81.19l.57,0a3.12,3.12,0,0,0,1-.15l.22-.11a7.09,7.09,0,0,0,1.27,1.46,3.56,3.56,0,0,0,2.87.72c.35-.07.86-.17,1.05-.51A.64.64,0,0,0,182,222.73Z"/><path class="cls-3" d="M179.71,207.8a4.87,4.87,0,0,1-.55-.64,4.92,4.92,0,0,1-.67-1.74,4.59,4.59,0,0,1,.23-2.08c.1-.31-.36-.69-.54-.81a3.38,3.38,0,0,0-1.47-.49,3.22,3.22,0,0,0-1.54.13,1.06,1.06,0,0,0-.71.66,4.8,4.8,0,0,0-.27,1.51l-.14,0a3.48,3.48,0,0,0-1.54.13c-.3.12-.67.3-.71.66a6,6,0,0,0,1.57,4.77,2.65,2.65,0,0,0,1.22.63,4,4,0,0,0,1.65.09c.34-.07.86-.17,1-.51a.65.65,0,0,0-.12-.83A2.78,2.78,0,0,1,177,209l.17.07a4,4,0,0,0,1.65.09c.35-.07.86-.17,1.05-.51A.64.64,0,0,0,179.71,207.8Z"/><path class="cls-3" d="M190.14,197.16c-.61,0-2.15-.11-2.25.79a.22.22,0,0,0,0,.08,3.7,3.7,0,0,0-1.08-.27l-5.74-.38a3.64,3.64,0,0,0-1.54.12c-.25.1-.7.33-.71.67,0,.85,1.37,1.25,2,1.29l5.73.39a3.81,3.81,0,0,0,1.54-.13c.25-.09.7-.33.71-.66a.36.36,0,0,0,0-.1,3.68,3.68,0,0,0,1.1.28c.61,0,2.14.11,2.25-.78S190.71,197.2,190.14,197.16Z"/><path class="cls-3" d="M190,185.13a3.91,3.91,0,0,0-3-.36l-.18,0-.38.09-.89.17-.82.12-.41.05h-.12c-.57,0-1.14.06-1.72.05H182a1.63,1.63,0,0,0-.38,0l-.56-.05a3.5,3.5,0,0,0-1.54.13c-.28.1-.67.31-.71.66-.1.86,1.44,1.24,2,1.3a24.64,24.64,0,0,0,9-.7c.29-.08.68-.34.72-.66S190.2,185.29,190,185.13Z"/><path class="cls-3" d="M181.83,181.15a.94.94,0,0,0-.34-.4,1.68,1.68,0,0,0-.56-.34,4.14,4.14,0,0,0-1.63-.3l-.52,0a2.11,2.11,0,0,0-.81.28l-1.77,1.5a.6.6,0,0,0-.3.36.42.42,0,0,0,0,.42,1,1,0,0,0,.34.4,1.63,1.63,0,0,0,.57.34,4.09,4.09,0,0,0,1.62.3l.52,0a2.13,2.13,0,0,0,.81-.29l1.77-1.5a.54.54,0,0,0,.3-.36A.42.42,0,0,0,181.83,181.15Z"/><path class="cls-3" d="M178.85,173.3a1.07,1.07,0,0,0-.4-.39,2.41,2.41,0,0,0-.66-.29,2.81,2.81,0,0,0-.81-.19l-.57,0a3.17,3.17,0,0,0-1,.15c-.29.12-.69.3-.71.67l-.11,1.63a.54.54,0,0,0,.13.43,1.15,1.15,0,0,0,.4.39,2.41,2.41,0,0,0,.66.29,2.81,2.81,0,0,0,.81.19l.57,0a3.17,3.17,0,0,0,1-.15c.29-.12.69-.31.71-.67l.11-1.64A.53.53,0,0,0,178.85,173.3Z"/><path class="cls-3" d="M188.06,164.5a3.5,3.5,0,0,0-1.47-.48,4,4,0,0,0-1.24,0,.41.41,0,0,0-.12-.2.89.89,0,0,0-.4-.39,2,2,0,0,0-.65-.3,3.19,3.19,0,0,0-.81-.19l-.57,0a3,3,0,0,0-1,.16l-.35.17a.7.7,0,0,0-.36.49l-.05.82s0,.07,0,.1l0,0-.5-.16a4.32,4.32,0,0,0-1.13-.14l-.52,0a2.11,2.11,0,0,0-.81.28l-.87.76a.53.53,0,0,0-.16.13,14.23,14.23,0,0,1,1-4.41,14.81,14.81,0,0,1,1-2c.48-.77-.76-1.32-1.33-1.46a3.83,3.83,0,0,0-1.65-.09,1.55,1.55,0,0,0-1.06.51,15,15,0,0,0-2.25,7.52,1,1,0,0,0,.58.86,1.88,1.88,0,0,0-1.29.55,7.87,7.87,0,0,0-1.94,5.17,3.92,3.92,0,0,0-1.31-.38c-.61,0-2.15-.1-2.25.79s1.43,1.26,2,1.3a4.32,4.32,0,0,0,1.7-.16c0,.1,0,.21,0,.31.07.34.65.63.9.74a3.81,3.81,0,0,0,1.63.3c.66,0,1.84-.2,1.64-1.1l-.06-.32a7.57,7.57,0,0,1,.43-3.62,7.94,7.94,0,0,1,1.25-2,.65.65,0,0,0-.12-.83,1.75,1.75,0,0,0-.39-.3,2,2,0,0,0,.73-.15,1.11,1.11,0,0,0,.67-.53.84.84,0,0,0,.27.32,1.53,1.53,0,0,0,.56.34l.5.17a4.31,4.31,0,0,0,1.13.13l.52,0a2.13,2.13,0,0,0,.81-.29l.87-.76a.54.54,0,0,0,.3-.36.38.38,0,0,0,0-.25l.27.12a3.19,3.19,0,0,0,.81.19l.57,0a2.74,2.74,0,0,0,.64-.08l-.15,2.24a1,1,0,0,0,.53.82,3.5,3.5,0,0,0,1.47.48,3.21,3.21,0,0,0,1.54-.13c.29-.11.69-.3.71-.66l.22-3.27A1,1,0,0,0,188.06,164.5Z"/><path class="cls-3" d="M147.75,173c-.47-1.13-.94-2.26-1.42-3.39a1.69,1.69,0,0,0-.9-.74,3.94,3.94,0,0,0-1.63-.3,2.38,2.38,0,0,0-1.33.33c-.24.19-.45.44-.31.77.48,1.13,1,2.26,1.42,3.39a1.71,1.71,0,0,0,.91.74,3.92,3.92,0,0,0,1.62.3,2.34,2.34,0,0,0,1.33-.33C147.69,173.57,147.89,173.32,147.75,173Z"/><path class="cls-3" d="M168.37,159.48a.94.94,0,0,0-.4-.39,2.63,2.63,0,0,0-.66-.3,2.8,2.8,0,0,0-.81-.18,3.35,3.35,0,0,0-1.54.12l-.36.17a.71.71,0,0,0-.33.45l-1.79-.71a4.32,4.32,0,0,0-1.63-.3,3,3,0,0,0-.42,0,1,1,0,0,0,.6-.39l2.53-4.88a.67.67,0,0,0-.12-.83,2.51,2.51,0,0,0-1.22-.63,3.83,3.83,0,0,0-1.65-.09c-.34.06-.88.17-1,.5L157,157a.66.66,0,0,0,.12.83,2.61,2.61,0,0,0,1.21.63,4.26,4.26,0,0,0,1.59.1,1.32,1.32,0,0,0-.39.15c-.24.18-.46.45-.31.77l.18.28a2.11,2.11,0,0,0,.72.46l2.41,1a4.84,4.84,0,0,0,.85.23.55.55,0,0,0-.22.37l0,.61a1.52,1.52,0,0,0-.39-.37,3.45,3.45,0,0,0-1.47-.48,3.35,3.35,0,0,0-1.54.12c-.28.12-.68.31-.71.67l-.27,4.09a1,1,0,0,0,.53.81,3.38,3.38,0,0,0,1.47.49,3.21,3.21,0,0,0,1.54-.13c.29-.11.69-.3.72-.66l.2-3.07a1,1,0,0,0,.39.37,2.2,2.2,0,0,0,.66.3,3.19,3.19,0,0,0,.81.19l.57,0a3.23,3.23,0,0,0,1-.16c.28-.12.68-.3.71-.66l.08-1.27a.61.61,0,0,0,.16-.32l1-2.41A.5.5,0,0,0,168.37,159.48Z"/><path class="cls-3" d="M140.56,163.42c-.61,0-2.14-.1-2.25.79s1.43,1.26,2,1.3,2.15.1,2.26-.79S141.13,163.46,140.56,163.42Z"/><path class="cls-3" d="M139.09,167.76Z"/><path class="cls-3" d="M141.77,166.07a16,16,0,0,0-8.71.33c-.29.09-.67.32-.72.66s.29.66.54.81a3.74,3.74,0,0,0,3,.36c.09,0,.72-.29.79-.23l-.17,0,.18,0,.34-.07a7.37,7.37,0,0,1,.82-.13l.35,0c-.62.08-.14,0,0,0s.51,0,.77,0h.31l.76.1h.05l.31.06a4,4,0,0,0,1.65.09c.3-.05.88-.19,1.06-.5C143.56,166.74,142.34,166.2,141.77,166.07Z"/><path class="cls-3" d="M131.41,184.07l-.19-.27a2.14,2.14,0,0,0-.72-.47l-2.4-1a4.29,4.29,0,0,0-1.63-.3,2.64,2.64,0,0,0-.74.1,1.77,1.77,0,0,0-.59.23c-.24.19-.46.45-.31.78l.19.27a2.14,2.14,0,0,0,.72.47l2.4,1a4.11,4.11,0,0,0,1.63.31,2.64,2.64,0,0,0,.74-.1,1.77,1.77,0,0,0,.59-.23C131.34,184.66,131.56,184.4,131.41,184.07Z"/><path class="cls-3" d="M137.45,212.34a1.82,1.82,0,0,0-.51-.36,2.27,2.27,0,0,0-.71-.27,4.59,4.59,0,0,0-1.33-.13,2.29,2.29,0,0,1-.17-.46,2.79,2.79,0,0,1,.15-1.14,2.63,2.63,0,0,1,.38-.56l.2-.13.1,0-.07,0h0a1.24,1.24,0,0,0,.7-.41.64.64,0,0,0-.12-.83,2.48,2.48,0,0,0-1.21-.63,3.55,3.55,0,0,0-1.65-.09,4.35,4.35,0,0,0-1.32.48l.3-.72a.4.4,0,0,0,.09-.41.56.56,0,0,0-.2-.42,1.78,1.78,0,0,0-.51-.35l.18,0a1,1,0,0,0,.48-.29.49.49,0,0,0,.23-.38,1,1,0,0,0-.54-.81,2.06,2.06,0,0,0-.26-.12c.6-1.23,1.19-2.46,1.78-3.68a.45.45,0,0,0,.09-.41.57.57,0,0,0-.21-.42,2.48,2.48,0,0,0-1.21-.63,3.89,3.89,0,0,0-1.66-.09l-.45.11a1.21,1.21,0,0,0-.6.39l-1.92,4a.75.75,0,0,0-.1.2,2.86,2.86,0,0,0-.92.15,1,1,0,0,0-.48.28.54.54,0,0,0-.24.38,1,1,0,0,0,.54.81,3.21,3.21,0,0,0,1.47.49l.6,0a1.07,1.07,0,0,0-.19.18c-.34.8-.67,1.59-1,2.39a.4.4,0,0,0-.09.41.51.51,0,0,0,.21.42,1.32,1.32,0,0,0,.51.36,2.21,2.21,0,0,0,.7.27,3.83,3.83,0,0,0,1.65.09l.36-.09a2.85,2.85,0,0,0,1.21,2.95,2.58,2.58,0,0,0,1,.4l-1,1.25a.65.65,0,0,0,.12.83,1.4,1.4,0,0,0,.51.36,2.21,2.21,0,0,0,.7.27,3.83,3.83,0,0,0,1.65.09,1.68,1.68,0,0,0,1.06-.5l1.8-2.35A.66.66,0,0,0,137.45,212.34Z"/><path class="cls-3" d="M169.56,227.14a5,5,0,0,1-.63-1.72,5.17,5.17,0,0,1,0-.88.6.6,0,0,0,.18-.33.56.56,0,0,0-.1-.37,4.18,4.18,0,0,1,.16-.58c.1-.31-.35-.68-.54-.81a4,4,0,0,0-3-.36l-.36.17a.7.7,0,0,0-.35.49,4.32,4.32,0,0,0-.17.71,3.7,3.7,0,0,0-.71.61,3.57,3.57,0,0,0-.7,1.3,2.93,2.93,0,0,0-.12,1.21,2.71,2.71,0,0,0,.63,1.64,1.49,1.49,0,0,0,.51.36,2.5,2.5,0,0,0,.7.28,4,4,0,0,0,1.66.09c.34-.07.86-.17,1.05-.51l.08-.2h.09a2.4,2.4,0,0,0,1.32-.32C169.47,227.75,169.74,227.44,169.56,227.14Z"/><path class="cls-3" d="M171.57,215.14c-.13-.07-.25-.16-.37-.24s-.48-.3-.12-.09a4,4,0,0,1-.64-.59c-.17-.19-.34-.38-.5-.58s-.18-.23-.26-.35l0,0-.08-.13a8.51,8.51,0,0,1-.7-1.42l.1,0H169l.62,0,.28,0,.29,0h.07l.51-.13a1,1,0,0,0,.48-.29.52.52,0,0,0,.23-.38.54.54,0,0,0-.14-.42.89.89,0,0,0-.4-.39l-.37-.19a.56.56,0,0,0,.24-.31.42.42,0,0,0,0-.42.88.88,0,0,0-.34-.4,1.53,1.53,0,0,0-.56-.34l-.5-.17a4.24,4.24,0,0,0-1.12-.13c-.21-.68-1.4-1-2-1a3.34,3.34,0,0,0-1.54.12c-.29.12-.68.31-.71.67a9.29,9.29,0,0,0,4.28,8.38,3.45,3.45,0,0,0,1.47.48,3.35,3.35,0,0,0,1.54-.12c.3-.12.67-.3.71-.66S171.82,215.31,171.57,215.14Z"/><path class="cls-3" d="M187.08,211.82a1.34,1.34,0,0,0-.5-.53l-1.58-.92a3.66,3.66,0,0,0-1.47-.49,3.29,3.29,0,0,0-.83,0,2.19,2.19,0,0,0-.71.14l-.36.17a.68.68,0,0,0-.35.49l0,.29a1.29,1.29,0,0,0,.49.52l1.59.93a3.8,3.8,0,0,0,1.47.48,2.88,2.88,0,0,0,.83,0,2.17,2.17,0,0,0,.71-.13l.36-.17a.7.7,0,0,0,.35-.49Z"/><path class="cls-3" d="M189.37,206.54a3.36,3.36,0,0,0-1.47-.48l-3.28-.22a3.81,3.81,0,0,0-1.54.13c-.25.09-.7.32-.71.66a1,1,0,0,0,.54.81,3.33,3.33,0,0,0,1.46.49l3.28.21a3.64,3.64,0,0,0,1.54-.12c.25-.09.7-.33.71-.66A1,1,0,0,0,189.37,206.54Z"/><path class="cls-3" d="M189.67,194.44a3.56,3.56,0,0,0-2.86-.73l-5,.5a1.57,1.57,0,0,0-1.05.51.64.64,0,0,0,.11.83,3.63,3.63,0,0,0,2.87.72l5-.5a1.63,1.63,0,0,0,1-.5A.64.64,0,0,0,189.67,194.44Z"/><path class="cls-3" d="M189.64,190.11a3.33,3.33,0,0,0-1.47-.49l-3.27-.21a3.7,3.7,0,0,0-1.55.12c-.25.09-.7.33-.71.67a1,1,0,0,0,.54.81,3.32,3.32,0,0,0,1.47.48l3.27.22a3.65,3.65,0,0,0,1.54-.13c.26-.09.71-.32.72-.66A1,1,0,0,0,189.64,190.11Z"/><path class="cls-3" d="M186.93,175c.1-.31-.34-.68-.54-.81a3.33,3.33,0,0,0-1.47-.49,3.22,3.22,0,0,0-1.54.13L183,174a.68.68,0,0,0-.35.49l-1,3.22a.38.38,0,0,0,0,.15l-.62,1.55a.5.5,0,0,0,.14.42.89.89,0,0,0,.4.39,2.2,2.2,0,0,0,.66.3,3.21,3.21,0,0,0,.8.19,3.38,3.38,0,0,0,1.55-.13l.35-.17a.72.72,0,0,0,.36-.49l1-2.41a.59.59,0,0,0,0-.27Z"/><path class="cls-3" d="M184,158a1,1,0,0,0-.4-.38,2.17,2.17,0,0,0-.66-.3,3.19,3.19,0,0,0-.81-.19l-.57,0a2.9,2.9,0,0,0-1,.16c-.29.11-.69.3-.71.66l-.11,1.64a.53.53,0,0,0,.13.42,1,1,0,0,0,.4.39,3.74,3.74,0,0,0,1.47.48l.57,0a3.17,3.17,0,0,0,1-.15c.29-.12.69-.3.71-.66l.11-1.64A.51.51,0,0,0,184,158Z"/><path class="cls-9" d="M170.62,164.14a3.33,3.33,0,0,0-1.47-.49,3.41,3.41,0,0,0-1.49.11,6.2,6.2,0,0,1-.36-.79,3.86,3.86,0,0,0,1.13.3,3.34,3.34,0,0,0,1.54-.13c.29-.12.69-.3.71-.66l.38-5.73a1,1,0,0,0-.53-.82,3.5,3.5,0,0,0-1.47-.48,3.35,3.35,0,0,0-1.54.12c-.29.12-.69.31-.71.67l-.26,3.84a2.67,2.67,0,0,0-1.82-.81,3.34,3.34,0,0,0-1.54.12c-.26.11-.73.32-.71.67a9.63,9.63,0,0,0,2.28,5.67,2.44,2.44,0,0,0,1.21.63c.15,0,.31,0,.47.08l-.67,2.86c-.07.33.32.67.54.81a3.33,3.33,0,0,0,1.47.49,3.22,3.22,0,0,0,1.54-.13,1,1,0,0,0,.71-.66c.37-1.62.75-3.24,1.13-4.86C171.23,164.62,170.84,164.28,170.62,164.14Z"/><path class="cls-9" d="M158.92,164.63a1.68,1.68,0,0,0-.9-.74,3.63,3.63,0,0,0-3,0,5.71,5.71,0,0,0-3,4.49,1,1,0,0,0,.54.82,4,4,0,0,0,3,.36c.29-.12.68-.3.71-.67a4.82,4.82,0,0,1,.29-1.29,5,5,0,0,1,1.15-1.63,4.6,4.6,0,0,1,.87-.59A.64.64,0,0,0,158.92,164.63Z"/><path class="cls-9" d="M140.85,163.37a1,1,0,0,0-.4-.39,2.17,2.17,0,0,0-.66-.3,3.19,3.19,0,0,0-.81-.19l-.57,0a3.14,3.14,0,0,0-.86.13,3.55,3.55,0,0,0-1-.26,3.35,3.35,0,0,0-1.54.12c-.29.12-.69.31-.71.67l-.22,3.27a1,1,0,0,0,.54.82,3.45,3.45,0,0,0,1.47.48,3.22,3.22,0,0,0,1.54-.13c.28-.11.68-.3.71-.66l.05-.74c.09,0,.17.05.26.06l.57,0a3.18,3.18,0,0,0,1-.16c.29-.12.69-.3.71-.66l.11-1.64A.51.51,0,0,0,140.85,163.37Z"/><path class="cls-9" d="M129.67,177a12.8,12.8,0,0,0-8.26-1.59,1.72,1.72,0,0,0-1.06.51.66.66,0,0,0,.12.83,3.51,3.51,0,0,0,2.87.72l.16,0h1l.35,0c.17,0,.35.07.52.12l.2.06h0c.22.08.43.17.64.27h0l-.08,0c.11.08.24.13.35.2a3.82,3.82,0,0,0,1.47.49,3.49,3.49,0,0,0,1.54-.13c.28-.11.7-.3.71-.66A1,1,0,0,0,129.67,177Z"/><path class="cls-9" d="M126.21,178c.29.19.12.06,0,0Z"/><path class="cls-9" d="M124,183.8a1.57,1.57,0,0,0-.9-.74,3.56,3.56,0,0,0-3,0l-.1.06a6.34,6.34,0,0,1-.73.26l-.31,0h-.16l-.12,0-.28-.07a3.83,3.83,0,0,0-1.65-.09c-.3.05-.87.19-1,.5-.47.81.78,1.29,1.33,1.46a9.31,9.31,0,0,0,3.75.29,7.34,7.34,0,0,0,2.87-1A.63.63,0,0,0,124,183.8Z"/><path class="cls-9" d="M124.29,197.71c-.61,0-2.14-.11-2.25.79s1.44,1.26,2,1.29,2.14.11,2.25-.79S124.86,197.75,124.29,197.71Z"/><path class="cls-9" d="M125.54,207.6a.83.83,0,0,0-.34-.4,1.68,1.68,0,0,0-.56-.34,4.14,4.14,0,0,0-1.63-.3l-.52.05a2.11,2.11,0,0,0-.81.28L120,208.44a.54.54,0,0,0-.3.36.42.42,0,0,0,0,.42.88.88,0,0,0,.34.4,1.53,1.53,0,0,0,.56.34,3.81,3.81,0,0,0,1.63.3l.52,0a2.3,2.3,0,0,0,.81-.28l1.72-1.56a.54.54,0,0,0,.3-.36A.4.4,0,0,0,125.54,207.6Z"/><path class="cls-9" d="M129.59,217c-.61,0-2.14-.1-2.25.79s1.43,1.26,2,1.3,2.15.1,2.25-.79S130.16,217,129.59,217Z"/><path class="cls-9" d="M136.75,217.83a4,4,0,0,0-3-.36l-.36.17a.72.72,0,0,0-.35.5c-.35,1.07-.69,2.14-1,3.22-.1.31.34.68.53.81a4,4,0,0,0,3,.36l.36-.17a.75.75,0,0,0,.36-.49c.34-1.08.69-2.15,1-3.23C137.38,218.33,136.94,218,136.75,217.83Z"/><path class="cls-9" d="M145.53,222.54a4,4,0,0,0-3-.36c-.29.12-.68.3-.71.67l-.51,5.72c0,.35.28.63.54.81a4,4,0,0,0,3,.36c.29-.12.68-.3.71-.66.17-1.91.33-3.82.5-5.73A1,1,0,0,0,145.53,222.54Z"/><path class="cls-9" d="M151.48,225.16a.53.53,0,0,0-.2-.42,1.49,1.49,0,0,0-.51-.36,2.27,2.27,0,0,0-.71-.27,3.83,3.83,0,0,0-1.65-.09l-.45.11a1.21,1.21,0,0,0-.6.39l-1,2.4a.43.43,0,0,0-.08.42.53.53,0,0,0,.2.41,1.43,1.43,0,0,0,.52.36,2.12,2.12,0,0,0,.7.27,4,4,0,0,0,1.65.1l.45-.12a1.21,1.21,0,0,0,.6-.39l1-2.4A.42.42,0,0,0,151.48,225.16Z"/><path class="cls-9" d="M165,227.13a3.47,3.47,0,0,0-1.46-.49,3.38,3.38,0,0,0-1.55.13c-.28.11-.68.3-.71.66l-.27,4.1a1,1,0,0,0,.54.81,3.32,3.32,0,0,0,1.46.48,3.38,3.38,0,0,0,1.55-.12c.28-.12.68-.3.71-.67l.27-4.09A1,1,0,0,0,165,227.13Z"/><path class="cls-9" d="M177.4,222.15a.52.52,0,0,0-.13-.42,1,1,0,0,0-.4-.39,3.84,3.84,0,0,0-3-.36l-.36.17a.7.7,0,0,0-.35.49l.54,4.15a.52.52,0,0,0,.14.43.92.92,0,0,0,.4.38,3.33,3.33,0,0,0,1.46.49,3.25,3.25,0,0,0,1.55-.13l.35-.17a.7.7,0,0,0,.36-.49C177.77,224.92,177.58,223.53,177.4,222.15Z"/><path class="cls-9" d="M188.62,222.37h0a3,3,0,0,1-.31-2.76c.11-.31-.35-.69-.54-.81a3.29,3.29,0,0,0-1.46-.49,3.2,3.2,0,0,0-1.54.13l-.36.17a.7.7,0,0,0-.36.49,3.85,3.85,0,0,0-.11,2,4.2,4.2,0,0,0,.89,1.88,1.5,1.5,0,0,0,.51.35,2.5,2.5,0,0,0,.7.28,4,4,0,0,0,1.65.09l.45-.11a1.38,1.38,0,0,0,.61-.4l.1-.27A.7.7,0,0,0,188.62,222.37Z"/><path class="cls-9" d="M196.79,214.11c-.47-1.13-.94-2.25-1.42-3.38a1.61,1.61,0,0,0-.9-.74,3.78,3.78,0,0,0-1.63-.3,2.37,2.37,0,0,0-1.33.32c-.24.19-.45.45-.31.78.48,1.13,1,2.26,1.42,3.39a1.76,1.76,0,0,0,.91.74,4.09,4.09,0,0,0,1.62.3,2.42,2.42,0,0,0,1.33-.33A.64.64,0,0,0,196.79,214.11Z"/><path class="cls-9" d="M197.46,204.37a1.67,1.67,0,0,0-.91-.74,3.78,3.78,0,0,0-1.63-.3l-5.78.45a2.79,2.79,0,0,0-1.33.33.66.66,0,0,0-.31.78,1.61,1.61,0,0,0,.9.74,3.81,3.81,0,0,0,1.63.3l5.79-.45a2.82,2.82,0,0,0,1.33-.33A.66.66,0,0,0,197.46,204.37Z"/><path class="cls-9" d="M196.47,194.35a1.28,1.28,0,0,0-.5-.53l-.41-.21a3.87,3.87,0,0,0-1.05-.27l-1.64-.11a3.64,3.64,0,0,0-1.54.12,1,1,0,0,0-.48.29.52.52,0,0,0-.24.38l0,.28a1.2,1.2,0,0,0,.49.53l.41.21a3.84,3.84,0,0,0,1.06.27l1.64.11a3.64,3.64,0,0,0,1.54-.12,1,1,0,0,0,.48-.29.49.49,0,0,0,.23-.38Z"/><path class="cls-9" d="M196.26,189.78a3.38,3.38,0,0,0-1.47-.49l-.57,0a2.9,2.9,0,0,0-1,.16l-2.51.67c-.28.07-.67.34-.71.66a1,1,0,0,0,.54.81,3.42,3.42,0,0,0,1.46.49l.57,0a3.24,3.24,0,0,0,1-.16l2.5-.67c.28-.08.68-.34.71-.66A1,1,0,0,0,196.26,189.78Z"/><path class="cls-9" d="M194.64,185.13a1.22,1.22,0,0,0-.24-.32.88.88,0,0,1-.05-.15,1.36,1.36,0,0,1,0-.2l.09-.13a.55.55,0,0,0,.27-.33.42.42,0,0,0,0-.42.89.89,0,0,0-.34-.4,1.38,1.38,0,0,0-.57-.34,3.9,3.9,0,0,0-1.62-.31l-.52.05a2,2,0,0,0-1.24.64,1.33,1.33,0,0,0-.14.19,1.91,1.91,0,0,0-.23.71,2.14,2.14,0,0,0,.06.5,1,1,0,0,0,.06.23,2.06,2.06,0,0,0,.76.87,2.17,2.17,0,0,0,.66.3,3.19,3.19,0,0,0,.81.19,3.29,3.29,0,0,0,.83,0,2.19,2.19,0,0,0,.71-.14l.36-.17a.68.68,0,0,0,.35-.49Z"/><path class="cls-9" d="M192.7,176.82a1,1,0,0,0-.34-.4,1.63,1.63,0,0,0-.57-.34,4.09,4.09,0,0,0-1.62-.3l-.52.05a2.11,2.11,0,0,0-.81.28l-2.62,2.29a.54.54,0,0,0-.3.36.4.4,0,0,0,0,.42.83.83,0,0,0,.34.4,1.68,1.68,0,0,0,.56.34,4.14,4.14,0,0,0,1.63.3l.52,0a2.13,2.13,0,0,0,.81-.29l2.62-2.29a.6.6,0,0,0,.3-.36A.42.42,0,0,0,192.7,176.82Z"/><path class="cls-9" d="M189,170.3a.54.54,0,0,0-.14-.42.89.89,0,0,0-.4-.39,4,4,0,0,0-3-.36l-.36.17a.7.7,0,0,0-.35.49l.55,4.15a.52.52,0,0,0,.14.43.92.92,0,0,0,.4.38,3.33,3.33,0,0,0,1.47.49,3.22,3.22,0,0,0,1.54-.13l.35-.17a.7.7,0,0,0,.36-.49Z"/><path class="cls-9" d="M186.8,165.84a.53.53,0,0,0-.2-.42,1.73,1.73,0,0,0-.52-.36,2.21,2.21,0,0,0-.7-.27,3.83,3.83,0,0,0-1.65-.09l-.45.11a1.16,1.16,0,0,0-.6.4c-.32.52-.63,1-.94,1.57a.4.4,0,0,0-.09.41.51.51,0,0,0,.21.42,1.43,1.43,0,0,0,.51.36,2.21,2.21,0,0,0,.7.27,3.83,3.83,0,0,0,1.65.09l.45-.11a1.21,1.21,0,0,0,.6-.39l.94-1.58A.4.4,0,0,0,186.8,165.84Z"/><path class="cls-9" d="M183.8,154.35a3.84,3.84,0,0,0-3-.36c-.29.12-.69.3-.71.66l-.28,4.1a1,1,0,0,0,.54.81,4,4,0,0,0,3,.36c.28-.12.68-.3.71-.66l.27-4.1A1,1,0,0,0,183.8,154.35Z"/><path class="cls-9" d="M155.64,161.77c-.11-.14-.22-.28-.32-.43a6.37,6.37,0,0,1-.51-1c.22-.18.46-.46.29-.76a13.43,13.43,0,0,1-.68-1.37,5.87,5.87,0,0,1,.27-1.71c.09-.31-.35-.68-.54-.81a2.45,2.45,0,0,0-.61-.29c0-.18-.08-.36-.11-.54a13.94,13.94,0,0,1-.12-2.58c0-.87-1.35-1.23-2-1.3a3.49,3.49,0,0,0-1.54.13c-.28.11-.69.3-.71.66a14.61,14.61,0,0,0,1.11,6.3,7.15,7.15,0,0,0,1.68,4.32,2.51,2.51,0,0,0,1.22.63,4,4,0,0,0,1.65.09c.35-.07.86-.17,1-.5A.65.65,0,0,0,155.64,161.77Z"/><path class="cls-9" d="M144.27,162.17a1.17,1.17,0,0,0-.49-.52c-.52-.32-1.05-.63-1.58-.94a3.61,3.61,0,0,0-1.46-.49,3.3,3.3,0,0,0-.83,0,2.14,2.14,0,0,0-.71.14l-.36.17a.7.7,0,0,0-.36.49l.05.28a1.2,1.2,0,0,0,.49.53l1.58.94a3.77,3.77,0,0,0,1.46.49,2.89,2.89,0,0,0,.83,0,2.13,2.13,0,0,0,.71-.13L144,163a.75.75,0,0,0,.36-.49Z"/><path class="cls-9" d="M148.44,168.4Z"/><path class="cls-9" d="M150.17,165.27l-2.35-1.8a2.45,2.45,0,0,0-.66-.3,3.19,3.19,0,0,0-.81-.19,2.89,2.89,0,0,0-.83,0,2.17,2.17,0,0,0-.71.13c-.28.11-.7.3-.71.66s.26.6.53.81l2.22,1.7-.19,0a11.29,11.29,0,0,0-8,5.89c-.39.81.7,1.31,1.34,1.46a3.83,3.83,0,0,0,1.65.09c.33-.06.89-.17,1.05-.5a9.74,9.74,0,0,1,2.11-2.86,10.17,10.17,0,0,1,2-1.38c.07,0,.18-.08.25-.13h0c.19-.09.38-.16.58-.24l.6-.19.27-.08-.13.05a.48.48,0,0,1,.15,0,1.77,1.77,0,0,0,1.06-.51.66.66,0,0,0-.12-.83c-.06-.06-.15-.1-.21-.15a2.55,2.55,0,0,0,.67-.12c.28-.12.7-.31.71-.67A1,1,0,0,0,150.17,165.27Z"/><path class="cls-9" d="M144.45,181.59a17,17,0,0,0-7.51-4.43,3.83,3.83,0,0,0-1.65-.09c-.3.05-.88.2-1,.5-.47.81.77,1.3,1.33,1.46l.15,0,.08,0,.21.07q.41.15.81.33l.72.34.14.08.43.25c.5.3,1,.65,1.43,1l.12.1.32.29c.23.21.45.42.67.65a3.4,3.4,0,0,0,2.87.72c.34-.07.86-.17,1-.51A.66.66,0,0,0,144.45,181.59Z"/><path class="cls-9" d="M138.46,187.23l-.72-1.68a.89.89,0,0,0-.34-.4,1.45,1.45,0,0,0-.57-.34,2.7,2.7,0,0,0-.77-.22,3.51,3.51,0,0,0-.85-.09l-.53.05a2.13,2.13,0,0,0-.8.28l-.25.23a.54.54,0,0,0-.06.55l.72,1.69a.88.88,0,0,0,.34.4,1.68,1.68,0,0,0,.56.34,3,3,0,0,0,.78.22,3.45,3.45,0,0,0,.85.08l.52-.05a2.11,2.11,0,0,0,.81-.28l.24-.22A.54.54,0,0,0,138.46,187.23Z"/><path class="cls-9" d="M131.72,185c-.61,0-2.15-.1-2.25.79s1.43,1.26,2,1.3,2.15.1,2.25-.79S132.29,185.08,131.72,185Z"/><path class="cls-9" d="M137.41,191.53a1,1,0,0,0-.54-.81,4,4,0,0,0-3-.36c-.25.1-.75.32-.71.67.17,1.65.34,3.31.52,5a1,1,0,0,0,.53.81,3.51,3.51,0,0,0,1.47.49,3.34,3.34,0,0,0,1.54-.13c.25-.1.75-.32.71-.66Z"/><path class="cls-9" d="M147.6,208.7l-7.18-3a4.19,4.19,0,0,0-1.07-.26,1.1,1.1,0,0,0,.43-.32l.11-.26a.67.67,0,0,0-.23-.56l-.76-.88a1.82,1.82,0,0,0-.51-.36,2.82,2.82,0,0,0-.7-.27,3.06,3.06,0,0,0-.85-.12,2.75,2.75,0,0,0-.81,0l-.45.11a1.23,1.23,0,0,0-.6.4l-.11.26a.73.73,0,0,0,.23.57l.76.87a1.73,1.73,0,0,0,.52.36,2.48,2.48,0,0,0,.7.27,3.68,3.68,0,0,0,.58.08.59.59,0,0,0-.19.11c-.76.58-.05,1.24.59,1.51l7.18,3a4.14,4.14,0,0,0,1.63.3,2.51,2.51,0,0,0,1.33-.33C149,209.64,148.25,209,147.6,208.7Z"/><path class="cls-9" d="M161.63,215.39a3.33,3.33,0,0,0-1.47-.49l-4.09-.27a3.81,3.81,0,0,0-1.54.13c-.25.09-.7.32-.71.66a.92.92,0,0,0,.43.74l-4-.27a3.64,3.64,0,0,0-1.54.12c-.25.1-.7.33-.71.67a1,1,0,0,0,.53.81A3.2,3.2,0,0,0,150,218l4.91.33a3.65,3.65,0,0,0,1.54-.13c.26-.09.71-.32.72-.66a.9.9,0,0,0-.44-.73l3.21.21a3.81,3.81,0,0,0,1.54-.13c.25-.09.7-.32.71-.66A1,1,0,0,0,161.63,215.39Z"/><path class="cls-9" d="M167.9,216.27a9.31,9.31,0,0,1-1.39-6.37c0-.35-.29-.65-.54-.82a3.45,3.45,0,0,0-1.47-.48,3.35,3.35,0,0,0-1.54.12c-.3.13-.66.3-.71.67a10.72,10.72,0,0,0,1.48,7,2.87,2.87,0,0,0,2.53,1,2.46,2.46,0,0,0,1.33-.33C167.81,216.88,168.08,216.57,167.9,216.27Z"/><path class="cls-9" d="M170.54,221.89a.53.53,0,0,1,0-.15,1.5,1.5,0,0,1,0-.2l.09-.13a.55.55,0,0,0,.27-.33.44.44,0,0,0,0-.43,1,1,0,0,0-.34-.4,1.64,1.64,0,0,0-.57-.33,4,4,0,0,0-1.63-.31l-.52,0a2.07,2.07,0,0,0-.8.28,1.87,1.87,0,0,0-.43.36.85.85,0,0,0-.14.19,1.61,1.61,0,0,0-.23.7,1.77,1.77,0,0,0,.05.51.79.79,0,0,0,.06.22,2,2,0,0,0,.76.88,2,2,0,0,0,.66.3,3.19,3.19,0,0,0,.81.19,3.29,3.29,0,0,0,.83,0,2.49,2.49,0,0,0,.71-.14l.36-.17a.68.68,0,0,0,.35-.49l0-.29A1.22,1.22,0,0,0,170.54,221.89Z"/><path class="cls-9" d="M176,217.78l-.19-.28A2,2,0,0,0,175,217l-2.41-1a4.31,4.31,0,0,0-1.62-.3,2.66,2.66,0,0,0-.75.1,1.54,1.54,0,0,0-.58.23c-.24.18-.46.45-.31.78l.18.27a2.14,2.14,0,0,0,.72.47l2.41,1a4.32,4.32,0,0,0,1.63.3,2.32,2.32,0,0,0,.74-.1,1.43,1.43,0,0,0,.59-.23C175.88,218.37,176.1,218.1,176,217.78Z"/><path class="cls-9" d="M183.22,206.5a1,1,0,0,0-.4-.39,2.17,2.17,0,0,0-.66-.3,3.19,3.19,0,0,0-.81-.19l-.57,0a2.9,2.9,0,0,0-1,.16l-.36.17a.68.68,0,0,0-.35.49l-.06.82a.5.5,0,0,0,.14.42.89.89,0,0,0,.4.39,2.2,2.2,0,0,0,.66.3,3.11,3.11,0,0,0,.8.19l.57,0a3.24,3.24,0,0,0,1-.16l.35-.17a.72.72,0,0,0,.36-.49l0-.82A.51.51,0,0,0,183.22,206.5Z"/><path class="cls-9" d="M186.42,201.41a3.2,3.2,0,0,0-1.47-.48l-2.46-.17a3.81,3.81,0,0,0-1.54.13,1,1,0,0,0-.48.28.53.53,0,0,0-.23.38,1,1,0,0,0,.54.81,3.33,3.33,0,0,0,1.47.49l2.45.16a3.64,3.64,0,0,0,1.54-.12,1,1,0,0,0,.48-.29.48.48,0,0,0,.23-.38A1,1,0,0,0,186.42,201.41Z"/><path class="cls-9" d="M183.7,195.08c-.62,0-2.15-.1-2.26.79s1.44,1.26,2,1.3,2.14.11,2.25-.79S184.26,195.12,183.7,195.08Z"/><path class="cls-9" d="M186.25,185.52c-.5-.85-1-1.7-1.52-2.54a.88.88,0,0,0-.34-.4,1.68,1.68,0,0,0-.56-.34,3,3,0,0,0-.78-.22,3.45,3.45,0,0,0-.85-.08l-.52,0a2.13,2.13,0,0,0-.81.29c-.22.17-.49.47-.31.77.51.85,1,1.69,1.52,2.54a1,1,0,0,0,.34.4,1.73,1.73,0,0,0,.57.34,3,3,0,0,0,.77.22,3.5,3.5,0,0,0,.85.08l.52,0a2.13,2.13,0,0,0,.81-.29C186.16,186.12,186.44,185.82,186.25,185.52Z"/><path class="cls-1" d="M191.69,216.09c1.48-2.89,1.58-6,0-8.13-2.63-3.55-8.84-3.42-13.86.3-3.67,2.71-5.69,6.57-5.49,9.85-1.89-2.68-5.88-4.45-10.43-4.3-6.25.22-11.19,4-11,8.4.09,2.7,2.07,5,5,6.38-1.48,2.89-1.58,5.95,0,8.13,2.63,3.55,8.84,3.42,13.86-.3,3.67-2.71,5.69-6.57,5.5-9.85,1.88,2.68,5.87,4.46,10.43,4.3,6.24-.22,11.18-4,11-8.4C196.63,219.77,194.65,217.44,191.69,216.09Zm-17.59,7.17h0a5.19,5.19,0,0,0-.71-.77,6.18,6.18,0,0,0,.07-1h0a6.55,6.55,0,0,0,.71.77,6.18,6.18,0,0,0-.07,1.05Z"/><path class="cls-7" d="M172.46,216.07s4.64,3.09,4.19,12c0,0-.71,1.21-1.68,1.14s-3-13.29-5.13-13.4S170.41,212.34,172.46,216.07Z"/></g></g></svg>