<?xml version="1.0" encoding="utf-8"?>
<!-- Generator: Adobe Illustrator 25.0.1, SVG Export Plug-In . SVG Version: 6.00 Build 0)  -->
<svg version="1.1" id="Layer_1" xmlns="http://www.w3.org/2000/svg" xmlns:xlink="http://www.w3.org/1999/xlink" x="0px" y="0px"
	 viewBox="0 0 220.5 369.3" style="enable-background:new 0 0 220.5 369.3;" xml:space="preserve">
<style type="text/css">
	.st0{fill:#731921;}
	.st1{fill:#501921;}
	.st2{fill:#F2AC29;}
	.st3{fill:#FF3333;}
	.st4{fill:#CC881B;}
	.st5{fill:#5F0DE3;}
	.st6{fill:#9688F2;}
	.st7{fill:#4F4C56;}
	.st8{fill:#1E8442;}
	.st9{fill:#219750;}
	.st10{fill:none;stroke:#9688F2;stroke-miterlimit:10;}
	.st11{fill:#FCCF86;}
	.st12{fill:#F20574;}
	.st13{fill:#F9F9F9;}
</style>
<g id="Layer_2_1_">
	<g id="Casa_1_Derecha">
		<polygon class="st0" points="25,269.1 162,331.1 175.5,276.6 93.5,232.6 		"/>
		<polygon class="st1" points="31,266.8 83.9,237.7 83.9,212.6 33.5,201.6 		"/>
		<path class="st2" d="M58.4,257.3c-0.4-0.5-1.1-0.8-1.7-0.8c-0.9-0.1-1.9-0.1-2.8,0c-0.7,0.1-1.4,0.3-2,0.7c-0.9,0.8-1.5,1.9-1.6,3
			c-0.6,3.3-0.6,6.7-0.1,10c0.9,5.7,5.1,7.9,10.5,6.7c1.6-0.3,3.1-0.8,4.6-1.5l25.4-17L82,256l-16.6,10.5c-1.5,0.7-3.2,0.7-4.8,0.2
			c-3.3-1.3-2.8-5.5-1.9-8.2C58.7,258.3,58.7,257.7,58.4,257.3z"/>
		<path class="st3" d="M80.4,234.6c-0.2,0.1-0.5,0.2-0.8,0.3c-8,3.4-16.6,12.5-14.1,21.2c2.2,7.7,13.2,12.7,20.2,16.1
			c13.9,6.8,44.3,17.2,48.4-5.4c0.1-0.6,0.2-1.3,0.3-1.9c0.9-7.6-5.3-11.8-11.3-15.7c-7.9-5-16.2-9.1-24.9-12.4
			C91.6,234.4,87.1,232,80.4,234.6z"/>
		<path class="st4" d="M56.8,257.9l45.5,20.5l-0.5,4l-46.3-21.8C55.5,260.6,54.1,256.1,56.8,257.9z"/>
		<path class="st2" d="M102.3,278.4c-0.5-0.6-1.2-0.9-1.9-0.9c-1-0.1-2.1-0.1-3.1,0c-0.8,0.1-1.5,0.3-2.2,0.7c-1,0.8-1.7,2-1.8,3.4
			c-0.6,3.6-0.7,7.3-0.2,11c1,6.2,5.5,8.6,11.5,7.4c1.7-0.4,3.4-0.9,5.1-1.6l34.8-24.8l-6.5-6.5c0,0-28.3,21.7-28.4,21.7
			c-1.3,0.8-3.9,0.7-5.2,0.2c-3.6-1.4-3-6.1-2.1-9C102.6,279.5,102.6,278.9,102.3,278.4z"/>
		<path class="st3" d="M126.7,251.7c-2.1,4.2-4.3,8.4-6.3,12.6c-2.4,5.2-4.6,11.1-7.8,16.1c10.2,0.9,19.4-1.9,21.5-13.6
			c0.1-0.6,0.2-1.3,0.3-1.9C135.1,258.9,131.3,255,126.7,251.7z"/>
		<polygon class="st5" points="49.5,165.6 38.4,232.8 165.8,286.2 178,216.1 		"/>
		<path class="st6" d="M174,234.6c-0.2,0-0.4,0-0.6-0.1L46.9,182c-0.8-0.3-1.1-1.2-0.8-2s1.2-1.1,2-0.8l126.5,52.5
			c0.8,0.3,1.1,1.2,0.8,2C175.1,234.2,174.6,234.6,174,234.6L174,234.6z"/>
		<path class="st6" d="M173,245.6c-0.2,0-0.4,0-0.6-0.1l-128-53c-0.8-0.3-1.1-1.2-0.8-2l0,0c0.3-0.8,1.2-1.1,1.9-0.8c0,0,0,0,0.1,0
			l128,53c0.8,0.3,1.2,1.2,0.9,1.9C174.2,245.2,173.7,245.6,173,245.6L173,245.6z"/>
		<path class="st6" d="M176,225.6c-0.2,0-0.4,0-0.6-0.1L48.9,173c-0.8-0.3-1.1-1.2-0.8-2s1.2-1.1,2-0.8l126.5,52.5
			c0.8,0.3,1.1,1.2,0.8,2C177.1,225.2,176.6,225.6,176,225.6L176,225.6z"/>
		<path class="st6" d="M170,264.6c-0.2,0-0.4,0-0.6-0.1l-129-53c-0.8-0.3-1.1-1.2-0.8-2s1.2-1.1,2-0.8l129,53c0.8,0.3,1.1,1.2,0.8,2
			C171.2,264.2,170.6,264.6,170,264.6L170,264.6z"/>
		<path class="st6" d="M166.5,275.1c-0.2,0-0.4,0-0.6-0.1L39.4,222.5c-0.8-0.3-1.1-1.2-0.8-2s1.2-1.1,2-0.8l0,0l126.5,52.5
			c0.8,0.3,1.1,1.2,0.8,2C167.6,274.7,167.1,275.1,166.5,275.1L166.5,275.1z"/>
		<path class="st6" d="M166.5,286.1c-0.2,0-0.4,0-0.6-0.1L37.4,232.5c-0.8-0.3-1.1-1.2-0.8-2s1.2-1.1,2-0.8l128.5,53.5
			c0.8,0.3,1.1,1.2,0.8,2C167.6,285.7,167.1,286.1,166.5,286.1L166.5,286.1z"/>
		<path class="st6" d="M171,255.6c-0.2,0-0.4,0-0.6-0.1l-128-53c-0.8-0.3-1.1-1.2-0.8-2l0,0c0.3-0.8,1.2-1.1,1.9-0.8c0,0,0,0,0.1,0
			l128,53c0.8,0.3,1.2,1.2,0.9,1.9C172.2,255.2,171.7,255.6,171,255.6L171,255.6z"/>
		<path class="st7" d="M79.2,282.3c0,0-3.1-2.8-6.3,1.6l0.6,1.5L34,300.6l-0.3-1c0,0-3.6-3.5-6.5,0.5l2.7,8.6c0,0,2.9,3,6.4-1.2
			l-0.6-1.7l40.8-13.9c1.1,0.7,3.9,1.9,5.9-1.2L79.2,282.3z"/>
		<path class="st7" d="M72.2,299.3l-1,1.7l-30.5-14.3l0.6-1c0,0,0.3-5-4.6-4.6l-4.7,7.7c0,0-0.4,4.2,5.1,4.1l1-1.7l30,13.5
			c0,0,0,0.1,0,0.2c0.4-0.1,0.8-0.1,1.1-0.1l-1.1,1.9c0,0-0.2,5,4.7,4.5l4.5-7.8C77.4,303.3,77.7,299.1,72.2,299.3z"/>
		<path class="st8" d="M139.2,310.4c-0.3-2.3-1.2-4.5-2.6-6.4l-2.3-2.8c-0.3-0.4-0.8-0.7-1.1-0.2c-0.1,0.1-0.2,0.3-0.2,0.5
			c-0.1-0.3-0.3-0.7-0.5-1c-0.3-0.6-0.6-1.1-1-1.5l-0.5-0.4c-0.2-0.1-0.5-0.1-0.6,0.1c0,0,0,0.1-0.1,0.1l-0.9,0.9
			c-0.1,0.3-0.2,0.7-0.2,1c0,0.5,0,1,0.1,1.4c0.1,0.6,0.2,1.2,0.4,1.8c0.2,0.6,0.4,1.3,0.6,1.9c0.2,0.4,0.3,0.7,0.5,1.1
			c0.3,0.6,0.6,1.1,1,1.6l0.5,0.4c0.2,0.1,0.5,0.1,0.6-0.1c0,0,0-0.1,0.1-0.1l0.9-0.9c0.1-0.2,0.1-0.3,0.1-0.5
			c0.4,0.9,0.9,1.8,1.5,2.6l2.3,2.8c0.3,0.4,0.8,0.7,1.1,0.2C139.4,312.1,139.4,311.2,139.2,310.4z"/>
		<path class="st8" d="M142.2,304.3l-0.5-1.4c-0.3-1.1-0.8-2.2-1.5-3.2c-0.2-0.3-0.4-0.6-0.7-0.9c-0.1-0.2-0.4-0.3-0.6-0.2l-0.3,0.3
			c-0.2,0.5-0.2,0.9-0.2,1.4c0.1,1.2,0.3,2.4,0.7,3.5l0.5,1.4c0.3,1.2,0.8,2.3,1.5,3.3c0.2,0.3,0.4,0.6,0.7,0.9
			c0.1,0.2,0.4,0.3,0.6,0.2l0.3-0.3c0.2-0.4,0.2-0.9,0.2-1.4C142.8,306.6,142.6,305.4,142.2,304.3z"/>
		<path class="st8" d="M147.2,303.7c-0.3-1.3-0.8-2.5-1.3-3.6l-0.5-0.9c-0.2-0.4-0.5-0.9-0.8-1.2c-0.2-0.3-0.4-0.5-0.7-0.7
			c-0.1-0.1-0.4-0.1-0.5,0c0,0,0,0,0,0.1c-0.2,0.2-0.3,0.4-0.3,0.7v0.8c0.1,0.7,0.2,1.5,0.4,2.2c0.3,1.2,0.8,2.5,1.3,3.6l0.5,0.9
			c0.2,0.4,0.5,0.9,0.8,1.2c0.2,0.3,0.4,0.5,0.7,0.7c0.2,0.1,0.4,0.1,0.5-0.1c0.2-0.2,0.3-0.4,0.3-0.7v-0.8
			C147.5,305.2,147.4,304.4,147.2,303.7z"/>
		<path class="st8" d="M151.5,304l-0.2-1.2c-0.2-0.9-0.5-1.7-0.8-2.5c-0.2-0.4-0.3-0.7-0.5-1.1c-0.3-0.6-0.6-1.1-1-1.6l-0.5-0.5
			c-0.1-0.2-0.4-0.4-0.7-0.4c-0.2-0.1-0.4,0-0.5,0.3s-0.2,0.7-0.2,1c0,0.5,0,1,0.1,1.4l0.2,1.2c0.2,0.9,0.5,1.7,0.8,2.5
			c0.2,0.4,0.3,0.7,0.5,1.1c0.3,0.6,0.6,1.1,1,1.6l0.5,0.5c0.1,0.2,0.4,0.4,0.7,0.4c0.2,0.1,0.4,0,0.5-0.2c0.1-0.3,0.2-0.7,0.2-1
			C151.6,304.9,151.6,304.5,151.5,304z"/>
		<path class="st8" d="M155.5,302.4L155,301c-0.3-1.1-0.8-2.2-1.5-3.2c-0.2-0.3-0.4-0.6-0.7-0.8c-0.1-0.2-0.4-0.3-0.6-0.2l-0.3,0.3
			c-0.2,0.4-0.2,0.9-0.2,1.4c0.1,1.2,0.3,2.4,0.7,3.5l0.5,1.4c0.3,1.1,0.8,2.2,1.5,3.2c0.2,0.3,0.4,0.6,0.7,0.9
			c0.1,0.2,0.4,0.3,0.6,0.2l0.3-0.3c0.2-0.4,0.2-0.9,0.2-1.4C156.1,304.7,155.9,303.6,155.5,302.4z"/>
		<path class="st8" d="M164.3,308.6c-0.2-1.3-0.6-2.5-1.1-3.7l-0.5-1.1c-0.3-0.6-0.6-1.1-1-1.6l-0.9-0.9c-0.1-0.2-0.4-0.4-0.7-0.4
			c-0.2-0.1-0.4,0-0.5,0.2c-0.1,0.3-0.2,0.7-0.2,1c0,0.5,0,1,0.1,1.4c0,0.3,0.1,0.7,0.2,1c-0.3-1.1-0.7-2.1-1.2-3.1l-0.5-0.9
			c-0.2-0.4-0.5-0.9-0.8-1.2c-0.2-0.3-0.4-0.5-0.7-0.7c-0.2-0.1-0.4-0.1-0.5,0.1c-0.2,0.2-0.3,0.4-0.3,0.7v0.8
			c0,0.7,0.2,1.5,0.4,2.2c0.3,1.2,0.7,2.4,1.2,3.6c0.1,0.3,0.3,0.6,0.5,0.9c0.2,0.4,0.5,0.9,0.8,1.2c0.2,0.3,0.4,0.5,0.7,0.7
			c0.2,0.1,0.4,0.1,0.5-0.1c0.2-0.2,0.3-0.4,0.3-0.7c0-0.3,0-0.5,0-0.8c0-0.6-0.1-1.3-0.3-1.9c0.2,0.7,0.4,1.3,0.7,1.9
			c0.2,0.4,0.3,0.7,0.5,1.1c0.3,0.6,0.6,1.1,1,1.6l0.9,0.9c0.1,0.2,0.4,0.4,0.7,0.4c0.2,0.1,0.4,0,0.5-0.3s0.2-0.7,0.2-1
			C164.4,309.6,164.4,309.1,164.3,308.6z"/>
		<path class="st8" d="M168.5,310.4l-0.2-1.2c-0.2-0.9-0.5-1.7-0.8-2.5c-0.2-0.4-0.3-0.7-0.5-1.1c-0.3-0.6-0.6-1.1-1-1.6l-0.5-0.5
			c-0.1-0.2-0.4-0.4-0.7-0.4c-0.2-0.1-0.4,0-0.5,0.3s-0.2,0.7-0.2,1c0,0.5,0,1,0.1,1.4l0.2,1.2c0.2,0.9,0.5,1.7,0.8,2.5l0.5,1.1
			c0.3,0.6,0.6,1.1,1,1.6l0.5,0.5c0.1,0.2,0.4,0.4,0.7,0.4c0.2,0.1,0.4,0,0.5-0.3s0.2-0.7,0.2-1
			C168.6,311.4,168.6,310.9,168.5,310.4z"/>
		<path class="st9" d="M153.2,297.4c-0.3-0.1-0.6-0.1-0.8,0.1c-0.4,0.2-0.8,0.4-1.1,0.7c-0.1,0.1-0.3,0.2-0.4,0.3
			c0-0.2-0.1-0.3-0.2-0.3c-2.6,0-7,7.8-5.8,7.8c0.7-0.1,1.3-0.4,1.8-0.8v0.4c0,0.3,0.1,0.4,0.4,0.4c0.3,0.1,0.5,0.1,0.8-0.1
			c0.4-0.2,0.8-0.4,1.1-0.7c0.5-0.3,0.9-0.7,1.3-1.1c0.9-0.9,1.7-1.9,2.4-3c0.5-0.7,0.8-1.4,0.9-2.3v-0.9
			C153.5,297.6,153.4,297.4,153.2,297.4z"/>
		<path class="st9" d="M157.7,299.3l-0.2-0.2c-0.2-0.1-0.5-0.1-0.7,0c-0.4,0.1-0.7,0.3-1,0.5c-0.5,0.3-0.9,0.6-1.3,1
			c-0.5,0.4-0.9,0.9-1.4,1.4l-0.8,1c-0.5,0.6-0.8,1.2-1.2,1.9l-0.3,0.8c-0.2,0.3-0.1,0.7,0.1,1l0.2,0.2c0.2,0.1,0.5,0.1,0.7,0
			c0.4-0.1,0.7-0.3,1-0.5c0.5-0.3,0.9-0.6,1.3-1c0.5-0.4,0.9-0.9,1.4-1.4l0.8-1c0.5-0.6,0.9-1.2,1.2-1.9l0.3-0.8
			C158,300,158,299.6,157.7,299.3z"/>
		<path class="st9" d="M163.1,299.5c-0.3-0.1-0.6-0.1-0.8,0.1c-0.4,0.2-0.8,0.4-1.1,0.7c-0.5,0.3-0.9,0.7-1.3,1.1
			c-0.9,0.9-1.7,1.9-2.4,3l-0.5,0.9c-0.2,0.4-0.4,0.9-0.4,1.4v0.7c0,0.3,0.1,0.4,0.4,0.4c0.3,0.1,0.5,0.1,0.8-0.1
			c0.4-0.2,0.8-0.4,1.1-0.7c0.5-0.3,0.9-0.7,1.3-1.1c0.9-0.9,1.7-1.9,2.4-3c0.2-0.3,0.3-0.6,0.5-0.9c0.2-0.4,0.4-0.9,0.4-1.4v-0.7
			C163.4,299.6,163.3,299.5,163.1,299.5z"/>
		<path class="st9" d="M171.3,305.7l-0.5-0.5c-0.2-0.1-0.5-0.1-0.7,0c-0.4,0.1-0.7,0.3-1,0.5s-0.6,0.5-0.9,0.7c0.5-1.1,0.8-2,0.4-2
			h-0.2c0.4-1,0.6-1.6,0.2-1.6c-2.6,0-7,7.8-5.8,7.8c0.1,0,0.1,0,0.2,0c-0.4,1-0.6,1.6-0.2,1.6c0.5-0.1,1.1-0.3,1.5-0.6l-0.1,0.3
			c-0.2,0.3-0.1,0.7,0.1,1l0.5,0.5c0.2,0.1,0.5,0.1,0.7,0c0.4-0.1,0.7-0.3,1-0.5c0.4-0.3,0.9-0.6,1.3-1c0.5-0.4,0.9-0.9,1.4-1.4
			l0.8-1c0.5-0.6,0.8-1.2,1.2-1.9l0.3-0.8C171.5,306.4,171.5,306,171.3,305.7z"/>
		<path class="st9" d="M132.8,300.4c-0.3-0.1-0.6-0.1-0.8,0.1c-0.4,0.2-0.8,0.4-1.1,0.7c-0.5,0.3-0.9,0.7-1.3,1.1l-0.9,1
			c-0.6,0.6-1.1,1.3-1.5,2l-0.5,0.9c-0.2,0.4-0.4,0.9-0.4,1.4v0.2c0,0.3,0.1,0.4,0.4,0.4c0.3,0.1,0.6,0.1,0.8-0.1
			c0.4-0.2,0.8-0.5,1.1-0.8c0.5-0.3,0.9-0.7,1.3-1.1l0.9-1c0.6-0.6,1.1-1.3,1.5-2c0.2-0.3,0.3-0.6,0.5-0.9c0.2-0.4,0.4-0.9,0.4-1.4
			v-0.2C133.1,300.5,133,300.4,132.8,300.4z"/>
		<path class="st9" d="M130.1,298.5c-2.6,0-7,7.8-5.8,7.8C126.9,306.3,131.3,298.5,130.1,298.5z"/>
		<path class="st9" d="M147.4,299.1l-0.2-0.5c-0.2-0.1-0.5-0.1-0.7,0c-0.4,0.1-0.7,0.3-1,0.5c-0.5,0.3-0.9,0.6-1.3,1
			c-0.5,0.4-0.9,0.9-1.4,1.4l-0.8,1c-0.2,0.3-0.5,0.7-0.7,1c0-0.1,0-0.1,0-0.2v-0.2c0.2-0.2,0.3-0.5,0.5-0.7s0.3-0.6,0.5-0.9
			c0.2-0.4,0.4-0.9,0.4-1.4v-0.5c0-0.3-0.1-0.4-0.4-0.4c-0.3-0.1-0.6-0.1-0.8,0.1c-0.4,0.2-0.8,0.4-1.1,0.7
			c-0.5,0.3-0.9,0.7-1.3,1.1l-0.9,1c0,0-0.1,0.1-0.1,0.2c0.6-1.1,0.8-2,0.4-2c-2.6,0-7,7.8-5.8,7.8c1,0,2.2-1.1,3.3-2.5
			c-0.1,0.3-0.2,0.6-0.2,0.8c-0.2,0.2-0.3,0.5-0.5,0.7s-0.3,0.6-0.5,0.9c-0.2,0.4-0.4,0.9-0.4,1.4v0.7c0,0.3,0.1,0.4,0.4,0.4
			c0.3,0.1,0.6,0.1,0.8-0.1c0.4-0.2,0.8-0.4,1.1-0.7c0.5-0.3,0.9-0.7,1.3-1.1c0.9-0.9,1.7-1.9,2.4-2.9c0,0.2,0.1,0.3,0.2,0.5
			l0.2,0.5c0.2,0.1,0.5,0.1,0.7,0c0.4-0.1,0.7-0.3,1-0.5c0.5-0.3,0.9-0.6,1.3-1c0.5-0.4,0.9-0.9,1.4-1.4l0.8-1
			c0.5-0.6,0.9-1.2,1.2-1.9l0.3-0.8C147.6,299.8,147.6,299.4,147.4,299.1z"/>
		<path class="st7" d="M36.5,281.9c-1.6-0.2-5.5,7.7-5.5,7.7s1.5,0.8,5.5,0.9l33.6,15.1c0,0-0.6,5,4.4,6l7-7c0,0-4-2-7-2l-35-16.4
			C39.5,286.2,38.5,282.1,36.5,281.9z"/>
		<path class="st7" d="M136.5,337.5l-10.2-15.4c0,0,10.3-9.4-1.7-14.4l-5.5,2.3l3.4,5.1l-1.9,1.4l0,0l-3.1,1.9l-3.5-5.1l-4.2,4.2
			c0.1,13,12.6,7,12.6,7l10.4,15.3c-6.2,6.3-0.5,11.8-0.5,11.8c4.2,3.5,8.4,1.1,10.2-0.4c1.2-0.5,7.1-3.6,5.1-9.8
			C147.6,341.5,144.7,334.3,136.5,337.5z M139.8,349c-2.1,0.7-4.4-0.4-5.1-2.5s0.4-4.4,2.5-5.1s4.4,0.4,5.1,2.5l0,0
			C143,346,141.9,348.3,139.8,349L139.8,349z"/>
		<path class="st10" d="M135.5,287.6c0,0-5,7,6,2s5.9-10,4.9-3.5s2.1,10.2,7.1,4.4s-5.5-9.8-2.8-1.8s11-7.5,13.4,2.8
			s-8,10.2-5.3,4.2s7.7-5.7,12.7-2.8"/>
		<ellipse transform="matrix(0.5 -0.866 0.866 0.5 -180.6028 261.0602)" class="st11" cx="135.8" cy="286.9" rx="1.3" ry="0.8"/>
		
			<ellipse transform="matrix(0.9797 -0.2004 0.2004 0.9797 -54.0347 38.0227)" class="st11" cx="160.8" cy="285.9" rx="0.8" ry="1.3"/>
		
			<ellipse transform="matrix(0.6281 -0.7781 0.7781 0.6281 -166.741 219.0164)" class="st11" cx="145.8" cy="284" rx="0.8" ry="1.3"/>
		<ellipse class="st11" cx="149.8" cy="283.9" rx="1.3" ry="0.8"/>
		
			<ellipse transform="matrix(0.8344 -0.5512 0.5512 0.8344 -135.8794 129.6555)" class="st11" cx="147.8" cy="290.9" rx="1.3" ry="0.8"/>
		
			<ellipse transform="matrix(0.8344 -0.5512 0.5512 0.8344 -132.3502 133.4019)" class="st11" cx="155.8" cy="286.9" rx="1.3" ry="0.8"/>
		
			<ellipse transform="matrix(0.8344 -0.5512 0.5512 0.8344 -133.0143 131.1962)" class="st11" cx="151.8" cy="286.9" rx="1.3" ry="0.8"/>
		
			<ellipse transform="matrix(0.9292 -0.3697 0.3697 0.9292 -97.4893 76.9076)" class="st11" cx="151.9" cy="292.8" rx="0.8" ry="1.3"/>
		
			<ellipse transform="matrix(0.9292 -0.3697 0.3697 0.9292 -95.8818 79.2849)" class="st11" cx="158.9" cy="289.8" rx="0.8" ry="1.3"/>
		
			<ellipse transform="matrix(0.9292 -0.3697 0.3697 0.9292 -97.1488 80.6793)" class="st11" cx="161.9" cy="293.8" rx="0.8" ry="1.3"/>
		
			<ellipse transform="matrix(0.6712 -0.7413 0.7413 0.6712 -169.5444 214.4789)" class="st11" cx="157" cy="298.4" rx="1.3" ry="0.8"/>
		
			<ellipse transform="matrix(0.6281 -0.7781 0.7781 0.6281 -165.4584 233.6974)" class="st11" cx="161.8" cy="289.9" rx="1.3" ry="0.8"/>
		
			<ellipse transform="matrix(0.9797 -0.2004 0.2004 0.9797 -55.1814 34.6995)" class="st11" cx="143.8" cy="289.9" rx="0.8" ry="1.3"/>
		<ellipse transform="matrix(0.5 -0.866 0.866 0.5 -185.9347 261.827)" class="st11" cx="133.8" cy="291.9" rx="1.3" ry="0.8"/>
		<polygon class="st11" points="26.4,123.8 0,273.1 26.4,287.7 52,170.1 178,216.1 157,337.1 220.5,369.3 220.5,178.9 		"/>
		<polygon class="st12" points="20.5,125.7 220.5,188.9 220.5,37.6 137.5,10.6 		"/>
		<path class="st13" d="M194.5,7.7c-5.7-0.7-11.4-0.9-17.1-0.6c-2.7-3.5-6.7-5.9-11.1-6.5c-8.5-1.3-17.1-0.5-25.2,2.2
			c-6.6,2.2-13.1,4.6-19.5,7.3c-10.4,4.4-20.4,9.6-30,15.4C81.1,31.9,71,39,61.5,46.8c-10.9,9.1-22.5,21.5-17.1,37
			c5.1,14.6,19.9,22,34.3,24.2c5.5,0.7,11,1.8,16.3,3.1c2.6,0.7,5.3,1.5,7.9,2.4l0.5,0.2c1.6,0.6,3.3,1.2,4.9,1.9
			c10.9,4.4,21.4,9.5,32.3,13.6c12.7,4.8,25.7,8.6,38.6,12.6c12.6,3.9,25.9,7,39.1,3.6c0.9-0.2,1.2-0.5,2.1-0.8V16.1
			C212.1,11.8,203.7,9,194.5,7.7z"/>
	</g>
</g>
</svg>
