<svg xmlns="http://www.w3.org/2000/svg" viewBox="0 0 200.96 97.13"><defs><style>.cls-1{fill:#85d3f2;}.cls-2{fill:#5f0de3;}.cls-3{fill:#f8fcff;}.cls-4{fill:#144268;}</style></defs><g id="Layer_2" data-name="Layer 2"><g id="Layer_8" data-name="Layer 8"><rect class="cls-1" x="157.37" y="34.54" width="36.65" height="36.65"/><polygon class="cls-2" points="200.96 40.98 149.45 40.98 152.42 25.63 197.99 25.63 200.96 40.98"/><circle class="cls-3" cx="166.78" cy="49.4" r="2.97"/><path class="cls-4" d="M181.89,52.87a6.71,6.71,0,0,0-6.69,6.69V71.2h13.38V59.56A6.71,6.71,0,0,0,181.89,52.87Z"/><path class="cls-3" d="M199.1,25.63H150.58c-.35.45-.69.92-1,1.38-1.67,2.32-1.07,6.55,1.08,8.41,4.59,4,10,2.57,15.41,1.39a7.7,7.7,0,0,1,2.84-.13c2.56.85,4.52,2.23,7.33,2.37,2.55.13,4.75-.74,7.21-1.17a27.39,27.39,0,0,1,5.73-.07c2.46.1,4.95.13,7.16-1.16a8.07,8.07,0,0,0,3.58-9.36A7.69,7.69,0,0,0,199.1,25.63Z"/><rect class="cls-1" x="91.27" y="25.61" width="59.52" height="59.52"/><polygon class="cls-2" points="162.05 36.06 78.4 36.06 83.22 11.13 157.22 11.13 162.05 36.06"/><circle class="cls-3" cx="106.55" cy="49.74" r="4.83"/><path class="cls-4" d="M131.08,55.37a10.89,10.89,0,0,0-10.86,10.85V85.13h21.72V66.22A10.89,10.89,0,0,0,131.08,55.37Z"/><path class="cls-3" d="M159,11.13H80.24q-.85,1.11-1.68,2.25C75.84,17.14,76.83,24,80.32,27c7.45,6.43,16.26,4.17,25,2.26a12.55,12.55,0,0,1,4.61-.22c4.16,1.38,7.34,3.62,11.9,3.85,4.15.21,7.73-1.21,11.71-1.9a44.5,44.5,0,0,1,9.31-.11c4,.17,8,.22,11.62-1.88a13.13,13.13,0,0,0,5.82-15.21A13.08,13.08,0,0,0,159,11.13Z"/><rect class="cls-4" x="21.72" y="19" width="78.12" height="78.12"/><rect class="cls-1" x="18.72" y="19" width="78.12" height="78.12"/><polygon class="cls-4" points="112.63 33.73 2.83 33.73 9.17 1 106.29 1 112.63 33.73"/><polygon class="cls-2" points="111.63 32.73 1.83 32.73 8.17 0 105.29 0 111.63 32.73"/><circle class="cls-3" cx="38.78" cy="50.67" r="6.33"/><path class="cls-4" d="M71,58.07A14.29,14.29,0,0,0,56.73,72.32V97.13H85.24V72.32A14.3,14.3,0,0,0,71,58.07Z"/><path class="cls-3" d="M107.65,0H4.25C3.5,1,2.77,2,2.05,3c-3.57,4.94-2.28,14,2.31,17.91,9.78,8.44,21.34,5.47,32.84,3a16.45,16.45,0,0,1,6-.3c5.46,1.82,9.63,4.76,15.62,5.06,5.44.27,10.14-1.59,15.36-2.5,3.9-.68,8.2-.32,12.22-.15,5.24.23,10.55.29,15.26-2.46,6.74-3.94,10.18-12.56,7.64-20A16.91,16.91,0,0,0,107.65,0Z"/></g></g></svg>