<svg xmlns="http://www.w3.org/2000/svg" xmlns:xlink="http://www.w3.org/1999/xlink" viewBox="0 0 386.71 308.89"><defs><style>.cls-1{fill:none;}.cls-2{fill:#191818;}.cls-3{fill:#82898e;}.cls-4{fill:#a66933;}.cls-5{fill:#754521;}.cls-6{fill:#98673e;}.cls-7{fill:url(#New_Pattern_Swatch_5);}.cls-8{fill:#4bbf89;}.cls-9{fill:#0e0814;}.cls-10{fill:#adadad;}.cls-11{fill:#d6d0cc;}.cls-12{clip-path:url(#clip-path);}.cls-13{fill:#1b8952;}.cls-14{fill:#fff;}.cls-15{clip-path:url(#clip-path-2);}.cls-16{fill:#ebc0de;}.cls-17{clip-path:url(#clip-path-3);}.cls-18{fill:#c476a5;}.cls-19{fill:#f794de;}.cls-20{fill:#9f385d;}.cls-21{fill:#8532d9;}.cls-22{fill:#44118c;}.cls-23{fill:#5f0de3;}.cls-24{clip-path:url(#clip-path-4);}.cls-25{fill:#c679a7;}.cls-26{clip-path:url(#clip-path-5);}.cls-27{fill:#fd292f;}.cls-28{fill:#ffeed7;}.cls-29{fill:#f7e6dc;}.cls-30{fill:#efcfbf;}.cls-31{fill:#592e15;}.cls-32{fill:#85d3f2;}.cls-33{fill:#d7f9e7;}.cls-34{fill:#e2f6e9;}.cls-35{fill:#208c46;}.cls-36{fill:#7cab86;}</style><pattern id="New_Pattern_Swatch_5" data-name="New Pattern Swatch 5" width="288" height="288" patternTransform="matrix(0.45, -0.01, 0.01, 0.45, 240.4, 83.73)" patternUnits="userSpaceOnUse" viewBox="0 0 288 288"><rect class="cls-1" width="288" height="288"/><rect class="cls-2" width="288" height="288"/><path class="cls-3" d="M129.33,233.93h0a1,1,0,0,1-.79-.42l-4.18-5.8-4.49,5.56a1,1,0,0,1-.8.37,1,1,0,0,1-.79-.41l-4.93-6.87a1,1,0,0,1,.23-1.4,1,1,0,0,1,1.39.23l4.17,5.8,4.49-5.56a1,1,0,0,1,1.59,0l4.18,5.8,4.5-5.56a1,1,0,1,1,1.55,1.26l-5.32,6.58A1,1,0,0,1,129.33,233.93Z"/><path class="cls-3" d="M88.32,135.26a.94.94,0,0,1-.43-.1,1,1,0,0,1-.48-1.33l1.24-2.64a1,1,0,0,1,1.56-.34l1.22,1.05.69-1.46a1,1,0,0,1,.69-.56,1,1,0,0,1,.86.22L95.9,132a1,1,0,0,1-1.3,1.52l-1.23-1.05-.68,1.46a1,1,0,0,1-.69.56,1,1,0,0,1-.86-.22l-1.23-1.05-.69,1.46A1,1,0,0,1,88.32,135.26Z"/><path class="cls-3" d="M58,265.36a.92.92,0,0,1-.36-.07l-2.72-1.05a1,1,0,1,1,.72-1.86l1.5.57.16-1.6a1,1,0,0,1,.47-.75,1,1,0,0,1,.88-.08l1.51.58.16-1.61a1,1,0,0,1,2,.2L62,262.6a1,1,0,0,1-.47.75,1,1,0,0,1-.89.08l-1.5-.57-.16,1.6a1,1,0,0,1-.47.75A1,1,0,0,1,58,265.36Z"/><path class="cls-3" d="M194.4,261.28a1,1,0,0,1-.81-.41l-3.23-4.38a1,1,0,0,1,.45-1.52l3.85-1.49-2.45-3.32a1,1,0,0,1-.16-.87,1,1,0,0,1,.6-.66l5.08-1.95a1,1,0,0,1,1.29.57,1,1,0,0,1-.58,1.29L194.6,250l2.45,3.32a1,1,0,0,1,.15.87,1,1,0,0,1-.6.65l-3.85,1.49,2.45,3.32a1,1,0,0,1-.21,1.4A1,1,0,0,1,194.4,261.28Z"/><path class="cls-3" d="M259.22,165.19a1,1,0,0,1-.7-.28l-2-2a1,1,0,1,1,1.4-1.43l1.08,1.05.73-1.33a1,1,0,0,1,.73-.5,1,1,0,0,1,.84.27l1.09,1.05.73-1.33a1,1,0,0,1,1.75,1l-1.36,2.47a1,1,0,0,1-.73.51,1,1,0,0,1-.84-.27l-1.09-1.06-.73,1.33a1,1,0,0,1-.73.51Z"/><path class="cls-3" d="M27.37,115.25a.91.91,0,0,1-.23,0l-2.46-.57a1,1,0,1,1,.46-2l1.18.28-.05-1.22a1,1,0,0,1,.37-.81,1,1,0,0,1,.86-.2l1.19.27-.05-1.21a1,1,0,0,1,2-.08l.1,2.53a1,1,0,0,1-.37.81,1,1,0,0,1-.86.2L28.32,113l.05,1.22A1,1,0,0,1,28,115,1,1,0,0,1,27.37,115.25Z"/><path class="cls-3" d="M209.23,12a1.06,1.06,0,0,1-.65-.24l-2.94-2.51a1,1,0,0,1,1.3-1.52l1.94,1.65L210,7.05a1,1,0,0,1,1.55-.34l1.95,1.66,1.09-2.32a1,1,0,1,1,1.81.85l-1.64,3.5a1,1,0,0,1-.7.56,1,1,0,0,1-.86-.22l-1.95-1.66-1.08,2.32a1,1,0,0,1-.69.55Z"/><path class="cls-3" d="M153.36,138.61a1,1,0,0,1-.66-.25l-2.07-1.79a1,1,0,0,1-.34-.81,1,1,0,0,1,.44-.77l1.18-.8-1.07-.93a1,1,0,0,1-.35-.82,1,1,0,0,1,.44-.77l2.28-1.52a1,1,0,0,1,1.11,1.66l-1.18.8,1.07.93a1,1,0,0,1-.09,1.58l-1.19.8,1.08.93a1,1,0,0,1,.1,1.41A1,1,0,0,1,153.36,138.61Z"/><path class="cls-3" d="M42.21,158a.92.92,0,0,1-.46-.11,1,1,0,0,1-.53-.71L40.31,152l-4.8,2.27a1,1,0,0,1-.89,0,1,1,0,0,1-.52-.71L33,147a1,1,0,1,1,2-.35l.91,5.23,4.8-2.26a1,1,0,0,1,1.41.73l.92,5.23,4.8-2.26a1,1,0,0,1,.86,1.81l-6,2.82A1.07,1.07,0,0,1,42.21,158Z"/><path class="cls-3" d="M134.54,33.48a1,1,0,0,1-.66-.25l-7.31-6.41a1,1,0,0,1-.34-.82,1,1,0,0,1,.45-.77l7-4.63-6.33-5.54a1,1,0,0,1-.33-.83,1,1,0,0,1,.44-.76l8.12-5.35A1,1,0,0,1,137,8.4a1,1,0,0,1-.28,1.39l-7,4.63L136,20a1,1,0,0,1,.34.82,1,1,0,0,1-.45.77l-7,4.63,6.33,5.55a1,1,0,0,1,.09,1.41A1,1,0,0,1,134.54,33.48Z"/><path class="cls-3" d="M255.52,126.17a.9.9,0,0,1-.28,0l-2.74-.82a1,1,0,1,1,.58-1.92l1.48.45,0-1.55a1,1,0,0,1,.42-.78,1,1,0,0,1,.87-.15l1.48.44,0-1.54a1,1,0,0,1,1-1,1,1,0,0,1,1,1l-.07,2.85a1,1,0,0,1-.42.79,1,1,0,0,1-.87.15l-1.48-.45,0,1.55a1,1,0,0,1-1,1Z"/><path class="cls-3" d="M112.07,130.22h0a1,1,0,0,1-.78-.43l-.22-.31-.24.29a1,1,0,0,1-1.59-.08l-1-1.39a1,1,0,0,1,1.65-1.13l.21.31.25-.29a1,1,0,0,1,1.58.07l.22.32.25-.29a1,1,0,1,1,1.53,1.28l-1.09,1.3A1,1,0,0,1,112.07,130.22Z"/><path class="cls-3" d="M259.19,75.1a1,1,0,0,1-.51-.14l-1.87-1.12a1,1,0,0,1-.48-.75,1,1,0,0,1,.3-.83l.63-.61-.75-.45a1,1,0,0,1-.48-.74,1,1,0,0,1,.3-.84l1.58-1.51a1,1,0,0,1,1.38,1.45l-.63.6.75.45a1,1,0,0,1,.18,1.58l-.63.61.75.45a1,1,0,0,1-.52,1.85Z"/><path class="cls-3" d="M69.89,188.64a1,1,0,0,1-.1-2l.66-.06-.24-.62a1,1,0,0,1,.84-1.35l.66-.06-.24-.62a1,1,0,0,1,.58-1.29,1,1,0,0,1,1.29.58l.7,1.84a1,1,0,0,1-.84,1.35l-.65.06.23.62a1,1,0,0,1-.08.88,1,1,0,0,1-.75.47l-2,.19Z"/><path class="cls-3" d="M269.21,131.32a1,1,0,0,1-.5-1.86l.35-.21-.29-.29a1,1,0,0,1-.3-.83,1,1,0,0,1,.49-.75l.36-.2-.3-.3a1,1,0,0,1,1.4-1.42l1.23,1.2a1,1,0,0,1,.3.84,1,1,0,0,1-.49.74l-.36.21.3.29a1,1,0,0,1,.29.83,1,1,0,0,1-.49.75l-1.48.87A1,1,0,0,1,269.21,131.32Z"/><path class="cls-3" d="M176.15,161.51a1,1,0,0,1-.16-2l4.87-.82-2.07-4.49a.94.94,0,0,1,0-.88,1,1,0,0,1,.72-.52l4.88-.82-2.08-4.5a1,1,0,0,1,1.82-.83l2.63,5.68a1,1,0,0,1-.75,1.4l-4.88.82,2.08,4.49a1,1,0,0,1,0,.89,1,1,0,0,1-.72.52l-6.18,1Z"/><path class="cls-3" d="M39.49,261.13a1,1,0,0,1-.33-.06,1,1,0,0,1-.62-1.27l1.18-3.37-3.55-.24a1,1,0,0,1-.88-1.33l1.18-3.37-3.56-.24a1,1,0,0,1-.93-1.07,1,1,0,0,1,1.07-.93l4.87.34a1,1,0,0,1,.76.45,1,1,0,0,1,.11.88l-1.18,3.36,3.56.25a1,1,0,0,1,.77.45,1,1,0,0,1,.1.88l-1.61,4.6A1,1,0,0,1,39.49,261.13Z"/><path class="cls-3" d="M12.5,43.45a1,1,0,0,1-.83-.44L9.46,39.73a1,1,0,0,1,.5-1.51l2.51-.85L11,35.17a1,1,0,0,1-.12-.88,1,1,0,0,1,.63-.62l3.74-1.27a1,1,0,1,1,.65,1.89l-2.51.85,1.48,2.19a1,1,0,0,1-.51,1.51l-2.5.85,1.48,2.2a1,1,0,0,1-.27,1.39A1,1,0,0,1,12.5,43.45Z"/><path class="cls-3" d="M99.5,43.91h0a1,1,0,0,1-1-1l.25-8.09a1,1,0,0,1,1.29-.93l6.49,2,.2-6.78a1,1,0,0,1,.42-.79,1,1,0,0,1,.88-.14l7.73,2.38a1,1,0,1,1-.58,1.91l-6.49-2-.2,6.78a1,1,0,0,1-.42.78,1,1,0,0,1-.87.15l-6.49-2-.21,6.78A1,1,0,0,1,99.5,43.91Z"/><path class="cls-3" d="M126.84,136.63a1,1,0,0,1-.49-.13,1,1,0,0,1-.39-1.35l1.14-2.08a1,1,0,0,1,1.58-.24l.76.74.51-.93a1,1,0,0,1,1.57-.24l1.7,1.66a1,1,0,1,1-1.39,1.43l-.76-.74-.51.93a1,1,0,0,1-.73.51,1,1,0,0,1-.84-.27l-.77-.74-.51.93A1,1,0,0,1,126.84,136.63Z"/><path class="cls-3" d="M230.71,20.65a1,1,0,0,1-.56-.17L228,19a1,1,0,0,1-.44-.77,1,1,0,0,1,.35-.81l.95-.82-1-.7a1,1,0,0,1-.43-.78,1,1,0,0,1,.35-.81l1.95-1.67a1,1,0,0,1,1.41.12A1,1,0,0,1,231,14.2l-1,.81,1,.7a1,1,0,0,1,.44.78,1,1,0,0,1-.35.81l-1,.82,1,.7a1,1,0,0,1-.56,1.83Z"/><path class="cls-3" d="M250.83,260.54a1,1,0,0,1-.58-.19A1,1,0,0,1,250,259l2.88-4a1,1,0,0,1,.79-.42,1,1,0,0,1,.8.37l2.3,2.83,2.12-3a1,1,0,0,1,.78-.42,1,1,0,0,1,.8.37l3.12,3.84a1,1,0,0,1-.15,1.41,1,1,0,0,1-1.4-.15L259.77,257l-2.12,3a1,1,0,0,1-.78.42,1,1,0,0,1-.81-.37l-2.29-2.83-2.12,3A1,1,0,0,1,250.83,260.54Z"/><path class="cls-3" d="M203.29,227a1,1,0,0,1-.44-1.9l1.37-.66-1-1.14a1,1,0,0,1,.33-1.56l1.36-.65-1-1.14a1,1,0,1,1,1.51-1.32l1.85,2.14a1,1,0,0,1,.22.86,1,1,0,0,1-.54.69l-1.37.66,1,1.14a1,1,0,0,1,.22.86,1,1,0,0,1-.55.7l-2.54,1.22A1,1,0,0,1,203.29,227Z"/><path class="cls-3" d="M99.29,259a1,1,0,0,1-1-1l-.17-8.49L90,252a1,1,0,0,1-1.28-.94l-.18-8.49L80.36,245a1,1,0,0,1-1.24-.68,1,1,0,0,1,.67-1.24l9.4-2.79a1,1,0,0,1,.88.15,1,1,0,0,1,.41.79l.18,8.49,8.14-2.42a1,1,0,0,1,.88.15,1,1,0,0,1,.41.79l.2,9.8a1,1,0,0,1-1,1Z"/><path class="cls-3" d="M252.48,22.19a1.13,1.13,0,0,1-.36-.06l-4.78-1.85a1,1,0,0,1-.6-.66,1,1,0,0,1,.15-.87l2.27-3.07L245.6,14.3a1,1,0,0,1-.6-.65,1,1,0,0,1,.16-.87l3.05-4.13a1,1,0,1,1,1.6,1.19l-2.26,3.07,3.56,1.38a1,1,0,0,1,.44,1.52l-2.27,3.07,3.56,1.38a1,1,0,0,1-.36,1.93Z"/><path class="cls-3" d="M119.85,192.42a1,1,0,0,1-.7-.28L117,190a1,1,0,0,1,0-1.42,1,1,0,0,1,1.41,0l1.22,1.19.83-1.49a1,1,0,0,1,1.57-.22l1.22,1.19.82-1.49a1,1,0,0,1,1.75,1l-1.46,2.64a1.05,1.05,0,0,1-.73.5,1,1,0,0,1-.85-.28l-1.21-1.19-.83,1.49a1,1,0,0,1-.73.5Z"/><path class="cls-3" d="M138.79,209.57a1,1,0,0,1-.56-.17L131,204.56a1,1,0,0,1-.27-1.39,1,1,0,0,1,1.38-.27l6.14,4.11,2.34-7a1,1,0,0,1,.62-.63,1,1,0,0,1,.88.12l6.15,4.11,2.34-7a1,1,0,1,1,1.9.64l-2.76,8.25a1,1,0,0,1-.63.63,1,1,0,0,1-.88-.12l-6.14-4.11-2.34,7a1,1,0,0,1-.63.63A1.13,1.13,0,0,1,138.79,209.57Z"/><path class="cls-3" d="M79.72,97.19a1,1,0,0,1-.58-.19l-1.91-1.36A1,1,0,0,1,78.4,94l.84.6.35-1a1,1,0,0,1,1.53-.47l.84.6.36-1a1,1,0,0,1,1.87.69l-.81,2.21a1,1,0,0,1-.64.61,1,1,0,0,1-.88-.15l-.84-.6-.36,1a1,1,0,0,1-.64.61A1,1,0,0,1,79.72,97.19Z"/><path class="cls-3" d="M211.29,35.91a.94.94,0,0,1-.63-.23,1,1,0,0,1-.14-1.4l2.59-3.13-3.7-1.67a1,1,0,0,1-.56-.68,1,1,0,0,1,.2-.87l2.59-3.13-3.7-1.67a1,1,0,1,1,.83-1.82l4.89,2.21a1,1,0,0,1,.56.69,1,1,0,0,1-.2.86l-2.59,3.13,3.7,1.67a1,1,0,0,1,.56.68,1,1,0,0,1-.2.87l-3.43,4.13A1,1,0,0,1,211.29,35.91Z"/><path class="cls-3" d="M275.53,215.69a1.12,1.12,0,0,1-.35-.06,1,1,0,0,1-.6-.65l-1.21-4.06-3.6,2.24a1,1,0,0,1-.88.09,1,1,0,0,1-.6-.65l-1.59-5.31a1,1,0,1,1,1.92-.57l1.21,4.05,3.59-2.24a1,1,0,0,1,1.49.56l1.21,4.06,3.59-2.24a1,1,0,1,1,1.06,1.7l-4.71,2.93A1,1,0,0,1,275.53,215.69Z"/><path class="cls-3" d="M164.7,114.6a1,1,0,0,1-.34-.06l-1.86-.67a1,1,0,1,1,.68-1.88l.62.22,0-.66a1,1,0,0,1,.46-.76,1,1,0,0,1,.88-.1l.62.22.06-.66a1,1,0,0,1,2,.15l-.15,2a1,1,0,0,1-.46.76,1,1,0,0,1-.88.11l-.62-.23-.06.66a1,1,0,0,1-.45.77A1,1,0,0,1,164.7,114.6Z"/><path class="cls-3" d="M259.93,280.72a1,1,0,0,1-.39-1.92l.67-.28-.45-.57a1,1,0,0,1,.41-1.54l.67-.28-.45-.57a1,1,0,0,1,.17-1.4,1,1,0,0,1,1.41.17l1.25,1.61a1,1,0,0,1,.18.87,1,1,0,0,1-.59.67l-.66.27.44.58a1,1,0,0,1,.18.87,1,1,0,0,1-.58.66l-1.88.79A1.06,1.06,0,0,1,259.93,280.72Z"/><path class="cls-3" d="M101.56,113.59a.91.91,0,0,1-.39-.08l-4.89-2.08a1,1,0,0,1-.57-.68,1,1,0,0,1,.18-.87l2.49-3.13-3.68-1.57a1,1,0,0,1-.58-.68,1,1,0,0,1,.18-.86l3.31-4.16a1,1,0,0,1,1.4-.17,1,1,0,0,1,.16,1.41l-2.48,3.13,3.68,1.57a1,1,0,0,1,.57.67,1,1,0,0,1-.18.87l-2.49,3.14,3.69,1.57a1,1,0,0,1-.4,1.92Z"/><path class="cls-3" d="M267.14,60.16a1.06,1.06,0,0,1-.42-.09l-2.42-1.13a1,1,0,0,1-.34-1.55l.88-1-1.24-.57a1,1,0,0,1-.55-.7,1,1,0,0,1,.21-.86l1.73-2a1,1,0,1,1,1.52,1.29l-.88,1,1.24.57a1,1,0,0,1,.55.69,1,1,0,0,1-.21.86l-.88,1,1.23.57a1,1,0,0,1-.42,1.91Z"/><path class="cls-3" d="M114,152a1,1,0,0,1-.63-.23,1,1,0,0,1-.14-1.4l.95-1.18-1.38-.61a1,1,0,0,1-.57-.68,1,1,0,0,1,.19-.87l1-1.18-1.39-.61a1,1,0,1,1,.81-1.83l2.59,1.14a1,1,0,0,1,.57.68,1,1,0,0,1-.2.87l-1,1.18,1.39.61a1,1,0,0,1,.57.68,1,1,0,0,1-.2.87l-1.78,2.19A1,1,0,0,1,114,152Z"/><path class="cls-3" d="M22.44,92.82a1,1,0,0,1-1-1l-.06-5.11-4.91,1.41A1,1,0,0,1,15.6,88a1,1,0,0,1-.41-.79l-.06-5.12-4.91,1.41a1,1,0,0,1-.56-1.92l6.18-1.77a1,1,0,0,1,.87.16,1,1,0,0,1,.41.79l.06,5.11,4.91-1.41a1,1,0,0,1,.88.16,1,1,0,0,1,.4.79l.07,6.42a1,1,0,0,1-1,1Z"/><path class="cls-3" d="M10.58,108.49h-.15l-1.93-.29a1,1,0,0,1-.73-.5,1,1,0,0,1,0-.89l.26-.59-.64-.09a1,1,0,0,1-.73-.51,1,1,0,0,1,0-.88l.78-1.79a1,1,0,0,1,1.84.8l-.26.59.63.09a1,1,0,0,1,.73.51,1,1,0,0,1,0,.88l-.26.59.63.1a1,1,0,0,1-.14,2Z"/><path class="cls-3" d="M134,157a1,1,0,0,1-.38-.07l-5.47-2.24a1,1,0,1,1,.76-1.85l4.25,1.74.55-4.57a1,1,0,0,1,1.37-.81l4.27,1.74.55-4.57a1,1,0,0,1,2,.24l-.71,5.87a1,1,0,0,1-.49.75,1,1,0,0,1-.88.06l-4.27-1.74-.55,4.57a1,1,0,0,1-.49.74A1,1,0,0,1,134,157Z"/><path class="cls-3" d="M278.44,100.55a1,1,0,0,1-.65-.24l-7.09-6a1,1,0,0,1-.34-.82,1,1,0,0,1,.43-.77l6.63-4.51L271.33,83a1,1,0,0,1-.35-.81,1,1,0,0,1,.44-.78l7.71-5.23a1,1,0,0,1,1.12,1.66l-6.62,4.49,6.09,5.21a1,1,0,0,1,.35.81,1,1,0,0,1-.44.77L273,93.59l6.09,5.2a1,1,0,0,1-.65,1.76Z"/><path class="cls-3" d="M280.6,136.6a1,1,0,0,1-.8-.4l-1-1.37a1,1,0,0,1,.43-1.53l.38-.15-.24-.33a1,1,0,0,1-.16-.87,1,1,0,0,1,.59-.66l1.6-.62a1,1,0,1,1,.73,1.86l-.37.15.24.32a1,1,0,0,1,.16.87,1,1,0,0,1-.6.66l-.37.15.24.32a1,1,0,0,1-.2,1.4A1,1,0,0,1,280.6,136.6Z"/><path class="cls-3" d="M139.74,281.52a1,1,0,0,1-.71-.3l-2.88-2.93a1,1,0,0,1,1.42-1.4l2,2,1.4-2.43a1,1,0,0,1,.74-.49,1,1,0,0,1,.84.3l2,2,1.41-2.42a1,1,0,0,1,1.36-.36,1,1,0,0,1,.37,1.36l-2.07,3.56a1,1,0,0,1-1.58.2l-2-2L140.61,281a1,1,0,0,1-.74.49Z"/><path class="cls-3" d="M155.91,11.63a1,1,0,0,1-.84-.45l-.3-.47-.37.42a1,1,0,0,1-.82.33,1,1,0,0,1-.77-.44l-.3-.47-.37.42a1,1,0,0,1-1.5-1.33l1.24-1.4a1,1,0,0,1,.82-.33,1,1,0,0,1,.76.45l.31.46.37-.41a1,1,0,0,1,1.58.11l1,1.56a1,1,0,0,1-.83,1.55Z"/><path class="cls-3" d="M212.35,125.34a1,1,0,0,1-.65-.25,1,1,0,0,1-.1-1.41l2.54-2.9-3.47-1.68a1.05,1.05,0,0,1-.55-.7,1,1,0,0,1,.23-.86l2.54-2.91L209.42,113a1,1,0,1,1,.87-1.8l4.65,2.25a1.05,1.05,0,0,1,.55.7,1,1,0,0,1-.23.86l-2.54,2.91,3.47,1.68a1.05,1.05,0,0,1,.55.7,1,1,0,0,1-.23.86l-3.4,3.89A1,1,0,0,1,212.35,125.34Z"/><path class="cls-3" d="M60.47,146.57a1,1,0,0,1-.07-2l5.11-.38-1.72-4.84a1,1,0,0,1,.1-.88,1,1,0,0,1,.77-.45l5.11-.38-1.72-4.84a1,1,0,0,1,.61-1.28,1,1,0,0,1,1.27.61l2.17,6.07a1,1,0,0,1-.11.88,1,1,0,0,1-.76.45l-5.12.39,1.72,4.83a1,1,0,0,1-.86,1.33l-6.42.48Z"/><path class="cls-3" d="M25.6,68.05a1,1,0,0,1-.52-1.85l4.62-2.84-4-3.7a1,1,0,0,1-.32-.83,1,1,0,0,1,.47-.75l4.62-2.85-4-3.7a1,1,0,0,1,1.37-1.46l4.92,4.6a1,1,0,0,1,.31.83,1,1,0,0,1-.47.75l-4.62,2.84,4,3.71a1,1,0,0,1,.31.83,1,1,0,0,1-.47.75L26.13,67.9A1,1,0,0,1,25.6,68.05Z"/><path class="cls-3" d="M113.8,12.58h-.15a1,1,0,0,1-.73-.5l-.55-1-.81.8a1,1,0,0,1-.84.27,1,1,0,0,1-.73-.5L108.8,9.5a1,1,0,1,1,1.75-1l.55,1,.81-.79a1,1,0,0,1,.85-.28,1,1,0,0,1,.73.51l.55,1,.81-.79a1,1,0,1,1,1.4,1.43L114.5,12.3A1,1,0,0,1,113.8,12.58Z"/><path class="cls-3" d="M64.12,280.3a.94.94,0,0,1-.53-.16,1,1,0,0,1-.31-1.38l2-3.15a1,1,0,0,1,1.58-.13l1.63,1.81,1.31-2.05a1,1,0,0,1,.76-.46,1,1,0,0,1,.83.33l2.5,2.78a1,1,0,0,1-.07,1.41,1,1,0,0,1-1.42-.07l-1.62-1.81-1.31,2.05a1,1,0,0,1-.76.46,1,1,0,0,1-.83-.33l-1.63-1.81-1.31,2A1,1,0,0,1,64.12,280.3Z"/><path class="cls-3" d="M279.33,280.79a1,1,0,0,1-.58-.18l-1.66-1.17a1,1,0,0,1-.42-.78,1,1,0,0,1,.36-.81l.55-.46L277,277a1,1,0,0,1-.06-1.59l1.57-1.29a1,1,0,0,1,1.27,1.54l-.55.46.59.41a1,1,0,0,1,.06,1.59l-.56.46.59.41a1,1,0,0,1,.25,1.4A1,1,0,0,1,279.33,280.79Z"/><path class="cls-3" d="M248.71,209.9h-.1l-6.56-.61a1,1,0,0,1,.19-2l5.25.49-.92-5.2a1,1,0,0,1,1.07-1.17l5.26.48-.92-5.2a1,1,0,1,1,2-.35l1.15,6.49a1,1,0,0,1-.25.86,1,1,0,0,1-.83.31l-5.25-.48.92,5.2a1,1,0,0,1-.25.85A1,1,0,0,1,248.71,209.9Z"/><path class="cls-3" d="M71.84,231.09a1,1,0,0,1-.58-.18L68.58,229a1,1,0,1,1,1.16-1.63l1.6,1.14.68-1.86a1,1,0,0,1,.64-.61,1,1,0,0,1,.87.14l1.61,1.14.67-1.86a1,1,0,0,1,1.29-.6,1,1,0,0,1,.59,1.29l-1.11,3.08a1,1,0,0,1-.65.61,1,1,0,0,1-.87-.13l-1.61-1.14-.67,1.85a1,1,0,0,1-.64.61A1,1,0,0,1,71.84,231.09Z"/><path class="cls-3" d="M229.86,200.09a1,1,0,0,1-.69-.27l-1.29-1.24a1,1,0,1,1,1.39-1.44l.34.32.22-.41a1,1,0,0,1,.72-.51,1,1,0,0,1,.85.26l.34.33.23-.42a1,1,0,0,1,1.76.95l-.85,1.57a1,1,0,0,1-1.57.25l-.34-.33-.23.42a1,1,0,0,1-.72.51Z"/><path class="cls-3" d="M33,179.81a1.08,1.08,0,0,1-.54-.15l-1.84-1.19a1,1,0,0,1-.46-.76,1,1,0,0,1,.33-.83l.66-.59-.74-.47a1,1,0,0,1-.46-.77,1,1,0,0,1,.33-.82l1.63-1.46a1,1,0,0,1,1.41.07,1,1,0,0,1-.07,1.42l-.66.58.74.48a1,1,0,0,1,.46.76,1,1,0,0,1-.33.83l-.66.59.75.47a1,1,0,0,1-.55,1.84Z"/><path class="cls-3" d="M278.12,61.83a1,1,0,0,1-.53-1.86l.68-.41L277.7,59a1,1,0,0,1-.31-.83,1,1,0,0,1,.47-.75l.68-.41-.58-.55A1,1,0,0,1,279.34,55l1.53,1.44a1,1,0,0,1,.31.83,1,1,0,0,1-.48.75l-.68.42.58.54a1,1,0,0,1-.17,1.58l-1.8,1.09A1,1,0,0,1,278.12,61.83Z"/><path class="cls-3" d="M234.07,261.92a1,1,0,0,1-.3-2l1.45-.46-.83-1.28a1,1,0,0,1-.1-.88,1,1,0,0,1,.64-.62l1.45-.46-.83-1.28a1,1,0,0,1,.29-1.39,1,1,0,0,1,1.38.3l1.55,2.38a1,1,0,0,1,.11.88,1,1,0,0,1-.64.61l-1.46.47.84,1.28a1,1,0,0,1,.1.88,1,1,0,0,1-.64.62l-2.7.86A1.06,1.06,0,0,1,234.07,261.92Z"/><path class="cls-3" d="M43.11,72.69a1,1,0,0,1-.38-1.92l5.71-2.35-3.77-4.89A1,1,0,0,1,45.08,62l5.71-2.36L47,54.75a1,1,0,1,1,1.58-1.22l4.58,5.93A1,1,0,0,1,52.77,61l-5.72,2.35,3.78,4.89a1,1,0,0,1,.17.87,1,1,0,0,1-.58.66l-6.93,2.85A1,1,0,0,1,43.11,72.69Z"/><path class="cls-3" d="M279.72,117.85a1,1,0,0,1-1-.71l-1-3.19L275,115.72a1,1,0,0,1-1.49-.56l-1-3.18-2.82,1.77a1,1,0,0,1-1.07-1.7l3.93-2.46a1,1,0,0,1,1.49.56l1,3.18,2.82-1.77a1,1,0,0,1,1.49.56l1.34,4.44a1,1,0,0,1-.67,1.24A1,1,0,0,1,279.72,117.85Z"/><path class="cls-3" d="M188.57,113.21a1,1,0,0,1-.66-.25l-3-2.62a1,1,0,1,1,1.32-1.5l2,1.75,1.16-2.4a1,1,0,0,1,1.56-.31l2,1.75,1.16-2.4a1,1,0,0,1,1.8.88l-1.74,3.57a1,1,0,0,1-.7.55,1,1,0,0,1-.85-.23l-2-1.75-1.16,2.39a1.05,1.05,0,0,1-.7.55Z"/><path class="cls-3" d="M158.28,229.23a1.09,1.09,0,0,1-.36-.06,1,1,0,0,1-.6-.66l-.73-2.55-2.27,1.38a1,1,0,0,1-1.48-.58L151.75,223a1,1,0,1,1,1.92-.55l.73,2.55,2.27-1.38a1,1,0,0,1,1.48.58l.73,2.55,2.27-1.38a1,1,0,0,1,1.37.33,1,1,0,0,1-.33,1.38l-3.39,2.06A1,1,0,0,1,158.28,229.23Z"/><path class="cls-3" d="M9.36,145.47a1,1,0,0,1-.83-.44,1,1,0,0,1,.27-1.39l5.64-3.84-5.2-4.42a1,1,0,0,1-.35-.82,1,1,0,0,1,.43-.77L15,129.94l-5.2-4.42a1,1,0,0,1,1.3-1.53l6.19,5.28a1,1,0,0,1,.35.82,1,1,0,0,1-.43.77l-5.65,3.85,5.2,4.42a1,1,0,0,1,.35.81,1,1,0,0,1-.44.78l-6.72,4.57A1,1,0,0,1,9.36,145.47Z"/><path class="cls-3" d="M168.68,137.45h-.16a1,1,0,0,1-.83-1.14l.8-5.15a1,1,0,0,1,1.39-.76l3.57,1.59.59-3.86a1,1,0,0,1,1.4-.76l4.76,2.13a1,1,0,0,1-.82,1.83l-3.56-1.6-.6,3.86a1,1,0,0,1-.51.73,1,1,0,0,1-.88,0l-3.57-1.59-.6,3.86A1,1,0,0,1,168.68,137.45Z"/><path class="cls-3" d="M89.89,198.37a1,1,0,0,1-.53-1.85L93.43,194l-3.55-3.25a1,1,0,0,1-.32-.82,1,1,0,0,1,.47-.76l4.07-2.56-3.54-3.26a1,1,0,0,1,1.35-1.47L96.42,186a1,1,0,0,1,.32.83,1,1,0,0,1-.46.76l-4.08,2.56,3.55,3.25a1,1,0,0,1,.32.83,1,1,0,0,1-.47.75l-5.18,3.25A1,1,0,0,1,89.89,198.37Z"/><path class="cls-3" d="M278.66,17.46a1,1,0,0,1-1-.77l-.94-4-3.61,2a1,1,0,0,1-1.45-.65l-.94-4-3.62,2a1,1,0,1,1-.95-1.75L271,7.61a1,1,0,0,1,1.45.65l.94,4,3.61-2a1,1,0,0,1,.89,0,1,1,0,0,1,.56.69l1.24,5.28a1,1,0,0,1-.75,1.2A.9.9,0,0,1,278.66,17.46Z"/><path class="cls-3" d="M162.9,52.76a1,1,0,0,1-.75-.33l-5.87-6.66a1,1,0,0,1,.09-1.41,1,1,0,0,1,1.41.09l5,5.67,4.15-6.33a1,1,0,0,1,1.58-.12l5,5.67L177.68,43a1,1,0,0,1,1.38-.29,1,1,0,0,1,.29,1.39l-4.87,7.43a1,1,0,0,1-.76.45,1,1,0,0,1-.82-.34l-5-5.67-4.14,6.33a1,1,0,0,1-.77.45Z"/><path class="cls-3" d="M76.8,167.11l-.24,0-6.24-1.54a1,1,0,0,1-.73-1.21,1,1,0,0,1,1.21-.73l5,1.23-.13-5.12a1,1,0,0,1,.37-.81,1,1,0,0,1,.87-.19l5,1.23-.13-5.13a1,1,0,0,1,1-1,1,1,0,0,1,1,1l.16,6.44a1,1,0,0,1-.37.8,1,1,0,0,1-.87.19l-5-1.22.13,5.12a1,1,0,0,1-.37.8A1,1,0,0,1,76.8,167.11Z"/><path class="cls-3" d="M99.76,280.26a1,1,0,0,1-.84-.44l-2.77-4.17-3.28,3.78a1,1,0,0,1-.81.34,1,1,0,0,1-.77-.44l-2.78-4.17-3.28,3.78a1,1,0,0,1-1.51-1.32l4.14-4.76a1,1,0,0,1,1.59.1l2.77,4.17,3.29-3.78a1,1,0,0,1,1.58.1l3.5,5.26a1,1,0,0,1-.28,1.38A.94.94,0,0,1,99.76,280.26Z"/><path class="cls-3" d="M188.18,177a1,1,0,0,1-.59-.19,1,1,0,0,1-.22-1.39l1.27-1.77a1,1,0,0,1,.78-.42,1,1,0,0,1,.8.37l.55.67.5-.7a1,1,0,0,1,.79-.41.92.92,0,0,1,.8.37l1.37,1.69a1,1,0,0,1-1.55,1.26l-.55-.68-.5.71a1,1,0,0,1-.78.41,1,1,0,0,1-.81-.37l-.54-.67-.51.7A1,1,0,0,1,188.18,177Z"/><path class="cls-3" d="M236.73,161.11a.84.84,0,0,1-.27,0,1,1,0,0,1-.66-.59L234,156l-3.85,2.94a1,1,0,0,1-.87.17,1,1,0,0,1-.67-.59l-2.3-5.7a1,1,0,1,1,1.85-.75l1.82,4.49,3.85-2.94a1,1,0,0,1,1.53.42l1.82,4.49,3.86-2.94a1,1,0,0,1,1.4.18,1,1,0,0,1-.19,1.41l-4.9,3.73A1,1,0,0,1,236.73,161.11Z"/><path class="cls-3" d="M166.94,29.07a1,1,0,0,1-.4-1.92l6.33-2.72-4.3-5.38a1,1,0,0,1-.18-.87,1,1,0,0,1,.57-.67l6.33-2.72L171,9.4a1,1,0,1,1,1.56-1.25l5.11,6.41a1,1,0,0,1,.19.87,1,1,0,0,1-.57.68L171,18.83l4.29,5.38a1,1,0,0,1,.19.87,1,1,0,0,1-.57.68L167.33,29A1.09,1.09,0,0,1,166.94,29.07Z"/><path class="cls-3" d="M220,140.35a1,1,0,0,1-.7-.29L216.22,137a1,1,0,0,1,1.41-1.42l2.15,2.15,1.5-2.64a1,1,0,0,1,.73-.5,1,1,0,0,1,.84.28L225,137l1.5-2.64a1,1,0,0,1,1.37-.38,1,1,0,0,1,.37,1.36l-2.14,3.78a1,1,0,0,1-.74.5,1,1,0,0,1-.84-.28l-2.15-2.14-1.5,2.63a1,1,0,0,1-.73.5Z"/><path class="cls-3" d="M45.37,105.79a1,1,0,0,1-.74-.32l-4.9-5.35A1,1,0,0,1,40,98.55l5.28-2.72-4-4.38a1,1,0,0,1,.28-1.56L48,86.57a1,1,0,0,1,.92,1.78l-5.29,2.72,4,4.37a1,1,0,0,1,.25.86,1,1,0,0,1-.53.71l-5.28,2.72,4,4.38a1,1,0,0,1-.73,1.68Z"/><path class="cls-3" d="M48.82,281.77a1,1,0,0,1-.83-.44l-3.66-5.44-4.28,5a1,1,0,0,1-.82.34,1,1,0,0,1-.77-.44l-3.66-5.44-4.29,5A1,1,0,0,1,29,279l5.14-6a.94.94,0,0,1,.82-.34,1,1,0,0,1,.77.44l3.66,5.44,4.28-5a1,1,0,0,1,1.59.09l4.39,6.53a1,1,0,0,1-.28,1.39A.94.94,0,0,1,48.82,281.77Z"/><path class="cls-3" d="M117.38,57a1,1,0,0,1-.88-.52L115,53.76a1,1,0,0,1,0-.89,1,1,0,0,1,.68-.57l1.72-.41-.85-1.55a1,1,0,0,1,0-.89,1,1,0,0,1,.68-.57l3-.71a1,1,0,1,1,.47,1.94l-1.72.41.85,1.55a1,1,0,0,1,0,.89,1,1,0,0,1-.68.57l-1.72.41.85,1.55a1,1,0,0,1-.39,1.36A1,1,0,0,1,117.38,57Z"/><path class="cls-3" d="M120.89,114.83a1,1,0,0,1-.72-.31,1,1,0,0,1,0-1.41l4.25-4.07-5-3a1,1,0,0,1-.48-.74,1,1,0,0,1,.3-.84l4.24-4.07-5-3a1,1,0,0,1,1-1.72l6.17,3.7a1,1,0,0,1,.48.74,1,1,0,0,1-.3.84L121.55,105l5,3a1,1,0,0,1,.48.74,1,1,0,0,1-.3.84l-5.2,5A1,1,0,0,1,120.89,114.83Z"/><path class="cls-3" d="M243,183.84l-.18,0a1,1,0,0,1-.71-.53l-3.52-6.86-5.68,5.21a1,1,0,0,1-.86.25,1,1,0,0,1-.71-.53l-4.11-8a1,1,0,1,1,1.78-.92l3.51,6.86,5.69-5.21a1,1,0,0,1,.85-.24,1,1,0,0,1,.71.52l3.52,6.86L249,176a1,1,0,1,1,1.35,1.47l-6.65,6.09A1,1,0,0,1,243,183.84Z"/><path class="cls-3" d="M145.24,183.58a1.35,1.35,0,0,1-.28,0l-4.36-1.24a1,1,0,0,1-.66-.6,1,1,0,0,1,.08-.88l1.67-2.76-3.1-.88a1,1,0,0,1-.66-.6,1,1,0,0,1,.08-.88l2.35-3.88a1,1,0,0,1,1.37-.34,1,1,0,0,1,.34,1.38l-1.67,2.75,3.1.88a1,1,0,0,1,.65.6,1,1,0,0,1-.07.88l-1.67,2.76,3.1.88a1,1,0,0,1,.69,1.24A1,1,0,0,1,145.24,183.58Z"/><path class="cls-3" d="M187.18,69.38a.9.9,0,0,1-.28,0l-2.17-.64a1,1,0,0,1,.57-1.92l.91.27,0-.94a1,1,0,0,1,1.28-.94l.91.27,0-1a1,1,0,0,1,1-1h0a1,1,0,0,1,1,1l-.05,2.26a1,1,0,0,1-.41.79,1,1,0,0,1-.87.15l-.91-.27,0,1a1,1,0,0,1-.41.78A1,1,0,0,1,187.18,69.38Z"/><path class="cls-3" d="M108.82,86.33a1,1,0,0,1-.3,0l-7.08-2.21a1,1,0,0,1,.6-1.91L107.86,84l.21-6.1a1,1,0,0,1,.42-.78,1,1,0,0,1,.88-.14l5.83,1.81.21-6.11a1,1,0,1,1,2,.07l-.25,7.41a1,1,0,0,1-.42.78,1,1,0,0,1-.87.14L110,79.26l-.2,6.1a1,1,0,0,1-.42.79A1,1,0,0,1,108.82,86.33Z"/><path class="cls-3" d="M157,163.13h-.12l-5.66-.67a1,1,0,0,1,.24-2l4.35.52-.66-4.34a1,1,0,0,1,.27-.84,1,1,0,0,1,.84-.3l4.36.51-.66-4.34a1,1,0,0,1,2-.3l.85,5.64a1,1,0,0,1-1.1,1.14l-4.36-.51L158,162a1,1,0,0,1-.27.85A1,1,0,0,1,157,163.13Z"/><path class="cls-3" d="M240.77,77.59a1,1,0,0,1-1-1l-.34-6.22-5.92,2a1,1,0,0,1-1.31-.89l-.36-6.23-5.91,2a1,1,0,0,1-1.27-.63,1,1,0,0,1,.63-1.27l7.16-2.4a1,1,0,0,1,.88.12,1,1,0,0,1,.44.78l.35,6.23,5.91-2a1,1,0,0,1,1.32.89l.42,7.54a1,1,0,0,1-.94,1Z"/><path class="cls-3" d="M57.88,248.12a.94.94,0,0,1-.37-.07,1,1,0,0,1-.56-1.3L58,244.12a1,1,0,0,1,1.53-.42l1.21.92.57-1.41a1,1,0,0,1,.66-.59,1,1,0,0,1,.88.17l2.25,1.71a1,1,0,1,1-1.22,1.59l-1.2-.92-.57,1.41a1,1,0,0,1-1.53.43l-1.21-.93-.57,1.41A1,1,0,0,1,57.88,248.12Z"/><path class="cls-3" d="M232.07,242.83a1,1,0,0,1-.15-2l7.63-1.19-3.16-7a1,1,0,0,1,.75-1.4l7.64-1.19L241.61,223a1,1,0,0,1,1.83-.82l3.7,8.24a1,1,0,0,1-.76,1.4L238.75,233l3.16,7.05a1,1,0,0,1,0,.89,1,1,0,0,1-.73.51l-8.92,1.38Z"/><path class="cls-3" d="M176,95.56h0l-5.06,0a1,1,0,0,1,0-2h0l3.74,0-1-3.62a1,1,0,0,1,1-1.26l3.75,0-1-3.62a1,1,0,0,1,1.93-.51l1.3,4.88a1,1,0,0,1-.18.87,1,1,0,0,1-.8.39l-3.74,0,1,3.62a1,1,0,0,1-.18.87A1,1,0,0,1,176,95.56Z"/><path class="cls-3" d="M277.73,154.7a1,1,0,0,1-.22-2l.52-.12-.25-.47a1,1,0,0,1,0-.89,1,1,0,0,1,.68-.56l.53-.12-.26-.47a1,1,0,1,1,1.77-.95l.87,1.63a1,1,0,0,1-.66,1.45l-.52.12.25.47a1,1,0,0,1-.66,1.45l-1.8.41A.82.82,0,0,1,277.73,154.7Z"/><path class="cls-3" d="M38.7,37A1,1,0,0,1,38,36.7l-6.6-7.18a1,1,0,1,1,1.47-1.36l5.72,6.22L43,27.22a1,1,0,0,1,.75-.46,1,1,0,0,1,.83.31l5.73,6.22,4.49-7.16a1,1,0,0,1,1.37-.31,1,1,0,0,1,.32,1.37l-5.18,8.28a1,1,0,0,1-.76.46,1,1,0,0,1-.83-.32L44,29.39l-4.49,7.16a1,1,0,0,1-.75.47Z"/><path class="cls-3" d="M147,244.14h-.15A1,1,0,0,1,146,243l.26-1.61a1,1,0,0,1,.51-.73,1,1,0,0,1,.89,0l.3.14,0-.33a1,1,0,0,1,.51-.72,1,1,0,0,1,.89,0l1.49.67a1,1,0,1,1-.83,1.83l-.29-.14-.05.32a1,1,0,0,1-.51.73,1,1,0,0,1-.89,0L148,243l-.05.33A1,1,0,0,1,147,244.14Z"/><path class="cls-3" d="M135.88,87.17h0a1,1,0,0,1-1-1l0-.48-.47.11a1,1,0,0,1-.86-.21,1,1,0,0,1-.36-.81l0-.48-.47.11a1,1,0,0,1-.44-2l1.74-.39a1,1,0,0,1,1.22,1l0,.48.47-.11a1,1,0,0,1,.86.21,1,1,0,0,1,.36.81l-.08,1.79A1,1,0,0,1,135.88,87.17Z"/><path class="cls-3" d="M11.22,219.29a1,1,0,0,1-.68-.26,1,1,0,0,1,0-1.41l2-2.15-2.59-1.33a1,1,0,0,1-.52-.72,1,1,0,0,1,.24-.85l2-2.15L9,209.08a1,1,0,1,1,.92-1.77l3.75,1.94a1,1,0,0,1,.53.71,1,1,0,0,1-.25.85L12,213l2.59,1.34a1,1,0,0,1,.53.72,1,1,0,0,1-.25.85L12,219A1,1,0,0,1,11.22,219.29Z"/><path class="cls-3" d="M281.62,40.56a1,1,0,0,1-.85-.47l-4-6.36-5.09,5.51a1,1,0,0,1-.83.32,1,1,0,0,1-.75-.47l-4-6.36-5.09,5.51a1,1,0,0,1-1.41.06,1,1,0,0,1-.06-1.42l6-6.47a1,1,0,0,1,.83-.32,1,1,0,0,1,.76.47l4,6.36,5.09-5.51a1,1,0,0,1,.83-.32,1,1,0,0,1,.75.47L282.47,39a1,1,0,0,1-.32,1.38A1,1,0,0,1,281.62,40.56Z"/><path class="cls-3" d="M13.36,173.32a1,1,0,0,1-.81-.41l-3.3-4.55a1,1,0,0,1,.46-1.52l4-1.52-2.52-3.48a1,1,0,0,1-.15-.88,1,1,0,0,1,.6-.64l5.26-2a1,1,0,0,1,.7,1.88l-4,1.51,2.53,3.48a1,1,0,0,1-.46,1.52l-4,1.52,2.53,3.48a1,1,0,0,1-.23,1.4A1,1,0,0,1,13.36,173.32Z"/><path class="cls-3" d="M184.55,238.68a1,1,0,0,1-.83-.44l-4-5.84a1,1,0,0,1-.12-.88,1,1,0,0,1,.62-.63l5.46-1.91-3.28-4.76a1,1,0,0,1-.13-.88,1,1,0,0,1,.62-.63l6.7-2.33a1,1,0,0,1,1.27.61,1,1,0,0,1-.61,1.28l-5.46,1.9,3.28,4.76a1,1,0,0,1,.13.88,1,1,0,0,1-.63.63l-5.46,1.9,3.28,4.77a1,1,0,0,1-.25,1.39A1,1,0,0,1,184.55,238.68Z"/><path class="cls-3" d="M140.92,122.06a1,1,0,0,1-.24,0l-5.22-1.27a1,1,0,0,1,.48-1.94l3.94,1-.12-4.06a1,1,0,0,1,1.23-1l3.95,1-.12-4.06a1,1,0,1,1,2-.06l.16,5.37a1,1,0,0,1-.37.81,1,1,0,0,1-.87.19l-3.94-1,.12,4.06a1,1,0,0,1-.37.81A1,1,0,0,1,140.92,122.06Z"/><path class="cls-3" d="M212.67,177.06a1,1,0,0,1-.39-.08l-1.94-.82a1,1,0,1,1,.78-1.84l.73.31.11-.79a1,1,0,0,1,.49-.73,1,1,0,0,1,.89-.06l.73.31.11-.78a1,1,0,0,1,2,.26l-.28,2.09a1,1,0,0,1-.5.73,1,1,0,0,1-.88.05l-.73-.3-.11.78a1,1,0,0,1-.5.74A1.05,1.05,0,0,1,212.67,177.06Z"/><path class="cls-3" d="M59.52,216a1.07,1.07,0,0,1-.46-.11,1,1,0,0,1-.43-1.34l4.12-8.12a1,1,0,0,1,1.56-.29l5.77,5.24,3.53-6.95a1,1,0,0,1,1.56-.29l6.74,6.12a1,1,0,0,1-1.35,1.48l-5.76-5.24-3.53,6.95a1,1,0,0,1-.71.53,1,1,0,0,1-.85-.24l-5.77-5.24-3.53,6.95A1,1,0,0,1,59.52,216Z"/><path class="cls-3" d="M121.47,281.09a1,1,0,0,1-1-.74l-1-3.76-3.36,2a1,1,0,0,1-.89,0,1,1,0,0,1-.58-.66l-1-3.76-3.36,1.94a1,1,0,1,1-1-1.73l4.5-2.6a1,1,0,0,1,1.47.61l1,3.76,3.36-1.95a1.07,1.07,0,0,1,.89-.06,1,1,0,0,1,.58.67l1.32,5a1,1,0,0,1-.71,1.22A1.15,1.15,0,0,1,121.47,281.09Z"/><path class="cls-3" d="M43.28,132.33a1.12,1.12,0,0,1-.44-.09l-6.51-3.11a1,1,0,0,1,.86-1.81l5.33,2.55,1-5.82a1,1,0,0,1,1.41-.72l5.34,2.54,1-5.82a1,1,0,0,1,1.17-.8,1,1,0,0,1,.8,1.16l-1.28,7.11a1,1,0,0,1-1.41.72L45.3,125.7l-1,5.81a1,1,0,0,1-.53.71A.91.91,0,0,1,43.28,132.33Z"/><path class="cls-3" d="M147.46,35.8a1,1,0,0,1-.81-.41,1,1,0,0,1,.21-1.4l2.8-2.07-2.74-2.15a1,1,0,0,1-.38-.8,1,1,0,0,1,.4-.79l2.8-2.08L147,23.94a1,1,0,1,1,1.24-1.57l3.77,3a1,1,0,0,1,.38.8,1,1,0,0,1-.4.78L149.18,29l2.75,2.15a1,1,0,0,1,.38.81,1,1,0,0,1-.41.79l-3.85,2.85A1,1,0,0,1,147.46,35.8Z"/><path class="cls-3" d="M249.86,145a1.07,1.07,0,0,1-.35-.06L245,143.23a1,1,0,0,1-.62-.65,1,1,0,0,1,.14-.87l2.06-2.9-3.33-1.22a1,1,0,0,1-.62-.64,1,1,0,0,1,.15-.88l2.81-4a1,1,0,0,1,1.4-.23,1,1,0,0,1,.23,1.39l-2,2.89,3.33,1.22a1,1,0,0,1,.61.65,1,1,0,0,1-.14.87l-2.06,2.9L250.2,143a1,1,0,0,1-.34,1.94Z"/><path class="cls-3" d="M245.39,281.08h-.17l-2.52-.42a1,1,0,0,1-.75-1.4l.52-1.14-1.24-.2a1,1,0,0,1-.72-.52,1,1,0,0,1,0-.89l1.07-2.32a1,1,0,0,1,1.32-.5,1,1,0,0,1,.49,1.33l-.52,1.14,1.24.2a1,1,0,0,1,.74,1.4l-.52,1.14,1.24.21a1,1,0,0,1-.16,2Z"/><path class="cls-3" d="M250.84,111.84a1,1,0,0,1-.81-.42l-5.81-8.24a1,1,0,0,1-.14-.88,1,1,0,0,1,.62-.64l8.24-3-5.05-7.16a1,1,0,0,1-.14-.87,1,1,0,0,1,.62-.64l9.47-3.42a1,1,0,0,1,1.28.6,1,1,0,0,1-.6,1.28l-8.24,3,5.05,7.16a1,1,0,0,1,.14.88,1.06,1.06,0,0,1-.62.64l-8.24,3,5,7.16a1,1,0,0,1-.24,1.4A1,1,0,0,1,250.84,111.84Z"/><path class="cls-3" d="M226,221.54h0a1,1,0,0,1-1-1V217.9l-2.54.7a1,1,0,0,1-1.27-1V215l-2.54.69a1,1,0,0,1-.53-1.93l3.81-1a1,1,0,0,1,.87.17,1,1,0,0,1,.39.79v2.64l2.55-.7a1,1,0,0,1,1.26,1v3.95A1,1,0,0,1,226,221.54Z"/><path class="cls-3" d="M10.09,16.21A1,1,0,0,1,9.42,16L6.16,13A1,1,0,1,1,7.5,11.54l2.29,2.05,1.37-2.75a1,1,0,0,1,.71-.53,1,1,0,0,1,.85.23L15,12.6,16.4,9.85a1,1,0,0,1,1.34-.45,1,1,0,0,1,.44,1.34l-2,3.93a1,1,0,0,1-1.56.29l-2.29-2.05L11,15.66a1,1,0,0,1-.71.54Z"/><path class="cls-3" d="M223.44,54.07a1,1,0,0,1-1-.78l-1.75-7.78a1,1,0,0,1,1-1.22l6.66.3-1.47-6.5a1,1,0,0,1,1-1.22l8,.37a1,1,0,0,1-.09,2l-6.66-.31,1.47,6.5a1,1,0,0,1-1,1.22L223,46.34l1.46,6.51a1,1,0,0,1-.76,1.2Z"/><path class="cls-3" d="M168.91,191.85a1,1,0,0,1-.92-1.41l1.9-4.34-4.69-.69a1,1,0,0,1-.73-.5,1,1,0,0,1-.05-.89l1.91-4.35-4.7-.68a1,1,0,0,1-.85-1.14,1,1,0,0,1,1.14-.84l6,.87a1,1,0,0,1,.73.51,1,1,0,0,1,0,.88l-1.9,4.35,4.7.69a1,1,0,0,1,.73.5,1,1,0,0,1,0,.89l-2.43,5.55A1,1,0,0,1,168.91,191.85Z"/><path class="cls-3" d="M75.65,264.18a1,1,0,0,1-.66-.25l-2.66-2.33a1,1,0,1,1,1.32-1.5l1.67,1.47,1-2A1.05,1.05,0,0,1,77,259a1,1,0,0,1,.86.23l1.67,1.47,1-2a1,1,0,1,1,1.79.87l-1.54,3.18a1,1,0,0,1-.7.54,1,1,0,0,1-.86-.22l-1.67-1.47-1,2a1,1,0,0,1-.71.54A.62.62,0,0,1,75.65,264.18Z"/><path class="cls-3" d="M52.6,177.6l-.19,0-3.61-.71a1,1,0,0,1,.39-2l2.31.45L51.33,173a1,1,0,0,1,.33-.82,1,1,0,0,1,.86-.24l2.31.46-.17-2.36a1,1,0,0,1,2-.15l.28,3.66a1,1,0,0,1-1.19,1.06l-2.32-.45.18,2.35a1,1,0,0,1-.34.82A1,1,0,0,1,52.6,177.6Z"/><path class="cls-3" d="M276.53,260.22a1,1,0,0,1-.9-.56,1,1,0,0,1,.46-1.34l1.48-.72-1.09-1.23a1,1,0,0,1-.23-.86,1,1,0,0,1,.54-.7l1.48-.73-1.09-1.24a1,1,0,0,1,1.5-1.32l2,2.22a1,1,0,0,1,.23.86,1,1,0,0,1-.54.7l-1.48.73,1.09,1.23a1,1,0,0,1,.23.86,1,1,0,0,1-.54.7l-2.66,1.3A1,1,0,0,1,276.53,260.22Z"/><path class="cls-3" d="M142.89,70.84a1,1,0,0,1-.52-.15l-7.87-4.85a1,1,0,0,1-.47-.75,1,1,0,0,1,.31-.83l5.8-5.42-6.75-4.16a1,1,0,0,1-.47-.75,1,1,0,0,1,.31-.83L140,46.8a1,1,0,1,1,1.37,1.46l-5.8,5.41,6.75,4.16a1,1,0,0,1,.47.75,1,1,0,0,1-.31.83l-5.79,5.41L143.42,69a1,1,0,0,1,.32,1.37A1,1,0,0,1,142.89,70.84Z"/><path class="cls-3" d="M164.85,257.58a1,1,0,0,1-.16-2l3.71-.62-1.58-3.41a1,1,0,0,1,0-.88,1,1,0,0,1,.72-.52l3.71-.63-1.58-3.41a1,1,0,1,1,1.82-.84l2.12,4.6a1,1,0,0,1-.74,1.41l-3.71.62,1.58,3.41a1,1,0,0,1-.74,1.41l-5,.84Z"/><path class="cls-3" d="M273.25,194.17a1,1,0,0,1-.6-.2,1,1,0,0,1-.4-.79l-.06-8.38-8.07,2.27a1,1,0,0,1-.87-.16,1,1,0,0,1-.4-.79l-.06-9.69a1,1,0,0,1,1-1h0a1,1,0,0,1,1,1l0,8.37,8.06-2.27a1,1,0,0,1,.88.16,1,1,0,0,1,.4.79l.06,8.38,8.06-2.27a1,1,0,1,1,.55,1.93l-9.33,2.62A.84.84,0,0,1,273.25,194.17Z"/><path class="cls-3" d="M14,279.12a1,1,0,0,1-.83-.44l-4.36-6.45a1,1,0,0,1-.12-.88,1,1,0,0,1,.63-.63l6.13-2.08-3.63-5.37a1,1,0,0,1,.51-1.51l7.38-2.5a1,1,0,0,1,.64,1.9l-6.14,2.08,3.63,5.36a1,1,0,0,1,.12.88,1,1,0,0,1-.62.63l-6.14,2.08,3.63,5.37a1,1,0,0,1-.27,1.39A1,1,0,0,1,14,279.12Z"/><path class="cls-3" d="M70.51,61.88a1,1,0,0,1-.5-.14,1,1,0,0,1-.37-1.36l3.18-5.54-6.18-1.6a1,1,0,0,1-.67-.58,1,1,0,0,1,0-.89l3.18-5.54L63,44.63a1,1,0,1,1,.5-1.94L71,44.62a1,1,0,0,1,.62,1.46l-3.18,5.55,6.18,1.6a1,1,0,0,1,.68.58,1,1,0,0,1-.06.89l-3.83,6.67A1,1,0,0,1,70.51,61.88Z"/><path class="cls-3" d="M196.78,202.69a1,1,0,0,1-.65-.24l-7.61-6.53a1,1,0,0,1,1.3-1.52l6.62,5.68,3.72-7.89a1,1,0,0,1,.7-.55,1,1,0,0,1,.86.22l6.63,5.68,3.72-7.9a1,1,0,0,1,1.34-.47,1,1,0,0,1,.47,1.33l-4.28,9.07a1,1,0,0,1-.7.56,1,1,0,0,1-.86-.22l-6.63-5.68-3.72,7.89a1,1,0,0,1-.7.55A.75.75,0,0,1,196.78,202.69Z"/><path class="cls-3" d="M105.26,174.32a1,1,0,0,1-.76-.36l-5.78-6.78a1,1,0,0,1,1.53-1.29l4.92,5.78,4.27-6.28a1,1,0,0,1,1.59-.09l4.93,5.78,4.28-6.28a1,1,0,0,1,1.65,1.13l-5,7.36a1,1,0,0,1-.78.44,1,1,0,0,1-.81-.35l-4.93-5.78-4.28,6.28a1,1,0,0,1-.77.43Z"/><path class="cls-3" d="M195.17,134.54a1,1,0,0,1-.33-1.94l1.19-.42-.72-1a1,1,0,0,1,.5-1.51l1.19-.41-.72-1a1,1,0,0,1,1.65-1.14l1.46,2.12a1,1,0,0,1,.13.88,1,1,0,0,1-.63.63l-1.19.42.72,1a1,1,0,0,1-.5,1.51l-2.43.85A1.13,1.13,0,0,1,195.17,134.54Z"/><path class="cls-3" d="M87.08,79.92a.92.92,0,0,1-.36-.07,1,1,0,0,1-.58-1.29l.71-1.84-2-.19A1,1,0,0,1,84,75.18l.7-1.85-2-.19a1,1,0,0,1,.19-2l3.28.31a1,1,0,0,1,.75.47,1,1,0,0,1,.09.88l-.71,1.85,2,.19a1,1,0,0,1,.84,1.35L88,79.28A1,1,0,0,1,87.08,79.92Z"/><path class="cls-3" d="M147.87,263.92a1,1,0,0,1-.83-.44l-4.56-6.8-5.34,6.2a1,1,0,0,1-1.59-.09L131,256l-5.35,6.2a1,1,0,1,1-1.51-1.31l6.2-7.19a1,1,0,0,1,1.59.1l4.57,6.79,5.35-6.2a1,1,0,0,1,.81-.34,1,1,0,0,1,.77.44l5.29,7.89a1,1,0,0,1-.27,1.38A1,1,0,0,1,147.87,263.92Z"/><path class="cls-3" d="M84.23,40.57a1,1,0,0,1-1-.8l-.34-1.66a1,1,0,0,1,1-1.19l.38,0-.07-.37a1,1,0,0,1,.23-.86,1,1,0,0,1,.82-.34l1.69.12a1,1,0,0,1-.14,2l-.38,0,.07.37a1,1,0,0,1-.22.86,1,1,0,0,1-.83.34l-.38,0,.08.38a1,1,0,0,1-.78,1.17A.71.71,0,0,1,84.23,40.57Z"/><path class="cls-3" d="M190,16.93a1,1,0,0,1-.6-1.81l.83-.61-.81-.64a1,1,0,0,1,0-1.59l.83-.61-.81-.64a1,1,0,1,1,1.24-1.57l1.84,1.45a1,1,0,0,1,0,1.59l-.83.61.81.64a1,1,0,0,1,.38.8,1,1,0,0,1-.4.79l-1.89,1.39A1,1,0,0,1,190,16.93Z"/><path class="cls-3" d="M99.86,225.57h0l-3.39-.11a1,1,0,0,1-.78-.42,1,1,0,0,1-.14-.87l.61-2-2.08-.06a1,1,0,0,1-.93-1.3l1-3.24a1,1,0,0,1,1.25-.66,1,1,0,0,1,.66,1.25l-.61,2,2.08.06a1,1,0,0,1,.78.42,1,1,0,0,1,.14.87l-.61,2,2.08.07a1,1,0,0,1,1,1A1,1,0,0,1,99.86,225.57Z"/><path class="cls-3" d="M222.24,279.17h-.11a1,1,0,0,1-.75-.49l-2.48-4.17-3.37,3.5a1,1,0,0,1-1.58-.19l-3.15-5.3a1,1,0,0,1,1.72-1l2.48,4.17,3.37-3.49a1,1,0,0,1,.83-.3,1,1,0,0,1,.75.48l2.48,4.17L225.8,273a1,1,0,1,1,1.44,1.39L223,278.87A1,1,0,0,1,222.24,279.17Z"/><path class="cls-3" d="M15.09,242.88a1,1,0,0,1-.38-.08l-7.82-3.18a1,1,0,0,1-.55-1.31,1,1,0,0,1,1.3-.55l6.61,2.7.84-7.09a1,1,0,0,1,.49-.74,1,1,0,0,1,.89-.07l6.61,2.69.85-7.08a1,1,0,1,1,2,.23l-1,8.39a1,1,0,0,1-.49.74,1,1,0,0,1-.88.07l-6.61-2.69L16.08,242a1,1,0,0,1-.49.74A1,1,0,0,1,15.09,242.88Z"/><path class="cls-3" d="M36.94,216.25a1,1,0,0,1-.95-.67l-3.24-9.36a1,1,0,0,1,.88-1.32l8.57-.57-2.82-8.12a1,1,0,0,1,.11-.88,1.05,1.05,0,0,1,.77-.45l9.88-.65a1,1,0,0,1,.13,2l-8.57.56,2.82,8.12a1,1,0,0,1-.11.88,1,1,0,0,1-.77.44l-8.57.58,2.81,8.12a1,1,0,0,1-.62,1.27A.86.86,0,0,1,36.94,216.25Z"/><path class="cls-3" d="M235.76,119.66a1,1,0,0,1-1-.82l-.23-1.32-1.21.57a1,1,0,0,1-.88,0,1,1,0,0,1-.53-.71l-.23-1.32-1.21.57a1,1,0,1,1-.86-1.81l2.39-1.13a1,1,0,0,1,1.42.73l.23,1.32,1.21-.58a1,1,0,0,1,.89,0,1,1,0,0,1,.52.71l.46,2.61a1,1,0,0,1-.81,1.16Z"/><path class="cls-3" d="M202.81,162.89a1,1,0,0,1-.63-1.78l2.94-2.42L202,156.5a1,1,0,0,1-.43-.78,1,1,0,0,1,.37-.81l2.94-2.43-3.11-2.2a1,1,0,0,1,1.15-1.63l4.18,2.95a1,1,0,0,1,.06,1.59l-2.94,2.43,3.11,2.2a1,1,0,0,1,.43.78,1,1,0,0,1-.37.81l-4,3.25A1,1,0,0,1,202.81,162.89Z"/><path class="cls-3" d="M166.86,279.38a1,1,0,0,1-.68-.26l-6.06-5.64a1,1,0,0,1,1.36-1.47l5.1,4.75,3.23-6.18a1,1,0,0,1,.71-.52,1,1,0,0,1,.85.25l5.11,4.75,3.23-6.18a1,1,0,0,1,1.77.93l-3.83,7.34a1,1,0,0,1-1.57.27L171,272.67l-3.23,6.18a1,1,0,0,1-.71.52Z"/><path class="cls-3" d="M113.83,256.11a1,1,0,0,1-.82-.42l-1.68-2.4a1,1,0,0,1-.13-.88,1,1,0,0,1,.61-.64l1.53-.55-.94-1.32a1.05,1.05,0,0,1-.13-.88,1,1,0,0,1,.62-.64l2.75-1a1,1,0,0,1,.68,1.89l-1.52.54.93,1.33a1,1,0,0,1,.13.87,1,1,0,0,1-.61.64l-1.53.55.93,1.33a1,1,0,0,1-.24,1.39A1,1,0,0,1,113.83,256.11Z"/><path class="cls-3" d="M159.74,76.87a1,1,0,0,1-.58-.18l-6.26-4.43a1,1,0,1,1,1.15-1.63l5.2,3.67,2.16-6a1,1,0,0,1,.64-.61,1,1,0,0,1,.88.14l5.2,3.67,2.17-6a1,1,0,0,1,1.88.68l-2.61,7.22a1,1,0,0,1-.64.62,1,1,0,0,1-.88-.14l-5.2-3.67-2.17,6a1,1,0,0,1-.64.62A1,1,0,0,1,159.74,76.87Z"/><path class="cls-3" d="M112.65,209.41a1,1,0,0,1-.63-.22,1,1,0,0,1-.37-.8l0-1.83-1.77.45a1,1,0,0,1-1.25-1l.07-3.14a1,1,0,0,1,1-1h0a1,1,0,0,1,1,1l0,1.83,1.78-.45a1,1,0,0,1,.86.19,1,1,0,0,1,.38.8l0,1.83,1.78-.44a1,1,0,1,1,.49,1.93l-3,.77A1,1,0,0,1,112.65,209.41Z"/><path class="cls-3" d="M147.88,100.4a1,1,0,0,1-1-.93l-.28-4a1,1,0,0,1,.34-.82,1,1,0,0,1,.85-.23l2.68.53-.19-2.72a1,1,0,0,1,.34-.83,1,1,0,0,1,.86-.22l4,.79a1,1,0,0,1,.79,1.18,1,1,0,0,1-1.18.78l-2.68-.54.19,2.73a1,1,0,0,1-.34.82,1,1,0,0,1-.85.23l-2.68-.54.19,2.73a1,1,0,0,1-.93,1.07Z"/><path class="cls-3" d="M60.9,12.21a1,1,0,0,1-.93-.65l-.29-.76-.67.48a1,1,0,0,1-1.52-.45l-.29-.77-.67.48a1,1,0,0,1-1.18-1.61l1.73-1.26a1,1,0,0,1,1.52.45l.29.77.67-.48a1,1,0,0,1,.87-.15,1,1,0,0,1,.65.6l.76,2a1,1,0,0,1-.58,1.28A.92.92,0,0,1,60.9,12.21Z"/><path class="cls-3" d="M250.34,55.07a1,1,0,0,1-.63-.22l-4.18-3.37a1,1,0,0,1-.37-.81,1,1,0,0,1,.41-.78l3.3-2.38L245.7,45a1,1,0,0,1,.05-1.59l4.36-3.14a1,1,0,0,1,1.17,1.62L248,44.23l3.16,2.55a1,1,0,0,1,.38.8,1,1,0,0,1-.42.79l-3.3,2.37L251,53.3a1,1,0,0,1-.63,1.77Z"/><path class="cls-3" d="M74.88,26.16l-.16,0A1,1,0,0,1,73.89,25l1.59-9.67a1,1,0,0,1,1.41-.74l7.72,3.54L86,9.74A1,1,0,0,1,87.39,9l8.9,4.1a1,1,0,0,1,.49,1.32,1,1,0,0,1-1.33.49l-7.71-3.54-1.37,8.37a1,1,0,0,1-1.41.75l-7.72-3.54-1.37,8.38A1,1,0,0,1,74.88,26.16Z"/><path class="cls-3" d="M19.17,195.88a1,1,0,0,1-1-.73l-1-3.49-3.11,1.89a1,1,0,0,1-.88.07,1,1,0,0,1-.6-.65l-1-3.5-3.11,1.89A1,1,0,0,1,7.15,191a1,1,0,0,1,.34-1.37l4.22-2.57a1,1,0,0,1,1.49.58l1,3.5,3.11-1.89a1,1,0,0,1,1.48.58l1.36,4.75a1,1,0,0,1-.69,1.24A.86.86,0,0,1,19.17,195.88Z"/><path class="cls-3" d="M41.54,237.93h-.17a1,1,0,0,1-.82-1.16l1-5.69a1,1,0,0,1,1.41-.73l4,1.89.76-4.4a1,1,0,0,1,.52-.72,1,1,0,0,1,.89,0l5.22,2.45a1,1,0,0,1,.48,1.33,1,1,0,0,1-1.33.48l-4-1.89-.76,4.4a1,1,0,0,1-1.41.73l-4-1.89-.76,4.4A1,1,0,0,1,41.54,237.93Z"/><path class="cls-3" d="M205.45,53l-.18,0-8.35-1.52a1,1,0,0,1-.72-1.41l3.1-6.47-7.06-1.29a1,1,0,0,1-.72-1.41l3.67-7.65a1,1,0,1,1,1.81.87l-3.11,6.46L201,41.85a1,1,0,0,1,.71.53,1,1,0,0,1,0,.89l-3.1,6.47L205.63,51a1,1,0,0,1-.18,2Z"/><path class="cls-3" d="M200.76,89a1,1,0,0,1-1-.76l-1.86-7.67a1,1,0,0,1,1-1.24l6.57.19L204,73.14a1,1,0,0,1,.19-.86,1,1,0,0,1,.81-.38l7.88.24a1,1,0,1,1-.06,2l-6.57-.19,1.56,6.39a1,1,0,0,1-.2.87,1,1,0,0,1-.8.37l-6.58-.19,1.55,6.4A1,1,0,0,1,201,89,1,1,0,0,1,200.76,89Z"/><path class="cls-3" d="M272.3,238.41l-.19,0a1,1,0,0,1-.7-.54l-2.77-5.56L264,236.43a1,1,0,0,1-.86.23,1,1,0,0,1-.7-.54l-3.34-6.73a1,1,0,0,1,.45-1.34,1,1,0,0,1,1.34.45l2.76,5.56,4.63-4.13a1,1,0,0,1,.85-.24,1,1,0,0,1,.71.54l2.77,5.56,4.63-4.13a1,1,0,1,1,1.33,1.49l-5.61,5A1,1,0,0,1,272.3,238.41Z"/><path class="cls-3" d="M97,152.71H96.8a1,1,0,0,1-.83-1.15l.09-.56-.56.07a1,1,0,0,1-1.1-1.16l.09-.56-.56.06a1,1,0,0,1-.22-2l1.87-.21a1,1,0,0,1,.83.31,1,1,0,0,1,.27.85l-.09.56.56-.07A1,1,0,0,1,98.24,150L98,151.87A1,1,0,0,1,97,152.71Z"/><path class="cls-3" d="M65.17,107a1.27,1.27,0,0,1-.38-.07,1,1,0,0,1-.55-1.31l.14-.34-.37,0a1,1,0,0,1-.81-1.36l.13-.35-.36,0a1,1,0,0,1,.22-2l1.67.19a1,1,0,0,1,.75.48,1,1,0,0,1,.07.89l-.14.34.37,0a1,1,0,0,1,.74.49,1,1,0,0,1,.07.88l-.62,1.56A1,1,0,0,1,65.17,107Z"/><path class="cls-3" d="M99.58,65.86h-.11a1,1,0,0,1-.88-1.1l.4-3.54-3.51.55a1,1,0,0,1-1.15-1.1l.4-3.54-3.52.54a1,1,0,1,1-.3-2l4.81-.74a1,1,0,0,1,.85.27,1,1,0,0,1,.3.83l-.4,3.54L100,59a1,1,0,0,1,.85.27,1,1,0,0,1,.3.84L100.58,65A1,1,0,0,1,99.58,65.86Z"/><path class="cls-3" d="M33.48,15.58h-.09a1,1,0,0,1-.91-1.09l.34-3.75a1,1,0,0,1,.46-.76,1,1,0,0,1,.88-.09l2.31.86.22-2.46a1,1,0,0,1,.46-.75,1,1,0,0,1,.89-.1l3.53,1.32a1,1,0,0,1-.7,1.88l-2.3-.86-.22,2.45a1,1,0,0,1-.46.75,1,1,0,0,1-.89.1l-2.3-.86-.22,2.45A1,1,0,0,1,33.48,15.58Z"/><path class="cls-3" d="M219.15,258a1,1,0,0,1-.56-.17l-7-4.74a1,1,0,0,1-.44-.77,1,1,0,0,1,.35-.82l5.41-4.61-5.87-4a1,1,0,0,1-.43-.77,1,1,0,0,1,.35-.82l6.4-5.45a1,1,0,0,1,1.3,1.53L213.3,242l5.87,4a1,1,0,0,1,.44.77,1.07,1.07,0,0,1-.35.82l-5.41,4.6,5.87,4a1,1,0,0,1-.57,1.82Z"/><path class="cls-3" d="M78.5,120a1,1,0,0,1-.91-.59l-.38-.85-.72.59a1,1,0,0,1-1.54-.36l-.38-.85-.72.59a1,1,0,0,1-1.41-.14,1,1,0,0,1,.14-1.4l1.73-1.43a1,1,0,0,1,.86-.2,1,1,0,0,1,.69.57l.38.84.71-.59a1,1,0,0,1,.87-.2,1,1,0,0,1,.68.57l.91,2a1,1,0,0,1-.5,1.32A1,1,0,0,1,78.5,120Z"/><path class="cls-3" d="M65.39,83.71h0l-4.69-.14a1,1,0,1,1,.06-2l3.39.1-.8-3.29a1,1,0,0,1,.2-.87,1,1,0,0,1,.8-.36l3.39.1L66.92,74a1,1,0,0,1,1.94-.47L70,78.06a1,1,0,0,1-.2.86,1,1,0,0,1-.81.37l-3.39-.1.8,3.29a1,1,0,0,1-.2.87A1,1,0,0,1,65.39,83.71Z"/><path class="cls-3" d="M8.67,64.76a1,1,0,0,1-.45-1.89l1.33-.67-1-1.11a1,1,0,0,1,.29-1.56l1.33-.68-1-1.11a1,1,0,0,1,1.48-1.34l1.89,2.08a1.06,1.06,0,0,1,.24.86,1,1,0,0,1-.54.71l-1.33.67,1,1.11a1,1,0,0,1-.29,1.56l-2.5,1.26A.91.91,0,0,1,8.67,64.76Z"/><path class="cls-3" d="M280.06,173l-.26,0a1,1,0,0,1-.7-1.23l.18-.67h-.69a1,1,0,0,1-1-1.26l.19-.67h-.7a1,1,0,0,1-1-1,1,1,0,0,1,1-1h2a1,1,0,0,1,1,1.27l-.18.67h.69a1,1,0,0,1,1,1.26l-.53,1.94A1,1,0,0,1,280.06,173Z"/><path class="cls-3" d="M265.88,146.52a1,1,0,0,1-.56-.17,1,1,0,0,1-.44-.77l-.1-1.85-1.75.59a1,1,0,0,1-.88-.13,1,1,0,0,1-.44-.77l-.17-3.15a1,1,0,1,1,2-.11l.11,1.84,1.75-.58a1,1,0,0,1,.87.12,1,1,0,0,1,.44.77l.1,1.85,1.76-.59a1,1,0,0,1,.63,1.9l-3,1A1.19,1.19,0,0,1,265.88,146.52Z"/><path class="cls-3" d="M169.05,213.66a1,1,0,0,1-.63-.22l-4.69-3.76a1,1,0,0,1-.16-1.4,1,1,0,0,1,1.41-.16l3.67,2.94,1.86-4.32a1,1,0,0,1,.68-.57,1,1,0,0,1,.86.19l3.68,2.94,1.86-4.32a1,1,0,1,1,1.84.79l-2.38,5.52a1,1,0,0,1-.68.58,1,1,0,0,1-.87-.19l-3.67-2.94L170,213.06a1,1,0,0,1-.68.57A1,1,0,0,1,169.05,213.66Z"/><path class="cls-3" d="M219.47,100.05a1,1,0,0,1-.35-.07l-8.74-3.3a1,1,0,0,1-.58-1.28,1,1,0,0,1,1.28-.59l7.52,2.84.74-8a1,1,0,0,1,1.35-.84l7.52,2.83.74-8a1,1,0,1,1,2,.18l-.87,9.31a1,1,0,0,1-1.35.84l-7.52-2.83-.74,8a1,1,0,0,1-.47.75A1,1,0,0,1,219.47,100.05Z"/><path class="cls-3" d="M195,280.65h-.13l-2.75-.38a1,1,0,0,1-.85-1.13,1,1,0,0,1,1.13-.85l1.44.2-.19-1.45a1,1,0,0,1,.29-.84,1,1,0,0,1,.84-.28l1.45.2-.19-1.45a1,1,0,1,1,2-.27l.36,2.75a1,1,0,0,1-.29.84,1,1,0,0,1-.84.28l-1.45-.19.2,1.45a1,1,0,0,1-1,1.13Z"/></pattern><clipPath id="clip-path"><path class="cls-1" d="M236.64,150.46,131.8,207.89c-1.47.88-5.08.11-5.9-1.26l-39-67.31c-.82-1.37-.58-5,.89-5.9L196.1,81.51c1.47-.88,5.84-2.36,7.75,3.48l33.81,58.12C239.24,145.77,238.11,149.57,236.64,150.46Z"/></clipPath><clipPath id="clip-path-2"><path class="cls-1" d="M119,103.44S136.33,92,153.77,96.06l2,2.45s-12.54,4.73-18.8,11Z"/></clipPath><clipPath id="clip-path-3"><path class="cls-1" d="M113.88,140.89s-13.77-33.24,2.81-37.45S153.91,110.15,154,110l-.05.15-8.36,12.36-28.21,22.56Z"/></clipPath><clipPath id="clip-path-4"><path class="cls-1" d="M217.47,132.41s-31.42-32.18-44.22-31.84c0,0-8.2.59,6.27,9.23,8.44,5,6.52,4.49,6.52,4.49s-15.42-10.28-20-8.38-2.53,4.22,3.58,6.61c5,2,11.69,7.44,14.13,9.18l-1.59-1.24c-4.39-2.6-21.27-12-24.09-10.33-3.19,1.94-2.75,3.5,1.23,5.56s21.67,11,22.54,12.81c0,0-20.58-13.39-23.13-10.58-3.9,4.29,18.85,12.62,19.65,15.49s-3.76,3.71-7.2,1-11.38-.58-1.19,5.22,10.86,10.47,28.74,7.79l10.86,8.07,17.73-16.25Z"/></clipPath><clipPath id="clip-path-5"><path class="cls-1" d="M285.28,112.18l-.14-.09a9.63,9.63,0,0,0-7.88-.75l-5.68,2a2.33,2.33,0,0,0,1.51,4.4l5.69-2a5.06,5.06,0,0,1,4.16.4l.15.08a3.79,3.79,0,0,1,1.54,4.91,4.92,4.92,0,0,1-2.88,2.58l-34.87,12a2.33,2.33,0,0,0,1.52,4.41l34.87-12a9.39,9.39,0,0,0,5.49-4.93,8.51,8.51,0,0,0-3.48-11"/></clipPath></defs><g id="Layer_2" data-name="Layer 2"><g id="Decorar_escritorio" data-name="Decorar escritorio"><path class="cls-4" d="M237.9,28.81.47,157.55,169.36,293.13,383,133.52C321.49,82.25,270.77,48.58,237.9,28.81Z"/><polygon class="cls-5" points="0 157.51 2.15 167.56 167.16 308.89 200.16 52.77 0 157.51"/><path class="cls-6" d="M348.23,106,169.31,293.11l-2.15,15.78L386.71,137.47C378.55,128.14,358.73,113.76,348.23,106Z"/><path class="cls-7" d="M246.85,152.77l-115,67.81a3.43,3.43,0,0,1-4.69-1.17L78.78,135.76c-1-1.61-.83-5.82.78-6.79l118-55.4c1.61-1,6.3-1.47,7.73,2.58l42.35,69.37C249.49,148.65,248.46,151.8,246.85,152.77Z"/><path class="cls-8" d="M236.64,150.46,131.8,207.89c-1.47.88-5.08.11-5.9-1.26l-39-67.31c-.82-1.37-.58-5,.89-5.9L196.1,81.51c1.47-.88,5.84-2.36,7.75,3.48l33.81,58.12C239.24,145.77,238.11,149.57,236.64,150.46Z"/><path class="cls-9" d="M129.11,219.34A4.49,4.49,0,0,0,131,222.9c2,1.7,61,40.07,61,40.07s2.63,1.89,6.29-.74L314.5,179.52l0-1.54-61.55-26.9-108,68.77Z"/><path class="cls-10" d="M137.36,212l3,2.21,5.14-3.36-3-2,94.68-53.91,2.6,2,4.14-2.45-1.82-1.87c-.26-2,4.13-4.25,5.6-4.85,5.38-2.19,9.48,1.5,14,3.79,5.59,2.84,11.16,5.73,16.75,8.56,6,3.07,12,6.25,18,9.32,2.94,1.49,5.9,3,8.88,4.38,2.57,1.22,6.75,2.28,8.69,4.18a90.64,90.64,0,0,1-9.08,6.68L296,191l-23.45,16.51-51.11,36q-11.61,8.19-23.24,16.37s-5.17,3.54-8.91-.26L130.45,221s-3-2.93-.09-5.11l2.41-1.34Z"/><path class="cls-11" d="M264.11,209.45,232,232.79c-1.73,1.43-4.53.81-7.27-.5L211,224.84c-1.43-1.73-5.92-2.16-2.79-4.48L248,193.9c1.73-1.43,4,0,5.46,1.72l8.74,8.89C264.51,206.73,265.83,208,264.11,209.45Z"/><polygon class="cls-7" points="171.89 237.74 144.91 220.81 256.16 155.09 282.64 169.56 171.89 237.74"/><g class="cls-12"><path class="cls-13" d="M119,103.44S136.33,92,153.77,96.06l2,2.45s-12.54,4.73-18.8,11Z"/><circle class="cls-14" cx="153.76" cy="96.21" r="6.2"/><g class="cls-15"><circle class="cls-8" cx="129.76" cy="101.35" r="1.59"/><circle class="cls-8" cx="123.13" cy="102.13" r="1.59"/><circle class="cls-8" cx="136.23" cy="104.34" r="1.59"/><circle class="cls-8" cx="137.28" cy="97.15" r="1.59"/><circle class="cls-8" cx="143.75" cy="97.87" r="1.59"/><circle class="cls-8" cx="146.3" cy="102.19" r="1.59"/></g><ellipse class="cls-16" cx="149.09" cy="143.94" rx="25.49" ry="28.15" transform="translate(-57.24 124.65) rotate(-38.65)"/><ellipse class="cls-16" cx="160.9" cy="119.74" rx="4.57" ry="5.58" transform="translate(24.1 266.42) rotate(-83.65)"/><ellipse class="cls-16" cx="121.91" cy="150.93" rx="5.58" ry="4.57" transform="translate(-41.57 255.41) rotate(-83.65)"/><path class="cls-13" d="M113.88,140.89s-13.77-33.24,2.81-37.45S153.91,110.15,154,110l-.05.15-8.36,12.36-28.21,22.56Z"/><g class="cls-17"><circle class="cls-8" cx="114.94" cy="121.37" r="1.59"/><circle class="cls-8" cx="115.99" cy="139.12" r="1.59"/><circle class="cls-8" cx="130.09" cy="130.11" r="1.59"/><circle class="cls-8" cx="122.41" cy="115.4" r="1.59"/><circle class="cls-8" cx="110.9" cy="132.76" r="1.59"/><circle class="cls-8" cx="126.17" cy="135.97" r="1.59"/><circle class="cls-8" cx="127.72" cy="122.04" r="1.59"/><circle class="cls-8" cx="118.87" cy="129.11" r="1.59"/><circle class="cls-8" cx="138.17" cy="120.93" r="1.59"/><circle class="cls-8" cx="147.02" cy="116.12" r="1.59"/><circle class="cls-8" cx="129.32" cy="109.87" r="1.59"/><circle class="cls-8" cx="140.27" cy="111.09" r="1.59"/><circle class="cls-8" cx="135.4" cy="114.07" r="1.59"/><circle class="cls-8" cx="150.55" cy="109.21" r="1.59"/><circle class="cls-8" cx="116.16" cy="110.42" r="1.59"/><circle class="cls-8" cx="109.36" cy="117.22" r="1.59"/><circle class="cls-8" cx="114.45" cy="105.45" r="1.59"/></g><circle cx="137.36" cy="146.48" r="2.21"/><circle cx="154.65" cy="133.24" r="2.21"/><path class="cls-14" d="M162.44,161c-2.88,2.57-6.84,4-10.13,2.73a2.87,2.87,0,0,1-1.6-1.71c-.19-1.19,1.6-1.54,2.46-1.91a27.22,27.22,0,0,0,6.2-3.59,19.59,19.59,0,0,0,2.7-2.53c.74-.86,1.24-1.94,2-2.76,1-1.05,1.74-.53,2.09.67C167.13,155.23,164.84,158.82,162.44,161Z"/><path class="cls-18" d="M148.29,139.58s2.44,11.94,6.88,10.19,3.29,4.55-1.4,4.72c0,0-4.2,4.27-2.45-2.57C151.32,151.92,142.72,136.76,148.29,139.58Z"/><ellipse class="cls-19" cx="139.71" cy="156.1" rx="6.36" ry="4.72" transform="translate(-69.46 144.52) rotate(-45)"/><ellipse class="cls-19" cx="162.17" cy="139.15" rx="6.36" ry="4.72" transform="translate(-50.89 155.44) rotate(-45)"/><path class="cls-20" d="M123.06,150s2.24,8.6,4.54,7.69-1.55-8.76.1-10.28,27.16-24.55,27.16-24.55L158,120.4s5.62,6.81,8.5,6.28c0,0,2.38-.84-6.38-8S123.06,150,123.06,150Z"/><path class="cls-14" d="M161.67,113.19a13.74,13.74,0,0,0-4.13-3.58c-.94-.49-2.63-1.42-3.69-.89-8.12,4.07-14.82,10-21.44,16.15-6.42,5.94-13,12.1-20.92,15.92-2.61,1.25-.55,4.76.74,6.32a14,14,0,0,0,4.13,3.58c1,.49,2.61,1.4,3.69.88,8.18-3.91,14.93-9.82,21.54-15.92,6.43-6,12.91-12.19,20.82-16.14C165,118.22,163,114.78,161.67,113.19Z"/><path class="cls-21" d="M141.63,207.74l.14-.06c-2.38.79-1.52.6-.65.27l.38-.15Z"/><path class="cls-21" d="M216.92,165a16,16,0,0,1,3.14-5.24l.09-.1a16.68,16.68,0,0,1,.4-2.87,13,13,0,0,1,5.92-7.7,11.1,11.1,0,0,1,4.17-1.53c-8.26-3.08-20.63,2.25-42,12.74a3.39,3.39,0,0,0-.36-3c-5-6.86-4-11.19-8.26-10.32s-11.63,18.49-28.34,24.16c0,0-6.88,3.26-1.21,7.78,3.15,2.51,3.61,5.82,4.16,7.86a288.75,288.75,0,0,0-19.12,22.46,28.52,28.52,0,0,1,7.5-2.39l.87-.15c1.66-.83,3.3-1.7,5-2.52a55.5,55.5,0,0,1,15.73-5.41q5.22-3.83,10.52-7.55,6.48-4.56,13-9a123.65,123.65,0,0,1,12.57-8.07c4.32-2.26,8.86-4.18,13-6.8,1-.65,2-1.38,3-2.1Z"/><path class="cls-22" d="M159.69,171l-5.4-.9a4.72,4.72,0,0,0-3.91,1.74,4,4,0,0,0-1.12,1.81c-.08.39,0,1.06.48,1.15l5.4.89a4.7,4.7,0,0,0,3.9-1.74,4.15,4.15,0,0,0,1.13-1.81C160.25,171.74,160.21,171.07,159.69,171Z"/><path class="cls-22" d="M169.63,162.94c-1-.92-2.79.23-3.59.9-.56.46-2.61,2.4-1.66,3.31a6,6,0,0,1,1.94,4.73c0,1.44,2.53.33,3,0,1.19-.75,2.52-1.93,2.56-3.43A7.4,7.4,0,0,0,169.63,162.94Z"/><path class="cls-22" d="M165.14,192.49a5.23,5.23,0,0,0,1.78-.83,1.14,1.14,0,0,0,.18.92c.69.94,1.33,1.91,1.93,2.9q2.72-1.95,5.44-3.87a35.89,35.89,0,0,0-2.12-3.23c-.56-.77-1.94-.36-3.17.48a40.73,40.73,0,0,0,2.6-6.88c.42-1.47-1.45-1.24-2.26-.89a5.77,5.77,0,0,0-3.25,3.3,34,34,0,0,1-2.5,6.39C163.17,192,163.87,192.78,165.14,192.49Z"/><path class="cls-22" d="M151.32,203a62.26,62.26,0,0,1,6.31-2.51.71.71,0,0,0-.17-.68,5.56,5.56,0,0,1-1.59-2.38c-.4-1.32-2.23-.52-3,0a6.69,6.69,0,0,0-1.93,1.74c-.29.43-.8,1.14-.63,1.69A8.12,8.12,0,0,0,151.32,203Z"/><path class="cls-22" d="M138.7,206.7a3.92,3.92,0,0,1,1.2.48,3.45,3.45,0,0,1,.28.26c.94-.26,1.9-.47,2.84-.65l.87-.15,1.6-.82a3.25,3.25,0,0,0,.33-.57,1.46,1.46,0,0,0,.09-1.47,4.6,4.6,0,0,0-2.66-1.78c-1.42-.32-3,.75-3.91,1.74a3.79,3.79,0,0,0-1.12,1.81C138.15,206,138.17,206.58,138.7,206.7Z"/><path class="cls-22" d="M162.62,180.89a8.81,8.81,0,0,1-5.82.23c-1.39-.39-3,.8-3.9,1.74-.45.47-2,2.57-.65,3a14.06,14.06,0,0,0,9.39-.72c1.3-.55,2.94-1.84,3.24-3.31S163.5,180.52,162.62,180.89Z"/><path class="cls-22" d="M181.91,174.39l-8.74-2.65c-1.38-.42-3,.81-3.91,1.74-.46.48-2,2.54-.64,3l8.74,2.65c1.38.42,3-.82,3.91-1.74C181.73,176.86,183.29,174.8,181.91,174.39Z"/><path class="cls-22" d="M190.1,158.76a6,6,0,0,0-3.72,3q-.3.75-.66,1.47l-.24-3.06c-.11-1.42-2.44-.4-3,0-1.07.68-2.68,2-2.56,3.43q.22,2.92.47,5.85c.11,1.37,2.28.45,2.95.05,1.19.22,3-1.16,3.58-1.84a24.74,24.74,0,0,0,4.56-7.15C191.94,159.29,191.45,158.45,190.1,158.76Z"/><path class="cls-22" d="M180.91,152.43a28.35,28.35,0,0,0-5.1,5.45c-.55.78-1.13,2.38.38,2.4s3.14-1.31,3.94-2.44a16.17,16.17,0,0,1,2.71-3c.73-.59,2.47-2.23,1.66-3.31S181.52,151.92,180.91,152.43Z"/><path class="cls-22" d="M180.16,146.28l-2.85,2.29c-.71.56-2.5,2.27-1.66,3.31s2.94-.37,3.59-.89l2.86-2.29c.7-.56,2.49-2.27,1.66-3.31S180.81,145.77,180.16,146.28Z"/><path class="cls-22" d="M173.69,154.47a4,4,0,0,0-2,.71,6.55,6.55,0,0,0-1.93,1.74,2.75,2.75,0,0,0-.63,1.68c0,.49.07,1,.11,1.47s.58.71,1,.72a4.12,4.12,0,0,0,2-.7,6.46,6.46,0,0,0,1.93-1.75,2.75,2.75,0,0,0,.63-1.68c0-.49-.07-1-.11-1.47S174.12,154.48,173.69,154.47Z"/><path class="cls-22" d="M162.51,164.23a1.45,1.45,0,0,0-.85,0,3.87,3.87,0,0,0-1,.43,5.16,5.16,0,0,0-1.1.71l-.66.6a5.23,5.23,0,0,0-.91,1.23c-.19.44-.43,1-.09,1.47l.51.64a.72.72,0,0,0,.6.28,1.49,1.49,0,0,0,.86,0,3.63,3.63,0,0,0,1-.43,5.12,5.12,0,0,0,1.1-.7l.66-.6a5,5,0,0,0,.91-1.24c.19-.44.43-1,.09-1.47l-.51-.64A.75.75,0,0,0,162.51,164.23Z"/><path class="cls-22" d="M160.66,173.35c-.67.56-2.5,2.26-1.66,3.31l2.54,3.17c.82,1,2.9-.31,3.59-.89s2.5-2.26,1.66-3.31l-2.54-3.18C163.43,171.43,161.35,172.77,160.66,173.35Z"/><path class="cls-22" d="M164.6,198.71l1.75-1.29h0l-.3.05h-.18l-.46,0h0l-.09,0a7.92,7.92,0,0,1-.78-.26,3.27,3.27,0,0,1-.66-.37c-1.07-.83-2.72.16-3.6.89a5.55,5.55,0,0,0-1.57,1.84,4.07,4.07,0,0,0-.24.66A45.1,45.1,0,0,1,164.6,198.71Z"/><path class="cls-22" d="M192.74,177.87a9,9,0,0,0,.85.5,74.77,74.77,0,0,1,6.41-3.93,10.12,10.12,0,0,1-2.71-1.27c-.42-.27-1.42.09-1.79.25a6.84,6.84,0,0,0-2.12,1.49C192.68,175.64,191.57,177.1,192.74,177.87Z"/><path class="cls-22" d="M212.4,160l-3.82-2.15c-.46-.26-1.39.07-1.79.24a6.87,6.87,0,0,0-2.12,1.5c-.62.68-1.88,2.26-.64,3l3.81,2.14c.46.26,1.39-.07,1.79-.24a6.45,6.45,0,0,0,2.12-1.5C212.38,162.3,213.63,160.72,212.4,160Z"/><path class="cls-22" d="M182.22,186.19c2-1.35,3.92-2.71,5.88-4.05l3.35-2.32a25,25,0,0,1-3-4.33c-.93-1.7-6.38,2.15-5.26,4.2q.34.63.72,1.23a6.85,6.85,0,0,0-1.05.7,5.55,5.55,0,0,0-1.57,1.84,1.66,1.66,0,0,0-.09,1.47A3.23,3.23,0,0,0,182.22,186.19Z"/><path class="cls-22" d="M220.34,157.87c.06-.38.13-.75.21-1.12a11.41,11.41,0,0,1,3-5.29l-.75-.81c-.91-1-2.84.27-3.59.9s-2.57,2.34-1.67,3.31Z"/><path class="cls-22" d="M215.65,147.66l-4.16.52a5.82,5.82,0,0,0-3.94,2.44,2.55,2.55,0,0,0-.63,1.69.92.92,0,0,0,1,.72l4.15-.52a5.86,5.86,0,0,0,3.95-2.44,2.55,2.55,0,0,0,.63-1.69A.92.92,0,0,0,215.65,147.66Z"/><path class="cls-22" d="M206.24,154.47l-2.69-2c-1.09-.81-2.7.14-3.6.89a5.67,5.67,0,0,0-1.57,1.84,3.41,3.41,0,0,0-.17.44l-.73-.91c-.82-1-2.9.32-3.59.89s-2.5,2.27-1.66,3.31l2.68,3.35c-.56.76-.79,1.55-.39,2.11a9.85,9.85,0,0,1,1.89,6.86c-.32,2.86,5.29-.42,5.51-2.41A12.18,12.18,0,0,0,200.3,161c.56-.7,1-1.52.48-2.13l-.67-.84c.29.22.58.44.88.65,1.08.81,2.69-.15,3.59-.89a5.55,5.55,0,0,0,1.57-1.84C206.31,155.58,206.66,154.78,206.24,154.47Z"/><path class="cls-22" d="M148.09,190.24a5.46,5.46,0,0,0-2.14,1.13,5.39,5.39,0,0,0-1.58,1.84,1.51,1.51,0,0,0-.08,1.47c.07.12.14.25.2.38a3.81,3.81,0,0,1,.21,1.25c0,.06,0,.11,0,.16a.93.93,0,0,0,.48,1.14,2.65,2.65,0,0,0,1.79-.24,6.87,6.87,0,0,0,2.12-1.5,3.87,3.87,0,0,0,1.12-1.81,5,5,0,0,0-.65-3.59C149.28,190,148.45,190.15,148.09,190.24Z"/><path class="cls-22" d="M226.47,149.05a11.56,11.56,0,0,1,4.76-1.62l.12-1.07a.81.81,0,0,0,0-.7.58.58,0,0,0-.43-.45,1.37,1.37,0,0,0-.8,0,2.67,2.67,0,0,0-1,.28A6.68,6.68,0,0,0,227,147l-.53.63a3.28,3.28,0,0,0-.59,1.18l-.09.79Z"/><path class="cls-22" d="M190.46,165.66c-.67.56-2.49,2.26-1.66,3.31a9,9,0,0,1,1.73,3.29c.38,1.34,2.26.51,3,0a6.53,6.53,0,0,0,1.92-1.74c.3-.44.79-1.13.63-1.69a11.67,11.67,0,0,0-2.05-4.09C193.23,163.73,191.15,165.08,190.46,165.66Z"/><path class="cls-23" d="M143,206.79h0a8.12,8.12,0,0,0,.45-.74c.64-1.18-.12-2-1.37-1.71a6.11,6.11,0,0,0-3.38,2.44,4.34,4.34,0,0,1-.88-.06c-1.42-.2-3.18,1.4-3.94,2.44a3.25,3.25,0,0,0-.59,1.31A25.83,25.83,0,0,1,143,206.79Z"/><path class="cls-23" d="M141.63,207.74l.14-.06c-2.38.79-1.52.6-.65.27l.38-.15Z"/><path class="cls-23" d="M148.26,195.14l3.11,5.85c.9,1.7,6.35-2.13,5.25-4.2s-2.07-3.9-3.11-5.85C152.61,189.24,147.16,193.07,148.26,195.14Z"/><path class="cls-23" d="M160.4,188.66c-.69.57-2.49,2.25-1.66,3.31a8.36,8.36,0,0,1,1.7,3.86c.37,2.21,5.94-1.29,5.58-3.41a10.35,10.35,0,0,0-2-4.65C163.18,186.73,161.08,188.09,160.4,188.66Z"/><path class="cls-23" d="M155.49,175.43l-1.78.38a6.49,6.49,0,0,0-3.72,3c-.18.4-.46,1.08-.08,1.47a1.5,1.5,0,0,0,1.45.24l1.78-.38a5.66,5.66,0,0,0,2.14-1.13,5.56,5.56,0,0,0,1.57-1.84c.18-.41.47-1.08.09-1.47A1.48,1.48,0,0,0,155.49,175.43Z"/><path class="cls-23" d="M173,171.16c-.94-.94-2.82.25-3.59.9-.58.48-2.6,2.37-1.66,3.31l2.89,2.89c.94.94,2.81-.25,3.59-.9.58-.48,2.59-2.37,1.66-3.31Z"/><path class="cls-23" d="M180.08,182.66a2.51,2.51,0,0,0-1.78.24l-1.53.7a7.14,7.14,0,0,0-2.12,1.49,4,4,0,0,0-1.12,1.81c-.07.45,0,1,.48,1.15a2.57,2.57,0,0,0,1.78-.25l1.53-.69a7.17,7.17,0,0,0,2.12-1.5,4,4,0,0,0,1.12-1.81C180.63,183.35,180.6,182.83,180.08,182.66Z"/><path class="cls-23" d="M180.32,165.44a7,7,0,0,0-1.93,1.74c-.3.42-.8,1.15-.63,1.69A27.89,27.89,0,0,0,180,174c.24.44,1.11.32,1.45.24a5.59,5.59,0,0,0,2.14-1.13c.82-.69,2.33-2.11,1.66-3.31a24.36,24.36,0,0,1-1.86-4.33C182.92,164.15,181.11,164.94,180.32,165.44Z"/><path class="cls-23" d="M176.27,160.4a6.49,6.49,0,0,0-3.72,3c-.19.44-.43,1-.08,1.47l.76.95c.33.41,1,.34,1.45.24a6.49,6.49,0,0,0,3.72-3c.19-.44.43-1,.08-1.47l-.76-1C177.39,160.23,176.7,160.3,176.27,160.4Z"/><path class="cls-23" d="M187.47,155.44a1.87,1.87,0,0,0-1.1,0,5.91,5.91,0,0,0-2.14,1.14l-.64.5a4.72,4.72,0,0,0-.92.92,3.73,3.73,0,0,0-.65.92,1.47,1.47,0,0,0-.23.83.74.74,0,0,0,.14.64l.36.25a1.88,1.88,0,0,0,1.1,0,5.88,5.88,0,0,0,2.14-1.13l.63-.51a5,5,0,0,0,.93-.91,3.79,3.79,0,0,0,.65-.93,1.5,1.5,0,0,0,.23-.82.77.77,0,0,0-.15-.65Z"/><path class="cls-23" d="M185.51,149.76a2,2,0,0,0-1.1,0l-.89.19a3.52,3.52,0,0,0-1,.43,4.88,4.88,0,0,0-1.1.7,5.34,5.34,0,0,0-.93.91,4,4,0,0,0-.64.93l-.22.57a1.06,1.06,0,0,0,.13.9l.35.25a2,2,0,0,0,1.1,0l.89-.19a3.69,3.69,0,0,0,1.05-.43,4.82,4.82,0,0,0,1.09-.7,5.34,5.34,0,0,0,.93-.91,4,4,0,0,0,.65-.93l.21-.57a1,1,0,0,0-.13-.9Z"/><path class="cls-23" d="M169.15,159.32a5.66,5.66,0,0,0-2.14,1.13,5.55,5.55,0,0,0-1.57,1.84c-.2.44-.44,1-.09,1.47l1,1.27c.33.41,1,.34,1.45.24a6.49,6.49,0,0,0,3.72-3c.19-.44.43-1,.08-1.47l-1-1.27C170.28,159.15,169.59,159.22,169.15,159.32Z"/><path class="cls-23" d="M181.5,180.56a15.44,15.44,0,0,1,3.78,3.52l2.82-1.94,2.72-1.89a18,18,0,0,0-4.77-4.38c-.43-.28-1.42.08-1.78.24a6.75,6.75,0,0,0-2.13,1.5C181.45,178.33,180.33,179.81,181.5,180.56Z"/><path class="cls-23" d="M200.67,174.07c.79-.41,1.59-.82,2.39-1.21l-.48-.28c-.43-.28-1.42.08-1.78.24a6.35,6.35,0,0,0-2.12,1.5,5.39,5.39,0,0,0-1,1.44C198.65,175.17,199.65,174.61,200.67,174.07Z"/><path class="cls-23" d="M208.23,170.3c1.85-.94,3.68-1.92,5.43-3l.35-.22-1.2-2.19c-.92-1.7-6.37,2.15-5.25,4.2Z"/><path class="cls-23" d="M216.92,165a15.48,15.48,0,0,1,2.56-4.53h-.11a1.46,1.46,0,0,0-.85.05,4,4,0,0,0-1.05.42,5.24,5.24,0,0,0-1.09.71l-.67.6a5.29,5.29,0,0,0-.91,1.24l-.21.57a1,1,0,0,0,.13.9l.25.32h0l.59.74,1.1-.8Z"/><path class="cls-23" d="M219.52,151.18l3.67.66a16.12,16.12,0,0,1,3.28-2.79,9.78,9.78,0,0,1,2.36-1.09c0-.33-.15-.65-.5-.71l-4.26-.77a4.69,4.69,0,0,0-3.91,1.74A4,4,0,0,0,219,150C219,150.43,219,151.08,219.52,151.18Z"/><path class="cls-23" d="M218.91,153.76l-2.22-.84a2.71,2.71,0,0,0-1.79.25,6.68,6.68,0,0,0-2.12,1.49,3.9,3.9,0,0,0-1.12,1.82c-.07.45,0,.94.48,1.14l2.22.83a2.62,2.62,0,0,0,1.78-.24,6.35,6.35,0,0,0,2.12-1.5,3.84,3.84,0,0,0,1.13-1.81C219.46,154.44,219.42,154,218.91,153.76Z"/><path class="cls-23" d="M206.71,164.55l-1.39-.45a2.72,2.72,0,0,0-1.79.24,6.55,6.55,0,0,0-2.12,1.5,3.82,3.82,0,0,0-1.12,1.81c-.07.44,0,1,.48,1.14l1.39.45A2.71,2.71,0,0,0,204,169a6.45,6.45,0,0,0,2.12-1.5,3.75,3.75,0,0,0,1.12-1.81C207.26,165.25,207.23,164.72,206.71,164.55Z"/><path class="cls-23" d="M207.25,154.09a2.45,2.45,0,0,0-1.78.24l-1.84,1a7.88,7.88,0,0,0-2.12,1.49,4.12,4.12,0,0,0-1.13,1.82c-.07.44,0,1,.48,1.14a2.51,2.51,0,0,0,1.78-.25l1.85-1a7.7,7.7,0,0,0,2.12-1.5,3.93,3.93,0,0,0,1.12-1.81C207.8,154.79,207.77,154.26,207.25,154.09Z"/><path class="cls-16" d="M217.47,132.41s-31.42-32.18-44.22-31.84c0,0-8.2.59,6.27,9.23,8.44,5,6.52,4.49,6.52,4.49s-15.42-10.28-20-8.38-2.53,4.22,3.58,6.61c5,2,11.69,7.44,14.13,9.18l-1.59-1.24c-4.39-2.6-21.27-12-24.09-10.33-3.19,1.94-2.75,3.5,1.23,5.56s21.67,11,22.54,12.81c0,0-20.58-13.39-23.13-10.58-3.9,4.29,18.85,12.62,19.65,15.49s-3.76,3.71-7.2,1-11.38-.58-1.19,5.22,10.86,10.47,28.74,7.79l10.86,8.07,17.73-16.25Z"/><g class="cls-24"><path class="cls-25" d="M210.14,132.08c-.18,2.62-3.31,4.46-5.15,6a95.05,95.05,0,0,1-8.52,6.3c-.94.62-2.87,2.07-2.56,3.43s2.35.47,3,0a109.86,109.86,0,0,0,11.57-8.69c2.8-2.42,6.86-5.43,7.15-9.46C215.86,126.76,210.28,130.09,210.14,132.08Z"/></g><path class="cls-21" d="M223.07,167.19c1.79-1.11,3.52-2.27,5.25-3.48.06-.07.13-.13.18-.18.57-.5,1.13-1,1.67-1.58,3.76-3.79,7.47-8.15,11.9-11.29l-25.14-22.23-22.68,19.88,22.91,22.44C219.13,169.55,221.11,168.39,223.07,167.19Z"/><path class="cls-23" d="M209.85,153a13.57,13.57,0,0,1-4.1-1.46c-1-.56-2.71-1.5-2.62-2.82.1-1.52-2.69-.31-3.18,0-1.29.79-2.59,2-2.69,3.61s1.53,2.77,2.77,3.6a13.54,13.54,0,0,0,5,2c1.53.29,3.09-.78,4.11-1.83C209.57,155.73,211.34,153.33,209.85,153Z"/><path class="cls-23" d="M211.16,158.15a61.51,61.51,0,0,0,8.25.49,5.62,5.62,0,0,0,3.87-2.22,20,20,0,0,1,2.61,8.2.73.73,0,0,0,.29.55c.71-.48,1.43-1,2.14-1.46.06-.07.13-.13.18-.18.57-.5,1.13-1,1.67-1.58s1-1,1.51-1.56a22.26,22.26,0,0,0-3.11-8.81c-.74-1.22-3.58.28-4.95,2a1.56,1.56,0,0,0-.46-.06,61.51,61.51,0,0,1-8.25-.49c-1.51-.19-3.35,1.46-4.15,2.57C210.07,156.57,209.62,158,211.16,158.15Z"/><path class="cls-23" d="M225.35,138.43a5.86,5.86,0,0,0-2.26,1.19c-.9.76-2.39,2.18-1.74,3.49a13.41,13.41,0,0,0,.8,1.38,2.56,2.56,0,0,0-1,.06,5.89,5.89,0,0,0-2.25,1.19,5.7,5.7,0,0,0-1.66,1.93,1.59,1.59,0,0,0-.09,1.55c.49.77,1,1.53,1.48,2.29.29.45,1.13.35,1.53.25a5.89,5.89,0,0,0,2.25-1.19,5.7,5.7,0,0,0,1.66-1.93,1.57,1.57,0,0,0,.09-1.55l-.44-.68c1,.66,2.82-.5,3.57-1.12a5.72,5.72,0,0,0,1.65-1.94c.19-.43.49-1.13.09-1.54a12.79,12.79,0,0,1-2.17-3.13C226.65,138.22,225.68,138.35,225.35,138.43Z"/><path class="cls-23" d="M212.89,137.82a7,7,0,0,0-2,1.83c-.3.44-.85,1.22-.66,1.78a23.06,23.06,0,0,1,1,4c.24,1.46,2.5.46,3.19,0a6.8,6.8,0,0,0,2-1.83,2.65,2.65,0,0,0,.67-1.78,23.09,23.09,0,0,0-1-4C215.6,136.47,213.75,137.27,212.89,137.82Z"/><path class="cls-23" d="M207.14,141l-2.06-.74a2.85,2.85,0,0,0-1.88.25,7,7,0,0,0-2.23,1.58,4.05,4.05,0,0,0-1.19,1.91c-.07.48,0,1,.51,1.2l2.05.74a2.84,2.84,0,0,0,1.88-.25,6.91,6.91,0,0,0,2.24-1.58,4,4,0,0,0,1.18-1.91C207.71,141.77,207.68,141.24,207.14,141Z"/><path class="cls-23" d="M215.77,129.17a1.6,1.6,0,0,0-1.53-.25,5.89,5.89,0,0,0-2.25,1.19,5.64,5.64,0,0,0-1.66,1.94c-.18.4-.51,1.18-.09,1.54l1.24,1.09a1.61,1.61,0,0,0,1.53.25,5.75,5.75,0,0,0,2.25-1.19,5.64,5.64,0,0,0,1.66-1.94c.18-.4.51-1.18.09-1.54Z"/><path class="cls-23" d="M221.08,130a5.89,5.89,0,0,0-2.25,1.19,5.64,5.64,0,0,0-1.66,1.94c-.2.46-.45,1.09-.09,1.54l1.36,1.7c.34.43,1.07.35,1.53.25a6.81,6.81,0,0,0,3.91-3.13c.2-.46.45-1.09.09-1.55l-1.36-1.69C222.27,129.86,221.54,129.93,221.08,130Z"/><path class="cls-23" d="M216.46,162.91a5.89,5.89,0,0,0-2.25,1.19,5.7,5.7,0,0,0-1.66,1.93c-.2.47-.45,1.09-.09,1.55l2,2.54c.35.44,1.08.36,1.53.25a5.86,5.86,0,0,0,2.26-1.19,5.78,5.78,0,0,0,1.65-1.93c.21-.46.46-1.09.09-1.55l-2-2.54C217.65,162.73,216.92,162.8,216.46,162.91Z"/><path class="cls-23" d="M239,144.35a.89.89,0,0,0-.71-.21,2.84,2.84,0,0,0-1,.21,4.26,4.26,0,0,0-1.12.53,7,7,0,0,0-2,1.83l-.4.65a2,2,0,0,0-.26,1.13l.3.8a.6.6,0,0,0,.35.55.88.88,0,0,0,.71.21,2.84,2.84,0,0,0,1-.21,4.41,4.41,0,0,0,1.12-.53,7,7,0,0,0,2-1.83l.4-.65a2,2,0,0,0,.26-1.13l-.3-.8A.62.62,0,0,0,239,144.35Z"/><path class="cls-23" d="M233.88,157.25a2.13,2.13,0,0,0,.75.07c1.54-1.59,3.11-3.15,4.78-4.58a.79.79,0,0,0-.15-.34l-.37-.26a2,2,0,0,0-1.16,0l-.72.25a6.9,6.9,0,0,0-1.54.94l-.21.17a5.57,5.57,0,0,0-1,1,4.19,4.19,0,0,0-.68,1,1.58,1.58,0,0,0-.24.86.76.76,0,0,0,.15.68Z"/><path class="cls-22" d="M201.24,145.43c-.21-.11-.41-.23-.6-.35a7,7,0,0,1-1.17-1.14c-.34-.44-1.07-.36-1.53-.26a6,6,0,0,0-2.25,1.2,5.7,5.7,0,0,0-1.66,1.93c-.2.46-.45,1.09-.09,1.55a7.64,7.64,0,0,0,2.51,2,2.73,2.73,0,0,0,1.88-.26,6.84,6.84,0,0,0,2.23-1.57C201.19,147.86,202.57,146.11,201.24,145.43Z"/><path class="cls-22" d="M212.27,143.34a5.89,5.89,0,0,0-2.25,1.19,5.64,5.64,0,0,0-1.66,1.94c-.2.46-.46,1.09-.09,1.54l.84,1.06-.09,0a7.47,7.47,0,0,0-2.24,1.58,4.25,4.25,0,0,0-1.18,1.9c-.07.47,0,1,.51,1.21a2.71,2.71,0,0,0,1.87-.26l2-.92a7.3,7.3,0,0,0,2.23-1.58,4.18,4.18,0,0,0,1.19-1.9,1,1,0,0,0-.38-1.15,5.48,5.48,0,0,0,1.5-1.79c.2-.47.45-1.09.09-1.55l-.85-1.06C213.45,143.16,212.73,143.23,212.27,143.34Z"/><path class="cls-22" d="M209.68,131.86a6,6,0,0,0-2.25,1.2c-.87.72-2.45,2.21-1.75,3.48l1.46,2.64-.24.19a5.84,5.84,0,0,0-1.66,1.94l-.22.6a1.1,1.1,0,0,0,.13,1l.47,1a.8.8,0,0,0,.63.3,1.54,1.54,0,0,0,.9,0,4,4,0,0,0,1.1-.44,5.41,5.41,0,0,0,1.15-.75,5.7,5.7,0,0,0,1.66-1.93l.22-.61a1,1,0,0,0-.13-.94l-.24-.52.27-.21c.87-.72,2.45-2.21,1.75-3.48l-1.72-3.12C211,131.66,210,131.78,209.68,131.86Z"/><path class="cls-22" d="M212.54,156.55a2,2,0,0,0-1.16,0,6.26,6.26,0,0,0-2.25,1.19,7.76,7.76,0,0,0-.8.72,8.42,8.42,0,0,0-.61.73,4.92,4.92,0,0,0-.74,1.44,2.63,2.63,0,0,0-.09.79.82.82,0,0,0,0,.31.6.6,0,0,0,.36.54.85.85,0,0,0,.71.22,2.59,2.59,0,0,0,1-.22,4.29,4.29,0,0,0,1.13-.52,6.94,6.94,0,0,0,2-1.83l.4-.65a2,2,0,0,0,.26-.87l0,0a1.6,1.6,0,0,0,.25-.87.81.81,0,0,0-.16-.68Z"/><path class="cls-22" d="M216.39,160.25l-1.4.42a6.5,6.5,0,0,0-2.25,1.19,5.83,5.83,0,0,0-1.66,1.93c-.19.43-.49,1.14-.09,1.55a1.53,1.53,0,0,0,1.53.25l1.4-.41a6.55,6.55,0,0,0,2.26-1.19,5.93,5.93,0,0,0,1.65-1.94c.19-.42.49-1.14.09-1.54A1.53,1.53,0,0,0,216.39,160.25Z"/><path class="cls-22" d="M223.07,167.19c.71-.44,1.41-.9,2.1-1.35l-1.25-.14a2.63,2.63,0,0,0-1,.21,4,4,0,0,0-1.12.53,6.7,6.7,0,0,0-2,1.83l-.4.65a2,2,0,0,0-.23.64C220.45,168.77,221.77,168,223.07,167.19Z"/><path class="cls-22" d="M224.3,156.64a5.75,5.75,0,0,0-2.25,1.19,5.64,5.64,0,0,0-1.66,1.94c-.21.46-.46,1.09-.09,1.54l2.2,2.76c.35.43,1.07.35,1.53.25a5.89,5.89,0,0,0,2.25-1.19,5.83,5.83,0,0,0,1.66-1.94c.2-.46.46-1.09.09-1.55l-2.2-2.75C225.48,156.46,224.75,156.53,224.3,156.64Z"/><path class="cls-22" d="M230.78,147.29a6,6,0,0,0-2.26,1.2,5.78,5.78,0,0,0-1.65,1.93,1.57,1.57,0,0,0-.09,1.55l1.64,2.51c.29.44,1.13.34,1.53.25a6,6,0,0,0,2.25-1.19,5.83,5.83,0,0,0,1.66-1.94,1.56,1.56,0,0,0,.09-1.55l-1.64-2.5C232,147.1,231.18,147.2,230.78,147.29Z"/><path class="cls-22" d="M223.25,148.08a1.54,1.54,0,0,0-.9,0,4.24,4.24,0,0,0-1.1.45,5.41,5.41,0,0,0-1.15.75l-.7.63a5.27,5.27,0,0,0-1,1.3l-.23.61a1.08,1.08,0,0,0,.14.94l.17.21a.8.8,0,0,0,.63.3,1.54,1.54,0,0,0,.9-.05,3.65,3.65,0,0,0,1.1-.45,5,5,0,0,0,1.15-.74l.7-.63a5.27,5.27,0,0,0,1-1.3l.23-.61a1.08,1.08,0,0,0-.14-.94l-.17-.21A.8.8,0,0,0,223.25,148.08Z"/><path class="cls-22" d="M222.86,140l-.55-.25a1.42,1.42,0,0,0-.84,0,2.94,2.94,0,0,0-1,.29,5.36,5.36,0,0,0-1.15.68,5.74,5.74,0,0,0-1.08.9l-.56.66a3.41,3.41,0,0,0-.62,1.25l0,.52a.81.81,0,0,0,.54.68l.55.25a1.5,1.5,0,0,0,.84,0,2.71,2.71,0,0,0,1-.3,4.74,4.74,0,0,0,1.15-.67,5.17,5.17,0,0,0,1.08-.9l.56-.66a3.6,3.6,0,0,0,.63-1.25c0-.17,0-.35,0-.53A.8.8,0,0,0,222.86,140Z"/><path class="cls-22" d="M231.92,140.12a6.81,6.81,0,0,0-3.91,3.13c-.2.46-.45,1.09-.09,1.55l1.53,1.9c.34.43,1.07.36,1.53.25a5.89,5.89,0,0,0,2.25-1.19,5.7,5.7,0,0,0,1.66-1.93c.2-.47.45-1.09.09-1.55l-1.53-1.91C233.11,139.94,232.38,140,231.92,140.12Z"/><path class="cls-22" d="M234.29,157.68a6.91,6.91,0,0,0-1.55,1,5.81,5.81,0,0,0-1.66,1.93,5.1,5.1,0,0,0-.24.67C232,160.09,233.13,158.88,234.29,157.68Z"/><path class="cls-22" d="M230.29,135.76l-2.79-.92a2.8,2.8,0,0,0-1.88.26,7,7,0,0,0-2.23,1.57c-.5.54-2.12,2.64-.68,3.11l2.78.92a2.85,2.85,0,0,0,1.88-.25,6.91,6.91,0,0,0,2.24-1.58C230.1,138.33,231.73,136.24,230.29,135.76Z"/></g><g class="cls-26"><path class="cls-27" d="M245.48,138.65a2.3,2.3,0,0,1,1.4-2.94l34.87-12a4.92,4.92,0,0,0,2.88-2.58,3.79,3.79,0,0,0-1.54-4.91l-.15-.08a5.06,5.06,0,0,0-4.16-.4l-5.69,2a2.33,2.33,0,0,1-1.51-4.4l5.68-2a9.63,9.63,0,0,1,7.88.75l.14.09a8.51,8.51,0,0,1,3.48,11,9.39,9.39,0,0,1-5.49,4.93l-34.87,12a2.31,2.31,0,0,1-2.92-1.47"/><path class="cls-28" d="M249.52,140.27s-4.38-.34-4.74-4.1l1.57-.54s.39,3.16,5,3.75Z"/><path class="cls-28" d="M254.62,138.52s-4.38-.34-4.74-4.1l1.57-.55s.39,3.17,5,3.75Z"/><path class="cls-28" d="M259.72,136.77s-4.38-.34-4.74-4.11l1.57-.54s.39,3.17,5,3.75Z"/><path class="cls-28" d="M264.82,135s-4.38-.34-4.74-4.1l1.57-.54s.39,3.16,5,3.75Z"/><path class="cls-28" d="M269.92,133.26s-4.38-.34-4.74-4.11l1.58-.54s.38,3.17,5,3.75Z"/><path class="cls-28" d="M275,131.5s-4.38-.33-4.74-4.1l1.58-.54s.38,3.17,5,3.75Z"/><path class="cls-28" d="M280.13,129.75s-4.39-.34-4.74-4.1l1.57-.54s.38,3.16,5,3.75Z"/><path class="cls-28" d="M285.66,127.4l-.14,0-.4.06a4.68,4.68,0,0,1-1.28,0,3.65,3.65,0,0,1-2.69-1.69s-.06-.08-.09-.13-.07-.1-.1-.16a2.5,2.5,0,0,1-.25-.55,1.58,1.58,0,0,1-.09-.31,1.14,1.14,0,0,1-.06-.33v-.22s0-.06,0-.09l0,0s0,0,0,0v0a5.73,5.73,0,0,0,.57-.21c.31-.12.61-.26.61-.26a3,3,0,0,0,.19.48,4.24,4.24,0,0,0,.75,1.08,3.55,3.55,0,0,0,1.69,1,4.1,4.1,0,0,0,1.36.12,5,5,0,0,0,1.79-.5,9.85,9.85,0,0,1-.9,1c-.47.46-1,.85-1,.85"/><path class="cls-28" d="M290,121.37l0,.07-.09.18a4.76,4.76,0,0,1-.4.58,4,4,0,0,1-1.6,1.2,2.77,2.77,0,0,1-2.06,0,4.47,4.47,0,0,1-1.82-1.54s.17-.2.31-.39.13-.19.16-.27l.07-.11.44.25a3.89,3.89,0,0,0,1.22.43,2.54,2.54,0,0,0,.87,0,2.57,2.57,0,0,0,1-.41,2.84,2.84,0,0,0,.51-.43,3.24,3.24,0,0,0,.48-.64,4.45,4.45,0,0,0,.39-.85,3.65,3.65,0,0,0,.14-.5,3.35,3.35,0,0,0,.11-.55l0,.12a2.24,2.24,0,0,1,.08.31c0,.14.06.3.1.47s.05.36.07.55l0,.28v.28c0,.18,0,.35,0,.5Z"/><path class="cls-28" d="M288.18,114.17s0,.09.07.25a5.22,5.22,0,0,1,.09.63,5.28,5.28,0,0,1,0,.89,4.21,4.21,0,0,1-.21,1,3.25,3.25,0,0,1-1.2,1.65,4.46,4.46,0,0,1-2.27.63v0a1,1,0,0,0,0-.12l-.11-.36-.15-.41-.08-.17a4.13,4.13,0,0,0,.48-.18,4,4,0,0,0,1.07-.71,3,3,0,0,0,.56-.68,2.84,2.84,0,0,0,.24-.46,4,4,0,0,0,.16-.55,3.41,3.41,0,0,0,.08-.66,3.6,3.6,0,0,0-.06-.78,4.83,4.83,0,0,0-.74-1.85l.37.26c.21.17.51.39.77.64s.26.25.37.37l.32.34.28.34"/><path class="cls-28" d="M281.76,110.22a4.44,4.44,0,0,1,.79.46,4.3,4.3,0,0,1,1.32,1.46,2.88,2.88,0,0,1,.29,2.07,4.85,4.85,0,0,1-1.27,2l-.12-.09a2.76,2.76,0,0,0-.27-.16,3.84,3.84,0,0,0-.41-.18s.08-.18.18-.48a4,4,0,0,0,.24-1.28,3,3,0,0,0-.63-1.86,3.71,3.71,0,0,0-1.06-1,5.23,5.23,0,0,0-1.81-.66l.42-.11c.26,0,.59-.12.94-.16a8.49,8.49,0,0,1,.95-.06c.26,0,.44,0,.44,0"/><path class="cls-28" d="M275.4,111.46a7.07,7.07,0,0,1,2.23.64,5.32,5.32,0,0,1,.85.51,3.46,3.46,0,0,1,.75.73,3.13,3.13,0,0,1,.43,1c.11.39.14.82.25,1.26l-1.34.47s-.39-3.17-5-3.75Z"/><path class="cls-28" d="M270.3,113.22s4.38.33,4.74,4.1l-1.58.54s-.38-3.17-5-3.75Z"/></g><path class="cls-29" d="M277,51.79s-43.16-7.19-54.67,9.59c0,0-2.4,19.34,0,28.61s5.75,13.59,17.26,13.59,38.85,4.8,44.12-8.15c0,0,2.4-27.33,1.44-31.17S284.66,58,277,51.79Z"/><path class="cls-30" d="M285.14,64.26c-1-3.84-.48-6.23-8.15-12.47A137.43,137.43,0,0,0,253.7,50.3a136,136,0,0,1,17.06,1.49c7.67,6.24,7.19,8.63,8.15,12.47s-1.44,31.17-1.44,31.17c-2.74,6.73-11.44,8.67-20.78,9,11.43.32,23.67-.75,27-9C283.7,95.43,286.1,68.1,285.14,64.26Z"/><path class="cls-31" d="M275.85,55.87A5.4,5.4,0,0,0,274,55c-6.9-1.78-15.75-.61-22.85-.36-4.16.15-16.22-.17-17.75,5.32-2.4,8.64,4.8,12,24.94,8.16A101.66,101.66,0,0,1,272,66.56c1.76-.1,5.85.36,7.27-1s.34-3.37-.4-5C278,58.67,277.29,56.94,275.85,55.87Z"/><circle class="cls-32" cx="226.16" cy="72.41" r="1.92"/><circle class="cls-32" cx="249.18" cy="89.68" r="1.92"/><circle class="cls-32" cx="261.64" cy="98.79" r="1.92"/><circle class="cls-32" cx="265.48" cy="84.88" r="1.92"/><circle class="cls-32" cx="277.47" cy="84.88" r="1.92"/><circle class="cls-32" cx="234.79" cy="84.88" r="1.92"/><circle class="cls-32" cx="248.7" cy="75.29" r="1.92"/><circle class="cls-32" cx="275.55" cy="96.87" r="1.92"/><circle class="cls-32" cx="283.22" cy="69.53" r="1.92"/><circle class="cls-32" cx="228.07" cy="59.94" r="1.92"/><circle class="cls-32" cx="271.71" cy="77.21" r="1.92"/><circle class="cls-32" cx="232.87" cy="96.87" r="1.92"/><path class="cls-8" d="M240.88,59.94S225.2,35.39,230,16.26l2.92-14.73s19.15,53.24,16.27,61.34C249.18,62.87,243.14,65.7,240.88,59.94Z"/><path class="cls-33" d="M233.52,6.16h0a.17.17,0,0,1-.14-.2l.18-1.23.29.94a.16.16,0,0,1-.11.21l0,.13A.17.17,0,0,1,233.52,6.16Z"/><path class="cls-33" d="M247.2,61.33h0a.18.18,0,0,1-.16-.19q0-.24,0-.51a.18.18,0,1,1,.35,0c0,.19,0,.37,0,.53A.18.18,0,0,1,247.2,61.33Zm0-1.22a.17.17,0,0,1-.18-.17c0-.22,0-.44,0-.68a.19.19,0,0,1,.17-.19.18.18,0,0,1,.18.17q0,.36,0,.69a.17.17,0,0,1-.17.18Zm-.08-1.38a.18.18,0,0,1-.18-.16l-.06-.69a.18.18,0,0,1,.15-.19.17.17,0,0,1,.19.16c0,.23.05.47.07.69a.17.17,0,0,1-.16.19ZM247,57.35a.16.16,0,0,1-.17-.15l-.09-.69a.17.17,0,0,1,.34,0q0,.36.09.69a.17.17,0,0,1-.15.2ZM246.82,56a.17.17,0,0,1-.17-.15c0-.22-.07-.45-.11-.68a.17.17,0,0,1,.15-.2.18.18,0,0,1,.2.14c0,.23.07.46.1.69a.16.16,0,0,1-.14.19Zm-.22-1.37a.17.17,0,0,1-.17-.15l-.12-.68a.18.18,0,0,1,.14-.2.17.17,0,0,1,.2.14l.12.68a.18.18,0,0,1-.14.21Zm-.24-1.37a.16.16,0,0,1-.17-.14l-.13-.68a.17.17,0,1,1,.34-.06l.13.68a.18.18,0,0,1-.14.2Zm-.26-1.36a.16.16,0,0,1-.17-.14l-.14-.68a.17.17,0,0,1,.34-.07l.14.68a.17.17,0,0,1-.14.21Zm-.28-1.36a.17.17,0,0,1-.17-.13l-.14-.68a.17.17,0,1,1,.34-.07l.14.67a.18.18,0,0,1-.13.21Zm-.29-1.35a.18.18,0,0,1-.17-.14l-.14-.67a.18.18,0,0,1,.13-.21.18.18,0,0,1,.21.13l.15.68a.17.17,0,0,1-.14.2Zm-.29-1.35a.18.18,0,0,1-.17-.14l-.15-.68a.17.17,0,1,1,.33-.07l.16.67a.18.18,0,0,1-.13.21Zm-.31-1.36a.17.17,0,0,1-.17-.13l-.16-.68a.17.17,0,0,1,.13-.2.16.16,0,0,1,.21.13l.16.67a.18.18,0,0,1-.13.21Zm-.31-1.35a.17.17,0,0,1-.17-.13l-.16-.67a.16.16,0,0,1,.13-.21.17.17,0,0,1,.21.13l.16.67a.18.18,0,0,1-.13.21Zm-.33-1.34a.17.17,0,0,1-.16-.14L244,43a.18.18,0,0,1,.13-.21.17.17,0,0,1,.21.13l.16.67a.16.16,0,0,1-.12.21ZM244,42.42a.17.17,0,0,1-.17-.13l-.17-.67a.18.18,0,0,1,.13-.21.17.17,0,0,1,.21.12l.17.68a.19.19,0,0,1-.13.21Zm-.34-1.34a.18.18,0,0,1-.17-.14l-.16-.67a.17.17,0,0,1,.12-.21.17.17,0,0,1,.21.13l.17.67a.17.17,0,0,1-.12.21Zm-.34-1.35a.17.17,0,0,1-.16-.13l-.18-.67a.18.18,0,0,1,.13-.21.17.17,0,0,1,.21.12l.17.68a.17.17,0,0,1-.12.21ZM243,38.39a.17.17,0,0,1-.17-.13l-.17-.67a.17.17,0,0,1,.12-.21.18.18,0,0,1,.22.12l.17.67a.18.18,0,0,1-.13.22Zm-.35-1.34a.18.18,0,0,1-.17-.13l-.17-.67a.17.17,0,0,1,.12-.21.18.18,0,0,1,.22.12l.17.67a.17.17,0,0,1-.12.21Zm-.35-1.34a.17.17,0,0,1-.17-.13l-.17-.67a.17.17,0,1,1,.33-.09l.18.67a.17.17,0,0,1-.12.21Zm-.35-1.34a.17.17,0,0,1-.17-.13l-.18-.67a.17.17,0,1,1,.33-.09l.18.67a.17.17,0,0,1-.12.21ZM241.54,33a.17.17,0,0,1-.17-.13l-.18-.67a.17.17,0,1,1,.33-.09l.18.67a.17.17,0,0,1-.12.21Zm-.37-1.34a.19.19,0,0,1-.17-.13l-.18-.67a.18.18,0,0,1,.12-.21.19.19,0,0,1,.22.12l.18.67a.17.17,0,0,1-.12.21Zm-.36-1.33a.17.17,0,0,1-.17-.13l-.18-.67a.17.17,0,0,1,.12-.21.17.17,0,0,1,.21.12l.19.67a.17.17,0,0,1-.13.21ZM240.44,29a.17.17,0,0,1-.17-.12l-.18-.67a.18.18,0,0,1,.12-.22.17.17,0,0,1,.21.13l.19.66a.19.19,0,0,1-.12.22Zm-.37-1.33a.17.17,0,0,1-.17-.13l-.19-.66a.18.18,0,0,1,.13-.22.17.17,0,0,1,.21.12l.19.67a.17.17,0,0,1-.12.21Zm-.38-1.33a.17.17,0,0,1-.16-.13l-.19-.67a.17.17,0,0,1,.12-.21.16.16,0,0,1,.21.12l.19.66a.18.18,0,0,1-.12.22ZM239.32,25a.17.17,0,0,1-.17-.13l-.19-.66a.19.19,0,0,1,.12-.22.19.19,0,0,1,.22.12l.19.67a.19.19,0,0,1-.12.22Zm-.38-1.33a.17.17,0,0,1-.17-.13l-.19-.66a.18.18,0,1,1,.34-.1l.19.67a.17.17,0,0,1-.12.21Zm-.38-1.33a.17.17,0,0,1-.17-.13l-.19-.66a.18.18,0,0,1,.12-.22.17.17,0,0,1,.21.12l.2.66a.19.19,0,0,1-.12.22ZM238.17,21a.17.17,0,0,1-.16-.13l-.2-.67a.18.18,0,0,1,.12-.21.18.18,0,0,1,.22.12l.19.66a.17.17,0,0,1-.12.22Zm-.38-1.34a.16.16,0,0,1-.17-.12l-.19-.67a.16.16,0,0,1,.12-.21.16.16,0,0,1,.21.12l.2.66a.19.19,0,0,1-.12.22Zm-.39-1.33a.18.18,0,0,1-.17-.12l-.19-.67a.16.16,0,0,1,.12-.21.16.16,0,0,1,.21.12l.2.66a.18.18,0,0,1-.12.22ZM237,17a.18.18,0,0,1-.17-.12l-.19-.66a.17.17,0,0,1,.12-.22.16.16,0,0,1,.21.12l.2.66a.18.18,0,0,1-.12.22Zm-.39-1.32a.17.17,0,0,1-.17-.13l-.19-.66a.17.17,0,0,1,.11-.22.17.17,0,0,1,.22.12l.2.66a.19.19,0,0,1-.12.22Zm-.39-1.33a.17.17,0,0,1-.17-.13l-.2-.66a.18.18,0,0,1,.12-.22.17.17,0,0,1,.21.12l.2.66a.17.17,0,0,1-.12.22Zm-.4-1.33a.17.17,0,0,1-.17-.13l-.2-.66a.18.18,0,1,1,.34-.1l.2.66a.19.19,0,0,1-.12.22Zm-.4-1.33a.19.19,0,0,1-.17-.12l-.2-.67a.18.18,0,0,1,.34-.1l.2.67a.17.17,0,0,1-.12.21Zm-.4-1.33a.19.19,0,0,1-.17-.12l-.2-.66A.18.18,0,0,1,235,9.5l.2.67a.19.19,0,0,1-.12.22Zm-.4-1.33a.16.16,0,0,1-.17-.12l-.19-.64.15-.07.17-.05-.17.05.18,0,.19.64a.18.18,0,0,1-.11.22Zm-.41-1.32a.17.17,0,0,1-.16-.13L233.85,7a.17.17,0,0,1,.12-.22.17.17,0,0,1,.21.12l.21.66a.18.18,0,0,1-.12.22Z"/><path class="cls-33" d="M247.1,62.39l-.19-.15-.17-.14a.17.17,0,0,1,0-.24.19.19,0,0,1,.21,0c0-.06,0-.13.05-.2a.16.16,0,0,1,.2-.14.17.17,0,0,1,.14.2,4.29,4.29,0,0,1-.13.49Z"/><path class="cls-33" d="M245.93,61.35a.17.17,0,0,1-.12,0c-.16-.15-.33-.3-.51-.48a.17.17,0,0,1,0-.24.18.18,0,0,1,.25,0l.5.47a.16.16,0,0,1,0,.24A.19.19,0,0,1,245.93,61.35Zm-1-1a.18.18,0,0,1-.12,0l-.49-.5a.17.17,0,0,1,.25-.24l.48.49a.18.18,0,0,1,0,.25A.17.17,0,0,1,244.92,60.4Zm-.95-1a.16.16,0,0,1-.13-.06l-.47-.52a.18.18,0,1,1,.27-.23l.45.52a.16.16,0,0,1,0,.24A.16.16,0,0,1,244,59.4Zm-.91-1a.17.17,0,0,1-.13-.07c-.15-.18-.29-.36-.43-.55a.17.17,0,0,1,0-.24.18.18,0,0,1,.25,0q.21.28.42.54a.18.18,0,0,1,0,.25A.21.21,0,0,1,243.06,58.35Zm-.83-1.11a.16.16,0,0,1-.14-.07c-.14-.19-.27-.39-.39-.58a.17.17,0,0,1,.29-.19l.38.57a.17.17,0,0,1,0,.24A.19.19,0,0,1,242.23,57.24Zm-.75-1.16a.16.16,0,0,1-.15-.09c-.12-.2-.23-.4-.34-.61a.17.17,0,0,1,.3-.16c.11.2.22.4.34.6a.16.16,0,0,1-.06.23A.16.16,0,0,1,241.48,56.08Zm-.65-1.23a.17.17,0,0,1-.16-.1c-.1-.21-.19-.42-.28-.64a.18.18,0,1,1,.33-.13q.12.32.27.63a.18.18,0,0,1-.09.23Zm-.62-1.24a.18.18,0,0,1-.15-.08l-.35-.61a.18.18,0,0,1,.07-.23.18.18,0,0,1,.24.06c.13.24.24.44.34.6a.18.18,0,0,1-.06.24A.15.15,0,0,1,240.21,53.61Zm-.68-1.2a.22.22,0,0,1-.16-.09L239,51.7a.18.18,0,0,1,.07-.23.17.17,0,0,1,.24.07c.11.22.22.42.33.61a.17.17,0,0,1-.07.23A.13.13,0,0,1,239.53,52.41Zm-.66-1.23a.17.17,0,0,1-.16-.09l-.32-.61a.18.18,0,0,1,.08-.24.17.17,0,0,1,.23.08l.32.61a.17.17,0,0,1-.07.23A.12.12,0,0,1,238.87,51.18ZM238.23,50a.19.19,0,0,1-.16-.09c-.1-.2-.2-.41-.31-.62a.18.18,0,0,1,.08-.24.18.18,0,0,1,.23.08c.11.21.21.42.32.62a.18.18,0,0,1-.08.23A.12.12,0,0,1,238.23,50Zm-.62-1.24a.16.16,0,0,1-.15-.1l-.31-.62a.17.17,0,0,1,.09-.23.16.16,0,0,1,.23.08l.3.62a.17.17,0,0,1-.08.23A.12.12,0,0,1,237.61,48.71ZM237,47.46a.18.18,0,0,1-.16-.1c-.1-.21-.2-.42-.29-.63a.17.17,0,0,1,.08-.23.17.17,0,0,1,.23.09l.29.62a.17.17,0,0,1-.08.23A.11.11,0,0,1,237,47.46Zm-.58-1.26a.18.18,0,0,1-.16-.1c-.09-.21-.19-.42-.28-.64a.18.18,0,0,1,.09-.23.18.18,0,0,1,.23.09c.09.22.18.43.28.64a.18.18,0,0,1-.09.23Zm-.56-1.27a.18.18,0,0,1-.16-.1l-.27-.64a.17.17,0,1,1,.32-.14l.27.64a.17.17,0,0,1-.09.23Zm-.53-1.28a.19.19,0,0,1-.17-.1c-.08-.22-.17-.43-.26-.65a.17.17,0,0,1,.1-.22.17.17,0,0,1,.23.09c.08.22.17.43.26.64a.19.19,0,0,1-.1.23Zm-.52-1.28a.17.17,0,0,1-.16-.11c-.08-.22-.17-.43-.25-.65a.18.18,0,1,1,.33-.13l.24.65a.17.17,0,0,1-.09.23Zm-.49-1.3a.16.16,0,0,1-.16-.11l-.24-.66a.17.17,0,0,1,.33-.11l.24.65a.18.18,0,0,1-.11.22Zm-.46-1.3a.18.18,0,0,1-.17-.12c-.07-.22-.15-.44-.22-.66a.17.17,0,1,1,.33-.11c.07.22.15.44.22.66a.18.18,0,0,1-.11.22Zm-.44-1.32a.16.16,0,0,1-.17-.12l-.21-.66a.17.17,0,0,1,.12-.22.17.17,0,0,1,.21.12l.21.66a.16.16,0,0,1-.11.21ZM233,37.13a.17.17,0,0,1-.16-.12c-.07-.22-.13-.45-.2-.67a.18.18,0,1,1,.34-.1c.06.23.13.45.19.67a.16.16,0,0,1-.12.21Zm-.38-1.33a.19.19,0,0,1-.17-.13l-.18-.67a.18.18,0,0,1,.13-.21.17.17,0,0,1,.21.12l.18.67a.17.17,0,0,1-.12.21Zm-.35-1.34a.17.17,0,0,1-.17-.13c-.05-.22-.11-.45-.16-.67a.18.18,0,0,1,.13-.21.17.17,0,0,1,.21.13c0,.22.11.44.16.67a.17.17,0,0,1-.13.21ZM232,33.12a.17.17,0,0,1-.17-.14l-.15-.68a.16.16,0,0,1,.14-.2.17.17,0,0,1,.2.13l.15.68a.17.17,0,0,1-.14.2Zm-.28-1.36a.18.18,0,0,1-.18-.14l-.12-.69a.18.18,0,0,1,.14-.2.18.18,0,0,1,.2.14c0,.23.08.46.13.68a.19.19,0,0,1-.14.21Zm-.24-1.37a.18.18,0,0,1-.18-.14c0-.23-.07-.46-.1-.69a.17.17,0,0,1,.15-.2.17.17,0,0,1,.19.15c0,.23.07.45.11.68a.17.17,0,0,1-.15.2Zm-.2-1.37a.16.16,0,0,1-.17-.15c0-.23-.06-.46-.08-.69a.17.17,0,0,1,.15-.2.17.17,0,0,1,.19.16c0,.23.05.46.08.68a.17.17,0,0,1-.15.2Zm-.15-1.38a.17.17,0,0,1-.17-.16l-.06-.69a.18.18,0,1,1,.35,0c0,.22,0,.45.05.68a.17.17,0,0,1-.15.19Zm-.1-1.38a.17.17,0,0,1-.17-.16l0-.7a.18.18,0,0,1,.17-.18.16.16,0,0,1,.18.17l0,.69a.18.18,0,0,1-.17.18Zm0-1.38a.18.18,0,0,1-.17-.18V24a.19.19,0,0,1,.18-.18h0a.18.18,0,0,1,.17.18v.69a.18.18,0,0,1-.17.18Zm0-1.39h0a.17.17,0,0,1-.17-.18c0-.23,0-.46,0-.7a.19.19,0,0,1,.19-.16.19.19,0,0,1,.16.19c0,.23,0,.45,0,.68A.17.17,0,0,1,231,23.49Zm.09-1.38h0a.17.17,0,0,1-.15-.19c0-.23,0-.46.07-.69a.18.18,0,0,1,.19-.16.19.19,0,0,1,.16.2c0,.23-.06.45-.08.68A.17.17,0,0,1,231.09,22.11Zm.16-1.37h0a.17.17,0,0,1-.15-.19c0-.24.07-.46.12-.69a.16.16,0,0,1,.2-.14.17.17,0,0,1,.14.2c0,.22-.08.45-.11.68A.19.19,0,0,1,231.25,20.74Zm.25-1.37h0a.18.18,0,0,1-.13-.21c0-.23.1-.45.16-.68a.17.17,0,1,1,.33.09l-.15.66A.17.17,0,0,1,231.5,19.37Zm.26-1.36h0a.17.17,0,0,1-.15-.2l.1-.68a.19.19,0,0,1,.2-.15.18.18,0,0,1,.15.2l-.1.69A.18.18,0,0,1,231.76,18Zm.21-1.36h0a.18.18,0,0,1-.15-.19l.11-.69a.17.17,0,0,1,.19-.15.18.18,0,0,1,.15.2l-.1.69A.18.18,0,0,1,232,16.65Zm.2-1.37h0a.16.16,0,0,1-.14-.19l.1-.69a.18.18,0,0,1,.2-.15.18.18,0,0,1,.14.2l-.1.69A.18.18,0,0,1,232.17,15.28Zm.2-1.37h0a.17.17,0,0,1-.15-.19l.1-.69a.17.17,0,0,1,.2-.14.18.18,0,0,1,.15.19l-.11.69A.17.17,0,0,1,232.37,13.91Zm.21-1.37h0a.17.17,0,0,1-.15-.19l.1-.69a.17.17,0,0,1,.2-.14.17.17,0,0,1,.15.19l-.1.69A.19.19,0,0,1,232.58,12.54Zm.2-1.37h0a.18.18,0,0,1-.14-.2l.1-.69a.17.17,0,0,1,.2-.14.16.16,0,0,1,.14.19L233,11A.18.18,0,0,1,232.78,11.17ZM233,9.8h0a.18.18,0,0,1-.15-.2l.1-.69a.17.17,0,0,1,.2-.14.16.16,0,0,1,.14.19l-.1.69A.16.16,0,0,1,233,9.8Zm.2-1.37h0a.18.18,0,0,1-.15-.2l.1-.69a.17.17,0,0,1,.2-.14.17.17,0,0,1,.15.19l-.1.69A.18.18,0,0,1,233.18,8.43Zm.21-1.37h0a.19.19,0,0,1-.15-.2l.07-.42a.17.17,0,0,1,.19-.15.17.17,0,0,1,.15.2l-.06.42A.17.17,0,0,1,233.39,7.06Z"/><path class="cls-8" d="M272.9,61.26s20.94-14.55,21.08-31l.85-12.4s-31.29,36-30.54,43.18C264.29,61.08,269.34,65.09,272.9,61.26Z"/><path class="cls-34" d="M293.15,21.42h0a.18.18,0,0,1-.14-.08.21.21,0,0,1-.2-.34l.73-.94-.15,1.17A.22.22,0,0,1,293.15,21.42Z"/><path class="cls-34" d="M266.59,60.54h0a.23.23,0,0,1-.17-.26,7.64,7.64,0,0,1,.2-.74.21.21,0,0,1,.27-.15.22.22,0,0,1,.14.28,6,6,0,0,0-.18.7A.22.22,0,0,1,266.59,60.54Zm.49-1.55L267,59a.22.22,0,0,1-.12-.28c.1-.26.22-.53.35-.82a.22.22,0,0,1,.29-.11.23.23,0,0,1,.11.29c-.13.28-.25.55-.35.8A.2.2,0,0,1,267.08,59Zm.73-1.61-.1,0a.22.22,0,0,1-.1-.29l.4-.79a.21.21,0,0,1,.29-.09.22.22,0,0,1,.1.29c-.14.27-.28.53-.4.78A.21.21,0,0,1,267.81,57.38Zm.81-1.56a.17.17,0,0,1-.1,0,.21.21,0,0,1-.09-.29l.43-.78a.22.22,0,1,1,.38.22l-.43.77A.21.21,0,0,1,268.62,55.82Zm.87-1.54a.2.2,0,0,1-.11,0,.21.21,0,0,1-.08-.29l.45-.76a.21.21,0,0,1,.3-.08.22.22,0,0,1,.07.3l-.45.76A.2.2,0,0,1,269.49,54.28Zm.9-1.51a.2.2,0,0,1-.11,0,.21.21,0,0,1-.07-.3c.15-.25.3-.5.46-.75a.22.22,0,0,1,.37.23c-.16.25-.31.5-.46.75A.24.24,0,0,1,270.39,52.77Zm.93-1.5a.27.27,0,0,1-.12,0,.21.21,0,0,1-.06-.3l.47-.74a.22.22,0,0,1,.3-.07.21.21,0,0,1,.06.3c-.15.25-.31.5-.47.74A.2.2,0,0,1,271.32,51.27Zm.95-1.48a.19.19,0,0,1-.12,0,.21.21,0,0,1-.06-.3l.48-.73a.22.22,0,0,1,.3-.07.21.21,0,0,1,.06.3l-.48.74A.22.22,0,0,1,272.27,49.79Zm1-1.47a.21.21,0,0,1-.11,0,.22.22,0,0,1-.07-.3l.49-.73a.22.22,0,0,1,.36.24l-.48.73A.24.24,0,0,1,273.23,48.32Zm1-1.47a.19.19,0,0,1-.12,0,.22.22,0,0,1-.06-.3l.5-.73a.21.21,0,0,1,.3-.05.22.22,0,0,1,.06.3l-.5.73A.21.21,0,0,1,274.21,46.85Zm1-1.46-.12,0a.21.21,0,0,1-.05-.3l.49-.73a.22.22,0,0,1,.31-.06.22.22,0,0,1,.05.3l-.5.73A.21.21,0,0,1,275.2,45.39Zm1-1.45-.12,0a.22.22,0,0,1-.05-.31l.5-.72a.21.21,0,0,1,.3-.05.22.22,0,0,1,.06.3l-.51.72A.21.21,0,0,1,276.2,43.94Zm1-1.44a.19.19,0,0,1-.12,0,.21.21,0,0,1,0-.3l.5-.72a.22.22,0,0,1,.31,0,.22.22,0,0,1,0,.3l-.51.72A.21.21,0,0,1,277.21,42.5Zm1-1.44a.22.22,0,0,1-.18-.34l.51-.72a.22.22,0,0,1,.31,0,.22.22,0,0,1,.05.3l-.51.72A.23.23,0,0,1,278.23,41.06Zm1-1.44a.19.19,0,0,1-.12,0,.21.21,0,0,1-.05-.3l.51-.72a.22.22,0,0,1,.3,0,.21.21,0,0,1,.05.3l-.51.71A.21.21,0,0,1,279.25,39.62Zm1-1.42a.18.18,0,0,1-.12-.05.21.21,0,0,1-.05-.3l.51-.71a.22.22,0,0,1,.31,0,.22.22,0,0,1,0,.3l-.51.72A.24.24,0,0,1,280.28,38.2Zm1-1.43a.2.2,0,0,1-.13,0,.21.21,0,0,1-.05-.3l.52-.72a.22.22,0,0,1,.3,0,.21.21,0,0,1,.05.3l-.52.71A.21.21,0,0,1,281.32,36.77Zm1-1.42a.28.28,0,0,1-.13,0,.22.22,0,0,1-.05-.31l.52-.71a.23.23,0,0,1,.31,0,.22.22,0,0,1,0,.3l-.52.71A.21.21,0,0,1,282.36,35.35Zm1-1.42a.22.22,0,0,1-.13,0,.23.23,0,0,1,0-.31l.52-.7a.22.22,0,0,1,.35.25l-.52.71A.23.23,0,0,1,283.4,33.93Zm1.05-1.42a.21.21,0,0,1-.17-.34l.52-.71a.23.23,0,0,1,.31,0,.22.22,0,0,1,0,.3l-.52.71A.25.25,0,0,1,284.45,32.51Zm1.05-1.41a.21.21,0,0,1-.17-.34l.53-.71a.22.22,0,0,1,.3,0,.21.21,0,0,1,0,.3l-.53.71A.23.23,0,0,1,285.5,31.1Zm1.06-1.41a.21.21,0,0,1-.17-.34l.53-.71a.22.22,0,0,1,.3,0,.21.21,0,0,1,0,.3l-.53.71A.25.25,0,0,1,286.56,29.69Zm1.06-1.4a.24.24,0,0,1-.13-.05.22.22,0,0,1,0-.3l.53-.7a.21.21,0,0,1,.31,0,.22.22,0,0,1,0,.3l-.53.7A.23.23,0,0,1,287.62,28.29Zm1.07-1.41a.2.2,0,0,1-.13,0,.22.22,0,0,1,0-.31l.53-.7a.22.22,0,1,1,.35.27l-.54.7A.21.21,0,0,1,288.69,26.88Zm1.07-1.4a.2.2,0,0,1-.13,0,.22.22,0,0,1,0-.31l.54-.7a.22.22,0,0,1,.3,0,.23.23,0,0,1,0,.31l-.54.7A.21.21,0,0,1,289.76,25.48Zm1.07-1.4a.22.22,0,0,1-.13,0,.23.23,0,0,1,0-.31l.54-.69a.21.21,0,0,1,.31,0,.22.22,0,0,1,0,.3L291,24A.25.25,0,0,1,290.83,24.08Zm1.08-1.39a.24.24,0,0,1-.13-.05.22.22,0,0,1,0-.3l.55-.7a.21.21,0,0,1,.3,0,.22.22,0,0,1,0,.3l-.54.7A.23.23,0,0,1,291.91,22.69Z"/><path class="cls-34" d="M266.35,61.39l0-.25a3.22,3.22,0,0,1,0-.44.22.22,0,0,1,.24-.19.21.21,0,0,1,.19.23v.1l.15-.05a.22.22,0,1,1,.13.41l-.44.13Z"/><path class="cls-34" d="M267.8,60.94a.22.22,0,0,1-.07-.42c.24-.09.51-.18.8-.3a.22.22,0,0,1,.28.13.21.21,0,0,1-.12.28l-.82.3Zm1.61-.62a.23.23,0,0,1-.2-.13.22.22,0,0,1,.12-.29l.78-.34a.21.21,0,0,1,.28.1.22.22,0,0,1-.1.29c-.27.13-.54.24-.8.35A.11.11,0,0,1,269.41,60.32Zm1.56-.73a.21.21,0,0,1-.19-.12.22.22,0,0,1,.09-.29l.75-.4a.22.22,0,1,1,.22.37c-.26.15-.51.29-.77.42Zm1.5-.86a.21.21,0,0,1-.19-.1.22.22,0,0,1,.07-.3c.24-.15.47-.31.7-.48a.22.22,0,0,1,.3,0,.21.21,0,0,1-.05.3c-.23.18-.47.34-.72.5A.2.2,0,0,1,272.47,58.73Zm1.39-1a.21.21,0,0,1-.17-.07.21.21,0,0,1,0-.31c.22-.19.42-.38.61-.57a.23.23,0,0,1,.31,0,.21.21,0,0,1,0,.31c-.2.2-.41.4-.64.59A.22.22,0,0,1,273.86,57.71Zm1.29-1.14a.23.23,0,0,1-.17-.08.22.22,0,0,1,0-.31c.18-.13.41-.31.68-.53a.22.22,0,0,1,.3,0,.21.21,0,0,1,0,.3l-.69.54A.2.2,0,0,1,275.15,56.57Zm1.36-1.07a.21.21,0,0,1-.17-.08.22.22,0,0,1,0-.31l.66-.55a.22.22,0,0,1,.28.34l-.67.55A.21.21,0,0,1,276.51,55.5Zm1.32-1.11a.25.25,0,0,1-.17-.08.23.23,0,0,1,0-.31l.64-.56a.22.22,0,0,1,.31,0,.21.21,0,0,1,0,.3l-.65.57A.2.2,0,0,1,277.83,54.39Zm1.29-1.15a.2.2,0,0,1-.16-.07.23.23,0,0,1,0-.31l.64-.58a.21.21,0,0,1,.3,0,.22.22,0,0,1,0,.31l-.63.58A.24.24,0,0,1,279.12,53.24Zm1.26-1.18a.21.21,0,0,1-.16-.07.21.21,0,0,1,0-.3l.62-.6a.2.2,0,0,1,.3,0,.21.21,0,0,1,0,.31l-.62.6A.22.22,0,0,1,280.38,52.06Zm1.23-1.21a.22.22,0,0,1-.15-.06.21.21,0,0,1,0-.31l.6-.62a.22.22,0,0,1,.31.3l-.61.62A.18.18,0,0,1,281.61,50.85Zm1.19-1.25a.24.24,0,0,1-.14-.05.21.21,0,0,1,0-.31l.58-.63a.21.21,0,0,1,.3,0,.22.22,0,0,1,0,.31l-.59.64A.23.23,0,0,1,282.8,49.6ZM284,48.32a.19.19,0,0,1-.14,0,.22.22,0,0,1,0-.31c.19-.21.37-.43.56-.65a.21.21,0,0,1,.3,0,.2.2,0,0,1,0,.3l-.57.66A.2.2,0,0,1,284,48.32ZM285.08,47a.24.24,0,0,1-.14,0,.22.22,0,0,1,0-.31l.54-.67a.21.21,0,0,1,.3,0,.22.22,0,0,1,0,.3c-.18.23-.36.46-.55.68A.21.21,0,0,1,285.08,47Zm1.06-1.36a.21.21,0,0,1-.17-.34l.51-.69a.22.22,0,1,1,.35.25l-.51.7A.25.25,0,0,1,286.14,45.65Zm1-1.39a.19.19,0,0,1-.12,0,.21.21,0,0,1,0-.3l.48-.71a.21.21,0,0,1,.3-.06.22.22,0,0,1,.06.3l-.49.72A.21.21,0,0,1,287.15,44.26Zm1-1.44a.2.2,0,0,1-.11,0,.22.22,0,0,1-.07-.3l.45-.73a.21.21,0,0,1,.29-.08.21.21,0,0,1,.08.3l-.45.74A.21.21,0,0,1,288.1,42.82Zm.89-1.49a.2.2,0,0,1-.11,0,.22.22,0,0,1-.08-.3l.4-.75a.21.21,0,0,1,.29-.09.22.22,0,0,1,.1.29c-.14.25-.27.51-.42.76A.2.2,0,0,1,289,41.33Zm.79-1.53a.15.15,0,0,1-.09,0,.22.22,0,0,1-.11-.29c.13-.25.25-.51.36-.77a.22.22,0,0,1,.29-.11.21.21,0,0,1,.11.28c-.12.27-.24.53-.37.79A.2.2,0,0,1,289.78,39.8Zm.69-1.57-.08,0a.22.22,0,0,1-.12-.28c.11-.27.21-.53.3-.8a.22.22,0,0,1,.28-.13.22.22,0,0,1,.13.28c-.1.27-.2.54-.31.81A.2.2,0,0,1,290.47,38.23Zm.58-1.63H291a.22.22,0,0,1-.14-.27c.09-.27.16-.54.23-.82a.23.23,0,0,1,.27-.15.21.21,0,0,1,.15.26q-.11.42-.24.84A.2.2,0,0,1,291.05,36.6Zm.43-1.66h0a.21.21,0,0,1-.17-.25c.06-.28.11-.56.16-.84a.22.22,0,0,1,.43.07c-.05.28-.1.57-.16.86A.23.23,0,0,1,291.48,34.94Zm.28-1.7h0a.22.22,0,0,1-.19-.23c0-.29.06-.57.07-.85a.22.22,0,0,1,.23-.21.21.21,0,0,1,.2.23c0,.29,0,.58-.07.87A.22.22,0,0,1,291.76,33.24Zm.11-1.72h0a.22.22,0,0,1-.19-.25l.11-.85a.22.22,0,0,1,.24-.19.22.22,0,0,1,.19.24l-.11.86A.22.22,0,0,1,291.87,31.52Zm.22-1.71h0a.22.22,0,0,1-.18-.25l.1-.85a.23.23,0,0,1,.25-.19.21.21,0,0,1,.18.24l-.1.86A.22.22,0,0,1,292.09,29.81Zm.22-1.71h0a.23.23,0,0,1-.19-.25l.11-.85a.22.22,0,0,1,.43.05l-.11.86A.21.21,0,0,1,292.31,28.1Zm.21-1.71h0a.22.22,0,0,1-.19-.25l.11-.85a.22.22,0,0,1,.24-.19.23.23,0,0,1,.19.24l-.11.86A.22.22,0,0,1,292.52,26.39Zm.22-1.71h0a.22.22,0,0,1-.18-.24l.1-.86a.23.23,0,0,1,.25-.19.22.22,0,0,1,.18.25l-.1.85A.22.22,0,0,1,292.74,24.68ZM293,23h0a.23.23,0,0,1-.19-.24l.11-.86a.23.23,0,0,1,.24-.19.22.22,0,0,1,.19.25l-.11.85A.21.21,0,0,1,293,23Z"/><path class="cls-8" d="M258.05,59.21s4.34-25.85-1-44.67L253.29,0s-1.78,54.89.93,62.79C254.22,62.79,257.76,65.16,258.05,59.21Z"/><path class="cls-33" d="M253.65,4.69h-.06s0,0-.05,0a.18.18,0,0,1-.18-.17l0-1.95.44,1.91a.18.18,0,0,1-.13.21Z"/><path class="cls-33" d="M255,61.09a.18.18,0,0,1-.17-.14l-.06-.32a.17.17,0,0,1,.14-.21.18.18,0,0,1,.2.15l.06.31a.17.17,0,0,1-.14.21Zm-.17-1a.18.18,0,0,1-.18-.15c0-.22-.06-.46-.09-.7a.17.17,0,0,1,.15-.2.19.19,0,0,1,.2.15c0,.25.06.48.09.7a.17.17,0,0,1-.15.2Zm-.18-1.4a.17.17,0,0,1-.17-.16c0-.23-.05-.46-.08-.71a.18.18,0,0,1,.16-.19.17.17,0,0,1,.19.16c0,.24.05.48.07.7a.17.17,0,0,1-.15.19Zm-.14-1.41a.17.17,0,0,1-.17-.16l-.06-.71a.17.17,0,1,1,.34,0l.06.71a.18.18,0,0,1-.15.19Zm-.11-1.41a.18.18,0,0,1-.18-.16l0-.71a.18.18,0,0,1,.35,0l.05.71a.17.17,0,0,1-.16.19Zm-.1-1.42a.18.18,0,0,1-.18-.16l0-.71a.18.18,0,0,1,.16-.18.19.19,0,0,1,.19.16l0,.71a.16.16,0,0,1-.16.18ZM254.19,53a.17.17,0,0,1-.17-.16l0-.71a.17.17,0,0,1,.17-.18.17.17,0,0,1,.18.16l0,.71a.18.18,0,0,1-.17.18Zm-.07-1.41a.17.17,0,0,1-.17-.17l0-.7a.19.19,0,0,1,.17-.19.18.18,0,0,1,.18.17l0,.71a.18.18,0,0,1-.16.18Zm-.07-1.41a.18.18,0,0,1-.17-.17l0-.71a.17.17,0,0,1,.17-.18.18.18,0,0,1,.18.17l0,.7a.19.19,0,0,1-.17.19ZM254,48.78a.17.17,0,0,1-.17-.17l0-.7a.17.17,0,0,1,.17-.18.16.16,0,0,1,.18.16l0,.71a.17.17,0,0,1-.17.18Zm-.05-1.41a.18.18,0,0,1-.17-.17l0-.71a.18.18,0,0,1,.17-.18.17.17,0,0,1,.18.17l0,.71a.18.18,0,0,1-.16.18ZM253.89,46a.17.17,0,0,1-.17-.16l0-.71a.16.16,0,0,1,.16-.18c.11,0,.18.07.18.17l0,.7a.18.18,0,0,1-.17.18Zm0-1.41a.18.18,0,0,1-.18-.17l0-.71a.18.18,0,0,1,.35,0l0,.71a.17.17,0,0,1-.17.18Zm0-1.41a.18.18,0,0,1-.18-.17v-.71a.17.17,0,0,1,.17-.18.16.16,0,0,1,.17.17l0,.71a.18.18,0,0,1-.17.18Zm0-1.42a.17.17,0,0,1-.17-.17l0-.71a.18.18,0,0,1,.17-.17.17.17,0,0,1,.18.17l0,.7a.18.18,0,0,1-.17.18Zm0-1.41a.17.17,0,0,1-.17-.17l0-.71a.17.17,0,0,1,.17-.18.18.18,0,0,1,.18.17v.71a.17.17,0,0,1-.17.18Zm0-1.42a.16.16,0,0,1-.17-.17l0-.71a.18.18,0,0,1,.17-.17.18.18,0,0,1,.18.17v.71a.16.16,0,0,1-.17.17Zm0-1.41a.18.18,0,0,1-.17-.17v-.71a.17.17,0,0,1,.17-.18h0a.18.18,0,0,1,.17.17l0,.71a.18.18,0,0,1-.17.18Zm0-1.42a.17.17,0,0,1-.18-.17v-.7a.18.18,0,0,1,.17-.18h0a.17.17,0,0,1,.17.17v.71a.17.17,0,0,1-.17.17Zm0-1.41a.18.18,0,0,1-.17-.17v-.71a.18.18,0,0,1,.17-.18h0a.18.18,0,0,1,.18.17v.71a.18.18,0,0,1-.17.18Zm0-1.42a.18.18,0,0,1-.17-.17v-.71a.18.18,0,0,1,.17-.17.17.17,0,0,1,.18.17v.71a.18.18,0,0,1-.17.17Zm-.19-1.59v-.7a.18.18,0,0,1,.18-.18.17.17,0,0,1,.17.17v.7Zm.16-1.24a.16.16,0,0,1-.17-.17v-.69a.17.17,0,0,1,.17-.18.17.17,0,0,1,.18.16v.71a.16.16,0,0,1-.17.17Zm0-1.41a.17.17,0,0,1-.18-.17V28.1a.18.18,0,0,1,.18-.17h0a.18.18,0,0,1,.17.17v.71a.18.18,0,0,1-.17.17Zm-.19-1.58v-.71a.18.18,0,0,1,.18-.18.18.18,0,0,1,.17.18v.69Zm0-1.42v-.71a.18.18,0,0,1,.18-.17c.1,0,.17.08.17.17V26Zm.16-1.24a.18.18,0,0,1-.17-.17v-.69a.19.19,0,0,1,.18-.19h0a.17.17,0,0,1,.17.17v.71a.18.18,0,0,1-.18.17Zm0-1.41a.18.18,0,0,1-.17-.18v-.69a.18.18,0,0,1,.17-.18.16.16,0,0,1,.17.16v.71a.18.18,0,0,1-.18.18Zm0-1.42a.18.18,0,0,1-.18-.17v-.69a.19.19,0,0,1,.17-.19h0a.17.17,0,0,1,.18.17v.71a.18.18,0,0,1-.17.17Zm0-1.41a.18.18,0,0,1-.17-.18v-.69a.17.17,0,0,1,.17-.18h0a.16.16,0,0,1,.17.16v.71A.19.19,0,0,1,253.51,20.5Zm0-1.42a.18.18,0,0,1-.18-.17v-.7a.18.18,0,0,1,.18-.18h0a.17.17,0,0,1,.17.17v.71a.18.18,0,0,1-.17.17Zm0-1.41a.18.18,0,0,1-.17-.18v-.7a.18.18,0,0,1,.17-.18h0a.18.18,0,0,1,.18.17v.71a.18.18,0,0,1-.18.18Zm0-1.42a.18.18,0,0,1-.17-.17v-.71a.17.17,0,0,1,.17-.17.17.17,0,0,1,.18.17v.71a.18.18,0,0,1-.18.17Zm0-1.41a.18.18,0,0,1-.17-.18V14a.18.18,0,0,1,.17-.18h0a.18.18,0,0,1,.18.18v.7A.18.18,0,0,1,253.5,14.84Zm0-1.42h0a.18.18,0,0,1-.17-.17v-.71a.18.18,0,0,1,.17-.17h0a.18.18,0,0,1,.17.17v.71A.17.17,0,0,1,253.5,13.42Zm0-1.41h0a.18.18,0,0,1-.18-.18v-.7a.18.18,0,0,1,.18-.18h0a.18.18,0,0,1,.17.18v.71A.18.18,0,0,1,253.51,12Zm0-1.41h0a.17.17,0,0,1-.17-.18V9.71a.18.18,0,0,1,.17-.17h0a.18.18,0,0,1,.18.17v.71A.17.17,0,0,1,253.51,10.6Zm0-1.42h0a.18.18,0,0,1-.17-.17V8.3a.17.17,0,0,1,.18-.17h0a.17.17,0,0,1,.17.17V9A.18.18,0,0,1,253.51,9.18Zm0-1.41h0a.17.17,0,0,1-.17-.18V6.88a.18.18,0,0,1,.17-.17h0a.18.18,0,0,1,.18.18v.7A.17.17,0,0,1,253.52,7.77Zm0-1.42h0a.18.18,0,0,1-.18-.17V5.47a.17.17,0,0,1,.17-.17h0a.18.18,0,0,1,.18.17v.71A.17.17,0,0,1,253.53,6.35Z"/><path class="cls-33" d="M255.19,62.31l-.14-.4c0-.14-.09-.29-.13-.47a.16.16,0,0,1,.13-.21.17.17,0,0,1,.21.12v0a.2.2,0,0,1,.17,0,.19.19,0,0,1,.1.23l-.15.33Z"/><path class="cls-33" d="M255.64,61h-.06a.16.16,0,0,1-.1-.22l.24-.65a.17.17,0,1,1,.32.12c-.08.24-.16.46-.24.65A.16.16,0,0,1,255.64,61Zm.46-1.3h-.05a.18.18,0,0,1-.11-.22c.07-.21.13-.43.2-.66a.18.18,0,0,1,.34.1c-.07.24-.14.46-.21.67A.18.18,0,0,1,256.1,59.71Zm.4-1.33h-.05a.19.19,0,0,1-.12-.22c.06-.21.12-.44.17-.66a.17.17,0,0,1,.21-.13.17.17,0,0,1,.13.21c0,.23-.11.46-.17.67A.17.17,0,0,1,256.5,58.38Zm.33-1.34h0a.17.17,0,0,1-.13-.2c0-.22.09-.45.13-.68A.18.18,0,0,1,257,56a.19.19,0,0,1,.14.21c-.05.23-.09.46-.14.68A.18.18,0,0,1,256.83,57Zm.25-1.36h0a.17.17,0,0,1-.15-.2c0-.22.07-.45.1-.68a.18.18,0,0,1,.19-.15.17.17,0,0,1,.15.2l-.09.69A.18.18,0,0,1,257.08,55.68Zm.18-1.38h0a.18.18,0,0,1-.16-.19c0-.22,0-.45.06-.68a.17.17,0,0,1,.18-.17.19.19,0,0,1,.17.19l-.06.69A.17.17,0,0,1,257.26,54.3Zm.13-1.38h0a.17.17,0,0,1-.15-.2c0-.17.06-.4.09-.68a.18.18,0,1,1,.35.05c0,.27-.07.5-.1.68A.16.16,0,0,1,257.39,52.92Zm.18-1.37h0a.18.18,0,0,1-.15-.2c0-.21.06-.44.09-.68a.16.16,0,0,1,.19-.15.17.17,0,0,1,.15.19c0,.24-.06.47-.08.69A.17.17,0,0,1,257.57,51.55Zm.17-1.38h0a.16.16,0,0,1-.15-.19c0-.22.05-.45.07-.69a.18.18,0,0,1,.19-.15.17.17,0,0,1,.16.19c0,.24-.05.47-.08.69A.16.16,0,0,1,257.74,50.17Zm.15-1.37h0a.18.18,0,0,1-.15-.2l.07-.68a.17.17,0,0,1,.19-.16.17.17,0,0,1,.15.19l-.07.69A.17.17,0,0,1,257.89,48.8Zm.14-1.38h0a.18.18,0,0,1-.16-.19l.06-.69a.18.18,0,0,1,.19-.16.17.17,0,0,1,.16.19l-.06.69A.18.18,0,0,1,258,47.42Zm.12-1.38h0a.19.19,0,0,1-.16-.19l.06-.69a.17.17,0,0,1,.19-.16.19.19,0,0,1,.16.19l-.06.69A.17.17,0,0,1,258.15,46Zm.1-1.38h0a.18.18,0,0,1-.16-.19l.05-.69a.17.17,0,0,1,.18-.16.18.18,0,0,1,.17.18l-.05.7A.18.18,0,0,1,258.25,44.66Zm.1-1.39h0a.17.17,0,0,1-.17-.18l.05-.69a.16.16,0,0,1,.18-.16.16.16,0,0,1,.16.18l0,.69A.17.17,0,0,1,258.35,43.27Zm.08-1.38h0a.18.18,0,0,1-.17-.18l0-.69a.17.17,0,0,1,.18-.17.18.18,0,0,1,.17.18l0,.7A.17.17,0,0,1,258.43,41.89Zm.06-1.38h0a.18.18,0,0,1-.17-.18l0-.69a.16.16,0,0,1,.18-.17.18.18,0,0,1,.17.18l0,.69A.18.18,0,0,1,258.49,40.51Zm.05-1.39h0a.17.17,0,0,1-.17-.18l0-.69a.18.18,0,0,1,.18-.17.19.19,0,0,1,.17.18l0,.7A.17.17,0,0,1,258.54,39.12Zm0-1.38h0a.17.17,0,0,1-.17-.18c0-.23,0-.46,0-.69s.08-.19.17-.17a.18.18,0,0,1,.18.18c0,.23,0,.46,0,.69A.18.18,0,0,1,258.58,37.74Zm0-1.38h0a.19.19,0,0,1-.18-.18v-.69a.18.18,0,0,1,.17-.18h0a.18.18,0,0,1,.18.18v.69A.18.18,0,0,1,258.6,36.36Zm0-1.39a.18.18,0,0,1-.17-.17v-.69a.18.18,0,0,1,.35,0v.7a.18.18,0,0,1-.18.17Zm0-1.38a.18.18,0,0,1-.18-.17c0-.23,0-.46,0-.69a.18.18,0,0,1,.35,0c0,.23,0,.46,0,.69a.17.17,0,0,1-.17.18Zm0-1.39a.17.17,0,0,1-.17-.16c0-.23,0-.46,0-.69a.16.16,0,0,1,.16-.18.17.17,0,0,1,.18.16l0,.7a.18.18,0,0,1-.17.17Zm-.05-1.38a.17.17,0,0,1-.17-.16c0-.23,0-.46,0-.69a.19.19,0,0,1,.17-.19.18.18,0,0,1,.18.17l0,.69a.16.16,0,0,1-.16.18Zm-.07-1.38a.18.18,0,0,1-.18-.16c0-.23,0-.46,0-.69a.17.17,0,0,1,.16-.19.19.19,0,0,1,.19.16c0,.23,0,.47,0,.7a.18.18,0,0,1-.16.18Zm-.1-1.38a.17.17,0,0,1-.17-.16l-.06-.69a.18.18,0,1,1,.35,0c0,.23,0,.46.05.69a.17.17,0,0,1-.16.19Zm-.12-1.38a.17.17,0,0,1-.17-.16c0-.23-.05-.46-.07-.69a.18.18,0,0,1,.15-.19.17.17,0,0,1,.19.16c0,.23.05.46.07.69a.18.18,0,0,1-.15.19Zm-.14-1.38a.17.17,0,0,1-.18-.15c0-.23-.05-.46-.08-.69a.17.17,0,0,1,.15-.19.18.18,0,0,1,.2.15c0,.23,0,.46.08.69a.18.18,0,0,1-.15.19Zm-.18-1.37a.18.18,0,0,1-.17-.15c0-.23-.06-.46-.1-.69a.18.18,0,0,1,.15-.2.19.19,0,0,1,.2.15l.09.69a.18.18,0,0,1-.14.2Zm-.2-1.37a.17.17,0,0,1-.17-.15l-.12-.68a.18.18,0,0,1,.35-.06c0,.23.07.45.11.68a.17.17,0,0,1-.14.2Zm-.24-1.37a.18.18,0,0,1-.17-.14c0-.23-.08-.46-.13-.68a.17.17,0,0,1,.14-.21.18.18,0,0,1,.2.14c.05.23.09.45.13.68a.17.17,0,0,1-.14.21Zm-.27-1.36a.18.18,0,0,1-.17-.14l-.15-.67a.17.17,0,0,1,.34-.08l.15.68a.18.18,0,0,1-.13.21Zm-.31-1.35a.17.17,0,0,1-.17-.13c-.05-.23-.11-.45-.17-.67a.17.17,0,0,1,.12-.21.18.18,0,0,1,.22.12c.06.22.11.45.17.67a.19.19,0,0,1-.13.22Zm-.35-1.34a.17.17,0,0,1-.17-.12l0-.09-.13-.6a.18.18,0,0,1,.13-.21.18.18,0,0,1,.21.14l.15.66a.17.17,0,0,1-.12.22Zm-.32-1.35a.17.17,0,0,1-.17-.13l-.15-.68a.16.16,0,0,1,.13-.2.17.17,0,0,1,.21.13l.15.67a.18.18,0,0,1-.13.21Zm-.31-1.35a.17.17,0,0,1-.17-.13l-.15-.68a.16.16,0,0,1,.13-.2.17.17,0,0,1,.21.13l.15.67a.18.18,0,0,1-.13.21Zm-.31-1.34a.18.18,0,0,1-.17-.14l-.15-.67a.16.16,0,0,1,.13-.21.17.17,0,0,1,.21.13l.15.67a.18.18,0,0,1-.13.21Zm-.31-1.35a.18.18,0,0,1-.17-.14l-.15-.67a.16.16,0,0,1,.13-.21.18.18,0,0,1,.21.13l.15.67a.18.18,0,0,1-.13.21ZM255,10.4a.18.18,0,0,1-.17-.14l-.15-.67a.16.16,0,0,1,.13-.21.19.19,0,0,1,.21.13l.15.67a.18.18,0,0,1-.13.21Zm-.31-1.35a.18.18,0,0,1-.17-.14l-.15-.67a.16.16,0,0,1,.13-.21.19.19,0,0,1,.21.13l.15.67a.18.18,0,0,1-.13.21Zm-.31-1.35a.18.18,0,0,1-.17-.14L254,6.89a.16.16,0,0,1,.13-.21.19.19,0,0,1,.21.13l.15.68a.17.17,0,0,1-.13.2ZM254,6.35a.18.18,0,0,1-.17-.14l-.15-.67a.17.17,0,0,1,.13-.21.17.17,0,0,1,.2.13l.16.68a.17.17,0,0,1-.13.2Z"/><path class="cls-35" d="M241.5,65.22S212.73,44.6,214.17,27.81s35.48,30.73,35,36.22Z"/><path class="cls-36" d="M244.8,64.72a.85.85,0,0,1,.23,0,28.65,28.65,0,0,0-1.21-3V58a.23.23,0,0,0-.24-.24.24.24,0,0,0-.24.24v2.8a39,39,0,0,0-4.49-6.89v-5.6a.24.24,0,0,0-.48,0v5a38.49,38.49,0,0,0-5.26-5.15V43a.24.24,0,0,0-.48,0v4.87c-.5-.39-1-.78-1.54-1.15a43,43,0,0,1-4.69-3.83V37.44a.24.24,0,0,0-.24-.24.24.24,0,0,0-.24.24v5a39.46,39.46,0,0,1-4.43-5.07V33.67a.24.24,0,0,0-.24-.24.24.24,0,0,0-.24.24v3a29.09,29.09,0,0,1-3.74-7,.23.23,0,0,0-.3-.16.24.24,0,0,0-.15.3,28.89,28.89,0,0,0,4,7.4h-3.75a.24.24,0,0,0,0,.48h4.1a41.71,41.71,0,0,0,4.07,4.72L221.33,41a.24.24,0,0,0-.3.15.24.24,0,0,0,.15.31l4.86,1.7a42.44,42.44,0,0,0,4.77,3.9c.42.29.83.59,1.22.9l-5.84-.75a.24.24,0,0,0-.27.2.23.23,0,0,0,.21.27l6.64.86a38.2,38.2,0,0,1,5.32,5.2h-6.44a.24.24,0,1,0,0,.48h6.83a37.88,37.88,0,0,1,4.61,7.15l-4.39-1.68a.23.23,0,0,0-.31.14.24.24,0,0,0,.14.31L243.4,62a28.76,28.76,0,0,1,1.13,2.75A.6.6,0,0,1,244.8,64.72Z"/><path class="cls-35" d="M265.17,62.16s23-34,15.44-54-26.43,48.38-24,54.91Z"/><path class="cls-36" d="M261.52,62.58a.84.84,0,0,0-.23.12,38.89,38.89,0,0,1,.21-4l-1.35-4.6a.28.28,0,0,1,.16-.37.29.29,0,0,1,.34.22l1,3.41a50.29,50.29,0,0,1,2.27-9.77l-2-6.82a.28.28,0,0,1,.17-.36.28.28,0,0,1,.34.22l1.8,6.11a46.44,46.44,0,0,1,3.71-7.89l-1.88-6.37a.27.27,0,1,1,.51-.15l1.74,5.91c.38-.62.78-1.25,1.21-1.87a49.3,49.3,0,0,0,3.58-6.11l-1.94-6.6a.29.29,0,0,1,.17-.37.28.28,0,0,1,.33.22l1.79,6a49.2,49.2,0,0,0,2.85-7.54L275,17.59a.27.27,0,1,1,.51-.15l1.07,3.65A38.68,38.68,0,0,0,278,11.41a.26.26,0,0,1,.26-.29.31.31,0,0,1,.27.31A40.2,40.2,0,0,1,277,21.67l4-1.17a.29.29,0,0,1,.34.21.29.29,0,0,1-.17.37l-4.33,1.28a49.29,49.29,0,0,1-2.6,7l3.61-2.86a.26.26,0,0,1,.37.08.33.33,0,0,1,0,.42l-4.52,3.59A49.18,49.18,0,0,1,270,36.8q-.49.73-1,1.47l5.9-2.73a.28.28,0,0,1,.36.17.3.3,0,0,1-.13.39l-6.7,3.1a46.31,46.31,0,0,0-3.75,8l6.8-2a.28.28,0,0,1,.34.22.28.28,0,0,1-.17.36l-7.21,2.13A49.35,49.35,0,0,0,262.13,58l4-3.4a.26.26,0,0,1,.38.07.32.32,0,0,1,0,.42L262,58.86c-.17,1.69-.2,3-.21,3.7A.63.63,0,0,0,261.52,62.58Z"/><path class="cls-35" d="M249.18,63.78s-11.84-32.9-2.57-43.19S257.29,60,254.25,63.33Z"/><path class="cls-36" d="M250.74,61.42a1.06,1.06,0,0,1,.15.15,23.73,23.73,0,0,0,.57-2.59l1.85-2.5a.2.2,0,0,0-.05-.28.2.2,0,0,0-.29,0l-1.38,1.85a31.65,31.65,0,0,0,.12-7l2.74-3.69a.21.21,0,0,0,0-.29.2.2,0,0,0-.29,0l-2.47,3.31a33.53,33.53,0,0,0-1.29-6.22l2.57-3.46a.21.21,0,0,0-.06-.28.2.2,0,0,0-.29,0l-2.39,3.21c-.17-.52-.35-1.05-.55-1.59a38,38,0,0,1-1.53-5l2.66-3.58a.19.19,0,0,0-.06-.28.21.21,0,0,0-.29,0L248,36.54a34.43,34.43,0,0,1-.73-5.72l1.8-2.42a.21.21,0,0,0-.05-.29.22.22,0,0,0-.3,0l-1.47,2a22.69,22.69,0,0,1,.73-6.64.24.24,0,0,0-.14-.27.19.19,0,0,0-.26.12,23.32,23.32,0,0,0-.74,7l-2.72-2a.2.2,0,0,0-.29,0,.2.2,0,0,0,.05.28l3,2.21a33.6,33.6,0,0,0,.64,5.31l-2.15-3a.22.22,0,0,0-.29-.06.19.19,0,0,0,0,.28l2.69,3.74a37.87,37.87,0,0,0,1.56,5.14c.16.42.3.84.44,1.25l-3.87-3.64a.2.2,0,1,0-.28.28l4.4,4.14a33,33,0,0,1,1.31,6.3l-4.67-3.47a.2.2,0,0,0-.29,0,.2.2,0,0,0,.05.28l5,3.69a30.85,30.85,0,0,1-.16,7.19l-2.36-3.47a.24.24,0,0,0-.3-.08.2.2,0,0,0-.05.28L251,58.89a21.34,21.34,0,0,1-.52,2.42A.9.9,0,0,1,250.74,61.42Z"/></g></g></svg>