<?xml version="1.0" encoding="utf-8"?>
<!-- Generator: Adobe Illustrator 25.0.1, SVG Export Plug-In . SVG Version: 6.00 Build 0)  -->
<svg version="1.1" id="Layer_1" xmlns="http://www.w3.org/2000/svg" xmlns:xlink="http://www.w3.org/1999/xlink" x="0px" y="0px"
	 viewBox="0 0 492.7 354.1" style="enable-background:new 0 0 492.7 354.1;" xml:space="preserve">
<style type="text/css">
	.st0{fill:#05C7F2;}
</style>
<g id="Layer_2_1_">
	<g id="Montañas">
		<path class="st0" d="M492.7,6c-3.2-1.5-6.6-2.8-10-3.8c-24-5.9-48.2,1-71.5,6.9c-14.3,3.6-28.6,7.7-42.6,12.2
			c-32.8,10.6-65,23.2-96.3,37.7c-58.2,26.6-112.4,61-162.1,101.4c-24.9,20.2-46.1,43-65.5,68.6c-8.1,10.6-15.2,22-21.2,34
			C15.9,278.6,8.9,295.2,5,312.3c-2.4,11.3-4,22.7-5,34.2c-0.1,2.6,0,5.1,0.3,7.7h492.4V6z"/>
	</g>
</g>
</svg>
