<svg xmlns="http://www.w3.org/2000/svg" viewBox="0 0 675.32 265.28"><defs><style>.cls-1{fill:#39f;}.cls-2{fill:#05c7f2;}</style></defs><g id="Layer_2" data-name="Layer 2"><g id="Montañas"><path class="cls-1" d="M651.78,192.67a47.23,47.23,0,0,0-16.32-6.7l-.14-.38c-6.05-15.62-14.88-28.32-29-37.59a58.77,58.77,0,0,0-44.4-7.86,42.64,42.64,0,0,0-13.44,5.62,64.37,64.37,0,0,0-22.38-26,55.48,55.48,0,0,0-32.23-9.44,52.54,52.54,0,0,0-9,1.07,84.44,84.44,0,0,0-16-20.08c-12.6-11.54-28.38-20.51-45.18-24.14-26.78-5.79-52.86-.79-76.26,10.88A65.13,65.13,0,0,0,307,65.69c-13.25.6-26,4.14-38.72,7.51-4.65,1.24-9.34,2.64-14.05,4a42.58,42.58,0,0,0-3.76-7.48c-8.22-12.77-19.69-20.65-33.59-26.16-10.07-4-21.62-5.06-32.38-4.54-5.2.26-10.44,1.13-15.68,1.81A73.48,73.48,0,0,0,157.38,22C149.5,12.22,136.75,4.5,124.54,1.7,108.91-1.88,93.62.29,79.29,7.3a51.16,51.16,0,0,0-12.35,8.57,67.93,67.93,0,0,0-18.43-4C36.38,10.7,22,14.35,12.06,21.54A72.1,72.1,0,0,0,0,32.52V265.28H666.17a49.37,49.37,0,0,0,5.76-10.67C681,232.63,671,205.48,651.78,192.67Z"/><path class="cls-2" d="M399.8,265.28a24,24,0,0,0,1.29-4.15c4.36-21,.31-42.71-12.57-60.14-13.41-18.14-31.18-29.67-52.52-36.78-3.22-1.07-6.48-2-9.77-2.79a60.58,60.58,0,0,0-15.23-19c-11.49-9.41-25.39-16.15-40.68-15.13a66.73,66.73,0,0,0-19.06,4.13,92.59,92.59,0,0,0-19.31-19,88.36,88.36,0,0,0-39.89-16.39,116,116,0,0,0-54.82,4.64c-4.81,1.64-9.51,3.52-14.14,5.57A75.59,75.59,0,0,0,68.53,77.52C49.8,76.39,31.89,84.62,17.86,96.4A69.14,69.14,0,0,0,2.2,115.53c-.5.91-1,1.81-1.41,2.71-.27.23-.52.48-.79.72V265.28Z"/></g></g></svg>