<?xml version="1.0" encoding="utf-8"?>
<!-- Generator: Adobe Illustrator 25.0.1, SVG Export Plug-In . SVG Version: 6.00 Build 0)  -->
<svg version="1.1" id="Layer_1" xmlns="http://www.w3.org/2000/svg" xmlns:xlink="http://www.w3.org/1999/xlink" x="0px" y="0px"
	 viewBox="0 0 2156.9 111.6" style="enable-background:new 0 0 2156.9 111.6;" xml:space="preserve">
<style type="text/css">
	.st0{fill:#FFFFFF;}
</style>
<g id="Layer_2_1_">
	<g id="Nubes">
		<path class="st0" d="M361.9,85.1c-2.1-2.5-4.7-4.5-7.6-5.9c-3-1.4-6.3-2.4-9.6-2.8c0-1.8,0.1-3.5,0.1-5.3c0-3.6-0.5-6.3-3.5-8.7
			c-5.4-4.4-14.1-5.1-20.7-4.7c-8.9,0.5-17.5,3.7-21.6,12c-0.1,0.2-0.1,0.3-0.2,0.5c-2.7,1.2-5.2,2.8-7.5,4.6
			c-1,0.8-1.9,1.8-2.7,2.9c-4.8-0.7-9.6-0.7-14.3,0c-5.5,0.7-14,2.6-16.8,8.2c-2.2,4.5,0,8.7,2.8,12.3c2.2,2.8,4.4,5.9,7.2,8.2
			c6.9,5.4,17.9,5.8,26.1,4.6c4-0.7,7.8-1.8,11.6-3.3l2.6-0.9l0.6-0.2c0.7-0.2,1.8-0.5,2.3-0.6c0.5,0,0.9,0,1.3,0h0.4
			c0.7,0.1,1.4,0.1,2.1,0.2c2.1,0.2,4.2,0.4,6.3,0.6l12.8,1.2c5,0.6,10.2,0.3,15.1-0.9c2.6-0.6,5-1.8,7.1-3.3c1.8-0.2,3.6-0.5,5.3-1
			c3.4-0.9,9.8-3.2,9.7-7.8C370.8,89.8,366.9,86.8,361.9,85.1z"/>
		<path class="st0" d="M1024.1,33.4c-6.6-5.1-15.8-6.6-23.8-7.3c-2-0.2-4-0.3-6-0.4c0.7-3.6,0-7.3-2-10.3c-4.6-7-13.7-9.9-21.5-11.1
			c-9.5-1.5-20.3-0.5-29,3.7c-5.6,2.7-10.2,7.1-13.3,12.5c-0.8,1.5-1.6,2.9-2.3,4.4c-4.6,2-8.6,5-10.4,9.4c-1.1,1.7-1.1,3.9,0,5.6
			c5.7,7.3,13.9,10.9,22.8,12.1c5.5,3.2,14.7,4,18.5,4h39.4c9.5,0,21-0.2,28.7-6.4C1031.1,44.7,1029.7,37.7,1024.1,33.4z"/>
		<path class="st0" d="M100.8,15c-3.5-5.4-10.3-8-16.3-9.4l-0.1-0.1C79,2,72.8,0.5,66.5,0.1c-10.8-0.7-21,1.5-28.4,9.6
			c-2.6,2.9-5.2,5.8-7.8,8.7c-8,0.8-15.8,2.9-22.2,7.6s-11,14.5-5.9,22c8.7,12.7,31.5,12.4,44.4,8.4c5.6-1.6,10.8-4.5,15.1-8.4
			l0.6,0.1c10,1.3,23,0.2,31.2-6.7C100.5,35.7,106.4,23.6,100.8,15z"/>
	</g>
</g>
<g id="Layer_2_2_">
	<g id="Nubes_1_">
		<path class="st0" d="M1480.1,85.1c-2.1-2.5-4.7-4.5-7.6-5.9c-3-1.4-6.3-2.4-9.6-2.8c0-1.8,0.1-3.5,0.1-5.3c0-3.6-0.5-6.3-3.5-8.7
			c-5.4-4.4-14.1-5.1-20.7-4.7c-8.9,0.5-17.5,3.7-21.7,12c-0.1,0.2-0.2,0.3-0.2,0.5c-2.7,1.2-5.2,2.8-7.5,4.6
			c-1,0.8-1.9,1.8-2.7,2.9c-4.8-0.7-9.6-0.7-14.3,0c-5.5,0.7-14,2.6-16.8,8.2c-2.2,4.5,0,8.7,2.8,12.3c2.2,2.8,4.4,5.9,7.2,8.2
			c6.9,5.4,17.9,5.8,26.1,4.6c4-0.7,7.8-1.8,11.6-3.3l2.6-0.9l0.6-0.2c0.7-0.2,1.8-0.5,2.3-0.6c0.4,0,0.9,0,1.3,0h0.4
			c0.7,0.1,1.4,0.1,2.1,0.2c2.1,0.2,4.2,0.4,6.3,0.6l12.8,1.2c5,0.6,10.2,0.3,15.1-0.9c2.6-0.6,5-1.8,7.2-3.3c1.8-0.2,3.6-0.5,5.3-1
			c3.4-0.9,9.8-3.2,9.7-7.8C1489.1,89.8,1485.2,86.8,1480.1,85.1z"/>
		<path class="st0" d="M2142.4,33.4c-6.6-5.1-15.8-6.6-23.8-7.3c-2-0.2-4-0.3-6-0.4c0.7-3.6,0-7.3-2-10.3c-4.6-7-13.7-9.9-21.5-11.1
			c-9.5-1.5-20.3-0.5-29,3.7c-5.6,2.7-10.2,7.1-13.3,12.5c-0.8,1.5-1.6,2.9-2.3,4.4c-4.6,2-8.6,5-10.4,9.4c-1.1,1.7-1.1,3.9,0,5.6
			c5.7,7.3,13.9,10.9,22.8,12.1c5.5,3.2,14.7,4,18.5,4h39.4c9.5,0,21-0.2,28.7-6.4C2149.4,44.7,2148,37.8,2142.4,33.4z"/>
		<path class="st0" d="M1219.1,15c-3.5-5.4-10.3-8-16.3-9.4l-0.1-0.1c-5.4-3.5-11.5-5-17.9-5.4c-10.8-0.7-21,1.5-28.4,9.6
			c-2.6,2.9-5.2,5.8-7.8,8.7c-8,0.8-15.8,2.9-22.2,7.6c-6.4,4.7-11,14.5-5.9,22c8.7,12.7,31.5,12.4,44.4,8.4
			c5.6-1.6,10.8-4.5,15.1-8.4l0.6,0.1c10,1.3,23,0.2,31.2-6.7C1218.8,35.7,1224.7,23.7,1219.1,15z"/>
	</g>
</g>
</svg>
