<?xml version="1.0" encoding="utf-8"?>
<!-- Generator: Adobe Illustrator 25.0.1, SVG Export Plug-In . SVG Version: 6.00 Build 0)  -->
<svg version="1.1" id="Layer_1" xmlns="http://www.w3.org/2000/svg" xmlns:xlink="http://www.w3.org/1999/xlink" x="0px" y="0px"
	 viewBox="0 0 2445.4 224.1" style="enable-background:new 0 0 2445.4 224.1;" xml:space="preserve">
<style type="text/css">
	.st0{fill:#FFFFFF;}
</style>
<g id="Layer_2_1_">
	<g id="Nubes">
		<path class="st0" d="M146.8,135.6c-7.6-2.7-16-2.4-23.5,0.8c-2.3,1-4.5,2.3-6.4,3.9c-2.1-3.1-4.4-6-7.1-8.7
			c-5.8-5.7-13.5-8.7-21.3-10.5c-15-3.3-35-5.7-46,7.7c-4.5,5.6-6.2,13.1-7.5,20c-0.8,3.8-1.6,7.7-2.3,11.6l0,0
			c-4.2-1.2-8.6-1.8-13-1.7c-6.7,0.2-15.2,2.3-18.4,8.9c-2.3,4.9-1.3,10.7,1.5,15.2c4.2,6.9,10.9,10,18.3,10.8
			c10,3.1,21.1,2.6,31.2,0.3c12.5-2.8,24.9-10.1,38-9.5c14.3,0.6,27.7,5.4,42.2,2.2c10.8-2.4,20.2-9.9,24.1-20.3
			C160.7,155.4,159.1,140.4,146.8,135.6z"/>
		<path class="st0" d="M542.3,14.8c-0.3-0.1-0.5-0.2-0.8-0.3c-1.3-1.9-3.2-3.3-5.3-4c-1.5-0.6-3.1-0.9-4.7-0.8V9.4
			c0-0.7-0.9-1.3-1.4-1.6c-1.1-0.5-2.2-0.7-3.4-0.7c-0.7,0-1.3,0.1-2,0.2L524.4,7c0-0.2,0-0.3,0.1-0.4c0.1-0.7-0.9-1.3-1.4-1.6
			c-1.3-0.6-2.7-1-4.2-1c-2.2-0.7-4.5-1-6.8-0.8c-0.3-0.4-0.7-0.8-1.1-1.1c-3.2-2.6-8.8-3-12.2-0.6c-0.6,0.5-1.2,1-1.5,1.7
			c-1.6,0.7-2.6,2.1-2.9,3.8c-0.1,0.4-0.1,0.8,0,1.3c-0.1,0.3-0.3,0.5-0.4,0.8c-1.8,0.2-3.6,0.9-5.1,2c-3.9,2.9-5.6,9.8-1.9,13.5
			c2.5,2.5,6.9,2.9,10.2,2.5c0.9-0.1,1.9-0.3,2.8-0.6c3,0.5,6,0.1,8.7-1.1l0.1,0.1c1.4,1.1,3.2,1.8,5,2c2.1,0.3,4.3,0.1,6.2-0.8
			c2.2,0.1,4.4,0.2,6.5,0.1c1.4,0,2.8-0.3,4.2-0.7c0.4,0,0.8,0.1,1.2,0.1c0.9,0,1.9-0.1,2.8-0.4c0.8,0.1,1.7,0.1,2.5,0
			c0.8-0.1,1.6-0.3,2.3-0.6c2.4-0.2,5.1-0.7,6.4-2.6C548.1,19.7,545.1,16.1,542.3,14.8z"/>
		<path class="st0" d="M1064.5,112.1c-2.9-1.4-6.1-2.3-9.3-2.7c-5-4.6-13.2-5.6-19.6-4.8c-0.8,0.1-1.5,0.2-2.2,0.4
			c0-0.2,0-0.4-0.1-0.7c-0.5-4.9-2.9-9.4-6.7-12.6c-6-4.9-15.1-5.7-22.4-4.3c-3.6,0.7-7,2.1-10,4.1c-2.1-4.7-7.8-6.5-12.5-7.1
			c-5.9-0.9-12,0-17.4,2.5c-5.4,2.8-10.2,8.6-9.5,15c-4.2,1-8.2,2.8-11.9,5.2c-5.6,3.8-10.4,10.2-10.9,17.2
			c-0.7,9.3,9.2,12.8,16.7,14.4l0.6,0.1c0.5,0.2,1.1,0.4,1.7,0.5c12.9,3.1,26,2.7,39.2,2.5l36.5-0.4c12.8-0.1,27.5,1.4,38.7-5.9
			c4-2.6,7.2-7.1,7.4-11.9C1072.8,118.3,1068.9,114.3,1064.5,112.1z M958.2,116.9l-0.5,0.2l0.3-0.4l0.2-0.2
			C958.2,116.6,958.2,116.7,958.2,116.9z"/>
		<path class="st0" d="M338.4,198.3c-3.6-6.6-15.7-7.9-22.2-7.8c-0.3-0.5-0.6-1.1-0.8-1.7c-0.2-0.8,0.5-2.3,1.1-4
			c1.6-4.2,0.2-7.6-3.1-10.5c-4.1-3.6-11-5.4-16.3-6c-8-0.9-16.9-0.5-24.3,2.9c-7.7,3.5-10.9,9.4-10.5,17.6c0,0.4,0.1,0.7,0.1,1.1
			c-4.1,1.7-7.7,4.5-10.5,8c-4.8,6.4-3,15.2,3,20c12.5,9.9,31.1,6.3,44.8,1.7l27.9-9.3C332.4,208.7,342,205,338.4,198.3z"/>
	</g>
</g>
<g id="Layer_2_2_">
	<g id="Nubes_1_">
		<path class="st0" d="M1491.8,135.6c-7.6-2.7-16-2.4-23.5,0.8c-2.3,1-4.5,2.3-6.4,3.9c-2.1-3.1-4.4-6-7.1-8.7
			c-5.8-5.7-13.5-8.7-21.3-10.5c-15-3.3-35-5.7-46,7.7c-4.5,5.6-6.2,13.1-7.5,20c-0.8,3.8-1.6,7.7-2.3,11.6l0,0
			c-4.2-1.2-8.6-1.8-13-1.7c-6.7,0.2-15.2,2.3-18.4,8.9c-2.3,4.9-1.3,10.7,1.5,15.2c4.2,6.9,10.9,10,18.3,10.8
			c10,3.1,21.1,2.6,31.2,0.3c12.5-2.8,24.9-10.1,38-9.5c14.3,0.6,27.7,5.4,42.2,2.2c10.8-2.4,20.2-9.9,24.2-20.3
			C1505.7,155.4,1504.2,140.4,1491.8,135.6z"/>
		<path class="st0" d="M1887.4,14.8c-0.3-0.1-0.5-0.2-0.8-0.3c-1.3-1.9-3.2-3.3-5.3-4c-1.5-0.6-3.1-0.9-4.7-0.8V9.4
			c0-0.7-0.9-1.3-1.4-1.6c-1.1-0.5-2.2-0.7-3.4-0.7c-0.7,0-1.3,0.1-2,0.2l-0.3-0.3c0-0.2,0-0.3,0.1-0.4c0.1-0.7-0.9-1.3-1.4-1.6
			c-1.3-0.6-2.7-1-4.2-1c-2.2-0.7-4.5-1-6.8-0.8c-0.3-0.4-0.7-0.8-1.1-1.1c-3.2-2.6-8.8-3-12.2-0.6c-0.6,0.5-1.2,1-1.5,1.7
			c-1.6,0.7-2.6,2.1-2.9,3.8c-0.1,0.4-0.1,0.8,0,1.3c-0.1,0.3-0.3,0.5-0.3,0.8c-1.8,0.2-3.6,0.9-5.1,2c-3.9,2.9-5.6,9.8-1.9,13.5
			c2.5,2.5,6.8,2.9,10.2,2.5c0.9-0.1,1.9-0.3,2.8-0.6c3,0.5,6,0.1,8.7-1.1l0.1,0.1c1.4,1.1,3.2,1.8,5,2c2.1,0.3,4.3,0.1,6.2-0.8
			c2.2,0.1,4.4,0.2,6.5,0.1c1.4,0,2.8-0.3,4.2-0.7c0.4,0,0.8,0.1,1.2,0.1c0.9,0,1.9-0.1,2.8-0.4c0.8,0.1,1.7,0.1,2.5,0
			c0.8-0.1,1.6-0.3,2.3-0.6c2.4-0.2,5.1-0.7,6.4-2.6C1893.1,19.7,1890.1,16.1,1887.4,14.8z"/>
		<path class="st0" d="M2409.5,112.1c-2.9-1.4-6.1-2.3-9.3-2.7c-5-4.6-13.2-5.6-19.6-4.8c-0.8,0.1-1.5,0.2-2.2,0.4
			c0-0.2,0-0.4-0.1-0.7c-0.5-4.9-2.9-9.4-6.7-12.6c-6-4.9-15.1-5.7-22.4-4.3c-3.6,0.7-7,2.1-10,4.1c-2.1-4.7-7.8-6.5-12.5-7.1
			c-5.9-0.9-12,0-17.4,2.5c-5.4,2.8-10.2,8.6-9.5,15c-4.2,1-8.2,2.8-11.9,5.2c-5.6,3.8-10.4,10.2-10.9,17.2
			c-0.7,9.3,9.2,12.8,16.7,14.4l0.6,0.1c0.5,0.2,1.1,0.4,1.7,0.5c12.9,3.1,26,2.7,39.2,2.5l36.5-0.4c12.8-0.1,27.5,1.4,38.7-5.9
			c4-2.6,7.2-7.1,7.4-11.9C2417.8,118.3,2413.9,114.3,2409.5,112.1z M2303.3,116.9l-0.5,0.2l0.3-0.4l0.2-0.2
			C2303.3,116.6,2303.3,116.7,2303.3,116.9z"/>
		<path class="st0" d="M1683.4,198.3c-3.6-6.6-15.7-7.9-22.2-7.8c-0.3-0.5-0.6-1.1-0.8-1.7c-0.2-0.8,0.4-2.3,1.1-4
			c1.6-4.2,0.2-7.6-3.1-10.5c-4.1-3.6-11-5.4-16.3-6c-8-0.9-16.8-0.5-24.3,2.9c-7.7,3.5-10.9,9.4-10.5,17.6c0,0.4,0.1,0.7,0.2,1.1
			c-4.1,1.7-7.7,4.5-10.5,8c-4.8,6.4-3,15.2,3,20c12.5,9.9,31,6.3,44.8,1.7l27.9-9.3C1677.5,208.7,1687,205,1683.4,198.3z"/>
	</g>
</g>
</svg>
