<svg xmlns="http://www.w3.org/2000/svg" viewBox="0 0 71.9 40.45"><defs><style>.cls-1{fill:#731921;}.cls-2{fill:#e7a340;}.cls-3{fill:#fbca7d;}.cls-4{fill:#e7a640;}.cls-5{fill:#ffce82;}.cls-6{fill:#bf1140;}.cls-7{fill:#f27127;}</style></defs><g id="Layer_2" data-name="Layer 2"><g id="Decorar_escritorio" data-name="Decorar escritorio"><path class="cls-1" d="M7.19,19.73S15.62,10.8,35,11.3c0,0,.91,9.91,29,8.43l1.27-1,.88-3.15-.88-2.8v-1l-10.77-.51-8.07-2-7.93-3-4-4.46h-8L17.11,4.35,10.16,7.83l-4,4.46v5.85Z"/><polygon class="cls-2" points="71.89 22.78 71.9 24.77 71.4 25.43 69.42 26.42 68.42 25.43 69.42 24.44 71.89 22.78"/><ellipse class="cls-2" cx="63.96" cy="24.44" rx="7.93" ry="3.97"/><ellipse class="cls-3" cx="63.96" cy="22.95" rx="7.93" ry="3.97"/><path class="cls-4" d="M12.57,20.67h-.4c-.92-1.41-3.36-2.3-6.15-2.09l-.22,0c0,.05,0,.1,0,.15a4.56,4.56,0,0,1-.08.9c0,.14,0,.28,0,.42a.49.49,0,0,1,.14.11c.47.46,1,.84,1.47,1.3a4.87,4.87,0,0,1,1.45,4c1.91-.57,3.32-1.65,3.7-2.88h0v0a2.23,2.23,0,0,0,.1-.81c0-.08,0-.15,0-.23Z"/><path class="cls-5" d="M6.29,17H5.81a.72.72,0,0,1,0,.61l0,0v0a1.82,1.82,0,0,0,0,.33c0,.25.06.5.07.75a4.56,4.56,0,0,1-.08.9c0,.14,0,.28,0,.42a.49.49,0,0,1,.14.11c.47.46,1,.84,1.47,1.3a4.77,4.77,0,0,1,1.18,1.82,3.86,3.86,0,0,1,.2.74c2.29-.55,3.89-1.86,3.89-3.38C12.57,18.64,9.76,17,6.29,17Z"/><path class="cls-4" d="M7,23.6a7,7,0,0,0-2-2.15.73.73,0,0,1-.76-.54,4.75,4.75,0,0,1,0-1.25,5.56,5.56,0,0,0,.08-.82,6.69,6.69,0,0,0-3.7,2.1H0v2L.06,23c.37,1.88,3.18,3.18,6.5,2.93.22,0,.44,0,.65-.07A3.63,3.63,0,0,0,7,23.6Z"/><path class="cls-5" d="M7,23.6a7,7,0,0,0-2-2.15.73.73,0,0,1-.76-.54,4.75,4.75,0,0,1,0-1.25,5,5,0,0,0,.08-.95,4.37,4.37,0,0,1,0-1.53C1.82,17.66,0,19,0,20.67c0,2,2.81,3.66,6.29,3.66.32,0,.63,0,.93,0A3.48,3.48,0,0,0,7,23.6Z"/><path class="cls-6" d="M66.77,28.13h-.16l-.64.15c-.32.06-.64,0-1,.07-.3.28-.5.43-.5.43-3.17,1.62-2.78-1.62-2.78-1.62,3-.49,5.56-5.59,5.56-5.59V13.31l-1,3.75-3.12,4.15-9.8,5.67-10,2.27-10.91-.37-11.59-1.9L10.66,23.2,6.94,19.48,4.1,16v5c1.14.47,3.34,1.67,3.34,3.87,0,2.78-2.94,1.17-3.34.94v2.24s6.31,15.66,41,11.7c0,0,16.74-1.94,21.82-11.7Zm-40,7.71c-4,0-15.73-1.33-11.59-5.87a76.52,76.52,0,0,0,13.57,2.9S30.74,35.84,26.78,35.84Zm26-1.74s-10.42,3.48-14.88,1c0,0-1.11-2.41.93-2.2,0,0,9,.21,14-1.77C52.81,31.13,56.28,32.11,52.81,34.1Z"/><path class="cls-2" d="M20.07,36.59C16,36.59,12.66,35,12.41,33h0v1.21c0,2.12,3.45,3.84,7.69,3.84,4,0,7.24-1.5,7.65-3.43h0a1.92,1.92,0,0,0,.05-.41,1.84,1.84,0,0,0-.05-.41v-.62C27.31,35.09,24.05,36.59,20.07,36.59Z"/><path class="cls-3" d="M27.2,32.74h.52v.42a2,2,0,0,0,.05-.42s0-.07,0-.11L27,32.56Z"/><path class="cls-3" d="M27.2,32.74,27,32.56a47.73,47.73,0,0,1-9.81-1.94,17.91,17.91,0,0,1-2.07-.83c-1.7.7-2.78,1.77-2.78,3a1.75,1.75,0,0,0,0,.24c.25,2,3.58,3.61,7.66,3.61s7.24-1.5,7.65-3.43v-.42Z"/><path class="cls-7" d="M65.53,10.06c-1.66.24-11,0-11,0C34.21,7.58,35.2.14,35.2.14,33.47-.6,8.68,1.38,4.71,11.79s10.41,17.36,31.4,18.13,30.08-8.71,31-12.86A8.49,8.49,0,0,0,65.53,10.06ZM55,24.93c-15.87,6.45-39.57,2.29-46.81-5.3,0,0-2.28-1.14-1.29-7.09,0,0,5-8.93,26.78-9.92,0,0,2.67,9.92,30.34,9.92C64.06,12.54,70.9,18.49,55,24.93Z"/><path class="cls-2" d="M53.92,35.22a2.32,2.32,0,0,0-.06-.38l0-.59c-.28,1.84-3.26,3.44-7,3.67s-7.07-1.08-7.42-3h0l.07,1.14c.12,2,3.46,3.42,7.45,3.18,3.74-.23,6.72-1.83,7-3.67h0A1.7,1.7,0,0,0,53.92,35.22Z"/><path class="cls-3" d="M51.66,31.48c-.88.25-1.77.46-2.65.64a43.39,43.39,0,0,1-6.5.76c-.91,0-1.71.06-2.35.06a2.38,2.38,0,0,0-.79,1.8,1.66,1.66,0,0,0,0,.22c.35,1.88,3.58,3.19,7.42,3s6.72-1.83,7-3.67a1.64,1.64,0,0,0,0-.39C53.78,32.89,53,32.06,51.66,31.48Z"/></g></g></svg>