<svg xmlns="http://www.w3.org/2000/svg" xmlns:xlink="http://www.w3.org/1999/xlink" viewBox="0 0 385.12 215.8"><defs><style>.cls-1{fill:none;}.cls-2{fill:#d97b45;}.cls-3{fill:#ff985d;}.cls-4{fill:#02511c;}.cls-5{fill:#00822e;}.cls-6{fill:#603813;}.cls-7{fill:#b79c67;}.cls-8{fill:#f9ebd4;}.cls-9{fill:#f4ddbd;}.cls-10{fill:#f23030;}.cls-11{fill:#fff;}.cls-12{fill:#936d82;}.cls-13{fill:#5f0de3;}.cls-14{fill:#39f;}.cls-15{fill:url(#New_Pattern_Swatch_4);}.cls-16{fill:#ffc8a9;}.cls-17{fill:#42210b;}.cls-18{fill:url(#New_Pattern_Swatch_4-3);}.cls-19{fill:#f9ebd2;}.cls-20{fill:#3f3f3f;}.cls-21{fill:#fde492;}.cls-22{fill:#353535;}.cls-23{fill:#ccc;}.cls-24{fill:#a5a5a4;}</style><pattern id="New_Pattern_Swatch_4" data-name="New Pattern Swatch 4" width="288" height="288" patternTransform="matrix(1, 0, 0, -1, -96, 1047.89)" patternUnits="userSpaceOnUse" viewBox="0 0 288 288"><rect class="cls-1" width="288" height="288"/><rect class="cls-1" width="288" height="288"/><rect class="cls-2" width="288" height="288"/><path class="cls-3" d="M127.69,42.45h0a1,1,0,0,0-1,1l.37,13.09a1,1,0,0,0,2,0l-.37-13.08a1,1,0,0,0-1-1Z"/><path class="cls-3" d="M96,149.6a1,1,0,0,0-1,.79l-1,4.42a1,1,0,0,0,2,.43l1-4.43a1,1,0,0,0-.76-1.19Z"/><path class="cls-3" d="M60.93,29.87a1,1,0,0,0-.94.67L58.47,34.8a1,1,0,0,0,1.89.67l1.51-4.26a1,1,0,0,0-.6-1.28A1,1,0,0,0,60.93,29.87Z"/><path class="cls-3" d="M179.14,94.19a1.06,1.06,0,0,0-.31,0l-8,2.64a1,1,0,0,0,.62,1.9l8-2.64a1,1,0,0,0,.63-1.26A1,1,0,0,0,179.14,94.19Z"/><path class="cls-3" d="M250.63,124.62a1,1,0,0,0-.58.18l-3.56,2.54a1,1,0,0,0,1.16,1.63h0l3.56-2.54a1,1,0,0,0-.58-1.81Z"/><path class="cls-3" d="M280.19,162.68a1,1,0,0,0-.92.6l-1.56,3.59a1,1,0,0,0,1.83.8l1.57-3.59a1,1,0,0,0-.51-1.32h0A1.1,1.1,0,0,0,280.19,162.68Z"/><path class="cls-3" d="M209.14,274.64a1,1,0,0,0-.52.15l-5.09,3.15a1,1,0,0,0,1,1.75l.07-.05,5.09-3.15a1,1,0,0,0,.33-1.37h0A1,1,0,0,0,209.14,274.64Z"/><path class="cls-3" d="M151.64,140.5a1,1,0,0,0-.45,1.9l3.79,1.89a1,1,0,0,0,.89-1.79l-3.79-1.89A1,1,0,0,0,151.64,140.5Z"/><path class="cls-3" d="M43.1,130.63a1,1,0,0,0-.52.15,1,1,0,0,0-.35,1.37h0l5.35,8.74a1,1,0,1,0,1.7-1h0L44,131.11A1,1,0,0,0,43.1,130.63Z"/><path class="cls-3" d="M44.46,274.61a1,1,0,1,0-.07,2l15,1.07a1,1,0,1,0,.14-2l-15-1.07Z"/><path class="cls-3" d="M257.74,172.22a1,1,0,0,0-.83.44l-2.47,3.67a1,1,0,0,0,1.66,1.12h0l2.47-3.67a1,1,0,0,0-.27-1.39h0A1,1,0,0,0,257.74,172.22Z"/><path class="cls-3" d="M116.42,162.38a1,1,0,0,0-.74,1.72h0l1.91,1.79a1,1,0,0,0,1.37-1.45l-1.91-1.8A1,1,0,0,0,116.42,162.38Z"/><path class="cls-3" d="M256,219.33h-.24a1,1,0,0,0-.73,1.21l.79,3.29a1,1,0,0,0,2-.35l0-.12-.76-3.27A1,1,0,0,0,256,219.33Z"/><path class="cls-3" d="M72.84,97a1,1,0,0,0-.5.14L69.7,98.65a1,1,0,0,0-.38,1.36,1,1,0,0,0,1.36.39h0l2.64-1.52A1,1,0,0,0,72.84,97Z"/><path class="cls-3" d="M267.22,155.64h-.12l-2.65.32a1,1,0,0,0,.25,2l2.65-.33a1,1,0,0,0-.13-2Z"/><path class="cls-3" d="M228,139.63a1,1,0,0,0-.56.17l-8,5.39a1,1,0,1,0,1,1.72l.09-.06,8-5.39a1,1,0,0,0,.27-1.39h0A1,1,0,0,0,228,139.63Z"/><path class="cls-3" d="M134.32,273.14a1,1,0,0,0-1,1,1,1,0,0,0,.54.89l6.7,3.47a1,1,0,0,0,.92-1.78l-6.7-3.47A1,1,0,0,0,134.32,273.14Z"/><path class="cls-3" d="M196.79,176.7a1,1,0,0,0-.38.07l-5.66,2.36a1,1,0,0,0,.63,1.9l.14-.06,5.65-2.35a1,1,0,0,0,.53-1.31,1,1,0,0,0-.91-.61Z"/><path class="cls-3" d="M118.81,265a1,1,0,0,0-.89.54l-5.8,11.1a1,1,0,0,0,1.75,1l0,0,5.81-11.1a1,1,0,0,0-.43-1.35h0A.93.93,0,0,0,118.81,265Z"/><path class="cls-3" d="M134.36,149.85a1,1,0,0,0-1,1l-.16,3.67a1,1,0,0,0,2,0l.16-3.67a1,1,0,0,0-1-1Z"/><path class="cls-3" d="M225,272.94a1,1,0,0,0-.87,1.48h0L226,277.9a1,1,0,0,0,1.75-1h0l-1.92-3.47A1,1,0,0,0,225,272.94Z"/><path class="cls-3" d="M253,31.24a1,1,0,0,0-1,.86l-1,7.59a1,1,0,0,0,.85,1.13h0A1,1,0,0,0,253,40l1-7.59a1,1,0,0,0-.85-1.12Z"/><path class="cls-3" d="M211.82,63.07a1,1,0,0,0-1,.75l-1.08,4.24a1,1,0,1,0,1.94.49l1.08-4.23A1,1,0,0,0,212,63.1h0A.83.83,0,0,0,211.82,63.07Z"/><path class="cls-3" d="M82.39,48.29a1,1,0,0,0-.59.2,1,1,0,0,0-.22,1.39l9,12.26a1,1,0,0,0,1.86-.72.91.91,0,0,0-.3-.42L83.2,48.7A1,1,0,0,0,82.39,48.29Z"/><path class="cls-3" d="M244.45,267.43h-.17a1,1,0,0,0-.82,1.15l1.35,7.82a1,1,0,0,0,2-.34l-1.35-7.82A1,1,0,0,0,244.45,267.43Z"/><path class="cls-3" d="M254.18,244.38a1,1,0,0,0-1,.82l-.83,4.59a1,1,0,1,0,2,.35l.83-4.59a1,1,0,0,0-.81-1.16h-.19Z"/><path class="cls-3" d="M81.71,20.84a1,1,0,0,0-1,.85L78.65,35a1,1,0,0,0,2,.31h0L82.7,22a1,1,0,0,0-.82-1.15h-.17Z"/><path class="cls-3" d="M11.21,74.16a1,1,0,0,0-.49.12,1,1,0,0,0-.39,1.36h0l1.76,3.18a1,1,0,0,0,1.75-1h0l-1.76-3.17A1,1,0,0,0,11.21,74.16Z"/><path class="cls-3" d="M270.37,206.21a1,1,0,1,0-.19,2h0l8.16,1.59a1,1,0,1,0,.39-2h0l-8.16-1.59Z"/><path class="cls-3" d="M278,70.44a1,1,0,0,0-1,.84l-1.39,8.47a1,1,0,0,0,2,.32L279,71.6a1,1,0,0,0-.82-1.15Z"/><path class="cls-3" d="M170,179.69a1,1,0,0,0-.58,1.82l2.51,1.75a1,1,0,0,0,1.39-.24h0a1,1,0,0,0-.25-1.39l-2.51-1.75A1,1,0,0,0,170,179.69Z"/><path class="cls-3" d="M149.33,253.63a1,1,0,0,0-.88.51l-1.54,2.75a1,1,0,0,0,1.75,1l1.54-2.75a1,1,0,0,0-.38-1.36,1,1,0,0,0-.49-.13Z"/><path class="cls-3" d="M99.4,173.94a1,1,0,0,0-.53.15,1,1,0,0,0-.32,1.38h0l4.32,7a1,1,0,0,0,1.38.32h0a1,1,0,0,0,.33-1.37l-4.33-7A1,1,0,0,0,99.4,173.94Z"/><path class="cls-3" d="M229.65,29.31a1,1,0,1,0-.21,2l4,.89a1,1,0,0,0,.43-2l-4-.89Z"/><path class="cls-3" d="M116.87,140.73a.92.92,0,0,0-.53.16l-3.7,2.35a1,1,0,0,0,1.08,1.68l3.69-2.35a1,1,0,0,0-.54-1.84Z"/><path class="cls-3" d="M137.46,75.45a1,1,0,0,0-.27,2l9.59,2.63a1,1,0,0,0,.53-1.93l-9.59-2.63A.77.77,0,0,0,137.46,75.45Z"/><path class="cls-3" d="M13.77,167.45h-.29l-2.89.88a1,1,0,0,0,.46,1.95l.12,0,2.89-.88a1,1,0,1,0-.29-2Z"/><path class="cls-3" d="M136.8,119.09a1,1,0,0,0-.92.62l-3.5,8.46a1,1,0,0,0,1.85.76l3.5-8.46a1,1,0,0,0-.54-1.3A1,1,0,0,0,136.8,119.09Z"/><path class="cls-3" d="M278.09,99.07a.89.89,0,0,0-.36.07l-13.46,5.21a1,1,0,1,0,.58,1.91l.14-.05L278.45,101a1,1,0,0,0-.36-1.93Z"/><path class="cls-3" d="M234.64,173.77a1,1,0,0,0-.87.49,1,1,0,0,0,.36,1.37h0l2.29,1.34a1,1,0,0,0,1.37-.36h0a1,1,0,0,0-.36-1.36l-2.3-1.34A1,1,0,0,0,234.64,173.77Z"/><path class="cls-3" d="M209.72,253.54a1,1,0,0,0-.86.48l-3.29,5.44a1,1,0,0,0,1.57,1.24,1,1,0,0,0,.14-.24l3.29-5.46a1,1,0,0,0-.33-1.37A.93.93,0,0,0,209.72,253.54Z"/><path class="cls-3" d="M9.87,126.39H9.76a1,1,0,0,0-.88,1.1l.3,2.87a1,1,0,0,0,2-.21l-.31-2.87A1,1,0,0,0,9.87,126.39Z"/><path class="cls-3" d="M269.64,50.89a1,1,0,0,0-.14,2l7.93,1a1,1,0,1,0,.26-2l-7.93-1Z"/><path class="cls-3" d="M77.43,141.82a1,1,0,0,0-.54.17l-8.36,5.43a1,1,0,0,0,1.1,1.68L78,143.66a1,1,0,0,0-.57-1.84Z"/><path class="cls-3" d="M36.83,204.24a1.16,1.16,0,0,0-.37.07l-9.68,3.86a1,1,0,0,0-.34,1.37,1,1,0,0,0,1.08.46l9.68-3.86a1,1,0,0,0-.37-1.93Z"/><path class="cls-3" d="M12.08,187.29h-.14a1,1,0,0,0-.85,1.13h0l.55,3.74a1,1,0,0,0,2-.29l-.55-3.74A1,1,0,0,0,12.08,187.29Z"/><path class="cls-3" d="M64.55,9.92h-.26L58.7,11.45a1,1,0,0,0-.7,1.23h0a1,1,0,0,0,1.23.7h0l5.59-1.53a1,1,0,0,0-.27-2Z"/><path class="cls-3" d="M278.23,9.27a1,1,0,0,0-.88.52l-1.49,2.77a1,1,0,0,0,1.76.95l1.49-2.77a1,1,0,0,0-.88-1.47Z"/><path class="cls-3" d="M184,130.92a1,1,0,0,0-.67.26l-7.51,6.9a1,1,0,0,0,1.35,1.47l7.51-6.9a1,1,0,0,0,.06-1.41A1,1,0,0,0,184,130.92Z"/><path class="cls-3" d="M78,74h-.15A1,1,0,0,0,77,75.14h0l.76,5a1,1,0,0,0,2-.3h0l-.76-5A1,1,0,0,0,78,74Z"/><path class="cls-3" d="M222.56,92.59a1,1,0,0,0-.16,2l2.73.43a1,1,0,0,0,.31-2l-2.73-.43Z"/><path class="cls-3" d="M26.43,119.09a1,1,0,0,0-.77,1.63h0l2.15,2.62a1,1,0,0,0,1.55-1.27l-2.16-2.62A1,1,0,0,0,26.43,119.09Z"/><path class="cls-3" d="M277.59,225.91h-.1l-3.24.34a1,1,0,1,0,.21,2l3.24-.34a1,1,0,0,0,.89-1.1h0A1,1,0,0,0,277.59,225.91Z"/><path class="cls-3" d="M187.31,272.64a1,1,0,0,0-.9.56l-1.95,3.93a1,1,0,0,0,1.79.89l1.95-3.93a1,1,0,0,0-.89-1.45Z"/><path class="cls-3" d="M44.55,226a.93.93,0,0,0-.29.05L33.18,229.4a1,1,0,1,0,.58,1.92l11.09-3.39a1,1,0,1,0-.3-2h0Z"/><path class="cls-3" d="M275.67,181.42a.86.86,0,0,0-.32,0,1,1,0,0,0-.63,1.26l2.28,6.86a1,1,0,1,0,1.93-.51.5.5,0,0,0,0-.13l-2.28-6.8A1,1,0,0,0,275.67,181.42Z"/><path class="cls-3" d="M256.36,8.31a1,1,0,0,0-.84,1.54h0L258.83,15A1,1,0,0,0,260.51,14l-3.3-5.18A1,1,0,0,0,256.36,8.31Z"/><path class="cls-3" d="M151.59,56.39a1,1,0,0,0-.76.35l-4,4.65a1,1,0,0,0,1.52,1.31l4-4.66a1,1,0,0,0-.11-1.41h0A1,1,0,0,0,151.59,56.39Z"/><path class="cls-3" d="M15,148.33a1,1,0,0,0-.12,2l12.51,1.52a1,1,0,0,0,.24-2l-12.5-1.52Z"/><path class="cls-3" d="M200.92,196.56a1,1,0,0,0-1,.82l-1.48,7.94a1,1,0,0,0,2,.36l1.48-7.93a1,1,0,0,0-.8-1.17h0Z"/><path class="cls-3" d="M97.06,97a1,1,0,0,0-.65.25l-7.13,6.24a1,1,0,0,0-.1,1.41,1,1,0,0,0,1.42.1l7.12-6.24a1,1,0,0,0,.1-1.41A1,1,0,0,0,97.06,97Z"/><path class="cls-3" d="M210.07,37.64a.93.93,0,0,0-.4.09,1,1,0,0,0-.51,1.32h0l3.44,7.66a1,1,0,0,0,1.83-.81h0L211,38.24A1,1,0,0,0,210.07,37.64Z"/><path class="cls-3" d="M166.32,225.11a1,1,0,0,0-1,.73L161.55,239a1,1,0,1,0,1.92.56h0l3.81-13.2a1,1,0,0,0-.68-1.24A1.31,1.31,0,0,0,166.32,225.11Z"/><path class="cls-3" d="M71.72,117a1,1,0,0,0-.81.4l-6,8a1,1,0,1,0,1.51,1.31l.09-.12,6-8a1,1,0,0,0-.21-1.4h0A1,1,0,0,0,71.72,117Z"/><path class="cls-3" d="M10.84,208.94a1,1,0,0,0-1,1l-.4,9.76a1,1,0,0,0,2,0l.4-9.7a1,1,0,0,0-.95-1Z"/><path class="cls-3" d="M187.67,110.78a1,1,0,0,0-1,1,1,1,0,0,0,.26.67l2.27,2.49a1,1,0,0,0,1.56-1.26l-.09-.09-2.26-2.49A1,1,0,0,0,187.67,110.78Z"/><path class="cls-3" d="M173.38,154.56a1,1,0,0,0-.33.06,1,1,0,0,0-.61,1.28h0l3.14,9a1,1,0,0,0,1.28.61h0a1,1,0,0,0,.61-1.27l-3.15-9A1,1,0,0,0,173.38,154.56Z"/><path class="cls-3" d="M234.86,113a1,1,0,0,0-.37.08l-11.76,4.77a1,1,0,0,0,.75,1.85l11.76-4.77a1,1,0,0,0-.38-1.93Z"/><path class="cls-3" d="M215.85,165a1,1,0,0,0-1,.87L214,172.5a1,1,0,0,0,2,.27l.9-6.66A1,1,0,0,0,216,165h-.17Z"/><path class="cls-3" d="M62.28,197.14a1,1,0,0,0-.41.09l-10.24,4.59a1,1,0,1,0,.65,1.89l.16-.07L62.69,199a1,1,0,0,0,.51-1.32h0A1,1,0,0,0,62.28,197.14Z"/><path class="cls-3" d="M122.54,84.3h-.2a1,1,0,0,0-.78,1.18h0l2.44,12a1,1,0,1,0,2-.4l-2.41-11.93A1,1,0,0,0,122.54,84.3Z"/><path class="cls-3" d="M126.86,246.89a1,1,0,0,0-1,1,1,1,0,0,0,.66,1l4.49,1.64a1,1,0,1,0,.69-1.88h0L127.21,247A1,1,0,0,0,126.86,246.89Z"/><path class="cls-3" d="M126.52,182a1,1,0,1,0,0,2l11.13.09a1,1,0,0,0,0-2Z"/><path class="cls-3" d="M244.61,89.49h-.27a1,1,0,0,0-.69,1.23h0l3.89,13.41a1,1,0,0,0,1.92-.56h0l-3.89-13.4A1,1,0,0,0,244.61,89.49Z"/><path class="cls-3" d="M231,50.32a1,1,0,0,0-.37,1.93l6.53,2.57a1,1,0,0,0,1.3-.56h0a1,1,0,0,0-.57-1.29l-6.53-2.57A.89.89,0,0,0,231,50.32Z"/><path class="cls-3" d="M189.64,219a1,1,0,0,0-.83.44l-2,2.9a1,1,0,0,0,1.66,1.12l2-2.9a1,1,0,0,0-.27-1.39h0A1,1,0,0,0,189.64,219Z"/><path class="cls-3" d="M113.38,197.57a1,1,0,0,0-.87.5l-5.64,10a1,1,0,0,0,.37,1.36h0a1,1,0,0,0,1.36-.38l5.64-10a1,1,0,0,0-.38-1.36A1,1,0,0,0,113.38,197.57Z"/><path class="cls-3" d="M165.94,115.76a1,1,0,0,0-.69.28l-6.34,6.14a1,1,0,0,0,1.39,1.43l6.34-6.13a1,1,0,0,0,0-1.41A1,1,0,0,0,165.94,115.76Z"/><path class="cls-3" d="M192.24,78a1,1,0,0,0-.64,1.77h0l9,7.49a1,1,0,0,0,1.28-1.53h0l-9-7.49A1,1,0,0,0,192.24,78Z"/><path class="cls-3" d="M64.71,52.56h-.19l-4.3.81a1,1,0,1,0,.36,2l4.31-.81a1,1,0,0,0-.18-2Z"/><path class="cls-3" d="M112.79,29a1,1,0,0,0-.47.12L100,35.82a1,1,0,1,0,1,1.75l12.29-6.66a1,1,0,0,0,.41-1.35,1,1,0,0,0-.89-.53Z"/><path class="cls-3" d="M179.37,199.13a1,1,0,0,0-.64.23l-6,5a1,1,0,1,0,1.27,1.55l6-5a1,1,0,0,0,.13-1.41h0A1,1,0,0,0,179.37,199.13Z"/><path class="cls-3" d="M280,140.53a1,1,0,0,0-.94.67l-1,2.69a1,1,0,1,0,1.89.67l1-2.69a1,1,0,0,0-.6-1.28A1,1,0,0,0,280,140.53Z"/><path class="cls-3" d="M60.76,240a1,1,0,0,0-1,.91l-1.39,15a1,1,0,1,0,2,.19l1.39-15a1,1,0,0,0-.89-1.1h-.1Z"/><path class="cls-3" d="M148.5,37.39a1,1,0,0,0-.3,0l-2.41.77a1,1,0,0,0-.54,1.31,1,1,0,0,0,1.14.59l2.42-.76a1,1,0,0,0,.65-1.26h0A1,1,0,0,0,148.5,37.39Z"/><path class="cls-3" d="M134.24,203.24a1,1,0,0,0-.67.26l-2.06,1.85a1,1,0,0,0-.15,1.41,1,1,0,0,0,1.4.15l.09-.08,2.06-1.83a1,1,0,0,0-.67-1.74Z"/><path class="cls-3" d="M207,127.23a1,1,0,0,0-.83.44l-3.66,5.43a1,1,0,0,0,1.66,1.11h0l3.66-5.42a1,1,0,0,0-.27-1.39h0A1,1,0,0,0,207,127.23Z"/><path class="cls-3" d="M274.86,242.85h-.06a1,1,0,0,0-.94,1.06h0l.8,13.61a1,1,0,1,0,1.94-.11l-.79-13.62A1,1,0,0,0,274.86,242.85Z"/><path class="cls-3" d="M167.43,258.61a1,1,0,1,0-.16,2l8.57,1.4a1,1,0,0,0,.32-2h0l-8.57-1.4Z"/><path class="cls-3" d="M193.41,54.07a1,1,0,0,0-.44.11L183.11,59a1,1,0,1,0,.75,1.85l.13-.06L193.85,56a1,1,0,0,0,.46-1.34h0A1,1,0,0,0,193.41,54.07Z"/><path class="cls-3" d="M153.78,162.62a1,1,0,0,0-.78.38l-5.45,6.27a1,1,0,0,0,1.51,1.32l5.45-6.28a1,1,0,0,0-.73-1.69Z"/><path class="cls-3" d="M207.24,104a1,1,0,0,0-.25,0,1,1,0,0,0-.72,1.21l.8,3.16a1,1,0,0,0,1.94-.5h0l-.8-3.15A1,1,0,0,0,207.24,104Z"/><path class="cls-3" d="M58.89,71.48a1,1,0,0,0-1,.78L54.89,86a1,1,0,0,0,2,.43l3-13.76a1,1,0,0,0-.76-1.19A.65.65,0,0,0,58.89,71.48Z"/><path class="cls-3" d="M120.35,10.12a1,1,0,0,0-.72.31,1,1,0,0,0,0,1.41h0l5.85,5.52A1,1,0,0,0,127,16a.47.47,0,0,0-.1-.1L121,10.39A1,1,0,0,0,120.35,10.12Z"/><path class="cls-3" d="M54,158a1,1,0,0,0-.73.31l-7.64,8.16A1,1,0,1,0,47,167.93l.09-.1,7.64-8.15a1,1,0,0,0,0-1.41A1,1,0,0,0,54,158Z"/><path class="cls-3" d="M233.37,73.91h-.08l-7.4.62a1,1,0,0,0,.16,2h0l7.4-.62a1,1,0,0,0-.09-2Z"/><path class="cls-3" d="M239.43,153.45a1,1,0,1,0-.27,2l7.27,2a1,1,0,0,0,.52-1.93l-7.26-2A.77.77,0,0,0,239.43,153.45Z"/><path class="cls-3" d="M233.34,9.25a1,1,0,0,0-1,1,1,1,0,0,0,.54.9l3.5,1.86a1,1,0,0,0,.94-1.77h0l-3.5-1.86A1,1,0,0,0,233.34,9.25Z"/><path class="cls-3" d="M256.1,193.94a1,1,0,0,0-.43.1l-14.07,6.7a1,1,0,0,0,.82,1.83l0,0,14.08-6.7a1,1,0,0,0,.5-1.32A1,1,0,0,0,256.1,193.94Z"/><path class="cls-3" d="M188.69,29.68a1,1,0,0,0-.79,1.61l3.7,4.86a1,1,0,0,0,1.59-1.22l-3.7-4.86A1,1,0,0,0,188.69,29.68Z"/><path class="cls-3" d="M235.92,221.54h-.1a1,1,0,0,0-.9,1.09l.62,6.76a1,1,0,1,0,2-.18l-.62-6.76A1,1,0,0,0,235.92,221.54Z"/><path class="cls-3" d="M215.07,223.61a1,1,0,0,0-.76.35l-7.94,9.45a1,1,0,1,0,1.53,1.29l7.94-9.45a1,1,0,0,0-.12-1.41h0A1,1,0,0,0,215.07,223.61Z"/><path class="cls-3" d="M29.77,178.9a1,1,0,0,0-.48,1.88l8.19,4.55a1,1,0,0,0,1.36-.39h0a1,1,0,0,0-.39-1.36h0L30.26,179A1,1,0,0,0,29.77,178.9Z"/><path class="cls-3" d="M94.18,272.15a1,1,0,0,0-1,.83l-.89,5.4a1,1,0,0,0,2,.32l.9-5.39a1,1,0,0,0-.82-1.15h-.19Z"/><path class="cls-3" d="M50.61,106.13a1,1,0,0,0-.82.42l-3.31,4.62a1,1,0,1,0,1.63,1.16h0l3.31-4.62a1,1,0,0,0-.23-1.39A1,1,0,0,0,50.61,106.13Z"/><path class="cls-3" d="M275.64,29.1a1,1,0,0,0-1,.85L274,34.48a1,1,0,0,0,2,.3l.69-4.53a1,1,0,0,0-.84-1.14h-.16Z"/><path class="cls-3" d="M128.71,223.22a1,1,0,0,0-.93.63,1,1,0,0,0,.56,1.3h0l13.29,5.28a1,1,0,0,0,.93-1.77.84.84,0,0,0-.2-.08l-13.28-5.29A.94.94,0,0,0,128.71,223.22Z"/><path class="cls-3" d="M172.68,42.32a1,1,0,0,0-.41.08l-7.18,3.17a1,1,0,0,0,.81,1.83h0l7.18-3.17a1,1,0,0,0-.4-1.91Z"/><path class="cls-3" d="M253,63.29a1,1,0,0,0-.89,1.45h0l6.79,13.36a1,1,0,0,0,1.78-.9l-6.79-13.37A1,1,0,0,0,253,63.29Z"/><path class="cls-3" d="M89.24,8.52a1,1,0,1,0-.06,2l12,.72a1,1,0,0,0,.12-2l-12-.72Z"/><path class="cls-3" d="M79.28,233.37a1,1,0,0,0-1,.71,1,1,0,0,0,.68,1.24h0l11.4,3.45a1,1,0,0,0,1.25-.66h0a1,1,0,0,0-.65-1.24l-11.43-3.46A.92.92,0,0,0,79.28,233.37Z"/><path class="cls-3" d="M12.63,258.91a1,1,0,0,0-1,.83L8.93,275a1,1,0,1,0,2,.35l2.71-15.29a1,1,0,0,0-.81-1.16h-.2Z"/><path class="cls-3" d="M112.35,110.28a1,1,0,0,0-1,.84l-2.18,13.61a1,1,0,1,0,2,.32l2.18-13.61a1,1,0,0,0-.82-1.15h-.18Z"/><path class="cls-3" d="M199.14,152.62h-.31l-3.78,1.24a1,1,0,1,0,.55,1.92l.07,0,3.78-1.24a1,1,0,0,0-.31-1.9Z"/><path class="cls-3" d="M87.13,212.44a1,1,0,0,0-.44,1.9h0l4.58,2.22a1,1,0,0,0,1.34-.46h0a1,1,0,0,0-.47-1.33l-4.58-2.22A.91.91,0,0,0,87.13,212.44Z"/><path class="cls-3" d="M144.23,7.82h0a1,1,0,0,0-1,1l.38,14.7a1,1,0,1,0,2,0l-.37-14.7a1,1,0,0,0-1-1Z"/><path class="cls-3" d="M104.72,251.2a1,1,0,0,0-.65.25l-2,1.72a1,1,0,1,0,1.32,1.51l2-1.73a1,1,0,0,0,.09-1.41,1,1,0,0,0-.75-.34Z"/><path class="cls-3" d="M37.1,7.51a1,1,0,0,0-.71.29l-2.57,2.57a1,1,0,0,0,1.41,1.41L37.8,9.22a1,1,0,0,0,0-1.41A1,1,0,0,0,37.1,7.51Z"/><path class="cls-3" d="M103.66,78.66h-.18l-5.16,1a1,1,0,1,0,.36,2l5.16-1a1,1,0,0,0-.18-2Z"/><path class="cls-3" d="M211.74,10.21a1,1,0,0,0-1,.94l-.57,9.53a1,1,0,1,0,2,.12l.56-9.53a1,1,0,0,0-.93-1Z"/><path class="cls-3" d="M15.83,40.38a1,1,0,0,0-.94.68l-4.15,12.4a1,1,0,1,0,1.83.8.58.58,0,0,0,.06-.17L16.78,41.7a1,1,0,0,0-.63-1.27h0A.86.86,0,0,0,15.83,40.38Z"/><path class="cls-3" d="M37.92,86a1,1,0,0,0-.69.27L26.12,96.8a1,1,0,0,0,1.37,1.45L38.61,87.69A1,1,0,0,0,37.92,86Z"/><path class="cls-3" d="M160.53,275.74a1,1,0,0,0-1,1,1,1,0,0,0,.49.88l3.52,2.09a1,1,0,1,0,1.18-1.62l-.18-.1L161,275.88A1.07,1.07,0,0,0,160.53,275.74Z"/><path class="cls-3" d="M32.58,250a1,1,0,0,0-.17,2l7.8,1.39a1,1,0,1,0,.35-2L32.76,250Z"/><path class="cls-3" d="M168.58,9.86a1,1,0,0,0-1,.86l-1.73,12.7a1,1,0,0,0,.85,1.13h0a1,1,0,0,0,1.12-.86L169.56,11a1,1,0,0,0-.86-1.12Z"/><path class="cls-3" d="M29,272.86a1,1,0,0,0-.86.5l-2.3,3.91a1,1,0,0,0,1.69,1.07l0-.07,2.29-3.91a1,1,0,0,0-.34-1.36A1.07,1.07,0,0,0,29,272.86Z"/><path class="cls-3" d="M39.78,27.29a1,1,0,0,0-1,.8L36.43,39.74a1,1,0,0,0,2,.39h0l2.35-11.64A1,1,0,0,0,40,27.31h0Z"/><path class="cls-3" d="M108.69,55.61a1,1,0,0,0-.89,1.45L110,61.41a1,1,0,1,0,1.79-.89l-2.18-4.35A1,1,0,0,0,108.69,55.61Z"/><path class="cls-3" d="M157.4,188.39a1,1,0,0,0-.75.34l-4.13,4.7a1,1,0,0,0,1.44,1.39l.06-.07,4.13-4.7a1,1,0,0,0-.75-1.66Z"/><path class="cls-3" d="M153.75,209.91a1,1,0,0,0-.85.47l-1.72,2.82a1,1,0,1,0,1.53,1.29,1.22,1.22,0,0,0,.17-.29l1.73-2.81a1,1,0,0,0-.32-1.38h0A1,1,0,0,0,153.75,209.91Z"/><path class="cls-3" d="M234,248.65h-.13l-8.24,1.09a1,1,0,1,0,.26,2h0l8.24-1.09a1,1,0,0,0-.13-2Z"/><path class="cls-3" d="M82.14,256.35a1,1,0,0,0-.91.59L75.06,270.8a1,1,0,1,0,1.83.81l6.17-13.86a1,1,0,0,0-.51-1.32h0A1.15,1.15,0,0,0,82.14,256.35Z"/><path class="cls-3" d="M11.24,98.45a1,1,0,0,0-1,.92L9.62,107a1,1,0,0,0,.91,1.08h0a1,1,0,0,0,1.08-.91h0l.61-7.62a1,1,0,0,0-.91-1.08Z"/><path class="cls-3" d="M85,187.23a1,1,0,0,0-.88.53L80,195.68a1,1,0,1,0,1.7,1,.83.83,0,0,0,.07-.13l4.14-7.91a1,1,0,0,0-.43-1.35h0A.89.89,0,0,0,85,187.23Z"/><path class="cls-3" d="M182.27,240.58a1,1,0,0,0-.58,1.82l10.76,7.54a1,1,0,0,0,1.23-1.58l-.09-.06-10.75-7.54A1,1,0,0,0,182.27,240.58Z"/><path class="cls-3" d="M41,59.14a1,1,0,0,0-.55.16L30.21,66a1,1,0,0,0,1.09,1.68L41.49,61A1,1,0,0,0,41,59.16Z"/><path class="cls-3" d="M12.54,10.43h-.16a1,1,0,0,0-.83,1.14l1.81,11.5a1,1,0,1,0,2-.31l-1.8-11.5A1,1,0,0,0,12.54,10.43Z"/><path class="cls-3" d="M92,124.59a1,1,0,0,0-1,.73l-.78,2.8a1,1,0,0,0,.7,1.23h0a1,1,0,0,0,1.23-.7h0l.78-2.8a1,1,0,0,0-.7-1.23h0A.91.91,0,0,0,92,124.59Z"/><path class="cls-3" d="M60.52,179.14a1,1,0,0,0-.65.25,1,1,0,0,0-.1,1.41l1.72,2a1,1,0,0,0,1.5-1.32l-1.71-2A1,1,0,0,0,60.52,179.14Z"/><path class="cls-3" d="M107.74,227.78a1,1,0,0,0-.5.13,1,1,0,0,0-.36,1.36l3.75,6.54a1,1,0,1,0,1.77-.93.25.25,0,0,0,0-.07l-3.75-6.54A1,1,0,0,0,107.74,227.78Z"/><path class="cls-3" d="M150.44,97a1,1,0,0,0-.85.47l-3.12,4.94a1,1,0,0,0,1.7,1.07l3.11-4.94a1,1,0,0,0-.31-1.38h0A1,1,0,0,0,150.44,97Z"/><path class="cls-3" d="M264.11,273.62a1,1,0,0,0-1,.81,1,1,0,0,0,.79,1.17l12.8,2.5a1,1,0,0,0,1.18-.78h0a1,1,0,0,0-.78-1.18h0l-12.79-2.49A.62.62,0,0,0,264.11,273.62Z"/><path class="cls-3" d="M79.07,166.23h-.2l-3.4.67a1,1,0,0,0,.39,2l3.4-.67a1,1,0,1,0-.19-2Z"/><path class="cls-3" d="M68.24,214.8a1,1,0,0,0-.86.49l-3.74,6.24a1,1,0,0,0,1.72,1l3.74-6.25a1,1,0,0,0-.86-1.48Z"/><path class="cls-3" d="M14.57,237.87h-.26L10.12,239a1,1,0,0,0,.5,1.94l4.2-1.09a1,1,0,0,0-.25-2Z"/><path class="cls-3" d="M277,122.07h-.12l-3.08.36a1,1,0,0,0,.23,2l3.08-.35a1,1,0,1,0-.11-2Z"/><path class="cls-3" d="M262.51,138.6h-.25l-4.74,1.2a1,1,0,0,0-.72,1.22h0a1,1,0,0,0,1.21.72l4.74-1.2a1,1,0,0,0-.24-1.94Z"/><path class="cls-3" d="M167.93,69.27a1,1,0,0,0-1,.89l-1,9.26a1,1,0,0,0,2,.21l1-9.26a1,1,0,0,0-.89-1.1h-.11Z"/><path class="cls-3" d="M223.48,190.47a1,1,0,0,0-1,.76l-3.5,14a1,1,0,0,0,1.94.49h0l3.5-14a1,1,0,0,0-.73-1.21A.76.76,0,0,0,223.48,190.47Z"/><path class="cls-3" d="M192.14,10.44h0l-4.29.09a1,1,0,0,0,0,2l4.29-.09a1,1,0,0,0,0-2Z"/></pattern><pattern id="New_Pattern_Swatch_4-3" data-name="New Pattern Swatch 4-3" width="288" height="288" patternTransform="matrix(1, 0, 0, -1, -96, 1045.89)" patternUnits="userSpaceOnUse" viewBox="0 0 288 288"><rect class="cls-1" width="288" height="288"/><rect class="cls-1" width="288" height="288"/><rect class="cls-2" width="288" height="288"/><path class="cls-3" d="M127.69,42.45h0a1,1,0,0,0-1,1l.37,13.09a1,1,0,0,0,2,0l-.37-13.08a1,1,0,0,0-1-1Z"/><path class="cls-3" d="M96,149.6a1,1,0,0,0-1,.79l-1,4.42a1,1,0,0,0,2,.43l1-4.43a1,1,0,0,0-.76-1.19Z"/><path class="cls-3" d="M60.93,29.87a1,1,0,0,0-.94.67L58.47,34.8a1,1,0,0,0,1.89.67l1.51-4.26a1,1,0,0,0-.6-1.28A1,1,0,0,0,60.93,29.87Z"/><path class="cls-3" d="M179.14,94.19a1.06,1.06,0,0,0-.31,0l-8,2.64a1,1,0,0,0,.62,1.9l8-2.64a1,1,0,0,0,.63-1.26A1,1,0,0,0,179.14,94.19Z"/><path class="cls-3" d="M250.63,124.62a1,1,0,0,0-.58.18l-3.56,2.54a1,1,0,0,0,1.16,1.63h0l3.56-2.54a1,1,0,0,0-.58-1.81Z"/><path class="cls-3" d="M280.19,162.68a1,1,0,0,0-.92.6l-1.56,3.59a1,1,0,0,0,1.83.8l1.57-3.59a1,1,0,0,0-.51-1.32h0A1.1,1.1,0,0,0,280.19,162.68Z"/><path class="cls-3" d="M209.14,274.64a1,1,0,0,0-.52.15l-5.09,3.15a1,1,0,0,0,1,1.75l.07-.05,5.09-3.15a1,1,0,0,0,.33-1.37h0A1,1,0,0,0,209.14,274.64Z"/><path class="cls-3" d="M151.64,140.5a1,1,0,0,0-.45,1.9l3.79,1.89a1,1,0,0,0,.89-1.79l-3.79-1.89A1,1,0,0,0,151.64,140.5Z"/><path class="cls-3" d="M43.1,130.63a1,1,0,0,0-.52.15,1,1,0,0,0-.35,1.37h0l5.35,8.74a1,1,0,1,0,1.7-1h0L44,131.11A1,1,0,0,0,43.1,130.63Z"/><path class="cls-3" d="M44.46,274.61a1,1,0,1,0-.07,2l15,1.07a1,1,0,1,0,.14-2l-15-1.07Z"/><path class="cls-3" d="M257.74,172.22a1,1,0,0,0-.83.44l-2.47,3.67a1,1,0,0,0,1.66,1.12h0l2.47-3.67a1,1,0,0,0-.27-1.39h0A1,1,0,0,0,257.74,172.22Z"/><path class="cls-3" d="M116.42,162.38a1,1,0,0,0-.74,1.72h0l1.91,1.79a1,1,0,0,0,1.37-1.45l-1.91-1.8A1,1,0,0,0,116.42,162.38Z"/><path class="cls-3" d="M256,219.33h-.24a1,1,0,0,0-.73,1.21l.79,3.29a1,1,0,0,0,2-.35l0-.12-.76-3.27A1,1,0,0,0,256,219.33Z"/><path class="cls-3" d="M72.84,97a1,1,0,0,0-.5.14L69.7,98.65a1,1,0,0,0-.38,1.36,1,1,0,0,0,1.36.39h0l2.64-1.52A1,1,0,0,0,72.84,97Z"/><path class="cls-3" d="M267.22,155.64h-.12l-2.65.32a1,1,0,0,0,.25,2l2.65-.33a1,1,0,0,0-.13-2Z"/><path class="cls-3" d="M228,139.63a1,1,0,0,0-.56.17l-8,5.39a1,1,0,1,0,1,1.72l.09-.06,8-5.39a1,1,0,0,0,.27-1.39h0A1,1,0,0,0,228,139.63Z"/><path class="cls-3" d="M134.32,273.14a1,1,0,0,0-1,1,1,1,0,0,0,.54.89l6.7,3.47a1,1,0,0,0,.92-1.78l-6.7-3.47A1,1,0,0,0,134.32,273.14Z"/><path class="cls-3" d="M196.79,176.7a1,1,0,0,0-.38.07l-5.66,2.36a1,1,0,0,0,.63,1.9l.14-.06,5.65-2.35a1,1,0,0,0,.53-1.31,1,1,0,0,0-.91-.61Z"/><path class="cls-3" d="M118.81,265a1,1,0,0,0-.89.54l-5.8,11.1a1,1,0,0,0,1.75,1l0,0,5.81-11.1a1,1,0,0,0-.43-1.35h0A.93.93,0,0,0,118.81,265Z"/><path class="cls-3" d="M134.36,149.85a1,1,0,0,0-1,1l-.16,3.67a1,1,0,0,0,2,0l.16-3.67a1,1,0,0,0-1-1Z"/><path class="cls-3" d="M225,272.94a1,1,0,0,0-.87,1.48h0L226,277.9a1,1,0,0,0,1.75-1h0l-1.92-3.47A1,1,0,0,0,225,272.94Z"/><path class="cls-3" d="M253,31.24a1,1,0,0,0-1,.86l-1,7.59a1,1,0,0,0,.85,1.13h0A1,1,0,0,0,253,40l1-7.59a1,1,0,0,0-.85-1.12Z"/><path class="cls-3" d="M211.82,63.07a1,1,0,0,0-1,.75l-1.08,4.24a1,1,0,1,0,1.94.49l1.08-4.23A1,1,0,0,0,212,63.1h0A.83.83,0,0,0,211.82,63.07Z"/><path class="cls-3" d="M82.39,48.29a1,1,0,0,0-.59.2,1,1,0,0,0-.22,1.39l9,12.26a1,1,0,0,0,1.86-.72.91.91,0,0,0-.3-.42L83.2,48.7A1,1,0,0,0,82.39,48.29Z"/><path class="cls-3" d="M244.45,267.43h-.17a1,1,0,0,0-.82,1.15l1.35,7.82a1,1,0,0,0,2-.34l-1.35-7.82A1,1,0,0,0,244.45,267.43Z"/><path class="cls-3" d="M254.18,244.38a1,1,0,0,0-1,.82l-.83,4.59a1,1,0,1,0,2,.35l.83-4.59a1,1,0,0,0-.81-1.16h-.19Z"/><path class="cls-3" d="M81.71,20.84a1,1,0,0,0-1,.85L78.65,35a1,1,0,0,0,2,.31h0L82.7,22a1,1,0,0,0-.82-1.15h-.17Z"/><path class="cls-3" d="M11.21,74.16a1,1,0,0,0-.49.12,1,1,0,0,0-.39,1.36h0l1.76,3.18a1,1,0,0,0,1.75-1h0l-1.76-3.17A1,1,0,0,0,11.21,74.16Z"/><path class="cls-3" d="M270.37,206.21a1,1,0,1,0-.19,2h0l8.16,1.59a1,1,0,1,0,.39-2h0l-8.16-1.59Z"/><path class="cls-3" d="M278,70.44a1,1,0,0,0-1,.84l-1.39,8.47a1,1,0,0,0,2,.32L279,71.6a1,1,0,0,0-.82-1.15Z"/><path class="cls-3" d="M170,179.69a1,1,0,0,0-.58,1.82l2.51,1.75a1,1,0,0,0,1.39-.24h0a1,1,0,0,0-.25-1.39l-2.51-1.75A1,1,0,0,0,170,179.69Z"/><path class="cls-3" d="M149.33,253.63a1,1,0,0,0-.88.51l-1.54,2.75a1,1,0,0,0,1.75,1l1.54-2.75a1,1,0,0,0-.38-1.36,1,1,0,0,0-.49-.13Z"/><path class="cls-3" d="M99.4,173.94a1,1,0,0,0-.53.15,1,1,0,0,0-.32,1.38h0l4.32,7a1,1,0,0,0,1.38.32h0a1,1,0,0,0,.33-1.37l-4.33-7A1,1,0,0,0,99.4,173.94Z"/><path class="cls-3" d="M229.65,29.31a1,1,0,1,0-.21,2l4,.89a1,1,0,0,0,.43-2l-4-.89Z"/><path class="cls-3" d="M116.87,140.73a.92.92,0,0,0-.53.16l-3.7,2.35a1,1,0,0,0,1.08,1.68l3.69-2.35a1,1,0,0,0-.54-1.84Z"/><path class="cls-3" d="M137.46,75.45a1,1,0,0,0-.27,2l9.59,2.63a1,1,0,0,0,.53-1.93l-9.59-2.63A.77.77,0,0,0,137.46,75.45Z"/><path class="cls-3" d="M13.77,167.45h-.29l-2.89.88a1,1,0,0,0,.46,1.95l.12,0,2.89-.88a1,1,0,1,0-.29-2Z"/><path class="cls-3" d="M136.8,119.09a1,1,0,0,0-.92.62l-3.5,8.46a1,1,0,0,0,1.85.76l3.5-8.46a1,1,0,0,0-.54-1.3A1,1,0,0,0,136.8,119.09Z"/><path class="cls-3" d="M278.09,99.07a.89.89,0,0,0-.36.07l-13.46,5.21a1,1,0,1,0,.58,1.91l.14-.05L278.45,101a1,1,0,0,0-.36-1.93Z"/><path class="cls-3" d="M234.64,173.77a1,1,0,0,0-.87.49,1,1,0,0,0,.36,1.37h0l2.29,1.34a1,1,0,0,0,1.37-.36h0a1,1,0,0,0-.36-1.36l-2.3-1.34A1,1,0,0,0,234.64,173.77Z"/><path class="cls-3" d="M209.72,253.54a1,1,0,0,0-.86.48l-3.29,5.44a1,1,0,0,0,1.57,1.24,1,1,0,0,0,.14-.24l3.29-5.46a1,1,0,0,0-.33-1.37A.93.93,0,0,0,209.72,253.54Z"/><path class="cls-3" d="M9.87,126.39H9.76a1,1,0,0,0-.88,1.1l.3,2.87a1,1,0,0,0,2-.21l-.31-2.87A1,1,0,0,0,9.87,126.39Z"/><path class="cls-3" d="M269.64,50.89a1,1,0,0,0-.14,2l7.93,1a1,1,0,1,0,.26-2l-7.93-1Z"/><path class="cls-3" d="M77.43,141.82a1,1,0,0,0-.54.17l-8.36,5.43a1,1,0,0,0,1.1,1.68L78,143.66a1,1,0,0,0-.57-1.84Z"/><path class="cls-3" d="M36.83,204.24a1.16,1.16,0,0,0-.37.07l-9.68,3.86a1,1,0,0,0-.34,1.37,1,1,0,0,0,1.08.46l9.68-3.86a1,1,0,0,0-.37-1.93Z"/><path class="cls-3" d="M12.08,187.29h-.14a1,1,0,0,0-.85,1.13h0l.55,3.74a1,1,0,0,0,2-.29l-.55-3.74A1,1,0,0,0,12.08,187.29Z"/><path class="cls-3" d="M64.55,9.92h-.26L58.7,11.45a1,1,0,0,0-.7,1.23h0a1,1,0,0,0,1.23.7h0l5.59-1.53a1,1,0,0,0-.27-2Z"/><path class="cls-3" d="M278.23,9.27a1,1,0,0,0-.88.52l-1.49,2.77a1,1,0,0,0,1.76.95l1.49-2.77a1,1,0,0,0-.88-1.47Z"/><path class="cls-3" d="M184,130.92a1,1,0,0,0-.67.26l-7.51,6.9a1,1,0,0,0,1.35,1.47l7.51-6.9a1,1,0,0,0,.06-1.41A1,1,0,0,0,184,130.92Z"/><path class="cls-3" d="M78,74h-.15A1,1,0,0,0,77,75.14h0l.76,5a1,1,0,0,0,2-.3h0l-.76-5A1,1,0,0,0,78,74Z"/><path class="cls-3" d="M222.56,92.59a1,1,0,0,0-.16,2l2.73.43a1,1,0,0,0,.31-2l-2.73-.43Z"/><path class="cls-3" d="M26.43,119.09a1,1,0,0,0-.77,1.63h0l2.15,2.62a1,1,0,0,0,1.55-1.27l-2.16-2.62A1,1,0,0,0,26.43,119.09Z"/><path class="cls-3" d="M277.59,225.91h-.1l-3.24.34a1,1,0,1,0,.21,2l3.24-.34a1,1,0,0,0,.89-1.1h0A1,1,0,0,0,277.59,225.91Z"/><path class="cls-3" d="M187.31,272.64a1,1,0,0,0-.9.56l-1.95,3.93a1,1,0,0,0,1.79.89l1.95-3.93a1,1,0,0,0-.89-1.45Z"/><path class="cls-3" d="M44.55,226a.93.93,0,0,0-.29.05L33.18,229.4a1,1,0,1,0,.58,1.92l11.09-3.39a1,1,0,1,0-.3-2h0Z"/><path class="cls-3" d="M275.67,181.42a.86.86,0,0,0-.32,0,1,1,0,0,0-.63,1.26l2.28,6.86a1,1,0,1,0,1.93-.51.5.5,0,0,0,0-.13l-2.28-6.8A1,1,0,0,0,275.67,181.42Z"/><path class="cls-3" d="M256.36,8.31a1,1,0,0,0-.84,1.54h0L258.83,15A1,1,0,0,0,260.51,14l-3.3-5.18A1,1,0,0,0,256.36,8.31Z"/><path class="cls-3" d="M151.59,56.39a1,1,0,0,0-.76.35l-4,4.65a1,1,0,0,0,1.52,1.31l4-4.66a1,1,0,0,0-.11-1.41h0A1,1,0,0,0,151.59,56.39Z"/><path class="cls-3" d="M15,148.33a1,1,0,0,0-.12,2l12.51,1.52a1,1,0,0,0,.24-2l-12.5-1.52Z"/><path class="cls-3" d="M200.92,196.56a1,1,0,0,0-1,.82l-1.48,7.94a1,1,0,0,0,2,.36l1.48-7.93a1,1,0,0,0-.8-1.17h0Z"/><path class="cls-3" d="M97.06,97a1,1,0,0,0-.65.25l-7.13,6.24a1,1,0,0,0-.1,1.41,1,1,0,0,0,1.42.1l7.12-6.24a1,1,0,0,0,.1-1.41A1,1,0,0,0,97.06,97Z"/><path class="cls-3" d="M210.07,37.64a.93.93,0,0,0-.4.09,1,1,0,0,0-.51,1.32h0l3.44,7.66a1,1,0,0,0,1.83-.81h0L211,38.24A1,1,0,0,0,210.07,37.64Z"/><path class="cls-3" d="M166.32,225.11a1,1,0,0,0-1,.73L161.55,239a1,1,0,1,0,1.92.56h0l3.81-13.2a1,1,0,0,0-.68-1.24A1.31,1.31,0,0,0,166.32,225.11Z"/><path class="cls-3" d="M71.72,117a1,1,0,0,0-.81.4l-6,8a1,1,0,1,0,1.51,1.31l.09-.12,6-8a1,1,0,0,0-.21-1.4h0A1,1,0,0,0,71.72,117Z"/><path class="cls-3" d="M10.84,208.94a1,1,0,0,0-1,1l-.4,9.76a1,1,0,0,0,2,0l.4-9.7a1,1,0,0,0-.95-1Z"/><path class="cls-3" d="M187.67,110.78a1,1,0,0,0-1,1,1,1,0,0,0,.26.67l2.27,2.49a1,1,0,0,0,1.56-1.26l-.09-.09-2.26-2.49A1,1,0,0,0,187.67,110.78Z"/><path class="cls-3" d="M173.38,154.56a1,1,0,0,0-.33.06,1,1,0,0,0-.61,1.28h0l3.14,9a1,1,0,0,0,1.28.61h0a1,1,0,0,0,.61-1.27l-3.15-9A1,1,0,0,0,173.38,154.56Z"/><path class="cls-3" d="M234.86,113a1,1,0,0,0-.37.08l-11.76,4.77a1,1,0,0,0,.75,1.85l11.76-4.77a1,1,0,0,0-.38-1.93Z"/><path class="cls-3" d="M215.85,165a1,1,0,0,0-1,.87L214,172.5a1,1,0,0,0,2,.27l.9-6.66A1,1,0,0,0,216,165h-.17Z"/><path class="cls-3" d="M62.28,197.14a1,1,0,0,0-.41.09l-10.24,4.59a1,1,0,1,0,.65,1.89l.16-.07L62.69,199a1,1,0,0,0,.51-1.32h0A1,1,0,0,0,62.28,197.14Z"/><path class="cls-3" d="M122.54,84.3h-.2a1,1,0,0,0-.78,1.18h0l2.44,12a1,1,0,1,0,2-.4l-2.41-11.93A1,1,0,0,0,122.54,84.3Z"/><path class="cls-3" d="M126.86,246.89a1,1,0,0,0-1,1,1,1,0,0,0,.66,1l4.49,1.64a1,1,0,1,0,.69-1.88h0L127.21,247A1,1,0,0,0,126.86,246.89Z"/><path class="cls-3" d="M126.52,182a1,1,0,1,0,0,2l11.13.09a1,1,0,0,0,0-2Z"/><path class="cls-3" d="M244.61,89.49h-.27a1,1,0,0,0-.69,1.23h0l3.89,13.41a1,1,0,0,0,1.92-.56h0l-3.89-13.4A1,1,0,0,0,244.61,89.49Z"/><path class="cls-3" d="M231,50.32a1,1,0,0,0-.37,1.93l6.53,2.57a1,1,0,0,0,1.3-.56h0a1,1,0,0,0-.57-1.29l-6.53-2.57A.89.89,0,0,0,231,50.32Z"/><path class="cls-3" d="M189.64,219a1,1,0,0,0-.83.44l-2,2.9a1,1,0,0,0,1.66,1.12l2-2.9a1,1,0,0,0-.27-1.39h0A1,1,0,0,0,189.64,219Z"/><path class="cls-3" d="M113.38,197.57a1,1,0,0,0-.87.5l-5.64,10a1,1,0,0,0,.37,1.36h0a1,1,0,0,0,1.36-.38l5.64-10a1,1,0,0,0-.38-1.36A1,1,0,0,0,113.38,197.57Z"/><path class="cls-3" d="M165.94,115.76a1,1,0,0,0-.69.28l-6.34,6.14a1,1,0,0,0,1.39,1.43l6.34-6.13a1,1,0,0,0,0-1.41A1,1,0,0,0,165.94,115.76Z"/><path class="cls-3" d="M192.24,78a1,1,0,0,0-.64,1.77h0l9,7.49a1,1,0,0,0,1.28-1.53h0l-9-7.49A1,1,0,0,0,192.24,78Z"/><path class="cls-3" d="M64.71,52.56h-.19l-4.3.81a1,1,0,1,0,.36,2l4.31-.81a1,1,0,0,0-.18-2Z"/><path class="cls-3" d="M112.79,29a1,1,0,0,0-.47.12L100,35.82a1,1,0,1,0,1,1.75l12.29-6.66a1,1,0,0,0,.41-1.35,1,1,0,0,0-.89-.53Z"/><path class="cls-3" d="M179.37,199.13a1,1,0,0,0-.64.23l-6,5a1,1,0,1,0,1.27,1.55l6-5a1,1,0,0,0,.13-1.41h0A1,1,0,0,0,179.37,199.13Z"/><path class="cls-3" d="M280,140.53a1,1,0,0,0-.94.67l-1,2.69a1,1,0,1,0,1.89.67l1-2.69a1,1,0,0,0-.6-1.28A1,1,0,0,0,280,140.53Z"/><path class="cls-3" d="M60.76,240a1,1,0,0,0-1,.91l-1.39,15a1,1,0,1,0,2,.19l1.39-15a1,1,0,0,0-.89-1.1h-.1Z"/><path class="cls-3" d="M148.5,37.39a1,1,0,0,0-.3,0l-2.41.77a1,1,0,0,0-.54,1.31,1,1,0,0,0,1.14.59l2.42-.76a1,1,0,0,0,.65-1.26h0A1,1,0,0,0,148.5,37.39Z"/><path class="cls-3" d="M134.24,203.24a1,1,0,0,0-.67.26l-2.06,1.85a1,1,0,0,0-.15,1.41,1,1,0,0,0,1.4.15l.09-.08,2.06-1.83a1,1,0,0,0-.67-1.74Z"/><path class="cls-3" d="M207,127.23a1,1,0,0,0-.83.44l-3.66,5.43a1,1,0,0,0,1.66,1.11h0l3.66-5.42a1,1,0,0,0-.27-1.39h0A1,1,0,0,0,207,127.23Z"/><path class="cls-3" d="M274.86,242.85h-.06a1,1,0,0,0-.94,1.06h0l.8,13.61a1,1,0,1,0,1.94-.11l-.79-13.62A1,1,0,0,0,274.86,242.85Z"/><path class="cls-3" d="M167.43,258.61a1,1,0,1,0-.16,2l8.57,1.4a1,1,0,0,0,.32-2h0l-8.57-1.4Z"/><path class="cls-3" d="M193.41,54.07a1,1,0,0,0-.44.11L183.11,59a1,1,0,1,0,.75,1.85l.13-.06L193.85,56a1,1,0,0,0,.46-1.34h0A1,1,0,0,0,193.41,54.07Z"/><path class="cls-3" d="M153.78,162.62a1,1,0,0,0-.78.38l-5.45,6.27a1,1,0,0,0,1.51,1.32l5.45-6.28a1,1,0,0,0-.73-1.69Z"/><path class="cls-3" d="M207.24,104a1,1,0,0,0-.25,0,1,1,0,0,0-.72,1.21l.8,3.16a1,1,0,0,0,1.94-.5h0l-.8-3.15A1,1,0,0,0,207.24,104Z"/><path class="cls-3" d="M58.89,71.48a1,1,0,0,0-1,.78L54.89,86a1,1,0,0,0,2,.43l3-13.76a1,1,0,0,0-.76-1.19A.65.65,0,0,0,58.89,71.48Z"/><path class="cls-3" d="M120.35,10.12a1,1,0,0,0-.72.31,1,1,0,0,0,0,1.41h0l5.85,5.52A1,1,0,0,0,127,16a.47.47,0,0,0-.1-.1L121,10.39A1,1,0,0,0,120.35,10.12Z"/><path class="cls-3" d="M54,158a1,1,0,0,0-.73.31l-7.64,8.16A1,1,0,1,0,47,167.93l.09-.1,7.64-8.15a1,1,0,0,0,0-1.41A1,1,0,0,0,54,158Z"/><path class="cls-3" d="M233.37,73.91h-.08l-7.4.62a1,1,0,0,0,.16,2h0l7.4-.62a1,1,0,0,0-.09-2Z"/><path class="cls-3" d="M239.43,153.45a1,1,0,1,0-.27,2l7.27,2a1,1,0,0,0,.52-1.93l-7.26-2A.77.77,0,0,0,239.43,153.45Z"/><path class="cls-3" d="M233.34,9.25a1,1,0,0,0-1,1,1,1,0,0,0,.54.9l3.5,1.86a1,1,0,0,0,.94-1.77h0l-3.5-1.86A1,1,0,0,0,233.34,9.25Z"/><path class="cls-3" d="M256.1,193.94a1,1,0,0,0-.43.1l-14.07,6.7a1,1,0,0,0,.82,1.83l0,0,14.08-6.7a1,1,0,0,0,.5-1.32A1,1,0,0,0,256.1,193.94Z"/><path class="cls-3" d="M188.69,29.68a1,1,0,0,0-.79,1.61l3.7,4.86a1,1,0,0,0,1.59-1.22l-3.7-4.86A1,1,0,0,0,188.69,29.68Z"/><path class="cls-3" d="M235.92,221.54h-.1a1,1,0,0,0-.9,1.09l.62,6.76a1,1,0,1,0,2-.18l-.62-6.76A1,1,0,0,0,235.92,221.54Z"/><path class="cls-3" d="M215.07,223.61a1,1,0,0,0-.76.35l-7.94,9.45a1,1,0,1,0,1.53,1.29l7.94-9.45a1,1,0,0,0-.12-1.41h0A1,1,0,0,0,215.07,223.61Z"/><path class="cls-3" d="M29.77,178.9a1,1,0,0,0-.48,1.88l8.19,4.55a1,1,0,0,0,1.36-.39h0a1,1,0,0,0-.39-1.36h0L30.26,179A1,1,0,0,0,29.77,178.9Z"/><path class="cls-3" d="M94.18,272.15a1,1,0,0,0-1,.83l-.89,5.4a1,1,0,0,0,2,.32l.9-5.39a1,1,0,0,0-.82-1.15h-.19Z"/><path class="cls-3" d="M50.61,106.13a1,1,0,0,0-.82.42l-3.31,4.62a1,1,0,1,0,1.63,1.16h0l3.31-4.62a1,1,0,0,0-.23-1.39A1,1,0,0,0,50.61,106.13Z"/><path class="cls-3" d="M275.64,29.1a1,1,0,0,0-1,.85L274,34.48a1,1,0,0,0,2,.3l.69-4.53a1,1,0,0,0-.84-1.14h-.16Z"/><path class="cls-3" d="M128.71,223.22a1,1,0,0,0-.93.63,1,1,0,0,0,.56,1.3h0l13.29,5.28a1,1,0,0,0,.93-1.77.84.84,0,0,0-.2-.08l-13.28-5.29A.94.94,0,0,0,128.71,223.22Z"/><path class="cls-3" d="M172.68,42.32a1,1,0,0,0-.41.08l-7.18,3.17a1,1,0,0,0,.81,1.83h0l7.18-3.17a1,1,0,0,0-.4-1.91Z"/><path class="cls-3" d="M253,63.29a1,1,0,0,0-.89,1.45h0l6.79,13.36a1,1,0,0,0,1.78-.9l-6.79-13.37A1,1,0,0,0,253,63.29Z"/><path class="cls-3" d="M89.24,8.52a1,1,0,1,0-.06,2l12,.72a1,1,0,0,0,.12-2l-12-.72Z"/><path class="cls-3" d="M79.28,233.37a1,1,0,0,0-1,.71,1,1,0,0,0,.68,1.24h0l11.4,3.45a1,1,0,0,0,1.25-.66h0a1,1,0,0,0-.65-1.24l-11.43-3.46A.92.92,0,0,0,79.28,233.37Z"/><path class="cls-3" d="M12.63,258.91a1,1,0,0,0-1,.83L8.93,275a1,1,0,1,0,2,.35l2.71-15.29a1,1,0,0,0-.81-1.16h-.2Z"/><path class="cls-3" d="M112.35,110.28a1,1,0,0,0-1,.84l-2.18,13.61a1,1,0,1,0,2,.32l2.18-13.61a1,1,0,0,0-.82-1.15h-.18Z"/><path class="cls-3" d="M199.14,152.62h-.31l-3.78,1.24a1,1,0,1,0,.55,1.92l.07,0,3.78-1.24a1,1,0,0,0-.31-1.9Z"/><path class="cls-3" d="M87.13,212.44a1,1,0,0,0-.44,1.9h0l4.58,2.22a1,1,0,0,0,1.34-.46h0a1,1,0,0,0-.47-1.33l-4.58-2.22A.91.91,0,0,0,87.13,212.44Z"/><path class="cls-3" d="M144.23,7.82h0a1,1,0,0,0-1,1l.38,14.7a1,1,0,1,0,2,0l-.37-14.7a1,1,0,0,0-1-1Z"/><path class="cls-3" d="M104.72,251.2a1,1,0,0,0-.65.25l-2,1.72a1,1,0,1,0,1.32,1.51l2-1.73a1,1,0,0,0,.09-1.41,1,1,0,0,0-.75-.34Z"/><path class="cls-3" d="M37.1,7.51a1,1,0,0,0-.71.29l-2.57,2.57a1,1,0,0,0,1.41,1.41L37.8,9.22a1,1,0,0,0,0-1.41A1,1,0,0,0,37.1,7.51Z"/><path class="cls-3" d="M103.66,78.66h-.18l-5.16,1a1,1,0,1,0,.36,2l5.16-1a1,1,0,0,0-.18-2Z"/><path class="cls-3" d="M211.74,10.21a1,1,0,0,0-1,.94l-.57,9.53a1,1,0,1,0,2,.12l.56-9.53a1,1,0,0,0-.93-1Z"/><path class="cls-3" d="M15.83,40.38a1,1,0,0,0-.94.68l-4.15,12.4a1,1,0,1,0,1.83.8.58.58,0,0,0,.06-.17L16.78,41.7a1,1,0,0,0-.63-1.27h0A.86.86,0,0,0,15.83,40.38Z"/><path class="cls-3" d="M37.92,86a1,1,0,0,0-.69.27L26.12,96.8a1,1,0,0,0,1.37,1.45L38.61,87.69A1,1,0,0,0,37.92,86Z"/><path class="cls-3" d="M160.53,275.74a1,1,0,0,0-1,1,1,1,0,0,0,.49.88l3.52,2.09a1,1,0,1,0,1.18-1.62l-.18-.1L161,275.88A1.07,1.07,0,0,0,160.53,275.74Z"/><path class="cls-3" d="M32.58,250a1,1,0,0,0-.17,2l7.8,1.39a1,1,0,1,0,.35-2L32.76,250Z"/><path class="cls-3" d="M168.58,9.86a1,1,0,0,0-1,.86l-1.73,12.7a1,1,0,0,0,.85,1.13h0a1,1,0,0,0,1.12-.86L169.56,11a1,1,0,0,0-.86-1.12Z"/><path class="cls-3" d="M29,272.86a1,1,0,0,0-.86.5l-2.3,3.91a1,1,0,0,0,1.69,1.07l0-.07,2.29-3.91a1,1,0,0,0-.34-1.36A1.07,1.07,0,0,0,29,272.86Z"/><path class="cls-3" d="M39.78,27.29a1,1,0,0,0-1,.8L36.43,39.74a1,1,0,0,0,2,.39h0l2.35-11.64A1,1,0,0,0,40,27.31h0Z"/><path class="cls-3" d="M108.69,55.61a1,1,0,0,0-.89,1.45L110,61.41a1,1,0,1,0,1.79-.89l-2.18-4.35A1,1,0,0,0,108.69,55.61Z"/><path class="cls-3" d="M157.4,188.39a1,1,0,0,0-.75.34l-4.13,4.7a1,1,0,0,0,1.44,1.39l.06-.07,4.13-4.7a1,1,0,0,0-.75-1.66Z"/><path class="cls-3" d="M153.75,209.91a1,1,0,0,0-.85.47l-1.72,2.82a1,1,0,1,0,1.53,1.29,1.22,1.22,0,0,0,.17-.29l1.73-2.81a1,1,0,0,0-.32-1.38h0A1,1,0,0,0,153.75,209.91Z"/><path class="cls-3" d="M234,248.65h-.13l-8.24,1.09a1,1,0,1,0,.26,2h0l8.24-1.09a1,1,0,0,0-.13-2Z"/><path class="cls-3" d="M82.14,256.35a1,1,0,0,0-.91.59L75.06,270.8a1,1,0,1,0,1.83.81l6.17-13.86a1,1,0,0,0-.51-1.32h0A1.15,1.15,0,0,0,82.14,256.35Z"/><path class="cls-3" d="M11.24,98.45a1,1,0,0,0-1,.92L9.62,107a1,1,0,0,0,.91,1.08h0a1,1,0,0,0,1.08-.91h0l.61-7.62a1,1,0,0,0-.91-1.08Z"/><path class="cls-3" d="M85,187.23a1,1,0,0,0-.88.53L80,195.68a1,1,0,1,0,1.7,1,.83.83,0,0,0,.07-.13l4.14-7.91a1,1,0,0,0-.43-1.35h0A.89.89,0,0,0,85,187.23Z"/><path class="cls-3" d="M182.27,240.58a1,1,0,0,0-.58,1.82l10.76,7.54a1,1,0,0,0,1.23-1.58l-.09-.06-10.75-7.54A1,1,0,0,0,182.27,240.58Z"/><path class="cls-3" d="M41,59.14a1,1,0,0,0-.55.16L30.21,66a1,1,0,0,0,1.09,1.68L41.49,61A1,1,0,0,0,41,59.16Z"/><path class="cls-3" d="M12.54,10.43h-.16a1,1,0,0,0-.83,1.14l1.81,11.5a1,1,0,1,0,2-.31l-1.8-11.5A1,1,0,0,0,12.54,10.43Z"/><path class="cls-3" d="M92,124.59a1,1,0,0,0-1,.73l-.78,2.8a1,1,0,0,0,.7,1.23h0a1,1,0,0,0,1.23-.7h0l.78-2.8a1,1,0,0,0-.7-1.23h0A.91.91,0,0,0,92,124.59Z"/><path class="cls-3" d="M60.52,179.14a1,1,0,0,0-.65.25,1,1,0,0,0-.1,1.41l1.72,2a1,1,0,0,0,1.5-1.32l-1.71-2A1,1,0,0,0,60.52,179.14Z"/><path class="cls-3" d="M107.74,227.78a1,1,0,0,0-.5.13,1,1,0,0,0-.36,1.36l3.75,6.54a1,1,0,1,0,1.77-.93.25.25,0,0,0,0-.07l-3.75-6.54A1,1,0,0,0,107.74,227.78Z"/><path class="cls-3" d="M150.44,97a1,1,0,0,0-.85.47l-3.12,4.94a1,1,0,0,0,1.7,1.07l3.11-4.94a1,1,0,0,0-.31-1.38h0A1,1,0,0,0,150.44,97Z"/><path class="cls-3" d="M264.11,273.62a1,1,0,0,0-1,.81,1,1,0,0,0,.79,1.17l12.8,2.5a1,1,0,0,0,1.18-.78h0a1,1,0,0,0-.78-1.18h0l-12.79-2.49A.62.62,0,0,0,264.11,273.62Z"/><path class="cls-3" d="M79.07,166.23h-.2l-3.4.67a1,1,0,0,0,.39,2l3.4-.67a1,1,0,1,0-.19-2Z"/><path class="cls-3" d="M68.24,214.8a1,1,0,0,0-.86.49l-3.74,6.24a1,1,0,0,0,1.72,1l3.74-6.25a1,1,0,0,0-.86-1.48Z"/><path class="cls-3" d="M14.57,237.87h-.26L10.12,239a1,1,0,0,0,.5,1.94l4.2-1.09a1,1,0,0,0-.25-2Z"/><path class="cls-3" d="M277,122.07h-.12l-3.08.36a1,1,0,0,0,.23,2l3.08-.35a1,1,0,1,0-.11-2Z"/><path class="cls-3" d="M262.51,138.6h-.25l-4.74,1.2a1,1,0,0,0-.72,1.22h0a1,1,0,0,0,1.21.72l4.74-1.2a1,1,0,0,0-.24-1.94Z"/><path class="cls-3" d="M167.93,69.27a1,1,0,0,0-1,.89l-1,9.26a1,1,0,0,0,2,.21l1-9.26a1,1,0,0,0-.89-1.1h-.11Z"/><path class="cls-3" d="M223.48,190.47a1,1,0,0,0-1,.76l-3.5,14a1,1,0,0,0,1.94.49h0l3.5-14a1,1,0,0,0-.73-1.21A.76.76,0,0,0,223.48,190.47Z"/><path class="cls-3" d="M192.14,10.44h0l-4.29.09a1,1,0,0,0,0,2l4.29-.09a1,1,0,0,0,0-2Z"/></pattern></defs><g id="Layer_2" data-name="Layer 2"><g id="Layer_1-2" data-name="Layer 1"><path class="cls-4" d="M7.92,143.17c2.19-3.52-9.68-35.28,23.75-69.9s31.64-60.55,66-54.08,34.47,41.19,59.43,30.32S174.9-.31,210.49,22.67s22.15,32.22,56.86,50.6,41.82-2.86,71.27,21.26,41.45,34.12,46.45,45.12S7.92,143.17,7.92,143.17Z"/><path class="cls-5" d="M17.61,134.15s37-101,85-82S133.15,85,148.87,86.55s24.73-20.4,46.73-2.4,18.21,22,55.61,26.5,57.66,21.49,57.66,21.49l6,12.86L10.61,143.15S8.61,131.15,17.61,134.15Z"/><path class="cls-6" d="M46.38,145.5c.49-.5,53,0,53,0l1.49-41.5L80.39,83.35,64.53,88,42.87,116Z"/><polygon class="cls-7" points="102.37 22.5 103.63 21.44 115.47 11.5 59.91 10.5 48.37 17.5 102.37 22.5"/><polygon class="cls-8" points="47.38 55.88 106.46 55.88 118.87 49 114.87 12 103.37 18.5 48.37 17.5 47.38 55.88"/><polygon class="cls-9" points="118.87 49 114.87 12 103.37 18.5 105.08 55.88 106.46 55.88 118.87 49"/><rect class="cls-10" x="52.87" width="30" height="32"/><path class="cls-11" d="M55.78,9.08H61.5a11.17,11.17,0,0,1,2.94.3,5.29,5.29,0,0,1,2.34,1.42,6.87,6.87,0,0,1,1.48,2.51,11.64,11.64,0,0,1,.5,3.66,10.54,10.54,0,0,1-.47,3.3A6.87,6.87,0,0,1,66.63,23a5.53,5.53,0,0,1-2.2,1.24,9.2,9.2,0,0,1-2.76.33H55.78Zm3.09,2.62V22H61.2a8.56,8.56,0,0,0,1.89-.15,3.06,3.06,0,0,0,1.27-.64,3.24,3.24,0,0,0,.81-1.5,9.65,9.65,0,0,0,.32-2.83,8.88,8.88,0,0,0-.32-2.76,3.51,3.51,0,0,0-.88-1.5,3.08,3.08,0,0,0-1.45-.73,13.81,13.81,0,0,0-2.57-.15Z"/><path class="cls-11" d="M78.35,24.57h-3V13.38a10.28,10.28,0,0,1-3.84,2.25V12.94A8.82,8.82,0,0,0,74,11.5,5.56,5.56,0,0,0,76,9h2.4Z"/><polygon class="cls-12" points="67.87 55.88 68.76 37.8 94.91 37.8 94.91 55.88 67.87 55.88"/><polygon class="cls-11" points="121.82 37.8 123.87 60 150.87 58 150.87 41.25 150.87 33.94 134.97 22.5 121.82 37.8"/><polygon class="cls-8" points="167.07 52.17 164.91 29.64 150.87 37.8 150.87 58 167.07 52.17"/><polygon class="cls-13" points="167.07 32 150.87 14.26 134.97 22.5 118.87 40.25 136.05 23.78 150.87 41.25 167.07 32"/><polygon class="cls-12" points="131.87 59.41 142.87 58.59 142.87 44 131.87 44 131.87 59.41"/><polygon class="cls-11" points="171.81 43.79 172.8 66.06 199.87 65.35 200.66 48.62 201.01 41.32 185.67 29.14 171.81 43.79"/><polygon class="cls-8" points="216.32 60.3 215.25 37.7 200.83 45.18 199.87 65.35 216.32 60.3"/><polygon class="cls-14" points="217.29 40.16 201.95 21.66 185.67 29.14 168.75 46.09 186.69 30.46 200.66 48.62 217.29 40.16"/><polygon class="cls-12" points="180.82 65.85 191.85 65.56 192.54 50.99 181.56 50.46 180.82 65.85"/><path class="cls-8" d="M31.77,146.41h18.4l1.55-33.24S65.2,86.83,77.87,90s18.19,18.71,18.19,22-1.83,34.35-1.83,34.35H111.5l22.23-19.94-2.22-38.78L85,66.21l-53.21,33Z"/><polygon class="cls-9" points="109.33 77.45 109.33 90.36 109.33 146.41 111.48 146.41 133.71 126.47 131.49 87.69 109.33 77.45"/><path class="cls-15" d="M17.37,101.09l14.4,9.62S77.09,79.92,76.59,77.76s33.88,27.55,33.88,27.55l30.4-13.24,2.77-5.38,2.19-.37L91.16,54,77.87,59.93,67.41,70.39s-5.63,2.18-7.34,2S17.37,101.09,17.37,101.09Z"/><path class="cls-11" d="M38.66,132s-12.29,24.5,1.71,23.5,15-8,8-23.5S38.66,132,38.66,132Z"/><circle class="cls-16" cx="44.87" cy="125" r="7.5"/><path class="cls-6" d="M44.87,117.5A7.49,7.49,0,0,0,38,128l13.62-6.27A7.49,7.49,0,0,0,44.87,117.5Z"/><path class="cls-11" d="M97.08,132s12.29,24.5-1.71,23.5-15-8-8-23.5S97.08,132,97.08,132Z"/><circle class="cls-16" cx="90.87" cy="125" r="7.5"/><path class="cls-14" d="M83.87,120s7.46,3.17,8.73,18.08,2.06,21,7.66,17.45,8-9.52,5.28-18.53S99.92,108.5,83.87,120Z"/><path class="cls-17" d="M44.87,129.6s6,12.4,9,8.4-1-11.84-1-11.84Z"/><ellipse class="cls-14" cx="148.87" cy="155.5" rx="34" ry="13.5"/><path class="cls-11" d="M137.34,139.37s-5.78,2.63-7.13,1.13,4.66-9.5,8.16-6.5,1.5,14,10.5,10,16.28-10.92,16.14-6.46,0,7.44-2.06,9,3.92,4.46-1.08,7.46-14.05,10.82-24.53,2.41C137.34,156.41,130.87,156.74,137.34,139.37Z"/><path class="cls-10" d="M130.92,137.54s3,1.13,2,3.3-7.07,1.66-7.07,1.66S128,136.08,130.92,137.54Z"/><path class="cls-18" d="M58.58,135.79s-10.81,17.54,3.16,19.71c16.13,2.5,24.13-7.7,19.65-12.6C81.39,142.9,76.28,124.57,58.58,135.79Z"/><path class="cls-14" d="M63.27,128.26s-13.69,16.05-.55,21.89,19.15-7.05,13.15-13.1S85.68,125.53,63.27,128.26Z"/><circle class="cls-16" cx="70.37" cy="130.5" r="6.5"/><path class="cls-11" d="M163,193.57a2.64,2.64,0,0,0-1.38-2.36,3.48,3.48,0,0,0,.42-1.67,3.27,3.27,0,0,0-3.13-3.37h-.2a3.7,3.7,0,0,0-3.49-2.69,2.91,2.91,0,0,0-.59,0,4.9,4.9,0,0,0-4.32-2.75,4.78,4.78,0,0,0-3.43,1.49,2,2,0,0,0-3.7-.21,3.94,3.94,0,0,0-2-.55,4.18,4.18,0,0,0-3.6,2.15,2.17,2.17,0,0,0-1.73-.91,2.26,2.26,0,0,0-2.18,2.34h0a3.23,3.23,0,0,0,0,.44,3,3,0,0,0-2.09-.85,3.26,3.26,0,0,0-3.13,3.36v.1a2.63,2.63,0,0,0-1.78,2.53,2.67,2.67,0,0,0,1.52,2.44,2.76,2.76,0,0,0-1.52,2.49,2.64,2.64,0,0,0,2.55,2.73h0a1.5,1.5,0,0,0,1.46,1.54h.17a2.69,2.69,0,0,0,.24,2.75,2.05,2.05,0,0,0-.38,1.15,1.92,1.92,0,0,0,.84,1.58,1.34,1.34,0,0,0-.41,1,1.31,1.31,0,1,0,2.61.23.89.89,0,0,0,0-.23,1.35,1.35,0,0,0-.33-.9,1.9,1.9,0,0,0,.79-2.41,2.51,2.51,0,0,0,.51-.61,2.16,2.16,0,0,0,.51-.16,3,3,0,0,0,.23.38,2.05,2.05,0,0,0-.38,1.15,1.92,1.92,0,0,0,.84,1.58,1.34,1.34,0,0,0-.41,1,1.31,1.31,0,1,0,2.61.23.89.89,0,0,0,0-.23,1.35,1.35,0,0,0-.33-.9,1.9,1.9,0,0,0,1-1.65,2.24,2.24,0,0,0-.07-.51,24.83,24.83,0,0,0,6.13.73,26.73,26.73,0,0,0,3.1-.19,2.29,2.29,0,0,0,0,.37,1.92,1.92,0,0,0,.83,1.58,1.34,1.34,0,0,0-.4,1A1.31,1.31,0,0,0,151,207a.89.89,0,0,0,0-.23,1.36,1.36,0,0,0-.34-.9,1.88,1.88,0,0,0,1-1.65,2.07,2.07,0,0,0-.15-.77,2.34,2.34,0,0,0,.37-.4c.56-.17,1.1-.36,1.63-.56l.09.14a2,2,0,0,0-.37,1.15,1.92,1.92,0,0,0,.83,1.58,1.34,1.34,0,0,0-.4,1,1.31,1.31,0,0,0,2.61.23.89.89,0,0,0,0-.23,1.36,1.36,0,0,0-.34-.9,1.88,1.88,0,0,0,1-1.65,1.82,1.82,0,0,0-.16-.76,2.51,2.51,0,0,0,.79-1.31,3.2,3.2,0,0,0,3-2.56,2.62,2.62,0,0,0,1.87-2.56,2.86,2.86,0,0,0-.19-1A2.68,2.68,0,0,0,163,193.57Z"/><path class="cls-19" d="M134.74,181.31c-2-.12-7.38-2.54-8.78,0s-.76,9.88-2.16,11.5,2.8,5.34,7.25,2.46a15.46,15.46,0,0,0,6.49-11.41,2.48,2.48,0,0,0-2.39-2.57A2.88,2.88,0,0,0,134.74,181.31Z"/><path class="cls-19" d="M136.51,184a3.1,3.1,0,0,1,2.54,1.89c.55,1.71.82,3.57.23,3.4s-.14-.77-.79-1a3.1,3.1,0,0,1-2-1.34C135.87,186,136.51,184,136.51,184Z"/><path class="cls-19" d="M126.2,181.9a3.06,3.06,0,0,0-3,1.12c-1,1.49-1.77,3.21-1.15,3.21s.35-.7,1-.75a3.08,3.08,0,0,0,2.27-.74C126.23,184,126.2,181.9,126.2,181.9Z"/><path class="cls-11" d="M130.53,184a2,2,0,0,1-1.47.56,1.4,1.4,0,0,1-1.39-1,1.68,1.68,0,0,1-2,0c-1-.73-.66-4.24,1.46-4.82s2.34.44,2.34.44a3.33,3.33,0,0,1,2.71-.62,1.94,1.94,0,0,1,1.31,1.58,2.57,2.57,0,0,1,2.72,0c1.6.86,2.07,1.82,1.69,2.77s-.9.58-.9.58.35,1.47-.22,2-1.53,0-1.53,0a6,6,0,0,1-2.34.23A4.62,4.62,0,0,1,130.53,184Z"/><path class="cls-20" d="M125.15,193.26c0,.51-.55.91-1.22.91s-1.23-.4-1.23-.91.55-.91,1.23-.91S125.15,192.76,125.15,193.26Z"/><path class="cls-11" d="M165.87,190.52a2.85,2.85,0,1,1-3-2.69H163A2.78,2.78,0,0,1,165.87,190.52Z"/><polygon class="cls-20" points="153.59 208.28 153.97 207.32 155.51 207.32 155.51 208.28 153.59 208.28"/><polygon class="cls-20" points="148.62 208.57 149 207.61 150.54 207.61 150.54 208.57 148.62 208.57"/><polygon class="cls-20" points="136.01 208.28 136.39 207.32 137.93 207.32 137.93 208.28 136.01 208.28"/><polygon class="cls-20" points="131.35 208.09 131.73 207.13 133.27 207.13 133.27 208.09 131.35 208.09"/><path class="cls-11" d="M114.41,179.62a2.29,2.29,0,0,0-1.19-2,3.05,3.05,0,0,0,.36-1.45,2.81,2.81,0,0,0-2.71-2.9h-.16a3.22,3.22,0,0,0-3-2.33,2.94,2.94,0,0,0-.51.05,4.2,4.2,0,0,0-3.73-2.38,4.06,4.06,0,0,0-3,1.29,1.73,1.73,0,0,0-2.19-1.08,1.71,1.71,0,0,0-1,.89,3.44,3.44,0,0,0-1.74-.47,3.58,3.58,0,0,0-3.1,1.86,1.84,1.84,0,0,0-1.49-.79,2,2,0,0,0-1.89,2,2.41,2.41,0,0,0,0,.38,2.65,2.65,0,0,0-1.81-.74,2.82,2.82,0,0,0-2.71,2.91V175a2.32,2.32,0,0,0-1.41,3,2.34,2.34,0,0,0,1.19,1.32A2.39,2.39,0,0,0,83,181.39a2.29,2.29,0,0,0,2.2,2.36h0a1.32,1.32,0,0,0,1.26,1.33h.16a2.29,2.29,0,0,0-.23,1,2.21,2.21,0,0,0,.44,1.36,1.65,1.65,0,0,0,.34,2.32l0,0a1.19,1.19,0,0,0-.35.84,1.13,1.13,0,0,0,2.26,0h0a1.19,1.19,0,0,0-.3-.78,1.63,1.63,0,0,0,.69-2.08,2.26,2.26,0,0,0,.44-.53,2.23,2.23,0,0,0,.44-.13,3.45,3.45,0,0,0,.2.32,1.71,1.71,0,0,0-.33,1,1.63,1.63,0,0,0,.73,1.37,1.15,1.15,0,0,0-.35.84,1.13,1.13,0,1,0,2.25.21.74.74,0,0,0,0-.21,1.18,1.18,0,0,0-.29-.78,1.62,1.62,0,0,0,.82-1.43,1.54,1.54,0,0,0-.06-.43,21.5,21.5,0,0,0,5.3.66,21.79,21.79,0,0,0,2.68-.17,1.71,1.71,0,0,0,0,.32,1.66,1.66,0,0,0,.72,1.37,1.18,1.18,0,0,0-.35.83,1.13,1.13,0,1,0,2.26,0h0a1.15,1.15,0,0,0-.29-.77,1.64,1.64,0,0,0,.82-1.43,1.66,1.66,0,0,0-.14-.66,2.2,2.2,0,0,0,.33-.35c.48-.14,1-.3,1.4-.48l.09.12a1.65,1.65,0,0,0,.34,2.32l0,0a1.19,1.19,0,0,0-.35.84,1.13,1.13,0,1,0,2.26,0h0a1.19,1.19,0,0,0-.3-.78,1.63,1.63,0,0,0,.69-2.08,2.14,2.14,0,0,0,.68-1.13,2.76,2.76,0,0,0,2.62-2.22,2.24,2.24,0,0,0,1.61-2.2,2.35,2.35,0,0,0-.16-.87A2.34,2.34,0,0,0,114.41,179.62Z"/><path class="cls-19" d="M90,169c-1.76-.11-6.38-2.2-7.59,0s-.66,8.53-1.86,9.93,2.41,4.61,6.26,2.12a13.35,13.35,0,0,0,5.61-9.85A2.15,2.15,0,0,0,90.35,169,2.17,2.17,0,0,0,90,169Z"/><path class="cls-19" d="M91.51,171.39A2.64,2.64,0,0,1,93.7,173c.48,1.47.72,3.08.2,2.93s-.12-.66-.67-.86a2.7,2.7,0,0,1-1.72-1.15A4.12,4.12,0,0,1,91.51,171.39Z"/><path class="cls-19" d="M82.61,169.54a2.64,2.64,0,0,0-2.55,1c-.87,1.28-1.53,2.76-1,2.77s.3-.61.89-.65a2.65,2.65,0,0,0,2-.64A4.33,4.33,0,0,0,82.61,169.54Z"/><path class="cls-11" d="M86.35,171.39a1.8,1.8,0,0,1-1.27.48,1.19,1.19,0,0,1-1.21-.87,1.44,1.44,0,0,1-1.7,0c-.89-.63-.57-3.66,1.26-4.16s2,.37,2,.37a2.89,2.89,0,0,1,2.34-.53,1.67,1.67,0,0,1,1.13,1.37,2.21,2.21,0,0,1,2.35,0c1.38.74,1.79,1.57,1.46,2.38s-.78.51-.78.51.3,1.26-.19,1.7-1.32,0-1.32,0a5,5,0,0,1-2,.2A4.06,4.06,0,0,1,86.35,171.39Z"/><path class="cls-20" d="M81.7,179.35c0,.43-.47.79-1,.79s-1.06-.36-1.06-.79.47-.79,1.06-.79S81.7,178.91,81.7,179.35Z"/><path class="cls-11" d="M116.87,177a2.47,2.47,0,1,1-2.61-2.32h.15a2.39,2.39,0,0,1,2.46,2.32Z"/><polygon class="cls-20" points="106.27 192.32 106.6 191.5 107.92 191.5 107.92 192.32 106.27 192.32"/><polygon class="cls-20" points="101.97 192.57 102.3 191.74 103.63 191.74 103.63 192.57 101.97 192.57"/><polygon class="cls-20" points="91.08 192.32 91.41 191.5 92.74 191.5 92.74 192.32 91.08 192.32"/><polygon class="cls-20" points="87.06 192.16 87.39 191.33 88.71 191.33 88.71 192.16 87.06 192.16"/><path class="cls-11" d="M222,176.57a2.64,2.64,0,0,0-1.38-2.36,3.48,3.48,0,0,0,.42-1.67,3.27,3.27,0,0,0-3.13-3.37h-.2a3.7,3.7,0,0,0-3.49-2.69,2.91,2.91,0,0,0-.59,0,4.9,4.9,0,0,0-4.32-2.75,4.78,4.78,0,0,0-3.43,1.49,2,2,0,0,0-3.7-.21,3.94,3.94,0,0,0-2-.55,4.18,4.18,0,0,0-3.6,2.15,2.17,2.17,0,0,0-1.73-.91,2.26,2.26,0,0,0-2.18,2.34h0a3.23,3.23,0,0,0,0,.44,3,3,0,0,0-2.09-.85,3.26,3.26,0,0,0-3.13,3.36v.1a2.63,2.63,0,0,0-1.78,2.53,2.67,2.67,0,0,0,1.52,2.44,2.76,2.76,0,0,0-1.52,2.49,2.64,2.64,0,0,0,2.55,2.73h0a1.5,1.5,0,0,0,1.46,1.54h.17a2.69,2.69,0,0,0,.24,2.75,2.05,2.05,0,0,0-.38,1.15,1.92,1.92,0,0,0,.84,1.58,1.34,1.34,0,0,0-.41,1,1.31,1.31,0,1,0,2.61.23.89.89,0,0,0,0-.23,1.35,1.35,0,0,0-.33-.9,1.9,1.9,0,0,0,.79-2.41,2.51,2.51,0,0,0,.51-.61,2.16,2.16,0,0,0,.51-.16,3,3,0,0,0,.23.38,2.05,2.05,0,0,0-.38,1.15,1.92,1.92,0,0,0,.84,1.58,1.34,1.34,0,0,0-.41,1,1.31,1.31,0,1,0,2.61.23.89.89,0,0,0,0-.23,1.35,1.35,0,0,0-.33-.9,1.9,1.9,0,0,0,.95-1.65,2.24,2.24,0,0,0-.07-.51,24.76,24.76,0,0,0,6.18.73,26.73,26.73,0,0,0,3.1-.19,2.29,2.29,0,0,0,0,.37,1.92,1.92,0,0,0,.83,1.58,1.34,1.34,0,0,0-.4,1A1.31,1.31,0,0,0,210,190a.89.89,0,0,0,0-.23,1.36,1.36,0,0,0-.34-.9,1.87,1.87,0,0,0,1-1.65,2.07,2.07,0,0,0-.15-.77,2.34,2.34,0,0,0,.37-.4c.56-.17,1.1-.36,1.63-.56l.09.14a2,2,0,0,0-.37,1.15,1.92,1.92,0,0,0,.83,1.58,1.34,1.34,0,0,0-.4,1,1.31,1.31,0,1,0,2.61.23.89.89,0,0,0,0-.23,1.36,1.36,0,0,0-.34-.9,1.88,1.88,0,0,0,.95-1.65,1.82,1.82,0,0,0-.16-.76,2.51,2.51,0,0,0,.79-1.31,3.2,3.2,0,0,0,3-2.56,2.62,2.62,0,0,0,1.87-2.56,2.86,2.86,0,0,0-.19-1A2.68,2.68,0,0,0,222,176.57Z"/><path class="cls-19" d="M193.74,164.31c-2-.12-7.38-2.54-8.78,0s-.76,9.88-2.16,11.5,2.8,5.34,7.25,2.46a15.46,15.46,0,0,0,6.49-11.41,2.48,2.48,0,0,0-2.39-2.57A2.88,2.88,0,0,0,193.74,164.31Z"/><path class="cls-19" d="M195.51,167a3.1,3.1,0,0,1,2.54,1.89c.55,1.71.82,3.57.23,3.4s-.14-.77-.79-1a3.1,3.1,0,0,1-2-1.34C194.87,169,195.51,167,195.51,167Z"/><path class="cls-19" d="M185.2,164.9a3.06,3.06,0,0,0-3,1.12c-1,1.49-1.77,3.21-1.15,3.21s.35-.7,1-.75a3.08,3.08,0,0,0,2.27-.74C185.23,167,185.2,164.9,185.2,164.9Z"/><path class="cls-11" d="M189.53,167a2,2,0,0,1-1.47.56,1.4,1.4,0,0,1-1.39-1,1.68,1.68,0,0,1-2,0c-1-.73-.66-4.24,1.46-4.82s2.34.44,2.34.44a3.33,3.33,0,0,1,2.71-.62,1.94,1.94,0,0,1,1.31,1.58,2.57,2.57,0,0,1,2.72,0c1.6.86,2.07,1.82,1.69,2.77s-.9.58-.9.58.35,1.47-.22,2-1.53,0-1.53,0a6,6,0,0,1-2.34.23A4.62,4.62,0,0,1,189.53,167Z"/><path class="cls-20" d="M184.15,176.26c0,.51-.55.91-1.22.91s-1.23-.4-1.23-.91.55-.91,1.23-.91S184.15,175.76,184.15,176.26Z"/><path class="cls-11" d="M224.87,173.52a2.85,2.85,0,1,1-3-2.69H222A2.78,2.78,0,0,1,224.87,173.52Z"/><polygon class="cls-20" points="212.59 191.28 212.98 190.32 214.51 190.32 214.51 191.28 212.59 191.28"/><polygon class="cls-20" points="207.62 191.57 208 190.61 209.54 190.61 209.54 191.57 207.62 191.57"/><polygon class="cls-20" points="195.01 191.28 195.39 190.32 196.93 190.32 196.93 191.28 195.01 191.28"/><polygon class="cls-20" points="190.35 191.09 190.73 190.13 192.27 190.13 192.27 191.09 190.35 191.09"/><path class="cls-21" d="M45.43,192.59l.1-.71s-6.65-4.66-10.07-6.67A21,21,0,0,1,32,182.62c2.07-1.19,3.06-2.91,2.76-3.82-.48-1.47-3.75-2-6.79-3.69a4.92,4.92,0,0,0-.45-.24,3.17,3.17,0,0,0,.52-1.69,2.76,2.76,0,0,0-1.68-2.61c-.36-.3-1.19-.74-.55.66a6.91,6.91,0,0,1,.37,3.12,3.86,3.86,0,0,0-4.66,1.83s-1.92,1.74-1.61,3.79a4,4,0,0,0,1.55,2.63,6.86,6.86,0,0,1-2.85,1.61c-1.51.29-.66.71-.22.83a2.8,2.8,0,0,0,3.11-.16,3,3,0,0,0,1.13-1.62,10.12,10.12,0,0,0,3.61.66,5.78,5.78,0,0,1-.11,3.27c-1,2.86-10.12,15.45-8.35,19.35h0a6.37,6.37,0,0,0,2.87,5.11,15.33,15.33,0,0,0,4.7,2.55l.16-.29s-4.56-2.1-5.77-3.89a3.65,3.65,0,0,1-.63-1.89c3.77,3.39,13.06,7.23,13.06,7.23l.23-.56-5.9-3.66,1.32-2.44,6.46,2.92.35-.64-5.88-3.43S31,202.9,33,199.07s3.29-6.33,3.29-6.33l6.8,3.22.73-.47-6.6-3.9,1.45-2.66Z"/><polygon class="cls-22" points="35.49 210.86 34.37 210.84 34.01 211.51 34.88 211.98 35.49 210.86"/><polygon class="cls-22" points="33.41 214.68 32.29 214.66 31.93 215.32 32.8 215.8 33.41 214.68"/><polygon class="cls-22" points="44.53 195.28 43.41 195.26 43.05 195.93 43.92 196.4 44.53 195.28"/><polygon class="cls-22" points="46.46 191.74 45.34 191.72 44.98 192.39 45.85 192.86 46.46 191.74"/><path class="cls-23" d="M35.3,139s.53,2.74-.74,4.29-1.83,1.61-1.83,1.61a2.12,2.12,0,0,0,.92,1.45c.75.35,2.27-1.52,2.68-3.35S35.3,139,35.3,139Z"/><path class="cls-23" d="M22.5,139.05s.24,2.78,1.88,3.92,2.21,1,2.21,1a2.08,2.08,0,0,1-.48,1.64c-.63.55-2.6-.82-3.5-2.48S22.5,139.05,22.5,139.05Z"/><polygon class="cls-22" points="28.44 165.19 29.07 164.31 28.47 163.64 27.71 164.21 28.44 165.19"/><polygon class="cls-22" points="24.88 165.08 25.51 164.2 24.92 163.53 24.15 164.1 24.88 165.08"/><path class="cls-24" d="M36.68,144.31a6.56,6.56,0,0,1-2.48,1.75A3.7,3.7,0,0,0,30.53,143s-2.34-.82-3.93.38a3.78,3.78,0,0,0-1.5,2.52,6.63,6.63,0,0,1-2.67-1.68c-.94-1.13-.9-.22-.8.21a2.65,2.65,0,0,0,1.56,2.54,2.78,2.78,0,0,0,1.88.21,9.66,9.66,0,0,0,1.11,3.35,5.65,5.65,0,0,1-2.81,1.41c-2.86.49-17.67-1.44-20.14,1.83h0a6.07,6.07,0,0,0-3,4.76,14.27,14.27,0,0,0,0,5.13H.54s-.31-4.82.64-6.65a3.58,3.58,0,0,1,1.3-1.4c-.06.26-.11.54-.16.83h0a11.92,11.92,0,0,0-1.29,5c.1,2.39,1.53,3,3.52,3.08a47.86,47.86,0,0,0,4.94.07.42.42,0,0,0,.4-.44h0c0-.36-3-.46-3.41-.72S9,163,9,163H9c3,0,5.94-.09,8.89-.11,2.53,0,5.07-.22,7.6,0a9.61,9.61,0,0,1-.74.82l.66.6a7.87,7.87,0,0,0,2.66-2.6,5.87,5.87,0,0,0,.84-1.35,3.32,3.32,0,0,1,.89.38c1,.61-1.37,3-1.37,3l.66.6s3-1.84,2.85-3.57c-.17-1.42-1.94-2.17-2.56-2.39a19.85,19.85,0,0,1,.55-3.59c2,1.2,3.86,1.24,4.49.57,1-1.08-.06-4.06,0-7.42v-.49a3,3,0,0,0,1.67-.33,2.64,2.64,0,0,0,1.43-2.62C37.57,144,37.56,143.13,36.68,144.31Z"/><polygon class="cls-22" points="10.12 163.53 9.07 163.76 9.06 164.66 10 164.75 10.12 163.53"/></g></g></svg>