<?xml version="1.0" encoding="utf-8"?>
<!-- Generator: Adobe Illustrator 25.0.1, SVG Export Plug-In . SVG Version: 6.00 Build 0)  -->
<svg version="1.1" id="Layer_1" xmlns="http://www.w3.org/2000/svg" xmlns:xlink="http://www.w3.org/1999/xlink" x="0px" y="0px"
	 viewBox="0 0 788 101" style="enable-background:new 0 0 788 101;" xml:space="preserve">
<style type="text/css">
	.st0{fill:#B2065C;}
	.st1{fill:#F20574;}
	.st2{fill:#AF563E;}
	.st3{fill:#EABF8B;}
	.st4{fill:#F2AC29;}
	.st5{fill:#FFC8A9;}
	.st6{fill:#EFEFEF;}
	.st7{fill:#D6B821;}
	.st8{fill:#F2CBB1;}
	.st9{fill:#F23030;}
	.st10{fill:#3399FF;}
	.st11{fill:#87D8A3;}
	.st12{fill:#755D4C;}
	.st13{fill:#F7F7F7;}
	.st14{fill:#434F4F;}
	.st15{fill:#5F0DE3;}
	.st16{fill:#FFFFFF;}
	.st17{fill:#4F565B;}
	.st18{fill:#DBCC8D;}
	.st19{fill:#BCAA5E;}
</style>
<g id="Layer_2_1_">
	<g id="Pesebre">
		<polygon class="st0" points="103,0 0,101 788,101 709,1 		"/>
		<path class="st1" d="M387.2,97.4c-8.2,0-15-2.1-20.6-6.3c-12.3-9.3-16-27.4-11.1-53.8c-1.5-1.8-12.2-11.5-78.9-16.1
			c-38.4-2.6-75.7-2.2-76-2.2l-0.3-19c0.4,0,36.4-0.5,74.4,2c71.9,4.7,88.8,15.4,95.3,23.1c3.7,4.2,5.2,9.8,4.2,15.2
			c-3.5,18.2-2.1,31.1,3.8,35.6c3.3,2.5,14.4,6.6,46.3-9.3c17.9-8.9,32.6-19.6,45.6-29c34.6-25.1,64.4-46.7,121.6-9
			c46.6,30.9,48.8,31.1,62.5,32.9c7.8,1,18.6,2.4,39.2,8.1c47.9,13.1,69.7-0.8,69.9-1l-0.1,0.1l11,15.5c-1.1,0.8-28.3,19.4-85.8,3.7
			c-19.4-5.3-29.3-6.6-36.6-7.6c-17.9-2.4-22.1-3.9-70.5-35.9c-21.6-14.3-39-19.5-54.7-16.4c-14.9,2.9-28.9,13.1-45.2,24.9
			c-13.6,9.9-29,21-48.3,30.6C414.4,92.8,399.3,97.4,387.2,97.4z"/>
		<path class="st2" d="M627,50c1.2-4.4,3.6-7,4-11.1s1.7-9.6,7.4-9.5s5.3,6.9,7.2,10.7c1.6,3.6,2.7,7.3,3.2,11.2
			c1,5.8,0.2,27.7,0.2,27.7s-4.2,2-11.9,2s-11.5-2.1-11.5-2.1S625.8,54.3,627,50z"/>
		<path class="st3" d="M634.2,60.7c3.1,0,6.2-0.1,9.3-0.1c1.5,0,2.9,0,4.4,0h1.4c0-1,0-2,0-2.9c-3.1,0.1-6.3-0.1-9.4-0.3
			c-4.5-0.2-9-0.6-13.6-0.9c-0.1,1.3-0.1,2.7-0.2,4.2C628.8,60.8,631.5,60.7,634.2,60.7z"/>
		<path class="st3" d="M645,75.9c-0.7-0.1-1.7-0.4-2.2,0.2c-0.3,0.4-0.7,0.7-1.1,0.9c-1.2,0.3-2.4,0-3.4-0.7c-0.5,0.5-1.3,0.8-2,0.7
			c-0.8-0.1-1.6-0.5-2.2-1c-1.6,1.2-3.9,0.9-5.3-0.6c-1,0.3-2.1,0.3-3.1,0c0,2.1,0,3.5,0,3.5s3.8,2.1,11.5,2.1s11.9-2,11.9-2
			s0-1.1,0.1-2.8C647.8,76.3,646.3,76.2,645,75.9z"/>
		<path class="st4" d="M648.8,51.3c-0.5-3.9-1.6-7.7-3.2-11.2c-1.9-3.8-1.5-10.6-7.2-10.7s-7,5.4-7.4,9.5s-2.8,6.8-4,11.1
			s-1.3,28.9-1.3,28.9s2.8,1.5,8.4,1.9c0.1-3.3,0.3-9.9,0.2-14.7c-0.1-6.7-0.4-16.3-1.2-19.8c-0.5-2.6-0.6-5.2-0.5-7.9
			c-0.1-0.4,0.2-1.3,0.4-1.8c0.8-3,4.5-2.4,6.6-1.1c1.9,1.1,3.2,2.8,3.8,4.9c0.1,0.3,0.2,0.5,0.2,0.8c0.5,4.2-1,9.3-1.5,18
			c-0.4,6.6-0.1,16.1,1,21.2c2.1-0.3,4.1-0.8,6-1.6C649,78.9,649.7,57,648.8,51.3z"/>
		<path class="st5" d="M643.1,37.5c0,3.3-2.4,6-5.3,6s-5.3-2.7-5.3-6s2.4-6,5.3-6S643.1,34.2,643.1,37.5z"/>
		<path class="st6" d="M632.5,37.9c0,0,1.3,3.4,2.8,3.5s1.6,0.7,2.7,0.8s2-0.9,2.7-1.1c1.2-0.3,2.4-2.7,2.4-2.7l0.5,2.1
			c0.2,0.7,0.1,1.4-0.3,2c-0.2,0.2,0.2,1-0.2,2.3c-0.3,0.9-0.8,1-0.8,1s0,0.6-1.3,1.2s-1.6,0.2-1.6,0.2c-0.6,0.7-1.6,1.1-2.5,0.8
			c-1.5-0.4-1.6-0.8-1.6-0.8s-1.2-0.1-1.4-0.7c-0.2-0.3-0.3-0.7-0.3-1c0,0-0.7-0.1-0.8-1c-0.1-0.6-0.1-1.1,0-1.7
			c-0.4-0.3-0.7-0.8-0.6-1.3C632.3,40.4,632.5,37.9,632.5,37.9z"/>
		<path class="st6" d="M638,39.9c-0.3-0.2-0.7-0.2-1.1-0.1c-0.4,0.1-0.8,0.4-0.9,0.8c0,0-0.3-0.2-0.9,0.2c-0.3,0.2-0.5,0.7-0.3,1.1
			c0.5,0,1,0,1.4,0c0.3-0.3,0.6-0.7,0.8-1.1c0.2,0.1,0.4,0.1,0.5,0c0.1-0.1,0.2-0.2,0.3-0.3L638,39.9z"/>
		<path class="st6" d="M637.9,39.9c0.3-0.2,0.7-0.2,1.1-0.1c0.4,0.1,0.8,0.4,0.9,0.8c0,0,0.3-0.2,0.9,0.2c0.3,0.2,0.5,0.7,0.3,1.1
			c-0.5,0-1,0-1.4,0c-0.3-0.3-0.6-0.7-0.8-1.1c-0.2,0.1-0.4,0.1-0.5,0c-0.1-0.1-0.3-0.2-0.3-0.3L637.9,39.9z"/>
		<path class="st7" d="M638.3,54.5c-1.5,0.4-2.9,1.3-3.8,2.6c-1.5,2.3-1.3,5.3,0.7,7.2c1.8,1.6,7.6,2.1,7.8-3.2s-2.8-6.6-2.8-6.6
			l1.2-2.4h-1l-0.4-0.9l-0.8,0.7l-0.9-0.7l-0.3,0.8h-1L638.3,54.5z"/>
		<path class="st8" d="M633.9,59.6c0,0,1.6,0.3,1.5,0.9S635,61,635,61s0.9,0.2,0.4,1.4s-2.9-1-2.9-1L633.9,59.6z"/>
		<path class="st4" d="M630.5,46c-1.3,2.4-2.3,4.9-3,7.5c-0.8,3.6,1.4,6.1,2.5,7.5c0.9,0.9,2,1.6,3.2,2c0.8-1.3,1.6-2.6,2.3-4
			c-0.1-0.2-4.5-3.7-4.6-5.1s1.8-5.9,1.5-7S630.5,46,630.5,46z"/>
		<path class="st8" d="M643,59.1c0,0-1.6,0.3-1.5,0.9s0.4,0.6,0.4,0.6s-0.9,0.2-0.4,1.4s2.9-1,2.9-1L643,59.1z"/>
		<path class="st4" d="M646.3,45.6c1.3,2.4,2.3,4.9,3,7.5c0.8,3.6-1.4,6.1-2.5,7.5c-0.9,0.9-1.9,1.6-3.2,2c-0.8-1.3-1.6-2.6-2.3-4
			c0.1-0.2,4.5-3.7,4.6-5.1s-1.8-5.9-1.5-7S646.3,45.6,646.3,45.6z"/>
		<path class="st4" d="M630.9,36.8c0.4-1.8,1.1-3.4,2-5c1.2-1.8,3.1-2.8,5.3-2.8c2.3-0.1,4.4,1.3,5.2,3.4c1,2.6,1.5,4.7,1.7,5
			s0.3,0.4,0.3,0.4c-2.1-0.9-4.4-1.4-6.7-1.4C636,36.4,633.4,36.5,630.9,36.8z"/>
		<path class="st9" d="M633.5,32.5l-1.3-4.2l1.3,0.9l1.1-1.9l1.7,1.2l1.3-1.4l1.5,1.3l2-1.3l0.7,1.7l1.8-1l-1.4,4.8
			c-1.5-0.5-3-0.8-4.5-0.7C636.2,31.7,634.8,32,633.5,32.5z"/>
		<path class="st10" d="M670.9,52.8c1.1-3.9,3.2-6.2,3.6-10s1.5-8.6,6.6-8.5s4.8,6.2,6.5,9.6c1.4,3.2,2.4,6.5,2.8,10
			c0.9,5.2,0.2,24.8,0.2,24.8s-3.8,1.8-10.7,1.8s-10.3-1.9-10.3-1.9S669.8,56.8,670.9,52.8z"/>
		<path class="st11" d="M690.5,54c-0.5-3.5-1.4-6.8-2.8-10c-1.7-3.4-1.3-9.5-6.5-9.6s-6.3,4.8-6.6,8.5s-2.5,6.1-3.6,10
			s-1.2,25.9-1.2,25.9c2.4,1.1,4.9,1.6,7.5,1.8c0.1-3,0.2-8.9,0.2-13.2c-0.1-6-0.4-14.6-1.1-17.7c-0.4-2.3-0.6-4.7-0.5-7.1
			c-0.1-0.3,0.2-1.1,0.3-1.6c0.8-2.7,4.1-2.1,5.9-1c1.7,1,2.9,2.5,3.4,4.4c0.1,0.2,0.2,0.5,0.2,0.8c0.4,3.8-0.9,8.3-1.4,16.1
			c-0.4,5.9-0.1,14.4,0.9,19c1.8-0.2,3.7-0.7,5.4-1.4C690.7,78.9,691.3,59.2,690.5,54z"/>
		<path class="st12" d="M685.4,41.7c0,3-2.1,5.4-4.8,5.4s-4.8-2.4-4.8-5.4s2.1-5.4,4.8-5.4S685.4,38.7,685.4,41.7z"/>
		<path class="st6" d="M685.4,42c0,0,0.5,3.8,0.5,4.2c0,0.3-0.2,0.6-0.5,0.8c0,0,0.3,1.1,0,1.5c-0.1,0.2-0.4,0.4-0.7,0.4
			c0,0-0.2,0.8-0.6,0.9c-0.3,0.1-0.6,0.1-0.9,0c-0.4,0.7-1.1,1.1-1.9,1.1c-1.4,0.1-1.7-0.8-1.7-0.8s-0.2,0.3-1,0.1S678,49,678,49
			c-0.4,0-0.8-0.1-1.1-0.3c-0.3-0.3-0.3-1.5-0.3-1.5s-0.4,0.3-0.7-0.4s0-4.4,0-4.4c1,1.6,2.6,2.7,4.4,3.1
			C683.1,45.9,685.4,42,685.4,42z"/>
		<path class="st11" d="M678.9,37.3c1.4,0.3,2.8,0.9,3.9,1.8c1.1,0.9,2,2,2.7,3.3c0.2-1,0.3-1.9,0.4-2.9c-0.1-1.1-0.5-2.1-0.9-3.1
			c0.6-0.5,1.1-1,1.5-1.5c0.1-0.3-2.1-1.1-4.5-0.9s-3.9,0.4-5.7,2.9c-1.1,1.6-1.7,3.4-1.7,5.4c0.7-1.1,1.4-2.1,2.2-3.1
			C677.4,38.4,678.1,37.8,678.9,37.3z"/>
		<path class="st12" d="M689.1,63.3c0,0-0.3,1.6,0.2,1.7s0.7-0.1,0.7-0.1s-0.2,0.9,1.1,0.9s0.2-3,0.2-3L689.1,63.3z"/>
		<path class="st11" d="M688.2,64.2c0,0-3.1-13.7-1-13.9s5.5,12.4,5.5,12.4s-0.3,0.7-2,1.2C690,64.2,689.1,64.3,688.2,64.2z"/>
		<path class="st12" d="M674.4,63.3c0,0,0.3,1.6-0.2,1.7s-0.7-0.1-0.7-0.1s0.2,0.9-1.1,0.9s-0.2-3-0.2-3L674.4,63.3z"/>
		<path class="st11" d="M670.7,63.8c0,0,1.5-14,3.5-13.5s1.3,13.5,1.3,13.5s-0.5,0.6-2.3,0.5C672.3,64.3,671.4,64.1,670.7,63.8z"/>
		<path class="st13" d="M711.5,49.1c1.1-4.2,3.4-6.6,3.8-10.6s1.6-9.2,7.1-9.1s5.1,6.6,6.8,10.2c1.5,3.4,2.5,7,3,10.7
			c0.9,5.5,0.2,26.4,0.2,26.4s-4,1.9-11.3,1.9s-10.9-2-10.9-2S710.4,53.3,711.5,49.1z"/>
		<path class="st14" d="M711.8,57.8c3.1,2,6.8,3,10.5,2.7c3.4-0.2,6.9-0.8,10.2-1.6v0.9c-3.6,1.1-7.4,1.6-11.1,1.8
			c-3.4,0-6.7-0.9-9.6-2.6l-0.4-1.1"/>
		<path class="st10" d="M723,72c3.3,0.2,6.6-0.4,9.7-1.6c0-0.5,0-1,0-1.5c-3.1,1.3-6.5,2-9.8,2.1c-2.5,0.1-5-0.2-7.4-0.8
			c-1.1-0.3-2.3-0.7-3.3-1.1l-1.8-0.9v1.1C714.4,71.1,718.7,72,723,72z"/>
		<path class="st10" d="M713,73.7c1.1,0.6,2.2,0.9,3.4,1c2.5,0.3,5,0.4,7.5,0.5c2.7,0.1,5.3-0.1,7.9-0.7l0.8-0.2c0-0.5,0-1.1,0-1.8
			c-3,1-6.2,1.5-9.4,1.4c-2.4,0-4.8-0.2-7.2-0.7c-1.9-0.5-3.9-1.1-5.7-1.8v0.5C711.3,72.4,712,73.1,713,73.7z"/>
		<path class="st10" d="M731.7,76.3c-2.7,0.5-5.4,0.7-8.1,0.6c-2.7,0-5.4-0.2-8.1-0.6c-1.2-0.1-2.4-0.5-3.4-1.1
			c-0.6-0.4-1.2-0.8-1.7-1.2c0,1.7,0,2.7,0,2.7s3.6,2,10.9,2s11.3-1.9,11.3-1.9s0-0.2,0-0.6L731.7,76.3z"/>
		<path class="st15" d="M732.3,50.4c-0.5-3.7-1.5-7.3-3-10.7c-1.8-3.6-1.4-10.1-6.8-10.2s-6.7,5.1-7.1,9.1s-2.7,6.4-3.8,10.6
			s-1.2,27.5-1.2,27.5c2.5,1.1,5.2,1.8,8,1.9c0.1-3.2,0.2-9.5,0.2-14c-0.1-6.4-0.4-15.5-1.2-18.9c-0.4-2.5-0.6-5-0.5-7.5
			c-0.1-0.4,0.2-1.2,0.4-1.7c0.8-2.8,4.3-2.3,6.3-1c1.8,1,3.1,2.7,3.7,4.7c0.1,0.3,0.2,0.5,0.2,0.8c0.5,4-0.9,8.8-1.5,17.2
			c-0.4,6.3-0.1,15.3,1,20.2c2-0.2,3.9-0.7,5.7-1.5C732.6,76.9,733.2,55.9,732.3,50.4z"/>
		<path class="st5" d="M727,37.2c0,3.2-2.3,5.7-5,5.7s-5.1-2.6-5.1-5.7s2.3-5.7,5.1-5.7S727,34.1,727,37.2z"/>
		<path class="st16" d="M721.5,40.7c0,0,0.1,0.3,0.4,0.4s0.5-0.4,0.5-0.4"/>
		<path class="st17" d="M721.9,39.4c0,0-0.3-0.4-1,0s-0.9,0.8-1.7,1c-0.4,0.1-0.8,0-1.1-0.3c0,0,0.1,1.4,1.2,1.4s2.5-1.3,2.5-1.3
			L721.9,39.4z"/>
		<path class="st17" d="M721.8,39.4c0,0,0.3-0.4,1,0s0.9,0.8,1.7,1c0.4,0.1,0.8,0,1.1-0.3c0,0-0.1,1.4-1.2,1.4s-2.5-1.3-2.5-1.3
			L721.8,39.4z"/>
		<path class="st17" d="M717,37.7l-0.2-0.2c0,1.6,0,3.1,0.1,4.7c0.3,3.1,2.9,5.9,5.4,5.6c1.7-0.4,3.1-1.6,3.7-3.2
			c0.7-2.2,1-4.5,0.8-6.8h-0.2c-0.2,1-0.7,1.8-1.5,2.4c-1.4,1.2-3.2,1.6-5,1.1C718.6,40.7,717.5,39.4,717,37.7z"/>
		<path class="st17" d="M721.8,32.9c0,0,0.1,0.7-1.2,1.7c-1.1,0.7-2.4,1.2-3.7,1.5c0,0,0.6-2.9,2.5-3.9s2.6-0.7,2.6-0.7
			s2.9,0.4,3.8,1.9s0.8,1.8,0.8,1.8c-0.7-0.5-1.5-1-2.4-1.3C722.4,33.1,721.8,32.9,721.8,32.9z"/>
		<path class="st18" d="M720.2,54.2c-1.1,0.2-2,1-2.2,2.1c-0.6,2,0.2,6.9,2.6,7.6s5,0.1,5.6-4.2s0-5.1-2-5.6
			C722.9,54,721.5,54,720.2,54.2z"/>
		<path class="st19" d="M718.1,58.6c0.6,1,2.2,1.1,3.2,1.1c1.7,0.1,3.5-0.2,5-1c0-0.2,0-0.4,0.1-0.6c-1.2,0.2-2.4,0.2-3.7,0.1
			c-1.7,0-3.4-0.5-4.8-1.4c-0.1,0.5-0.1,1.1-0.1,1.6C717.9,58.4,718,58.5,718.1,58.6z"/>
		<path class="st8" d="M718.1,58.3c0,0,1.5,0.3,1.4,0.8s-0.4,0.6-0.4,0.6s0.9,0.2,0.4,1.3s-2.7-0.9-2.7-0.9L718.1,58.3z"/>
		<path class="st15" d="M714.9,45.4c-1.3,2.2-2.2,4.7-2.9,7.1c-0.8,3.4,1.4,5.8,2.3,7.1c0.8,0.9,1.8,1.5,3,1.9
			c0.8-1.2,1.5-2.5,2.2-3.8c-0.1-0.2-4.3-3.5-4.4-4.9s1.7-5.6,1.4-6.7S714.9,45.4,714.9,45.4z"/>
		<path class="st8" d="M726.8,57.8c0,0-1.5,0.3-1.4,0.8s0.4,0.6,0.4,0.6s-0.9,0.2-0.4,1.3s2.7-0.9,2.7-0.9L726.8,57.8z"/>
		<path class="st15" d="M730,44.9c1.3,2.3,2.2,4.7,2.9,7.1c0.8,3.4-1.4,5.8-2.3,7.1c-0.8,0.9-1.8,1.6-3,1.9
			c-0.8-1.2-1.5-2.5-2.2-3.8c0.1-0.2,4.3-3.5,4.4-4.9s-1.7-5.6-1.4-6.7S730,44.9,730,44.9z"/>
		<path class="st19" d="M719.3,53.5l0.4,0.9c0.9,0.4,1.9,0.6,2.9,0.6c0.9,0,1.8-0.1,2.6-0.4l0.3-1.1L719.3,53.5z"/>
		<path class="st10" d="M726.8,34.7c0,0,0-0.4-1.7-1.2s-2.5-1.1-4.1-0.8s-4.1,2.8-4.1,2.8s0.6-4.3,4.6-4.6S726.8,34.7,726.8,34.7z"
			/>
	</g>
</g>
</svg>
