<svg xmlns="http://www.w3.org/2000/svg" viewBox="0 0 109 136.39"><defs><style>.cls-1{fill:#731921;}.cls-2{fill:#4bbf89;}.cls-3{fill:#f73;}.cls-4{fill:#6805f2;}.cls-5{fill:#80deea;}</style></defs><g id="Layer_2" data-name="Layer 2"><g id="Ventana_Casa1_Izquierda" data-name="Ventana Casa1 Izquierda"><polygon class="cls-1" points="0 28.39 5 136.39 109 103.39 103.75 0 8.5 26.07 0 28.39"/><path class="cls-2" d="M7,26.39S18.45,59.07,32.22,66.23l-14.11,2s9.34,6.79,14.11,8L23,81.55s-.58,5.88,9.19,13.36L26.1,99.09s10.69,13,15.3,12.67l-13,7.69s8.74,6.15,15.68,4.55L5,136.39l-5-108Z"/><circle class="cls-3" cx="13" cy="88.39" r="4.5"/><circle class="cls-3" cx="8" cy="42.39" r="4.5"/><circle class="cls-4" cx="22" cy="66.39" r="4.5"/><circle class="cls-4" cx="17" cy="117.39" r="4.5"/><circle class="cls-5" cx="27" cy="100.39" r="4.5"/></g></g></svg>