<svg xmlns="http://www.w3.org/2000/svg" viewBox="0 0 1280 555.97"><defs><style>.cls-1{fill:#80deea;}.cls-2{fill:#d9d6fc;}</style></defs><g id="Layer_2" data-name="Layer 2"><g id="Jardín"><path class="cls-1" d="M0,155s774-380,1280,50V475L1095,315,653,86,0,419Z"/></g><g id="Calle"><path class="cls-2" d="M954.68,146.25l33.21-20.45L941.94,86l-37.58,27.13C739.78,19.41,550.52,46.57,421,117.24h0L376,108l-57,33,41.08,16.07Q352,163.42,344.42,170c-29.33,25.6-62.85,50.06-97.21,72.58L202,203l-69,38L177,285.67C82.88,339.87,0,375.23,0,375.23v121S227.49,419,344.42,291C476,147,743,109,953,266s235,228,327,290V435C1188.25,373.12,1163.13,302.37,954.68,146.25Z"/></g></g></svg>