<svg xmlns="http://www.w3.org/2000/svg" viewBox="0 0 24.43 101.92"><defs><style>.cls-1{fill:#219750;}.cls-2{fill:#208c46;}</style></defs><g id="Layer_2" data-name="Layer 2"><g id="Ventana_Casa1_Izquierda" data-name="Ventana Casa1 Izquierda"><path class="cls-1" d="M17.25,3.24,15.71,1.7A3.29,3.29,0,0,0,14.28.92,7.9,7.9,0,0,0,12,.32a17.58,17.58,0,0,0-3-.28,21.25,21.25,0,0,0-3.19,0L4,.32a10.72,10.72,0,0,0-2.87.83l-.8.55a.8.8,0,0,0,0,1.24L1.82,4.47a3.42,3.42,0,0,0,1.43.79,8.73,8.73,0,0,0,2.24.6,18.65,18.65,0,0,0,3,.27,20,20,0,0,0,3.19,0l1.91-.23A11,11,0,0,0,16.44,5l.81-.55A.81.81,0,0,0,17.25,3.24Z"/><path class="cls-1" d="M16.48,12.43a4.78,4.78,0,0,0-2.06-1L12.8,11a23.63,23.63,0,0,0-4-.31H8a18.67,18.67,0,0,0-3.08.19,14.13,14.13,0,0,0-2.58.48,3.77,3.77,0,0,0-1.65.75,1.1,1.1,0,0,0-.69.9l.29.61a4.8,4.8,0,0,0,2.05,1L4,15.05a24.91,24.91,0,0,0,4,.32h.77a19.84,19.84,0,0,0,3.08-.2,14,14,0,0,0,2.57-.48,3.86,3.86,0,0,0,1.66-.75,1.14,1.14,0,0,0,.69-.89Z"/><path class="cls-1" d="M10.3,20.68c-1.39,0-8,0-8,2.32s6.93,2.32,8,2.32c1.39,0,8,0,8-2.32S11.37,20.68,10.3,20.68Z"/><path class="cls-1" d="M10.3,29.11c-1.39,0-8,0-8,2.32s6.93,2.32,8,2.32c1.39,0,8,0,8-2.32S11.37,29.11,10.3,29.11Z"/><ellipse class="cls-1" cx="11.83" cy="41.39" rx="8" ry="2.32"/><path class="cls-1" d="M20.27,50.17l-1.53-.76a7.6,7.6,0,0,0-2.06-.65A13.87,13.87,0,0,0,14,48.34a20,20,0,0,0-3.19,0,18.65,18.65,0,0,0-3,.27l-1.62.37a4.62,4.62,0,0,0-2,1l-.29.62a1.56,1.56,0,0,0,1.09,1.17l1.53.76a7.6,7.6,0,0,0,2.06.65,14,14,0,0,0,2.73.42,20,20,0,0,0,3.19,0,18.63,18.63,0,0,0,3-.27L19,53a4.7,4.7,0,0,0,2.06-1l.28-.62A1.56,1.56,0,0,0,20.27,50.17Z"/><path class="cls-1" d="M21.84,59.15a4.65,4.65,0,0,0-2.06-1l-1.61-.36a23.84,23.84,0,0,0-4-.32h-.77a18.68,18.68,0,0,0-3.08.2,12.74,12.74,0,0,0-2.58.48,3.93,3.93,0,0,0-1.65.74,1.12,1.12,0,0,0-.69.9l.29.62a4.89,4.89,0,0,0,2.05,1l1.62.36a24.91,24.91,0,0,0,4,.32h.77a18.68,18.68,0,0,0,3.08-.2,14,14,0,0,0,2.57-.48,3.81,3.81,0,0,0,1.66-.75,1.09,1.09,0,0,0,.69-.89Z"/><ellipse class="cls-1" cx="13.36" cy="72.02" rx="8" ry="2.32"/><path class="cls-1" d="M22.61,79.07a4.83,4.83,0,0,0-2.06-1l-1.62-.36a24.83,24.83,0,0,0-4-.32h-.76a19.76,19.76,0,0,0-3.08.2A14,14,0,0,0,8.47,78a3.77,3.77,0,0,0-1.65.75,1.09,1.09,0,0,0-.69.89c.09.21.19.41.28.62a4.7,4.7,0,0,0,2.06,1l1.62.37a24.82,24.82,0,0,0,4,.31h.76A17.7,17.7,0,0,0,18,81.8a12.52,12.52,0,0,0,2.57-.48,3.65,3.65,0,0,0,1.65-.74,1.12,1.12,0,0,0,.69-.9Z"/><path class="cls-1" d="M16.43,85.79c-1.4,0-8,0-8,2.32s6.92,2.32,8,2.32c1.39,0,8,0,8-2.32S17.5,85.79,16.43,85.79Z"/><ellipse class="cls-1" cx="15.66" cy="93.47" rx="8" ry="2.32"/><ellipse class="cls-1" cx="14.89" cy="99.6" rx="8" ry="2.32"/><path class="cls-2" d="M23.52,84a1.28,1.28,0,0,0-.95-.86,8,8,0,0,0-2.06-.65A13.87,13.87,0,0,0,17.79,82a24.06,24.06,0,0,0-6.17.24c-1.23.23-2.75.46-3.67,1.38L6.41,85.19a.63.63,0,0,0-.14.93,1.28,1.28,0,0,0,1,.86,7.84,7.84,0,0,0,2.06.65,13.87,13.87,0,0,0,2.72.42,24.06,24.06,0,0,0,6.17-.24c1.22-.23,2.75-.46,3.67-1.38l1.53-1.53A.63.63,0,0,0,23.52,84Z"/><path class="cls-2" d="M22.61,75.24a4.83,4.83,0,0,0-2.06-1,21.14,21.14,0,0,0-5.66-.68H13.36a19.84,19.84,0,0,0-3.08.2,14.29,14.29,0,0,0-2.58.48A3.82,3.82,0,0,0,6.05,75a1.09,1.09,0,0,0-.69.89l.29.62a4.67,4.67,0,0,0,2.05,1,20.84,20.84,0,0,0,5.66.68h1.53A17.7,17.7,0,0,0,18,78a12.52,12.52,0,0,0,2.57-.48,3.65,3.65,0,0,0,1.65-.74,1.12,1.12,0,0,0,.69-.9Z"/><path class="cls-2" d="M21.33,67.26l-4.42-1.37L19,65.18a3.77,3.77,0,0,0,1.65-.75.92.92,0,0,0,0-1.78A3.77,3.77,0,0,0,19,61.9a20.36,20.36,0,0,0-5.66-.68,18.31,18.31,0,0,0-5.66.68l-2.29.78a3.77,3.77,0,0,0-1.65.75.92.92,0,0,0,0,1.78,3.75,3.75,0,0,0,1.45.69c-.79.24-2.14.65-2.14,1.57s1.73,1.45,2.34,1.64L10,70.55a20,20,0,0,0,5.66.67,18.94,18.94,0,0,0,5.65-.67c.73-.25,2.35-.65,2.35-1.65S22,67.45,21.33,67.26Z"/><path class="cls-2" d="M21.8,54.48a3.42,3.42,0,0,0-1.43-.79,8.63,8.63,0,0,0-2.24-.6A24.53,24.53,0,0,0,12,52.86a13.3,13.3,0,0,0-4.78,1.07l-1.53.76a1.29,1.29,0,0,0-1,.87c-.24.31-.19.61.14.92a3.4,3.4,0,0,0,1.44.79,8.52,8.52,0,0,0,2.24.6,24.52,24.52,0,0,0,6.17.23A13.51,13.51,0,0,0,19.47,57L21,56.27a1.3,1.3,0,0,0,.95-.86A.63.63,0,0,0,21.8,54.48Z"/><path class="cls-2" d="M19,44.41a22.72,22.72,0,0,0-11.32,0l-3.06.77c-.55.14-2.34.73-2.34,1.64s1.79,1.49,2.34,1.64a22.57,22.57,0,0,0,11.31,0L19,47.7c.55-.14,2.34-.73,2.34-1.65S19.59,44.57,19,44.41Z"/><path class="cls-2" d="M18.78,35.41a4.83,4.83,0,0,0-2.06-1L15.1,34a24.83,24.83,0,0,0-4-.32H10.3a19.76,19.76,0,0,0-3.08.2,14,14,0,0,0-2.58.48A3.77,3.77,0,0,0,3,35.13,1.1,1.1,0,0,0,2.3,36l.28.62a4.7,4.7,0,0,0,2.06,1L6.26,38a24.82,24.82,0,0,0,4,.31h.76a17.7,17.7,0,0,0,3.09-.2,12.52,12.52,0,0,0,2.57-.48,3.65,3.65,0,0,0,1.65-.74,1.12,1.12,0,0,0,.69-.9Z"/><path class="cls-2" d="M16.84,24.41a3.77,3.77,0,0,0-1.65-.75,14,14,0,0,0-2.58-.48A18.61,18.61,0,0,0,9.53,23l-2.12.08a19,19,0,0,0-3.53.6l-1.26.47A1.58,1.58,0,0,0,1.53,25.3v.77a1.09,1.09,0,0,0,.69.89,3.81,3.81,0,0,0,1.66.75,14,14,0,0,0,2.57.48,19.84,19.84,0,0,0,3.08.2l2.13-.09a18.33,18.33,0,0,0,3.53-.59l1.25-.47a1.56,1.56,0,0,0,1.09-1.17V25.3A1.09,1.09,0,0,0,16.84,24.41Z"/><path class="cls-2" d="M17.25,18.56a4.83,4.83,0,0,0-2.06-1,21.14,21.14,0,0,0-5.66-.68H8a18.68,18.68,0,0,0-3.08.2,14.13,14.13,0,0,0-2.58.48,3.77,3.77,0,0,0-1.65.75,1.09,1.09,0,0,0-.69.89l.29.62a4.67,4.67,0,0,0,2.05,1A20.79,20.79,0,0,0,8,21.49H9.53a18.61,18.61,0,0,0,3.08-.2,12.49,12.49,0,0,0,2.58-.48,3.65,3.65,0,0,0,1.65-.74,1.12,1.12,0,0,0,.69-.9Z"/></g></g></svg>