<svg xmlns="http://www.w3.org/2000/svg" viewBox="0 0 75.77 22.25"><defs><style>.cls-1{fill:#219750;}.cls-2{fill:#1e8442;}</style></defs><g id="Layer_2" data-name="Layer 2"><g id="Ventana_Casa_1_Derecha" data-name="Ventana Casa 1 Derecha"><path class="cls-1" d="M33.37,8a2.74,2.74,0,0,0-1.46.41,3,3,0,0,0-2.75-1.94,3.3,3.3,0,0,0-3,2.32,3,3,0,0,0-2.75-1.94,2.82,2.82,0,0,0-1.54.45C21.41,5.78,20.4,4.6,18.82,4.6a2.91,2.91,0,0,0-1,.19,2.83,2.83,0,0,0-2.41-1.34,2.92,2.92,0,0,0-2.32,1.16,2.77,2.77,0,0,0-2.27-1.16c-1.62,0-2.69,1.25-3.19,2.87C7.82,3.65,6.73.77,4.27.77c-4.59,0-4.75,10-.18,10,1.63,0,2.69-1.25,3.2-2.87-.23,2.67.86,5.56,3.31,5.56a2.9,2.9,0,0,0,2.32-1.17,2.81,2.81,0,0,0,2.28,1.17,2.92,2.92,0,0,0,1-.2,2.84,2.84,0,0,0,2.41,1.34,2.76,2.76,0,0,0,1.54-.45c.46,1.56,1.47,2.75,3,2.75a3.3,3.3,0,0,0,3-2.32A3,3,0,0,0,29,16.51a2.74,2.74,0,0,0,1.46-.41A3,3,0,0,0,33.2,18C37.79,18,38,8,33.37,8Z"/><path class="cls-1" d="M62.1,10.72a2.79,2.79,0,0,0-1.62.51,2.91,2.91,0,0,0-2.59-1.66,2.8,2.8,0,0,0-1.34.34,2.87,2.87,0,0,0-2.49-1.48c-1.61,0-2.67,1.22-3.18,2.82a3.18,3.18,0,0,0-3-2.44,3,3,0,0,0-2.57,1.51,3.84,3.84,0,0,0-.42-.77A2.64,2.64,0,0,0,43.87,8.5,2,2,0,0,0,42.57,8l-.91.17a3.32,3.32,0,0,0-1.52,1.25l-.55,1A6.74,6.74,0,0,0,39.08,13v.39a5.07,5.07,0,0,0,.26,1.93A4.42,4.42,0,0,0,40,16.92a2.6,2.6,0,0,0,1.08,1,1.89,1.89,0,0,0,1.3.45l.91-.16A3.4,3.4,0,0,0,44.82,17l.14-.24a3,3,0,0,0,2.79,2c1.61,0,2.67-1.23,3.18-2.82a3.19,3.19,0,0,0,3,2.43,2.76,2.76,0,0,0,1.33-.33,2.89,2.89,0,0,0,2.5,1.48,2.78,2.78,0,0,0,1.62-.5,2.92,2.92,0,0,0,2.59,1.65C66.51,20.72,66.68,10.72,62.1,10.72Z"/><path class="cls-1" d="M71.29,11.49a2.82,2.82,0,0,0-2,.77c-4.55,0-4.71,10-.14,10a2.86,2.86,0,0,0,2-.76C75.7,21.44,75.86,11.49,71.29,11.49Z"/><path class="cls-2" d="M7.71,1.15c-2.52,0-2.66,10-.17,10S10.2,1.15,7.71,1.15Z"/><path class="cls-2" d="M13.46,3.06c-2.53,0-2.66,10-.17,10S16,3.06,13.46,3.06Z"/><path class="cls-2" d="M18.82,4.21c-2.53,0-2.66,10-.17,10S21.31,4.21,18.82,4.21Z"/><path class="cls-2" d="M23,6.51c-2.52,0-2.66,10-.17,10S25.52,6.51,23,6.51Z"/><path class="cls-2" d="M27.25,5.74c-2.53,0-2.67,10-.18,10S29.74,5.74,27.25,5.74Z"/><path class="cls-2" d="M39.12,7.66c-.69,0-1.19.74-1.52,1.81-.28-1.28-.79-2.19-1.54-2.19-2.53,0-2.67,10-.18,10,.69,0,1.19-.74,1.52-1.81.28,1.27.79,2.19,1.54,2.19C41.47,17.66,41.61,7.66,39.12,7.66Z"/><path class="cls-2" d="M53.67,8.81c-.6,0-1.06.56-1.39,1.42-.22-1.66-.78-2.95-1.67-2.95-2.53,0-2.67,10-.18,10,.6,0,1.06-.57,1.39-1.42.23,1.65.78,2.95,1.68,2.95C56,18.81,56.16,8.81,53.67,8.81Z"/><path class="cls-2" d="M61,9.19c-2.53,0-2.66,10-.18,10S63.44,9.19,61,9.19Z"/><path class="cls-2" d="M65.93,10.72c-2.53,0-2.67,10-.18,10S68.42,10.72,65.93,10.72Z"/><path class="cls-2" d="M74,11.49c-.59,0-1,.54-1.37,1.37-.3-.83-.73-1.37-1.31-1.37-2.53,0-2.66,10-.18,10,.59,0,1-.55,1.37-1.37.3.82.74,1.37,1.32,1.37C76.32,21.49,76.46,11.49,74,11.49Z"/><path class="cls-2" d="M2,0C-.56,0-.69,10,1.8,10S4.46,0,2,0Z"/></g></g></svg>