<svg xmlns="http://www.w3.org/2000/svg" viewBox="0 0 122.2 150.04"><defs><style>.cls-1{fill:#219750;}.cls-2{fill:#208c46;}</style></defs><g id="Layer_2" data-name="Layer 2"><g id="Ventana_Casa1_Izquierda" data-name="Ventana Casa1 Izquierda"><path class="cls-1" d="M25,27.83a19,19,0,0,0-5.66-.68,18.55,18.55,0,0,0-5.65.68c-.87.28-2.13.6-2.35,1.64-.1.51-.24,1-.39,1.51-.12,0-.25,0-.37,0a24.06,24.06,0,0,0-6.17.23A8.35,8.35,0,0,0,.72,32.56a2.12,2.12,0,0,0-.7,1.3,2,2,0,0,0,.29,1.22,2.85,2.85,0,0,0,1.47,1.43,8.31,8.31,0,0,0,2.35.77c.41.09.83.17,1.25.24-.34.07-.68.15-1,.24S1.9,38.51,2,39.4,3.6,40.83,4.38,41a20.75,20.75,0,0,0,5.66.68H13.1A19.68,19.68,0,0,0,18.76,41c.39-.12,2.48-.75,2.34-1.64S19.71,38,18.91,37.81a17.31,17.31,0,0,0,2-.25c1-.2,3.07-.41,3.67-1.39a20.16,20.16,0,0,0,2.71-6.7C27.5,28.59,25.32,27.93,25,27.83Z"/><path class="cls-1" d="M17.69,45.92l-2.3-1.53a8,8,0,0,0-2.06-.65,13.86,13.86,0,0,0-2.72-.41,23.21,23.21,0,0,0-6.17.23l-1.62.36a4.8,4.8,0,0,0-2,1c-.1.2-.19.41-.29.61a1.61,1.61,0,0,0,1.09,1.18l2.3,1.53a8,8,0,0,0,2.06.65,13.86,13.86,0,0,0,2.72.41,23.19,23.19,0,0,0,6.17-.23l1.62-.36a4.8,4.8,0,0,0,2-1l.29-.61A1.61,1.61,0,0,0,17.69,45.92Z"/><path class="cls-1" d="M18.52,54.87a4.81,4.81,0,0,0-2.06-1,21.19,21.19,0,0,0-5.66-.68H9.27a18.61,18.61,0,0,0-3.08.2,12.62,12.62,0,0,0-2.58.48A3.77,3.77,0,0,0,2,54.6a1.09,1.09,0,0,0-.69.89l.28.62a4.93,4.93,0,0,0,2.06,1,21.19,21.19,0,0,0,5.66.68H10.8a18.61,18.61,0,0,0,3.08-.2,14.13,14.13,0,0,0,2.58-.48,3.77,3.77,0,0,0,1.65-.75,1.09,1.09,0,0,0,.69-.89Z"/><path class="cls-1" d="M19.46,63.18a1.12,1.12,0,0,0-.69-.89,3.86,3.86,0,0,0-1.66-.75,19.62,19.62,0,0,0-5.65-.68,19.26,19.26,0,0,0-5.66.68L4.55,62a1.59,1.59,0,0,0-1.09,1.17c.25.77.49,1.54.74,2.31a1.13,1.13,0,0,0,.69.89,3.86,3.86,0,0,0,1.66.75,19.27,19.27,0,0,0,5.65.68,19.22,19.22,0,0,0,5.66-.68l1.25-.47a1.56,1.56,0,0,0,1.09-1.17C20,64.72,19.71,64,19.46,63.18Z"/><ellipse class="cls-1" cx="12.33" cy="73.11" rx="8" ry="2.32"/><path class="cls-1" d="M22.35,83.21l-1.54-1.53a3.42,3.42,0,0,0-1.43-.79,8.63,8.63,0,0,0-2.24-.6,18.65,18.65,0,0,0-3-.27,20,20,0,0,0-3.19,0l-1.91.23a11.12,11.12,0,0,0-2.87.84l-.81.55a.81.81,0,0,0,0,1.23l1.54,1.54a3.42,3.42,0,0,0,1.43.79,8.23,8.23,0,0,0,2.24.59,17.58,17.58,0,0,0,3,.28,21.25,21.25,0,0,0,3.19,0l1.91-.24A10.72,10.72,0,0,0,21.54,85l.81-.55A.82.82,0,0,0,22.35,83.21Z"/><ellipse class="cls-1" cx="12.33" cy="96.09" rx="8" ry="2.32"/><path class="cls-1" d="M20.41,103.62a3.77,3.77,0,0,0-1.65-.75,14.29,14.29,0,0,0-2.58-.48,18.68,18.68,0,0,0-3.08-.2l-2.13.08a19.3,19.3,0,0,0-3.53.6l-1.25.47a1.56,1.56,0,0,0-1.09,1.17V106a1.12,1.12,0,0,0,.69.9,3.76,3.76,0,0,0,1.65.74,12.62,12.62,0,0,0,2.58.48,18.61,18.61,0,0,0,3.08.2l2.13-.08a17.73,17.73,0,0,0,3.53-.6l1.25-.47A1.58,1.58,0,0,0,21.1,106v-1.53A1.09,1.09,0,0,0,20.41,103.62Z"/><path class="cls-1" d="M13.1,112.15c-1.39,0-8,0-8,2.32s6.93,2.32,8,2.32c1.39,0,8,0,8-2.32S14.17,112.15,13.1,112.15Z"/><ellipse class="cls-1" cx="15.4" cy="122.89" rx="8" ry="2.32"/><path class="cls-1" d="M20.81,130.7a4.78,4.78,0,0,0-2-1l-1.62-.36a23.84,23.84,0,0,0-4-.32h-.77a18.68,18.68,0,0,0-3.08.2,12.52,12.52,0,0,0-2.57.48,3.86,3.86,0,0,0-1.66.75,1.13,1.13,0,0,0-.69.89l.29.62a4.87,4.87,0,0,0,2.06,1l1.62.36a23.64,23.64,0,0,0,4,.32h.77a18.68,18.68,0,0,0,3.08-.2,14.29,14.29,0,0,0,2.58-.48,3.77,3.77,0,0,0,1.65-.75,1.09,1.09,0,0,0,.69-.89Z"/><ellipse class="cls-1" cx="14.63" cy="138.21" rx="8" ry="2.32"/><path class="cls-2" d="M21.94,40.81a3.77,3.77,0,0,0-1.65-.75L20,40a4.89,4.89,0,0,0,.86-1.83,21.19,21.19,0,0,0,.68-5.66V31a18.61,18.61,0,0,0-.2-3.08,14.13,14.13,0,0,0-.48-2.58,3.77,3.77,0,0,0-.75-1.65,1.09,1.09,0,0,0-.89-.69l-.62.28a4.7,4.7,0,0,0-1,2.06A20.79,20.79,0,0,0,16.91,31v1.53a17.65,17.65,0,0,0,.2,3.08,12.62,12.62,0,0,0,.48,2.58,3.71,3.71,0,0,0,.64,1.48l-.52-.07a18.61,18.61,0,0,0-3.08-.2l-2.13.09A18.46,18.46,0,0,0,9,40.06l-1.25.47A1.58,1.58,0,0,0,6.63,41.7v1.53a1.12,1.12,0,0,0,.69.9A3.65,3.65,0,0,0,9,44.87a12.74,12.74,0,0,0,2.58.48,17.65,17.65,0,0,0,3.08.2l2.13-.08a17.73,17.73,0,0,0,3.53-.6l1.25-.46a1.59,1.59,0,0,0,1.09-1.18V41.7A1.09,1.09,0,0,0,21.94,40.81Z"/><path class="cls-2" d="M20.05,50.28a4.83,4.83,0,0,0-2.06-1l-1.62-.36a24.83,24.83,0,0,0-4-.32h-.76a20,20,0,0,0-3.09.2,14,14,0,0,0-2.57.48A3.77,3.77,0,0,0,4.26,50a1.09,1.09,0,0,0-.69.89c.09.21.19.41.28.62a4.7,4.7,0,0,0,2.06,1l1.62.37a24.82,24.82,0,0,0,4,.31h.76a17.76,17.76,0,0,0,3.09-.2A12.52,12.52,0,0,0,18,52.53a3.65,3.65,0,0,0,1.65-.74,1.12,1.12,0,0,0,.69-.9Z"/><path class="cls-2" d="M20.05,57.94a4.83,4.83,0,0,0-2.06-1l-1.62-.36a24.83,24.83,0,0,0-4-.32h-.76a18.8,18.8,0,0,0-3.09.2,14,14,0,0,0-2.57.48,3.77,3.77,0,0,0-1.65.75,1.09,1.09,0,0,0-.69.89l.28.62a4.7,4.7,0,0,0,2.06,1l1.62.37a24.82,24.82,0,0,0,4,.31h.76a17.76,17.76,0,0,0,3.09-.2A12.52,12.52,0,0,0,18,60.19a3.65,3.65,0,0,0,1.65-.74,1.12,1.12,0,0,0,.69-.9Z"/><path class="cls-2" d="M20.75,65.51a3.31,3.31,0,0,0-1.43-.79,8.63,8.63,0,0,0-2.24-.6,24.53,24.53,0,0,0-6.17-.23L9,64.12A11.1,11.1,0,0,0,6.13,65L3.85,66.51a1.25,1.25,0,0,0-1,.86c-.24.31-.19.61.14.92a3.37,3.37,0,0,0,1.43.79,8.7,8.7,0,0,0,2.25.6,24.44,24.44,0,0,0,6.16.23l1.91-.23a10.88,10.88,0,0,0,2.87-.83L20,67.3a1.29,1.29,0,0,0,.95-.87C21.14,66.13,21.09,65.82,20.75,65.51Z"/><path class="cls-2" d="M20.12,75.82a1.3,1.3,0,0,0-.95-.86,8,8,0,0,0-2.06-.65,13.86,13.86,0,0,0-2.72-.41,24.06,24.06,0,0,0-6.17.23l-1.62.36a4.8,4.8,0,0,0-2,1L3.77,77a.63.63,0,0,0-.14.93,1.25,1.25,0,0,0,1,.86,7.73,7.73,0,0,0,2.06.65,13.76,13.76,0,0,0,2.72.42,24,24,0,0,0,6.16-.24l1.62-.36a4.93,4.93,0,0,0,2.06-1L20,76.75Q20.48,76.29,20.12,75.82Z"/><path class="cls-2" d="M21.58,88.57a4.93,4.93,0,0,0-2.06-1,21.14,21.14,0,0,0-5.66-.68H12.33a18.68,18.68,0,0,0-3.08.2,14,14,0,0,0-2.57.48A3.86,3.86,0,0,0,5,88.3a1.13,1.13,0,0,0-.69.89l.29.62a4.65,4.65,0,0,0,2.06,1,20.72,20.72,0,0,0,5.65.68h1.53a18.73,18.73,0,0,0,3.09-.2,12.52,12.52,0,0,0,2.57-.48,3.85,3.85,0,0,0,1.66-.74,1.13,1.13,0,0,0,.68-.9Z"/><path class="cls-2" d="M20.39,99a3.65,3.65,0,0,0-1.65-.74,19.73,19.73,0,0,0-5.66-.68,18.27,18.27,0,0,0-5.66.68L5.13,99a3.65,3.65,0,0,0-1.65.74,1.12,1.12,0,0,0-.69.9,1.09,1.09,0,0,0,.69.89,3.77,3.77,0,0,0,1.65.75,20.36,20.36,0,0,0,5.66.68,18.83,18.83,0,0,0,5.65-.68l2.3-.78a3.77,3.77,0,0,0,1.65-.75,1.1,1.1,0,0,0,.69-.89A1.12,1.12,0,0,0,20.39,99Z"/><path class="cls-2" d="M22.29,108.73l-3.83-1.52a16.57,16.57,0,0,0-4.78-1.06,23.18,23.18,0,0,0-6.17.23l-1.62.36a4.74,4.74,0,0,0-2,1l-.29.62a1.59,1.59,0,0,0,1.09,1.17l3.84,1.52a16.25,16.25,0,0,0,4.78,1.06,23.12,23.12,0,0,0,6.16-.23l1.62-.36a4.83,4.83,0,0,0,2.06-1l.28-.61A1.59,1.59,0,0,0,22.29,108.73Z"/><path class="cls-2" d="M23.09,118.74a12.94,12.94,0,0,0-4.78-1.07,23.18,23.18,0,0,0-6.17.23l-3.82.8c-.92.19-3,.49-3.68,1.39s.07,1.42.81,1.78a12.9,12.9,0,0,0,4.78,1.07,23.1,23.1,0,0,0,6.16-.23l3.83-.8c.91-.19,3-.49,3.67-1.39S23.83,119.1,23.09,118.74Z"/><path class="cls-2" d="M23.35,126.61a21.13,21.13,0,0,0-5.66-.67H13.1a20,20,0,0,0-5.66.67c-.55.17-2.34.71-2.34,1.65s1.73,1.46,2.34,1.64a21.19,21.19,0,0,0,5.66.68h4.59a20,20,0,0,0,5.66-.68c.56-.17,2.34-.71,2.34-1.64S24,126.79,23.35,126.61Z"/><path class="cls-2" d="M33,128.68c-.92,0-1.59,1.23-2,3-.42-1.35-1-2.23-1.82-2.23s-1.42,1-1.84,2.38a1.53,1.53,0,0,0-1.22-.85c-.95,0-1.63,1.3-2.05,3.16a3.42,3.42,0,0,0-.83-.36,8.3,8.3,0,0,0-2.25-.59c-.53-.09-1.06-.16-1.6-.21a1.26,1.26,0,0,0-.93-.47,1.18,1.18,0,0,0-.81.36,22.09,22.09,0,0,0-2.82.08l-1.91.24a10.62,10.62,0,0,0-2.87.83l-2.31,1.52c-.67.45-1.46.93-.8,1.79a3.42,3.42,0,0,0,1.43.79,8.23,8.23,0,0,0,2.24.59A24.75,24.75,0,0,0,16,139c-.25,4.44.57,9.52,2.48,9.52s2.82-5.77,2.42-10.38c.23-.08.46-.15.68-.25l2.16-1.42c-.44,4.63.34,10.52,2.4,10.52.81,0,1.43-.95,1.85-2.39a1.51,1.51,0,0,0,1.21.86c.93,0,1.6-1.23,2-3,.41,1.35,1,2.24,1.81,2.24C36.35,144.68,36.41,128.68,33,128.68Z"/><path class="cls-2" d="M30.42,27.71l-.36-1.62A4.83,4.83,0,0,0,29,24l-.76-.77a.63.63,0,0,0-.93-.14,1.3,1.3,0,0,0-.86.95,8,8,0,0,0-.65,2.06,13.15,13.15,0,0,0-.41,2.72L25.33,31a24.91,24.91,0,0,0,.32,4L26,36.64a4.8,4.8,0,0,0,1,2l.76.77a.63.63,0,0,0,.93.14,1.28,1.28,0,0,0,.86-1,7.84,7.84,0,0,0,.65-2.06,13.87,13.87,0,0,0,.42-2.72c0-.71.05-1.42.08-2.13A24.7,24.7,0,0,0,30.42,27.71Z"/><path class="cls-2" d="M40.5,22.53A14,14,0,0,0,40,20a3.77,3.77,0,0,0-.75-1.65,1.1,1.1,0,0,0-.89-.69l-.62.28a4.7,4.7,0,0,0-1,2.06,20.75,20.75,0,0,0-.68,5.66v1.53a17.65,17.65,0,0,0,.2,3.08,12.74,12.74,0,0,0,.48,2.58,3.65,3.65,0,0,0,.74,1.65,1.1,1.1,0,0,0,.9.69l.61-.29a4.8,4.8,0,0,0,1-2,21.19,21.19,0,0,0,.68-5.66V25.62A20,20,0,0,0,40.5,22.53Z"/><path class="cls-2" d="M50.34,20.81,50,19.19a4.67,4.67,0,0,0-1-2.05l-.77-.77a.62.62,0,0,0-.92-.14,1.25,1.25,0,0,0-.86.95,7.49,7.49,0,0,0-.65,2.06A13.87,13.87,0,0,0,45.33,22c0,.71-.06,1.42-.08,2.13a24.7,24.7,0,0,0,.31,4c.12.54.25,1.08.37,1.62a4.7,4.7,0,0,0,1,2.06l.77.77a.62.62,0,0,0,.92.14,1.26,1.26,0,0,0,.86-.95,7.6,7.6,0,0,0,.65-2.06A13.87,13.87,0,0,0,50.57,27c0-.71.06-1.42.08-2.13A24.9,24.9,0,0,0,50.34,20.81Z"/><path class="cls-2" d="M59.64,18.71a12.49,12.49,0,0,0-.48-2.58,3.65,3.65,0,0,0-.74-1.65,1.1,1.1,0,0,0-.9-.69l-.61.28a4.83,4.83,0,0,0-1,2.06,21.14,21.14,0,0,0-.68,5.66v1.53a19.84,19.84,0,0,0,.2,3.08A14.29,14.29,0,0,0,55.88,29a3.77,3.77,0,0,0,.75,1.65,1.1,1.1,0,0,0,.89.69l.62-.29a4.67,4.67,0,0,0,1-2.05,20.79,20.79,0,0,0,.68-5.66V21.79A17.59,17.59,0,0,0,59.64,18.71Z"/><path class="cls-2" d="M66.54,15.64a14,14,0,0,0-.48-2.57,3.86,3.86,0,0,0-.75-1.66,1.13,1.13,0,0,0-.89-.69L63.8,11a4.65,4.65,0,0,0-1,2.06c-.12.54-.24,1.08-.37,1.62a24.7,24.7,0,0,0-.31,4v.77a18.68,18.68,0,0,0,.2,3.08,12.74,12.74,0,0,0,.48,2.58,3.76,3.76,0,0,0,.74,1.65,1.12,1.12,0,0,0,.9.69L65,27.2a4.8,4.8,0,0,0,1-2.05l.36-1.62a24.91,24.91,0,0,0,.32-4v-.77A18.68,18.68,0,0,0,66.54,15.64Z"/><path class="cls-2" d="M71.31,10c-3.33,0-3.39,16,0,16S74.7,10,71.31,10Z"/><path class="cls-2" d="M80.5,7.66c-1,0-1.7,1.44-2.11,3.46-.41-1.18-1-1.93-1.72-1.93-3.33,0-3.39,16,0,16,1,0,1.71-1.44,2.11-3.46.42,1.18,1,1.93,1.72,1.93C83.84,23.66,83.9,7.66,80.5,7.66Z"/><path class="cls-2" d="M88.16,6.13c-3.33,0-3.39,16,0,16S91.56,6.13,88.16,6.13Z"/><path class="cls-2" d="M121.92,17.34c-.86-.93-2.54-1.16-3.68-1.39l-3.83-.76a21.09,21.09,0,0,0-5-.3,13.09,13.09,0,0,0,1.07-4.6c.66,0,1.17,0,1.41,0,1.39,0,8,0,8-2.32s-6.93-2.32-8-2.32c-.29,0-.79,0-1.4,0-.26-3.1-1.07-5.7-2.43-5.7s-2.27,3-2.47,6.39a3.91,3.91,0,0,0-1.19.63c-.21-3.34-1-6.25-2.47-6.25-1.17,0-1.93,2-2.29,4.52-.39-.9-.91-1.46-1.54-1.46-.81,0-1.43,1-1.85,2.39a1.51,1.51,0,0,0-1.21-.86c-3.34,0-3.4,16,0,16,.81,0,1.42-.95,1.84-2.38a1.53,1.53,0,0,0,1.22.85c1.17,0,1.93-2,2.29-4.53.39.91.91,1.47,1.54,1.47,1.64,0,2.48-3.86,2.52-7.78a4.25,4.25,0,0,0,1.13.57,13.13,13.13,0,0,0,1.23,5.54,9,9,0,0,0-3.36.92c-.63.37-1.55,1-.81,1.79s2.54,1.16,3.68,1.38l3.83.77a22.71,22.71,0,0,0,6.16.23,12.36,12.36,0,0,0,4.78-1.06C121.74,18.76,122.66,18.15,121.92,17.34Z"/><path class="cls-2" d="M38.38,127.91c-3.34,0-3.4,16,0,16S41.77,127.91,38.38,127.91Z"/><path class="cls-2" d="M44.5,124.09c-3.33,0-3.39,16,0,16S47.9,124.09,44.5,124.09Z"/><path class="cls-2" d="M51.4,122.55c-3.34,0-3.4,16,0,16S54.79,122.55,51.4,122.55Z"/><path class="cls-2" d="M62.12,119.49c-1.3,0-2.1,2.44-2.39,5.41-.39-2.23-1.12-3.88-2.21-3.88-3.33,0-3.39,16,0,16,1.31,0,2.11-2.44,2.4-5.41.38,2.23,1.11,3.88,2.2,3.88C65.45,135.49,65.51,119.49,62.12,119.49Z"/><path class="cls-2" d="M67.48,118.72c-3.33,0-3.39,16,0,16S70.88,118.72,67.48,118.72Z"/><path class="cls-2" d="M75.91,114.89c-3.34,0-3.4,16,0,16S79.3,114.89,75.91,114.89Z"/><path class="cls-2" d="M95.06,109.53c-.93,0-1.6,1.23-2,3-.42-1.35-1-2.24-1.82-2.24-.63,0-1.13.56-1.53,1.46-.39-.9-.9-1.46-1.54-1.46-1.17,0-1.93,2-2.29,4.53-.39-.91-.9-1.47-1.54-1.47-3.33,0-3.39,16,0,16,1.17,0,1.94-2,2.29-4.53.4.91.91,1.47,1.54,1.47s1.13-.56,1.53-1.47c.39.91.9,1.47,1.54,1.47.92,0,1.59-1.23,2-3,.42,1.35,1,2.24,1.82,2.24C98.39,125.53,98.45,109.53,95.06,109.53Z"/><path class="cls-2" d="M103.48,106.47c-3.33,0-3.39,16,0,16S106.88,106.47,103.48,106.47Z"/><path class="cls-2" d="M116.5,100.34c-.92,0-1.59,1.23-2,3-.41-1.35-1-2.23-1.82-2.23-1,0-1.64,1.32-2,3.21-2.81,1.6-2.68,15.85.52,15.85,1,0,1.65-1.33,2.06-3.21a4.52,4.52,0,0,0,1.48-2.87c.42,1.36,1,2.25,1.82,2.25C119.84,116.34,119.9,100.34,116.5,100.34Z"/><path class="cls-1" d="M33,20.68c-3.33,0-3.39,16,0,16S36.41,20.68,33,20.68Z"/><path class="cls-1" d="M43.74,15.32c-3.34,0-3.4,16,0,16S47.13,15.32,43.74,15.32Z"/><path class="cls-1" d="M52.16,13.79c-3.33,0-3.39,16,0,16S55.56,13.79,52.16,13.79Z"/><path class="cls-1" d="M62.12,11.49c-3.33,0-3.39,16,0,16S65.51,11.49,62.12,11.49Z"/><path class="cls-1" d="M69,9.19c-3.33,0-3.39,16,0,16S72.41,9.19,69,9.19Z"/><path class="cls-1" d="M85.1,5.36c-3.33,0-3.39,16,0,16S88.49,5.36,85.1,5.36Z"/><path class="cls-1" d="M79,6.13c-3.33,0-3.39,16,0,16S82.36,6.13,79,6.13Z"/><path class="cls-1" d="M92.76,3.83c-3.33,0-3.39,16,0,16S96.15,3.83,92.76,3.83Z"/><path class="cls-1" d="M105,3.06c-3.33,0-3.39,16,0,16S108.41,3.06,105,3.06Z"/><path class="cls-1" d="M21.52,134c-3.33,0-3.39,16,0,16S24.92,134,21.52,134Z"/><path class="cls-1" d="M42.21,125.62c-1.38,0-2.2,2.72-2.44,5.91-.4-2.1-1.12-3.62-2.16-3.62-3.33,0-3.39,16,0,16,1.37,0,2.19-2.72,2.44-5.91.39,2.1,1.11,3.62,2.16,3.62C45.54,141.62,45.6,125.62,42.21,125.62Z"/><path class="cls-1" d="M48.33,124.09c-3.33,0-3.39,16,0,16S51.73,124.09,48.33,124.09Z"/><path class="cls-1" d="M56.76,121.79c-3.33,0-3.39,16,0,16S60.15,121.79,56.76,121.79Z"/><path class="cls-1" d="M66,119.49c-3.33,0-3.39,16,0,16S69.34,119.49,66,119.49Z"/><path class="cls-1" d="M72.84,115.66c-3.33,0-3.39,16,0,16S76.24,115.66,72.84,115.66Z"/><path class="cls-1" d="M80.5,112.6c-3.33,0-3.39,16,0,16S83.9,112.6,80.5,112.6Z"/><path class="cls-1" d="M99.65,109.53c-3.33,0-3.39,16,0,16S103.05,109.53,99.65,109.53Z"/><path class="cls-1" d="M108.08,104.17c-3.34,0-3.4,16,0,16S111.47,104.17,108.08,104.17Z"/></g></g></svg>