<svg xmlns="http://www.w3.org/2000/svg" viewBox="0 0 268.54 601.58"><defs><style>.cls-1{fill:#2d1140;}.cls-2{fill:#f73;}.cls-3{fill:#b53f0b;}.cls-4{fill:#f9b170;}.cls-5{fill:#181339;}.cls-6{fill:#f23030;}.cls-7{fill:#fff;}.cls-8{fill:#a6d7ff;}.cls-9{fill:#f2ac29;}.cls-10{fill:#17133c;}.cls-11{fill:#16113e;}.cls-12{fill:#fa9290;}.cls-13{fill:#dd7017;}</style></defs><g id="Layer_2" data-name="Layer 2"><g id="Niña"><path class="cls-1" d="M65.54,572.33l29,15s1,12-3,13-57,3-56-2,8-13,18-13S66,578.83,65.54,572.33Z"/><path class="cls-1" d="M179.13,558.53l28.48-16s10.57,5.77,9.2,9.66S188,601.47,184.33,597.89s-6.45-13.84-1-22.19S184.83,561.69,179.13,558.53Z"/><path class="cls-2" d="M50.93,565.33,98,589.83l33-107,48.09,81.07,32.69-21.33L150,422.83l35.23-100s30.9-24.72,16.34-67.36l-83.75-3.18S80,378.83,84,395.83s15,33,15,33Z"/><path class="cls-3" d="M147.53,253.31l-5.95,21.32c-3.92-5.08-3.54-21.39-3.54-21.57l-1,0c0,.76-.42,17.92,4.21,22.75L98.56,428.69l1,.27,49-175.38Z"/><rect class="cls-3" x="109.07" y="452.33" width="62.94" height="1" transform="translate(-333.59 449.7) rotate(-72.38)"/><path class="cls-4" d="M153,14.83S123,69,153,83.39l8.23,2.81s6.56,8.93,8.17,7.28,16.85,0,16.85,0L193,66.83s11,5,13-5,0-14.18,0-14.18l-12.6,6.61L197,20.83Z"/><path class="cls-5" d="M227.65,102.55c-34.4-18.28-27.07-27.22-27.07-27.22,20.55-9.5,15.83-21.07,15.83-21.07-2.62-50.58-40.14-41.85-40.14-41.85S144,4.83,142,26.2s-22.57,17.36-22.57,17.36c-51.58,12.74,2.06,65.13,2.06,65.13S214,141.83,216,151.83,262,120.83,227.65,102.55ZM193,66.83,188.13,86.2l-14.81,16.35L153,83.39C137,73,143.68,37,143.68,37c16.63,6.2,37-14.41,37-14.41C179.39,30.42,191,38.83,191,38.83l-3.73,23.76h4.08s2.65-11.76,8.73-11.84S211,50.83,206,61.83,193,66.83,193,66.83Z"/><path class="cls-6" d="M168.91,6.29l42.91,59.23S239,79,256.24,58.17l-2-3.91s-16-4.49-16.85-16.21S223.27-15.76,168.91,6.29Z"/><circle class="cls-7" cx="261.04" cy="53.83" r="7.5"/><path class="cls-7" d="M214.25,52.18A95.69,95.69,0,0,0,185.5,9.27C179.39,4.07,170.75-.48,163.25,5a10.77,10.77,0,0,0-2.1,2.07,11.49,11.49,0,0,0-4,4.73c-1.19,2.65-.09,4.59,2.23,6.1,4.22,2.72,9,4.47,13.34,7.11,15.11,9.29,19.3,27.26,27.91,41.63,3,4.94,7.75,11.69,14.26,7.07C221,69.4,216,57.65,214.25,52.18ZM180,13.77c-.15-.33-.31-.66-.47-1,.33.3.65.61,1,.91Z"/><path class="cls-7" d="M153,83.39s20.18,4.18,35.09,2.81,3.77,14.33,3.77,14.33,28.1-8,29.62,22.13l-6.13,42.56,2.44,66.27s-4,13.78-10.9,14.56v12.33l-93.66-2V243.92s-17.19,0-9.71-20.56,9.08-34.55-10.72-29.54-21,18.54-41.91-15.23S18.84,124.8,18.84,124.8l32.09-12.39,31.19,41,39.41-50.83S135,94.11,148,97C148,97,142,88,153,83.39Z"/><path class="cls-8" d="M172.5,109.66c-15.21,0-24.76-12.22-24.89-12.39l.8-.6c.71.93,17.78,22.7,43.21,5.46l.56.83C184.94,107.87,178.3,109.66,172.5,109.66Z"/><path class="cls-8" d="M96.59,193.54c-3-.54-4.94-1.95-5.79-4.18-3-8,9.29-23.78,9.82-24.45l.2-.26,72.05,17.77c3.42-38.2,24.54-68.81,24.75-69.12l.82.57c-.21.31-21.39,31-24.62,69.22l0,.58-.57-.14-72-17.75c-1.58,2.08-12.11,16.29-9.48,23.22.73,1.91,2.37,3.07,5,3.55Z"/><path class="cls-8" d="M175.36,224.67c-25.27,0-65.92-26.25-68-27.63l.55-.84c.63.41,63.83,41.23,81.57,22.52,17.94-18.91,25.54-49.21,25.62-49.51l1,.24c-.08.3-7.74,30.85-25.86,50C186.62,223.15,181.43,224.67,175.36,224.67Z"/><rect class="cls-6" x="10.62" y="70.66" width="101.73" height="77.99" transform="matrix(0.93, 0.36, -0.36, 0.93, 43.53, -14.77)"/><polygon class="cls-9" points="80.69 78.67 101.85 71.94 98.43 61.17 72.44 69.43 60.53 48.99 50.77 54.68 63.4 76.37 37.97 142.39 53.79 148.48 80.69 78.67"/><path class="cls-4" d="M66.5,153.38s-5.41,18.48,24.32,25.21L101,165.22s-1.42-24.65-3.94-23.77-1.91,11.31-3.72,14.6S89.46,165.43,66.5,153.38Z"/><circle class="cls-10" cx="174.54" cy="46.33" r="2.5"/><circle class="cls-11" cx="157.54" cy="43.33" r="2.5"/><ellipse class="cls-12" cx="150.54" cy="54.33" rx="4" ry="5" transform="translate(74.84 195.34) rotate(-81.61)"/><ellipse class="cls-12" cx="176.94" cy="56.45" rx="5" ry="4" transform="translate(-4.9 18.68) rotate(-5.96)"/><path class="cls-13" d="M161.46,57a.65.65,0,0,1-.2,0c-2.42-1-3.71-2.4-3.81-4-.25-3.7,5.79-7.32,6.05-7.47a.51.51,0,0,1,.69.17.51.51,0,0,1-.18.69c-1.61,1-5.73,4-5.57,6.55.09,1.23,1.17,2.3,3.21,3.18a.49.49,0,0,1,.27.65A.51.51,0,0,1,161.46,57Z"/><path class="cls-7" d="M155,62.59a15.79,15.79,0,0,0,13.87,1.14c8.13-2.9,4.13,9.1-.87,8.1S146,70.35,155,62.59Z"/></g></g></svg>